<svg width="322" height="321" viewBox="0 0 322 321" fill="none" xmlns="http://www.w3.org/2000/svg">
<path d="M134.616 317.482C127.667 305.487 98.0023 255.052 89.3219 253.703C80.8627 252.389 50.8017 303.386 42.6705 317.482H134.616Z" fill="#2E353A" stroke="#2E353A" stroke-linecap="round" stroke-linejoin="round"/>
<path d="M172.655 22.7842V139.091" stroke="#2E353A" stroke-width="3" stroke-linecap="round" stroke-linejoin="round"/>
<path d="M184.844 25.9062V139.091" stroke="#2E353A" stroke-width="3" stroke-linecap="round" stroke-linejoin="round"/>
<path d="M198.208 87.8433V197.474" stroke="#2E353A" stroke-width="3" stroke-linecap="round" stroke-linejoin="round"/>
<path d="M212.358 25.9062V197.474" stroke="#2E353A" stroke-width="3" stroke-linecap="round" stroke-linejoin="round"/>
<path d="M226.507 25.9062V142.213" stroke="#2E353A" stroke-width="3" stroke-linecap="round" stroke-linejoin="round"/>
<path d="M162.045 38.3766H226.904" stroke="#2E353A" stroke-width="3" stroke-linecap="round" stroke-linejoin="round"/>
<path d="M162.045 64.2256H232.381" stroke="#2E353A" stroke-width="3" stroke-linecap="round" stroke-linejoin="round"/>
<path d="M160.87 87.8433H239.085" stroke="#2E353A" stroke-width="3" stroke-linecap="round" stroke-linejoin="round"/>
<path d="M159.688 114.142H239.085" stroke="#2E353A" stroke-width="3" stroke-linecap="round" stroke-linejoin="round"/>
<path d="M174.623 142.654H234.761" stroke="#2E353A" stroke-width="3" stroke-linecap="round" stroke-linejoin="round"/>
<path d="M190.344 170.285H229.65" stroke="#2E353A" stroke-width="3" stroke-linecap="round" stroke-linejoin="round"/>
<path d="M86.8658 33.8278L100.741 46.1426" stroke="#2E353A" stroke-width="2" stroke-linecap="round" stroke-linejoin="round"/>
<path d="M114.616 20.8386L119.444 29.0455" stroke="#2E353A" stroke-width="2" stroke-linecap="round" stroke-linejoin="round"/>
<path d="M139.352 1L143.578 16.0475" stroke="#2E353A" stroke-width="2" stroke-linecap="round" stroke-linejoin="round"/>
<path d="M218.513 194.369H195.63V132.683H164.585V23.4329C151.501 23.5794 138.671 27.5392 127.326 34.9318C115.982 42.3244 106.506 52.9012 99.8092 65.6454C93.1121 78.3896 89.4192 92.8727 89.0854 107.703C88.7516 122.532 91.7881 137.21 97.9032 150.325C100.39 156.889 106.233 172.965 112.083 193.755C117.491 212.945 120.314 232.239 120.314 235.153C120.314 235.439 120.314 235.733 120.314 236.018C120.287 236.886 120.415 237.75 120.689 238.561C120.963 239.371 121.379 240.111 121.91 240.735C122.442 241.36 123.079 241.857 123.784 242.196C124.488 242.536 125.246 242.711 126.012 242.712H204.768C205.533 242.71 206.291 242.534 206.995 242.194C207.699 241.854 208.336 241.357 208.867 240.732C209.398 240.108 209.814 239.369 210.089 238.559C210.363 237.749 210.492 236.885 210.466 236.018C210.466 235.707 210.466 235.413 210.466 235.153C210.451 232.273 213.22 213.352 218.513 194.369Z" fill="#89B1FF" stroke="#2E353A" stroke-width="2" stroke-linecap="round" stroke-linejoin="round"/>
<path d="M138.735 37.3734C140.942 36.2451 143.206 35.2662 145.516 34.4418" stroke="#2E353A" stroke-width="2" stroke-linecap="round" stroke-linejoin="round"/>
<path d="M113.334 59.2875C113.334 59.2875 119.551 48.0451 133.212 40.4781" stroke="#2E353A" stroke-width="2" stroke-linecap="round" stroke-linejoin="round"/>
<path d="M114.967 183.75C117.796 194.231 121.542 208.751 122.838 216.863C125.035 230.544 123.601 237.618 128.33 238.837" stroke="#2E353A" stroke-width="2" stroke-linecap="round" stroke-linejoin="round"/>
<path d="M111.504 171.245C111.504 171.245 112.266 174.055 113.494 178.362" stroke="#2E353A" stroke-width="2" stroke-linecap="round" stroke-linejoin="round"/>
<path d="M160.558 241.873V159.198C160.558 159.198 163.609 137.578 153.693 137.578C143.777 137.578 144.539 148.82 155.981 160.927C167.423 173.035 184.966 161.792 187.255 152.279C189.543 142.767 183.441 138.443 179.627 146.226C175.813 154.009 179.627 242.219 179.627 242.219" stroke="#2E353A" stroke-width="2" stroke-linecap="round" stroke-linejoin="round"/>
<path d="M206.759 242.21H124.448V263.865H206.759V242.21Z" fill="white" stroke="#2E353A" stroke-width="2" stroke-linecap="round" stroke-linejoin="round"/>
<path d="M206.759 269.019H124.448V290.673H206.759V269.019Z" fill="white" stroke="#2E353A" stroke-width="2" stroke-linecap="round" stroke-linejoin="round"/>
<path d="M206.759 263.865H124.448V269.019H206.759V263.865Z" fill="#2E353A" stroke="#2E353A" stroke-linecap="round" stroke-linejoin="round"/>
<path d="M206.759 295.828H124.448V317.482H206.759V295.828Z" fill="white" stroke="#2E353A" stroke-width="2" stroke-linecap="round" stroke-linejoin="round"/>
<path d="M198.147 260.968H204.265" stroke="#2E353A" stroke-linecap="round" stroke-linejoin="round"/>
<path d="M127.682 260.968H195.203" stroke="#2E353A" stroke-linecap="round" stroke-linejoin="round"/>
<path d="M182.282 288.2H201.999" stroke="#2E353A" stroke-linecap="round" stroke-linejoin="round"/>
<path d="M139.902 288.2H180.016" stroke="#2E353A" stroke-linecap="round" stroke-linejoin="round"/>
<path d="M133.334 288.2H136.729" stroke="#2E353A" stroke-linecap="round" stroke-linejoin="round"/>
<path d="M206.759 290.673H124.448V295.828H206.759V290.673Z" fill="#2E353A" stroke="#2E353A" stroke-linecap="round" stroke-linejoin="round"/>
<path d="M163.342 300.575H135.165V317.206H163.342V300.575Z" fill="#89B1FF" stroke="#2E353A" stroke-linecap="round" stroke-linejoin="round"/>
<path d="M200.008 300.575H171.831V317.206H200.008V300.575Z" fill="#89B1FF" stroke="#2E353A" stroke-linecap="round" stroke-linejoin="round"/>
<path d="M225.355 317.482C219.955 312.112 196.896 289.532 190.184 288.944C183.609 288.347 160.268 311.187 153.952 317.482H225.355Z" fill="#2E353A" stroke="#2E353A" stroke-linecap="round" stroke-linejoin="round"/>
<path d="M314.379 317.482H321" stroke="#2E353A" stroke-linecap="round" stroke-linejoin="round"/>
<path d="M11.2975 317.482H307.758" stroke="#2E353A" stroke-linecap="round" stroke-linejoin="round"/>
<path d="M1 317.482H6.14874" stroke="#2E353A" stroke-linecap="round" stroke-linejoin="round"/>
<path d="M301.053 268.128H281.259V299.607H289.459H301.053H309.261V283.867L301.053 268.128Z" fill="#2E353A" stroke="#2E353A" stroke-linecap="round" stroke-linejoin="round"/>
<path d="M309.261 299.607H300.191V306.759H309.261V299.607Z" fill="white" stroke="#2E353A" stroke-linecap="round" stroke-linejoin="round"/>
<path d="M266.545 299.252C266.545 299.252 276.462 293.199 273.029 262.931L260.443 255.147L238.704 251.256L219.253 252.121V264.66C219.253 264.66 230.314 275.47 231.458 278.929C232.175 281.297 232.561 283.777 232.602 286.28V298.387L266.545 299.252Z" fill="#89B1FF" stroke="#2E353A" stroke-linecap="round" stroke-linejoin="round"/>
<path d="M273.029 262.931L266.545 299.252" stroke="#2E353A" stroke-linecap="round" stroke-linejoin="round"/>
<path d="M260.443 255.147L253.197 299.252" stroke="#2E353A" stroke-linecap="round" stroke-linejoin="round"/>
<path d="M238.704 251.256L233.365 284.118" stroke="#2E353A" stroke-linecap="round" stroke-linejoin="round"/>
<path d="M220.016 262.931C220.016 262.931 232.602 268.984 237.56 272.876C242.518 276.767 241.755 284.983 241.755 284.983" stroke="#2E353A" stroke-linecap="round" stroke-linejoin="round"/>
<path d="M281.435 299.832H222.297V305.453H281.435V299.832Z" fill="white" stroke="#2E353A" stroke-linecap="round" stroke-linejoin="round"/>
<path d="M293.243 285.415H305.592L298.963 272.443H293.243V285.415Z" fill="white" stroke="#2E353A" stroke-linecap="round" stroke-linejoin="round"/>
<path d="M291.336 272.443H285.996V285.415H291.336V272.443Z" fill="white" stroke="#2E353A" stroke-linecap="round" stroke-linejoin="round"/>
<path d="M258.612 299.607H222.609V309.353H258.612V299.607Z" fill="white" stroke="#2E353A" stroke-linecap="round" stroke-linejoin="round"/>
<path d="M292.719 317.324C296.836 316.481 299.57 312.014 298.826 307.347C298.083 302.68 294.143 299.58 290.026 300.423C285.91 301.266 283.175 305.733 283.919 310.4C284.663 315.068 288.603 318.168 292.719 317.324Z" fill="#2E353A" stroke="#2E353A" stroke-linecap="round" stroke-linejoin="round"/>
<path d="M291.359 313.911C293.798 313.911 295.775 311.669 295.775 308.904C295.775 306.138 293.798 303.896 291.359 303.896C288.919 303.896 286.942 306.138 286.942 308.904C286.942 311.669 288.919 313.911 291.359 313.911Z" fill="white" stroke="#2E353A" stroke-linecap="round" stroke-linejoin="round"/>
<path d="M234.342 317.342C238.461 316.515 241.209 312.059 240.48 307.389C239.751 302.719 235.82 299.604 231.701 300.43C227.582 301.257 224.834 305.713 225.563 310.383C226.292 315.054 230.223 318.169 234.342 317.342Z" fill="#2E353A" stroke="#2E353A" stroke-linecap="round" stroke-linejoin="round"/>
<path d="M233.006 313.911C235.445 313.911 237.423 311.669 237.423 308.904C237.423 306.138 235.445 303.896 233.006 303.896C230.567 303.896 228.59 306.138 228.59 308.904C228.59 311.669 230.567 313.911 233.006 313.911Z" fill="white" stroke="#2E353A" stroke-linecap="round" stroke-linejoin="round"/>
<path d="M256.417 315.192C259.498 311.984 259.702 306.552 256.873 303.058C254.043 299.565 249.252 299.333 246.171 302.541C243.089 305.749 242.885 311.181 245.715 314.675C248.544 318.168 253.335 318.4 256.417 315.192Z" fill="#2E353A" stroke="#2E353A" stroke-linecap="round" stroke-linejoin="round"/>
<path d="M251.29 313.911C253.729 313.911 255.706 311.669 255.706 308.904C255.706 306.138 253.729 303.896 251.29 303.896C248.851 303.896 246.873 306.138 246.873 308.904C246.873 311.669 248.851 313.911 251.29 313.911Z" fill="white" stroke="#2E353A" stroke-linecap="round" stroke-linejoin="round"/>
<path d="M248.811 284.551H229.741C228.372 284.551 227.262 285.809 227.262 287.361V296.442C227.262 297.994 228.372 299.252 229.741 299.252H248.811C250.18 299.252 251.29 297.994 251.29 296.442V287.361C251.29 285.809 250.18 284.551 248.811 284.551Z" fill="#2E353A" stroke="#2E353A" stroke-linecap="round" stroke-linejoin="round"/>
<path d="M217.728 299.252V256.488H225.355V299.252" stroke="#2E353A" stroke-linecap="round" stroke-linejoin="round"/>
<path d="M217.781 262.152H225.272" stroke="#2E353A" stroke-linecap="round" stroke-linejoin="round"/>
<path d="M217.781 268.829H225.272" stroke="#2E353A" stroke-linecap="round" stroke-linejoin="round"/>
<path d="M217.781 275.505H225.272" stroke="#2E353A" stroke-linecap="round" stroke-linejoin="round"/>
<path d="M217.781 282.19H225.272" stroke="#2E353A" stroke-linecap="round" stroke-linejoin="round"/>
<path d="M217.781 288.866H225.272" stroke="#2E353A" stroke-linecap="round" stroke-linejoin="round"/>
<path d="M217.781 295.542H225.272" stroke="#2E353A" stroke-linecap="round" stroke-linejoin="round"/>
<path d="M65.1648 318.321H51.4348V46.7738L65.1648 64.8741V318.321Z" stroke="#2E353A" stroke-linecap="round" stroke-linejoin="round"/>
<path d="M51.5721 261.244H65.0351L51.5721 246.482H65.0351L51.5721 261.244Z" stroke="#2E353A" stroke-linecap="round" stroke-linejoin="round"/>
<path d="M51.5721 246.11H65.0351L51.5721 231.348H65.0351L51.5721 246.11Z" stroke="#2E353A" stroke-linecap="round" stroke-linejoin="round"/>
<path d="M51.5721 230.976H65.0351L51.5721 216.214H65.0351L51.5721 230.976Z" stroke="#2E353A" stroke-linecap="round" stroke-linejoin="round"/>
<path d="M51.5721 215.842H65.0351L51.5721 201.08H65.0351L51.5721 215.842Z" stroke="#2E353A" stroke-linecap="round" stroke-linejoin="round"/>
<path d="M51.5721 200.708H65.0351L51.5721 185.946H65.0351L51.5721 200.708Z" stroke="#2E353A" stroke-linecap="round" stroke-linejoin="round"/>
<path d="M51.5721 185.574H65.0351L51.5721 170.812H65.0351L51.5721 185.574Z" stroke="#2E353A" stroke-linecap="round" stroke-linejoin="round"/>
<path d="M51.5721 170.44H65.0351L51.5721 155.678H65.0351L51.5721 170.44Z" stroke="#2E353A" stroke-linecap="round" stroke-linejoin="round"/>
<path d="M51.5721 155.306H65.0351L51.5721 140.544H65.0351L51.5721 155.306Z" stroke="#2E353A" stroke-linecap="round" stroke-linejoin="round"/>
<path d="M51.5721 140.172H65.0351L51.5721 125.41H65.0351L51.5721 140.172Z" stroke="#2E353A" stroke-linecap="round" stroke-linejoin="round"/>
<path d="M51.5721 125.038H65.0351L51.5721 110.276H65.0351L51.5721 125.038Z" stroke="#2E353A" stroke-linecap="round" stroke-linejoin="round"/>
<path d="M51.5721 109.904H65.0351L51.5721 95.1422H65.0351L51.5721 109.904Z" stroke="#2E353A" stroke-linecap="round" stroke-linejoin="round"/>
<path d="M51.5721 94.7703H65.0351L51.5721 80.0082H65.0351L51.5721 94.7703Z" stroke="#2E353A" stroke-linecap="round" stroke-linejoin="round"/>
<path d="M51.5721 79.6362H65.0351L51.5721 64.874H65.0351L51.5721 79.6362Z" stroke="#2E353A" stroke-linecap="round" stroke-linejoin="round"/>
<path d="M128.91 80.0427L122.259 75.2949H74.791L68.9939 80.0427H128.91Z" stroke="#2E353A" stroke-linecap="round" stroke-linejoin="round"/>
<path d="M130.008 79.6364H14.0664V83.0956H130.008V79.6364Z" fill="#2E353A" stroke="#2E353A" stroke-linecap="round" stroke-linejoin="round"/>
<path d="M122.259 75.2949L51.4348 46.7738L74.791 75.2949" stroke="#2E353A" stroke-linecap="round" stroke-linejoin="round"/>
<path d="M51.4425 46.7738L14.0664 79.6362" stroke="#2E353A" stroke-linecap="round" stroke-linejoin="round"/>
<path d="M75.0885 86.9871H46.4844V107.742H75.0885V86.9871Z" fill="#2E353A" stroke="#2E353A" stroke-linecap="round" stroke-linejoin="round"/>
<path d="M69.1236 91.311H52.4417V97.3646H69.1236V91.311Z" fill="white" stroke="#2E353A" stroke-linecap="round" stroke-linejoin="round"/>
<path d="M130.008 83.0955V120.386" stroke="#2E353A" stroke-linecap="round" stroke-linejoin="round"/>
<path d="M134.356 133.124H125.882V144.012H134.356V133.124Z" fill="#2E353A" stroke="#2E353A" stroke-linecap="round" stroke-linejoin="round"/>
<path d="M125.882 133.124L130.123 119.677L134.364 133.124" stroke="#2E353A" stroke-linecap="round" stroke-linejoin="round"/>
<path d="M107.148 264.513L125.455 297.324L130.031 293.527L116.561 262.983C115.955 261.609 115.024 260.455 113.872 259.648C112.72 258.842 111.393 258.415 110.039 258.416C109.417 258.429 108.81 258.63 108.28 258.997C107.749 259.364 107.314 259.885 107.02 260.506C106.725 261.126 106.582 261.825 106.605 262.529C106.627 263.233 106.815 263.918 107.148 264.513Z" fill="#89B1FF" stroke="#2E353A" stroke-linecap="round" stroke-linejoin="round"/>
<path d="M128.422 289.255L109.589 304.441C109.589 304.441 111.267 312.501 122.144 312.025C133.021 311.55 132.609 298.742 132.609 298.742L128.422 289.255Z" fill="#2E353A" stroke="white" stroke-linecap="round" stroke-linejoin="round"/>
<path d="M76.1106 279.293L110.222 261.867C111.347 261.293 112.611 261.173 113.805 261.527C114.998 261.881 116.049 262.688 116.782 263.813C117.21 264.47 117.518 265.217 117.687 266.012C117.856 266.806 117.883 267.63 117.767 268.436C117.65 269.242 117.392 270.014 117.008 270.705C116.624 271.396 116.122 271.993 115.531 272.461L78.2082 302.08L76.1106 279.293Z" fill="#89B1FF" stroke="#2E353A" stroke-linecap="round" stroke-linejoin="round"/>
<path d="M71.0916 300.645H35.9352V306.811H71.0916V300.645Z" fill="white" stroke="#2E353A" stroke-linecap="round" stroke-linejoin="round"/>
<path d="M53.9291 283.089H23.3799V297.324H53.9291V283.089Z" fill="#2E353A" stroke="#2E353A" stroke-linecap="round" stroke-linejoin="round"/>
<path d="M49.955 266.952H75.8894C76.4963 266.952 77.0784 267.225 77.5075 267.712C77.9367 268.198 78.1778 268.858 78.1778 269.546V297.306H47.6591V269.546C47.6591 269.205 47.7185 268.867 47.834 268.551C47.9495 268.236 48.1187 267.95 48.332 267.709C48.5453 267.468 48.7985 267.277 49.077 267.147C49.3555 267.017 49.6539 266.951 49.955 266.952Z" fill="#89B1FF" stroke="#2E353A" stroke-linecap="round" stroke-linejoin="round"/>
<path d="M23.0671 317.482H73.0824C74.6624 317.482 76.1776 316.771 77.2948 315.504C78.412 314.237 79.0397 312.519 79.0397 310.728C79.0397 308.936 78.4123 307.217 77.2953 305.949C76.1783 304.681 74.6631 303.968 73.0824 303.965H23.0671C21.4865 303.968 19.9712 304.681 18.8542 305.949C17.7373 307.217 17.1099 308.936 17.1099 310.728C17.1099 312.519 17.7375 314.237 18.8547 315.504C19.9719 316.771 21.4872 317.482 23.0671 317.482Z" fill="#2E353A" stroke="#2E353A" stroke-linecap="round" stroke-linejoin="round"/>
<path d="M30.6034 317.482H80.611C82.1917 317.482 83.7078 316.771 84.8262 315.504C85.9446 314.238 86.5739 312.52 86.5759 310.728C86.5759 308.934 85.9475 307.214 84.8289 305.946C83.7102 304.678 82.193 303.965 80.611 303.965H30.6034C29.0214 303.965 27.5042 304.678 26.3856 305.946C25.2669 307.214 24.6385 308.934 24.6385 310.728C24.6405 312.52 25.2699 314.238 26.3883 315.504C27.5067 316.771 29.0227 317.482 30.6034 317.482Z" fill="white" stroke="#2E353A" stroke-linecap="round" stroke-linejoin="round"/>
<path d="M78.2006 297.324H23.3799V302.071H78.2006V297.324Z" fill="white" stroke="#2E353A" stroke-linecap="round" stroke-linejoin="round"/>
<path d="M34.6842 310.728C34.6842 311.573 34.4632 312.399 34.0492 313.102C33.6352 313.804 33.0467 314.352 32.3581 314.675C31.6696 314.998 30.9119 315.083 30.181 314.918C29.4501 314.753 28.7787 314.346 28.2517 313.749C27.7247 313.152 27.3658 312.39 27.2204 311.562C27.075 310.733 27.1496 309.874 27.4348 309.093C27.72 308.313 28.203 307.645 28.8227 307.176C29.4423 306.707 30.1709 306.456 30.9161 306.456C31.9155 306.456 32.8739 306.906 33.5806 307.707C34.2872 308.509 34.6842 309.595 34.6842 310.728Z" fill="#2E353A" stroke="#2E353A" stroke-linecap="round" stroke-linejoin="round"/>
<path d="M40.9619 315C43.0429 315 44.73 313.088 44.73 310.728C44.73 308.369 43.0429 306.456 40.9619 306.456C38.8808 306.456 37.1937 308.369 37.1937 310.728C37.1937 313.088 38.8808 315 40.9619 315Z" fill="#2E353A" stroke="#2E353A" stroke-linecap="round" stroke-linejoin="round"/>
<path d="M51 315C53.0811 315 54.7681 313.088 54.7681 310.728C54.7681 308.369 53.0811 306.456 51 306.456C48.9189 306.456 47.2319 308.369 47.2319 310.728C47.2319 313.088 48.9189 315 51 315Z" fill="#2E353A" stroke="#2E353A" stroke-linecap="round" stroke-linejoin="round"/>
<path d="M64.8139 310.728C64.8139 311.573 64.5929 312.399 64.1789 313.102C63.7649 313.804 63.1764 314.352 62.4878 314.675C61.7993 314.998 61.0416 315.083 60.3107 314.918C59.5798 314.753 58.9083 314.346 58.3814 313.749C57.8544 313.152 57.4955 312.39 57.3501 311.562C57.2047 310.733 57.2793 309.874 57.5645 309.093C57.8497 308.313 58.3327 307.645 58.9524 307.176C59.572 306.707 60.3006 306.456 61.0458 306.456C62.0452 306.456 63.0036 306.906 63.7103 307.707C64.4169 308.509 64.8139 309.595 64.8139 310.728Z" fill="#2E353A" stroke="#2E353A" stroke-linecap="round" stroke-linejoin="round"/>
<path d="M74.8597 310.728C74.8597 311.573 74.6387 312.399 74.2247 313.102C73.8106 313.804 73.2221 314.352 72.5336 314.675C71.8451 314.998 71.0874 315.083 70.3565 314.918C69.6255 314.753 68.9541 314.346 68.4271 313.749C67.9001 313.152 67.5413 312.39 67.3959 311.562C67.2505 310.733 67.3251 309.874 67.6103 309.093C67.8955 308.313 68.3785 307.645 68.9981 307.176C69.6178 306.707 70.3463 306.456 71.0916 306.456C72.091 306.456 73.0494 306.906 73.756 307.707C74.4627 308.509 74.8597 309.595 74.8597 310.728Z" fill="#2E353A" stroke="#2E353A" stroke-linecap="round" stroke-linejoin="round"/>
<path d="M84.8978 310.728C84.8978 311.573 84.6767 312.4 84.2623 313.103C83.8479 313.805 83.2589 314.353 82.57 314.676C81.881 314.999 81.123 315.083 80.3918 314.918C79.6606 314.752 78.9892 314.344 78.4626 313.746C77.9359 313.148 77.5776 312.386 77.4331 311.556C77.2886 310.727 77.3643 309.868 77.6506 309.087C77.937 308.307 78.4212 307.64 79.0418 307.172C79.6625 306.703 80.3918 306.454 81.1374 306.456C81.6318 306.456 82.1215 306.567 82.5782 306.781C83.0349 306.996 83.4498 307.311 83.7991 307.708C84.1484 308.105 84.4253 308.576 84.6138 309.094C84.8023 309.612 84.8988 310.168 84.8978 310.728Z" fill="#2E353A" stroke="#2E353A" stroke-linecap="round" stroke-linejoin="round"/>
<path d="M114.196 266.952C114.196 266.481 114.073 266.021 113.842 265.63C113.611 265.239 113.283 264.934 112.899 264.754C112.516 264.574 112.093 264.528 111.686 264.62C111.279 264.713 110.906 264.94 110.612 265.273C110.319 265.607 110.12 266.032 110.04 266.493C109.96 266.955 110.003 267.434 110.163 267.868C110.323 268.303 110.593 268.673 110.939 268.934C111.285 269.194 111.691 269.332 112.106 269.33C112.381 269.33 112.654 269.269 112.908 269.149C113.162 269.029 113.392 268.854 113.587 268.633C113.781 268.412 113.935 268.15 114.039 267.862C114.144 267.573 114.197 267.264 114.196 266.952Z" fill="#2E353A" stroke="#2E353A" stroke-linecap="round" stroke-linejoin="round"/>
<path d="M73.6011 270.748H51.4196V285.934H73.6011V270.748Z" fill="white" stroke="#2E353A" stroke-linecap="round" stroke-linejoin="round"/>
<path d="M73.6011 270.748H61.4654V285.934H73.6011V270.748Z" fill="white" stroke="#2E353A" stroke-linecap="round" stroke-linejoin="round"/>
</svg>
