<svg width="65" height="40" viewBox="0 0 65 40" fill="none" xmlns="http://www.w3.org/2000/svg">
<path opacity="0.3" d="M7.22478 34.7527L55.4925 6.53974C55.8026 6.35699 56.0588 6.48949 56.0588 6.83215C56.044 7.02516 55.9852 7.21201 55.8869 7.3778C55.7886 7.54359 55.6535 7.68373 55.4925 7.78706L7.22478 36C6.91018 36.1828 6.65851 36.0503 6.65851 35.7076C6.67217 35.5143 6.73059 35.3271 6.829 35.1611C6.92741 34.9952 7.06302 34.8552 7.22478 34.7527Z" fill="white"/>
<path d="M7.22478 34.7528L50.7421 9.32685C51.0567 9.1441 51.3084 9.27659 51.3084 9.61926C51.2947 9.81254 51.2363 9.99981 51.1379 10.1658C51.0395 10.3317 50.9039 10.4717 50.7421 10.5742L7.22478 36.0001C6.91018 36.1829 6.65851 36.0504 6.65851 35.7077C6.67217 35.5144 6.73059 35.3271 6.829 35.1612C6.92741 34.9952 7.06302 34.8553 7.22478 34.7528Z" fill="white"/>
<path d="M1.31947 38.2894V39.5139C1.31829 39.5442 1.30991 39.5737 1.29504 39.6C1.28016 39.6262 1.25925 39.6484 1.23408 39.6647L1.00038 39.8017C0.991937 39.808 0.98188 39.8116 0.971441 39.8122C0.961002 39.8127 0.95063 39.8102 0.941583 39.8049C0.932536 39.7996 0.925206 39.7917 0.920485 39.7822C0.915765 39.7727 0.913856 39.762 0.914993 39.7515V38.527C0.917209 38.497 0.926032 38.4678 0.940811 38.4417C0.955591 38.4156 0.975951 38.3932 1.00038 38.3762L1.23408 38.2392C1.28352 38.2117 1.31947 38.2346 1.31947 38.2894Z" fill="white"/>
<path d="M2.12842 37.8141V39.0385C2.12724 39.0688 2.11886 39.0983 2.10398 39.1246C2.08911 39.1509 2.0682 39.1731 2.04303 39.1893L1.81382 39.3264C1.76439 39.3538 1.72394 39.3264 1.72394 39.2761V38.0517C1.72598 38.021 1.7352 37.9914 1.75084 37.9652C1.76648 37.9389 1.78808 37.9169 1.81382 37.9009L2.04303 37.7638C2.09247 37.7364 2.12842 37.7593 2.12842 37.8141Z" fill="white"/>
<path d="M5.34551 35.9636V37.1881C5.3433 37.2181 5.3345 37.2473 5.31975 37.2734C5.30501 37.2995 5.2847 37.3218 5.26033 37.3389L5.15721 37.4028C5.10789 37.4302 5.07202 37.4028 5.07202 37.3526V36.1281C5.07319 36.0978 5.08156 36.0683 5.0964 36.042C5.11123 36.0158 5.1321 35.9936 5.15721 35.9773L5.26033 35.9134C5.26875 35.9071 5.27878 35.9035 5.2892 35.9029C5.29961 35.9023 5.30996 35.9049 5.31899 35.9102C5.32801 35.9155 5.33532 35.9234 5.34003 35.9329C5.34474 35.9424 5.34665 35.9531 5.34551 35.9636Z" fill="white"/>
<path d="M3.64752 36.9141V38.1157C3.64752 38.2025 3.69246 38.2208 3.75089 38.1522L4.83848 36.8775C4.89691 36.809 4.86994 36.7542 4.78455 36.7542H3.80482C3.7631 36.7542 3.72309 36.771 3.69359 36.801C3.66409 36.831 3.64752 36.8717 3.64752 36.9141Z" fill="white"/>
<path d="M61.7126 3.10882C61.6756 3.10882 61.6402 3.0939 61.614 3.06734C61.5879 3.04077 61.5732 3.00475 61.5732 2.96719V2.56512C61.5732 2.54105 61.5795 2.51739 61.5913 2.49654C61.6031 2.47568 61.6201 2.45837 61.6407 2.44633L62.2833 2.07168C62.2985 2.06203 62.3155 2.05566 62.3332 2.05297C62.3509 2.05028 62.3689 2.05133 62.3862 2.05604C62.4035 2.06076 62.4197 2.06904 62.4337 2.08038C62.4477 2.09172 62.4592 2.10586 62.4676 2.12194C62.4843 2.1537 62.4885 2.19075 62.4794 2.22555C62.4702 2.26035 62.4483 2.29029 62.4182 2.30927L61.8474 2.64279V2.96719C61.8474 3.00397 61.8333 3.03933 61.8082 3.06576C61.783 3.09219 61.7487 3.10764 61.7126 3.10882Z" fill="#FAFAFA"/>
<path d="M64.6248 1.40008C64.5891 1.40008 64.5548 1.38564 64.5295 1.35993C64.5042 1.33423 64.49 1.29936 64.49 1.26301V1.09396L64.0406 1.34982C64.0252 1.35883 64.0083 1.36468 63.9907 1.36703C63.9732 1.36938 63.9553 1.36818 63.9382 1.36352C63.9211 1.35885 63.9051 1.3508 63.891 1.33983C63.877 1.32885 63.8652 1.31517 63.8563 1.29956C63.8468 1.28413 63.8406 1.26689 63.8379 1.24889C63.8353 1.23089 63.8363 1.21253 63.8409 1.19496C63.8456 1.17738 63.8537 1.16097 63.8649 1.14673C63.876 1.1325 63.8899 1.12076 63.9058 1.11224L64.5439 0.737586C64.5639 0.724032 64.5874 0.716797 64.6114 0.716797C64.6354 0.716797 64.6588 0.724032 64.6788 0.737586C64.6999 0.74884 64.7175 0.765986 64.7295 0.787022C64.7414 0.808058 64.7472 0.832111 64.7462 0.856375V1.26301C64.7463 1.2971 64.734 1.33004 64.7116 1.35539C64.6891 1.38073 64.6582 1.39667 64.6248 1.40008Z" fill="#FAFAFA"/>
<path d="M61.7126 4.95001C61.6904 4.95527 61.6673 4.95527 61.6452 4.95001C61.6241 4.9382 61.6064 4.92105 61.5938 4.90024C61.5812 4.87942 61.5741 4.85564 61.5732 4.83122V4.42459C61.5791 4.39195 61.596 4.36243 61.621 4.34118C61.6461 4.31993 61.6777 4.30829 61.7103 4.30829C61.7429 4.30829 61.7745 4.31993 61.7996 4.34118C61.8246 4.36243 61.8416 4.39195 61.8474 4.42459V4.55708L62.2968 4.30123C62.328 4.2842 62.3645 4.27992 62.3987 4.28926C62.433 4.2986 62.4624 4.32085 62.4811 4.35148C62.4981 4.38393 62.5024 4.42169 62.4933 4.45726C62.4841 4.49282 62.4621 4.52357 62.4316 4.54338L61.7935 4.91802C61.7693 4.93493 61.7416 4.94588 61.7126 4.95001Z" fill="#FAFAFA"/>
<path d="M63.9866 3.61596C63.9569 3.616 63.928 3.60605 63.9044 3.58768C63.8809 3.56931 63.8639 3.54353 63.8562 3.51436C63.8485 3.48519 63.8505 3.45425 63.8619 3.42636C63.8733 3.39846 63.8934 3.37517 63.9192 3.3601L64.4899 3.022V2.69761C64.4899 2.66126 64.5041 2.62639 64.5294 2.60069C64.5547 2.57498 64.589 2.56055 64.6248 2.56055C64.6605 2.56055 64.6948 2.57498 64.7201 2.60069C64.7454 2.62639 64.7596 2.66126 64.7596 2.69761V3.10425C64.7606 3.12851 64.7548 3.15256 64.7429 3.1736C64.7309 3.19464 64.7134 3.21178 64.6922 3.22304L64.054 3.59768C64.0337 3.61011 64.0103 3.61645 63.9866 3.61596Z" fill="#FAFAFA"/>
<path d="M60.2474 4.5936H60.2249H59.9642C59.9586 4.59425 59.9528 4.59366 59.9474 4.59189C59.9419 4.59011 59.9369 4.58718 59.9327 4.5833C59.9285 4.57942 59.9251 4.57466 59.9228 4.56935C59.9204 4.56404 59.9193 4.55829 59.9193 4.55249C59.9215 4.5114 59.9215 4.47021 59.9193 4.42912C59.9193 4.38343 59.9193 4.33774 59.9193 4.29662C59.9185 4.26822 59.9281 4.24053 59.9463 4.21895L60.2339 3.86258C60.2398 3.85133 60.2429 3.83877 60.2429 3.82603C60.2429 3.81328 60.2398 3.80073 60.2339 3.78948L60.0991 3.47879C60.0991 3.47879 60.0721 3.47879 60.0586 3.47879L59.7485 3.76663C59.738 3.7741 59.7254 3.7781 59.7126 3.7781C59.6997 3.7781 59.6872 3.7741 59.6766 3.76663C59.6382 3.73283 59.5941 3.7065 59.5463 3.68896C59.5356 3.6849 59.5267 3.67722 59.521 3.66723C59.5152 3.65725 59.5131 3.64556 59.5148 3.63413L59.6092 3.17724C59.6092 3.17724 59.6092 3.1544 59.6092 3.14526H59.5822L59.2766 3.17724C59.2634 3.17929 59.2507 3.18449 59.2398 3.19243C59.2289 3.20037 59.2199 3.21082 59.2137 3.22293L59.0474 3.67982C59.0347 3.71077 59.0105 3.73538 58.98 3.74835C58.9154 3.779 58.8537 3.81571 58.7958 3.85801C58.7688 3.85801 58.7418 3.85801 58.7283 3.85801L58.5755 3.62043C58.5755 3.62043 58.5396 3.62043 58.5171 3.62043L58.1845 3.9768C58.166 3.99814 58.1563 4.026 58.1576 4.05447L58.252 4.3743C58.2598 4.39801 58.2598 4.42369 58.252 4.4474C58.198 4.53877 58.1441 4.62559 58.0992 4.72153C58.0823 4.7479 58.0569 4.76733 58.0272 4.77636L57.7441 4.8449C57.7294 4.84792 57.7156 4.85448 57.7039 4.86401C57.6922 4.87355 57.6828 4.88579 57.6767 4.89972L57.5329 5.3886C57.5315 5.39409 57.5314 5.39984 57.5325 5.4054C57.5337 5.41095 57.5361 5.41615 57.5396 5.42058C57.5431 5.42502 57.5476 5.42856 57.5526 5.43094C57.5577 5.43332 57.5633 5.43446 57.5688 5.43428H57.8295C57.8414 5.43428 57.8529 5.4391 57.8613 5.44767C57.8697 5.45623 57.8744 5.46785 57.8744 5.47997C57.8655 5.56349 57.8655 5.64775 57.8744 5.73126C57.8745 5.75953 57.865 5.78695 57.8475 5.80893L57.5554 6.16987C57.5495 6.18112 57.5464 6.19368 57.5464 6.20643C57.5464 6.21917 57.5495 6.23173 57.5554 6.24298L57.6947 6.55366C57.6947 6.55366 57.7171 6.55366 57.7306 6.55366L58.0407 6.26582C58.0503 6.25804 58.0622 6.25379 58.0744 6.25379C58.0867 6.25379 58.0986 6.25804 58.1081 6.26582C58.1477 6.29907 58.1916 6.32673 58.2385 6.34806C58.2497 6.35127 58.2592 6.35879 58.2651 6.36902C58.271 6.37924 58.2727 6.39138 58.2699 6.40288L58.1756 6.85978C58.1756 6.85978 58.1756 6.88262 58.1756 6.89176H58.2025L58.5081 6.85978C58.5223 6.85886 58.536 6.85415 58.5479 6.84613C58.5597 6.83811 58.5692 6.82706 58.5755 6.81409L58.7373 6.3572C58.7528 6.32933 58.7763 6.30699 58.8047 6.29324L58.8991 6.2384L58.9935 6.18358C58.9935 6.18358 59.0474 6.16074 59.0564 6.18358L59.2137 6.42573C59.2212 6.43014 59.2298 6.43247 59.2384 6.43247C59.2471 6.43247 59.2556 6.43014 59.2632 6.42573L59.5957 6.06936C59.6055 6.06016 59.6131 6.04876 59.6177 6.03606C59.6224 6.02337 59.6241 6.00973 59.6227 5.99625L59.5283 5.67643C59.5204 5.65117 59.5204 5.62403 59.5283 5.59876C59.5852 5.51254 59.6363 5.42248 59.6811 5.3292C59.6976 5.30255 59.7232 5.28303 59.753 5.27437L60.0406 5.20584C60.0676 5.20584 60.0991 5.17386 60.1036 5.15101L60.2474 4.65757C60.2557 4.65757 60.2637 4.6542 60.2696 4.6482C60.2755 4.6422 60.2788 4.63407 60.2788 4.62558C60.2788 4.6171 60.2755 4.60897 60.2696 4.60297C60.2637 4.59698 60.2557 4.5936 60.2474 4.5936ZM58.7239 5.79065H58.6115C58.5499 5.79013 58.4898 5.77123 58.4387 5.73631C58.3875 5.70139 58.3476 5.65197 58.3239 5.59419C58.3015 5.54364 58.2878 5.48954 58.2834 5.43428C58.2812 5.40386 58.2812 5.37332 58.2834 5.3429C58.3002 5.01447 58.4326 4.70312 58.6564 4.46568C58.7236 4.3924 58.8008 4.32931 58.8856 4.27835L58.962 4.23723C59.0297 4.20599 59.1034 4.19038 59.1778 4.19154H59.2137C59.2668 4.19871 59.3169 4.22033 59.3588 4.25412C59.4008 4.2879 59.4329 4.33258 59.4519 4.38343C59.4998 4.58354 59.4947 4.79298 59.4371 4.99042C59.3794 5.18786 59.2714 5.36624 59.1238 5.50738C59.0206 5.63951 58.8815 5.73799 58.7239 5.79065Z" fill="white"/>
</svg>
