<svg width="69" height="72" viewBox="0 0 69 72" fill="none" xmlns="http://www.w3.org/2000/svg">
<path d="M37.4733 29.4899C33.9148 29.8992 24.3395 30.2237 24.3395 30.2237C18.0227 27.593 13.085 21.8223 12.4586 15.3178L12.1849 12.5173C11.6585 7.2059 15.6855 2.24892 21.0495 0.651496C22.6221 0.166826 24.2896 0.0242073 25.9283 0.234232C27.5669 0.444257 29.1346 1.00153 30.5151 1.86469C31.8956 2.72786 33.0534 3.87475 33.9026 5.22026C34.7517 6.56577 35.2705 8.07535 35.4203 9.63698C35.5519 11.0148 35.9467 12.2328 37.1206 13.1313C37.7768 13.5766 38.483 13.9516 39.2262 14.2495C40.2946 14.6941 41.2672 15.322 42.0951 16.1015C42.5053 16.4943 42.8259 16.9629 43.0369 17.4781C43.2479 17.9934 43.3448 18.5444 43.3217 19.0967C43.2382 19.8069 42.9443 20.4801 42.4741 21.0386C42.3847 21.1198 42.3318 21.2307 42.3268 21.3481C42.3456 21.4302 42.3874 21.5061 42.4478 21.5677C43.5375 22.8906 44.1113 24.7176 43.4585 26.2751C43.0041 27.2513 42.2057 28.0473 41.2002 28.5265C40.196 28.9997 39.1134 29.3053 37.9997 29.43L37.4733 29.4899Z" fill="#263238"/>
<path d="M68.268 20.0749C68.0823 19.8333 67.8687 19.6123 67.631 19.4159C67.2151 19.0515 66.6414 18.7171 66.1097 18.9167C65.7976 19.0629 65.5404 19.2964 65.3727 19.5857C65.0358 20.0549 64.6358 20.4892 64.3199 20.9734C63.8878 21.6802 63.3892 22.3485 62.8302 22.9702C62.5933 23.2398 62.2512 23.6092 61.8458 23.4943C61.7732 23.4749 61.7077 23.4369 61.6563 23.3845C61.6124 23.3287 61.5835 23.2636 61.5721 23.1948C61.5225 22.8616 61.5421 22.5225 61.63 22.1964C61.715 21.8685 61.715 21.526 61.63 21.1981C61.5819 21.0372 61.4799 20.8956 61.3393 20.7947C61.1987 20.6938 61.0272 20.6391 60.8509 20.639C60.7526 20.6445 60.6603 20.6856 60.593 20.7538C60.547 20.8017 60.5112 20.8576 60.4877 20.9185C59.7991 22.2114 59.298 23.5867 58.998 25.0069C58.9296 25.6354 58.8099 26.2579 58.64 26.8689C58.1926 28.1868 56.566 28.8657 55.4237 29.6294C52.9364 31.1827 50.3678 32.6155 47.7277 33.9225C46.4327 32.8442 38.2524 26.0752 35.9942 24.2881C32.741 21.7222 29.2878 22.8704 28.8193 22.9053C28.3508 22.9402 27.7296 25.9005 31.5566 30.1935C31.5566 30.1935 43.4901 39.7681 45.7695 41.0111C46.3327 41.3156 47.096 41.9495 48.0172 41.9146H48.0488H48.1646C48.2882 41.9049 48.4101 41.8814 48.5278 41.8447C49.6596 41.5003 51.2757 40.1724 51.9547 39.6732C55.3765 37.0619 58.6551 34.2861 61.7774 31.3566C62.667 30.538 63.6777 29.8591 64.641 29.1153C65.9066 28.205 66.9784 27.0751 67.7995 25.7856C68.4259 24.879 68.8073 23.8401 68.9102 22.7605C69.027 21.822 68.8003 20.8738 68.268 20.0749Z" fill="#FFA8A7"/>
<path d="M16.1171 46.048C13.3008 52.0383 12.6165 55.5326 12.3954 58.7924C12.1743 62.0521 12.5007 66.9841 12.5007 66.9841L37.3627 53.3911C36.8097 50.0694 35.9932 46.7921 34.9202 43.5869L16.1171 46.048Z" fill="#89B1FF"/>
<path d="M34.9571 36.1786L34.8097 42.3586C35.1361 43.5717 35.6572 45.5535 36.2415 47.3506C35.873 48.4438 33.1515 51.384 27.3716 53.2061C21.2654 55.133 14.301 53.1462 13.5272 51.7085L15.9487 45.8929C15.9487 45.8929 13.8431 38.1804 13.8115 38.0855C13.7799 37.9907 16.0698 34.8557 16.2224 31.0968C16.3751 27.3379 15.2801 25.7255 14.9327 25.3661C15.0906 25.3012 18.6544 24.3677 18.6544 24.3677L25.7608 23.0199L29.1035 22.8152C31.8882 24.1684 34.1439 26.3303 35.5414 28.9852C36.1875 30.1095 36.4762 31.3873 36.3725 32.664C36.2688 33.9406 35.7772 35.1614 34.9571 36.1786Z" fill="#FAFAFA"/>
<path d="M30.9143 5.16895C31.6566 5.88778 33.1568 7.61001 33.02 13.8549C32.8778 19.1514 31.067 20.4543 30.1563 20.8436C29.2457 21.233 27.4927 20.9834 25.7924 20.7138V23.2947C25.7924 23.2947 28.2034 24.8871 28.8087 26.3298C29.2825 27.4529 26.2715 29.0204 21.7023 27.1534C19.8336 26.3897 18.3281 24.4478 18.3281 24.4478L18.386 16.8002C18.386 16.8002 17.3805 17.7187 15.6855 16.301C14.2853 15.1378 13.8168 13.171 14.9117 12.1227C15.1961 11.8733 15.539 11.6915 15.912 11.5922C16.285 11.4929 16.6775 11.479 17.0572 11.5516C17.437 11.6242 17.7932 11.7813 18.0965 12.0099C18.3998 12.2385 18.6415 12.5321 18.8018 12.8665C21.1433 12.9007 23.4511 12.335 25.4819 11.2292C29.0772 9.3422 30.6722 7.22562 30.9143 5.16895Z" fill="#FFA8A7"/>
<path d="M26.682 12.9012C26.6829 13.0312 26.6434 13.1585 26.5686 13.2675C26.4939 13.3764 26.387 13.4622 26.2613 13.514C26.1356 13.5659 25.9966 13.5816 25.8616 13.5593C25.7265 13.5369 25.6014 13.4775 25.5016 13.3883C25.4019 13.2991 25.332 13.1842 25.3005 13.0576C25.269 12.9311 25.2774 12.7986 25.3246 12.6766C25.3719 12.5545 25.4558 12.4483 25.5661 12.3711C25.6764 12.2939 25.8082 12.2491 25.9451 12.2422C26.0391 12.2396 26.1327 12.2545 26.2207 12.2862C26.3086 12.3179 26.3891 12.3657 26.4575 12.4269C26.526 12.4881 26.581 12.5615 26.6195 12.6428C26.6581 12.7242 26.6793 12.812 26.682 12.9012Z" fill="#263238"/>
<path d="M26.1451 16.825L28.7771 17.2792C28.7535 17.4454 28.6948 17.6053 28.6046 17.7494C28.5143 17.8936 28.3944 18.019 28.2519 18.1183C28.1094 18.2175 27.9473 18.2885 27.7753 18.327C27.6032 18.3656 27.4248 18.3708 27.2505 18.3425C26.8949 18.2746 26.5808 18.0785 26.3746 17.7954C26.1684 17.5124 26.0861 17.1644 26.1451 16.825Z" fill="#B16668"/>
<path d="M27.2558 18.3424C27.4294 18.3768 27.6086 18.3768 27.7822 18.3424C27.7687 18.0621 27.642 17.7974 27.4284 17.6032C27.2148 17.409 26.9306 17.3001 26.6346 17.2991C26.4752 17.2975 26.3173 17.3282 26.1714 17.389C26.2386 17.6289 26.3762 17.8458 26.5681 18.0145C26.76 18.1833 26.9985 18.297 27.2558 18.3424Z" fill="#F28F8F"/>
<path d="M32.2619 10.7647L30.6827 10.1507C30.7195 10.0499 30.7775 9.95722 30.8533 9.8784C30.9291 9.79958 31.0211 9.73628 31.1236 9.69235C31.2261 9.64842 31.337 9.62479 31.4494 9.62292C31.5619 9.62105 31.6736 9.64097 31.7777 9.68147C31.9886 9.76962 32.1562 9.93077 32.2462 10.1321C32.3362 10.3334 32.3418 10.5596 32.2619 10.7647Z" fill="#263238"/>
<path d="M31.8933 12.4124C31.8931 12.5422 31.8528 12.6691 31.7774 12.7774C31.702 12.8857 31.5948 12.9706 31.469 13.0217C31.3432 13.0729 31.2043 13.0879 31.0696 13.065C30.9349 13.0421 30.8102 12.9822 30.711 12.8928C30.6118 12.8034 30.5424 12.6884 30.5113 12.562C30.4803 12.4356 30.489 12.3033 30.5364 12.1816C30.5838 12.0598 30.6678 11.9539 30.778 11.8769C30.8881 11.8 31.0197 11.7553 31.1564 11.7485C31.3468 11.7444 31.5311 11.812 31.6692 11.9364C31.8072 12.0607 31.8878 12.2319 31.8933 12.4124Z" fill="#263238"/>
<path d="M28.6034 12.1423L29.0877 16.0161L31.1933 15.0676L28.6034 12.1423Z" fill="#F28F8F"/>
<path d="M25.7661 20.6989C23.971 20.4692 20.2809 19.4559 19.7072 18.0681C19.9354 18.7702 20.3856 19.3888 20.9968 19.8402C22.097 20.7388 25.7608 21.7572 25.7608 21.7572L25.7661 20.6989Z" fill="#F28F8F"/>
<path d="M18.5227 14.7933C18.982 14.7562 19.407 14.5477 19.7041 14.2134C20.0013 13.8792 20.1463 13.4468 20.1072 13.0112C20.0681 12.5756 19.8481 12.1726 19.4957 11.8908C19.1433 11.609 18.6872 11.4716 18.2279 11.5086L18.5227 14.7933Z" fill="#263238"/>
<path d="M0.62517 49.2675C1.39898 53.6654 3.094 57.7538 8.17906 65.9455C8.76012 66.9465 9.46716 67.8768 10.2847 68.7161C11.1427 69.5966 12.1841 70.2987 13.3431 70.7777C14.0199 71.0467 14.7719 71.0942 15.4803 70.9125C16.8594 70.598 18.0333 69.5847 18.1386 68.9607C18.2807 68.122 16.6963 67.2734 16.0751 66.6644C15.5487 66.1652 14.4959 65.3216 14.1432 64.8623C13.7905 64.403 13.3904 64.0336 13.8326 64.0486C14.1011 64.0486 14.359 64.1435 14.617 64.1734C14.8376 64.1933 15.0596 64.1933 15.2802 64.1734C15.5016 64.1884 15.7237 64.1573 15.9311 64.0823C16.1384 64.0073 16.3259 63.8901 16.4804 63.7391C16.5459 63.6631 16.5864 63.5705 16.5967 63.4728C16.607 63.3752 16.5867 63.2768 16.5383 63.19C16.4367 63.0706 16.3017 62.9806 16.1488 62.9304C15.6621 62.7557 15.189 62.5489 14.7328 62.3114C14.2786 62.0642 13.8409 61.7908 13.422 61.4927C12.7798 60.9936 11.906 60.4544 11.5112 59.7605C10.5234 58.0824 9.77302 56.2881 9.27924 54.4242C8.92129 53.1263 8.22643 50.6353 7.86848 48.2741C7.98429 47.9746 9.58982 45.1741 10.6268 43.5467C12.1166 41.2055 13.5378 39.1988 14.9118 37.1121C17.8122 33.7576 17.5438 27.3629 14.9749 25.3711C10.4584 26.4693 9.15817 28.3113 7.66845 31.0419C6.21558 33.6976 2.30966 41.1057 1.01997 44.7648C0.498769 46.2118 0.363139 47.7587 0.62517 49.2675Z" fill="#FFA8A7"/>
</svg>
