<svg width="54" height="28" viewBox="0 0 54 28" fill="none" xmlns="http://www.w3.org/2000/svg">
<path d="M29.0912 2.86946L24.2588 5.51519C24.2588 5.31052 24.3009 5.10585 24.3009 4.90617V3.57832C24.3009 1.21214 22.548 0.25868 20.395 1.43678C19.4648 1.9838 18.6695 2.71416 18.0631 3.57832C17.7104 0.608116 15.2521 -0.495102 12.2726 1.13726C9.04577 2.90441 6.42954 7.20246 6.42954 10.7368V12.7335C6.40562 13.5265 6.57495 14.314 6.92436 15.0348L2.9079 17.2313C2.27835 17.6222 1.75453 18.148 1.37872 18.7663C1.0029 19.3846 0.785612 20.078 0.744385 20.7905C0.744385 22.1034 1.71297 22.6325 2.9079 21.9786L29.0912 7.61679C29.718 7.22782 30.2401 6.70515 30.6158 6.09058C30.9915 5.47602 31.2103 4.78662 31.2547 4.07751C31.2547 2.74466 30.2861 2.21552 29.0912 2.86946Z" fill="#EBEBEB"/>
<path d="M52.337 12.7934L48.689 14.7902C48.7099 14.6396 48.7204 14.4879 48.7206 14.336V13.3376C48.7206 11.5554 47.3994 10.8416 45.7728 11.7252C45.0726 12.1339 44.4731 12.6804 44.0146 13.3276C43.7514 11.0862 41.909 10.2476 39.6454 11.4806C37.2082 12.8134 35.2342 16.0582 35.2342 18.7239V20.2214C35.2164 20.82 35.3443 21.4145 35.6079 21.9586L32.5706 23.611C32.0953 23.9057 31.6999 24.3024 31.4164 24.769C31.1329 25.2356 30.9693 25.7589 30.9387 26.2966C30.9387 27.295 31.6704 27.6894 32.5706 27.1952L52.3317 16.3777C52.8074 16.0829 53.2034 15.6863 53.4877 15.2198C53.7721 14.7533 53.9369 14.23 53.9689 13.692C53.9741 12.7036 53.2372 12.2992 52.337 12.7934Z" fill="#EBEBEB"/>
</svg>
