<svg width="144" height="201" viewBox="0 0 144 201" fill="none" xmlns="http://www.w3.org/2000/svg">
<path d="M90.0823 188.876L109.875 178.018C111.917 176.905 112.939 175.438 112.939 173.975C112.939 172.512 112.939 171.364 112.939 171.364L92.409 160.382C91.8347 160.027 91.3568 159.549 91.0138 158.986C90.6708 158.423 90.4725 157.791 90.435 157.142V134L55.8608 152.969V176.116C55.8969 176.765 56.0941 177.396 56.4362 177.958C56.7784 178.52 57.2558 178.997 57.8295 179.351L75.3166 188.876C79.3857 191.107 86.0026 191.107 90.0823 188.876Z" fill="#89B1FF"/>
<g opacity="0.6">
<path d="M90.0823 188.876L109.875 178.018C111.917 176.905 112.939 175.438 112.939 173.975C112.939 172.512 112.939 171.364 112.939 171.364L92.409 160.382C91.8347 160.027 91.3568 159.549 91.0138 158.986C90.6708 158.423 90.4725 157.791 90.435 157.142V134L55.8608 152.969V176.116C55.8969 176.765 56.0941 177.396 56.4362 177.958C56.7784 178.52 57.2558 178.997 57.8295 179.351L75.3166 188.876C79.3857 191.107 86.0026 191.107 90.0823 188.876Z" fill="black"/>
</g>
<path opacity="0.3" d="M64.1622 180.19V182.816L57.8453 179.351C57.273 178.996 56.7968 178.518 56.4548 177.956C56.1129 177.394 55.9148 176.764 55.8766 176.116V152.949L62.4461 149.37C62.5777 150.952 62.7304 152.594 62.8672 154.192L58.2454 156.728V174.809C58.279 175.457 58.4751 176.089 58.8175 176.652C59.1599 177.214 59.6386 177.691 60.2141 178.043L64.1622 180.19Z" fill="black"/>
<path d="M58.2454 174.789C58.2816 175.437 58.4787 176.068 58.8209 176.63C59.163 177.192 59.6404 177.669 60.2142 178.023L75.3167 186.265C79.3963 188.496 86.0132 188.501 90.0981 186.265L109.901 175.413C113.981 173.181 113.981 169.557 109.901 167.321L94.7936 159.079C94.22 158.724 93.7429 158.245 93.4008 157.682C93.0588 157.119 92.8614 156.488 92.8249 155.839V137.753L58.2507 156.723L58.2454 174.789Z" fill="#89B1FF"/>
<path opacity="0.3" d="M58.2454 174.789C58.2816 175.437 58.4787 176.068 58.8209 176.63C59.163 177.192 59.6404 177.669 60.2142 178.023L75.3167 186.265C79.3963 188.496 86.0132 188.501 90.0981 186.265L109.901 175.413C113.981 173.181 113.981 169.557 109.901 167.321L94.7936 159.079C94.22 158.724 93.7429 158.245 93.4008 157.682C93.0588 157.119 92.8614 156.488 92.8249 155.839V137.753L58.2507 156.723L58.2454 174.789Z" fill="black"/>
<path opacity="0.5" d="M98.8048 161.275L94.7936 159.079C94.22 158.724 93.7429 158.245 93.4008 157.682C93.0588 157.119 92.8614 156.488 92.8248 155.839V137.753L58.2507 156.723V174.809C58.2868 175.457 58.484 176.088 58.8261 176.65C59.1683 177.212 59.6457 177.689 60.2194 178.043L64.1674 180.205L98.8048 161.275Z" fill="black"/>
<path d="M112.944 171.364V173.975C112.944 175.443 111.891 176.9 109.88 178.023L90.0822 188.871C87.9127 189.971 85.4887 190.543 83.0284 190.533V187.932C85.4887 187.942 87.9127 187.371 90.0822 186.27L109.88 175.413C111.917 174.3 112.944 172.832 112.944 171.364Z" fill="#89B1FF"/>
<path opacity="0.5" d="M112.944 171.364V173.975C112.944 175.443 111.891 176.9 109.88 178.023L90.0822 188.871C87.9127 189.971 85.4887 190.543 83.0284 190.533V187.932C85.4887 187.942 87.9127 187.371 90.0822 186.27L109.88 175.413C111.917 174.3 112.944 172.832 112.944 171.364Z" fill="black"/>
<path d="M2.72538 197.292C3.47193 197.636 4.2936 197.808 5.12336 197.793C5.95311 197.778 6.76743 197.577 7.49986 197.207L141.206 123.996C141.922 123.552 142.518 122.955 142.945 122.252C143.372 121.55 143.619 120.762 143.665 119.952V4.46372C143.636 3.67707 143.412 2.90793 143.01 2.21909C142.609 1.53025 142.041 0.941239 141.354 0.500128C140.608 0.157191 139.787 -0.0138681 138.958 0.000878675C138.13 0.0156255 137.316 0.215761 136.585 0.584991L2.88331 73.7967C2.16586 74.2391 1.56876 74.8359 1.14064 75.5385C0.712532 76.2412 0.465522 77.0298 0.419739 77.8402V193.299C0.442605 194.09 0.663605 194.865 1.0645 195.559C1.46539 196.254 2.03469 196.848 2.72538 197.292Z" fill="#89B1FF"/>
<path d="M7.50001 197.183L141.206 123.971C141.924 123.527 142.521 122.929 142.949 122.226C143.377 121.523 143.624 120.733 143.67 119.922V4.45901C143.67 2.96143 142.565 2.36739 141.206 3.11119L7.50001 76.3229C6.78256 76.7653 6.18546 77.3621 5.75734 78.0647C5.32923 78.7674 5.08222 79.556 5.03644 80.3664V195.83C5.03644 197.322 6.14189 197.926 7.50001 197.183Z" fill="#89B1FF"/>
<path opacity="0.5" d="M7.50001 197.183L141.206 123.971C141.924 123.527 142.521 122.929 142.949 122.226C143.377 121.523 143.624 120.733 143.67 119.922V4.45901C143.67 2.96143 142.565 2.36739 141.206 3.11119L7.50001 76.3229C6.78256 76.7653 6.18546 77.3621 5.75734 78.0647C5.32923 78.7674 5.08222 79.556 5.03644 80.3664V195.83C5.03644 197.322 6.14189 197.926 7.50001 197.183Z" fill="black"/>
<path d="M7.13691 199.848C6.43778 200.134 5.68206 200.274 4.92097 200.258C4.15988 200.243 3.41119 200.072 2.72564 199.758C2.03821 199.317 1.47052 198.728 1.0689 198.039C0.667286 197.35 0.443131 196.581 0.414734 195.795V186.45L5.03655 188.986V198.326C5.03655 199.683 5.94724 200.287 7.13691 199.848Z" fill="#89B1FF"/>
<path opacity="0.5" d="M7.13691 199.848C6.43778 200.134 5.68206 200.274 4.92097 200.258C4.15988 200.243 3.41119 200.072 2.72564 199.758C2.03821 199.317 1.47052 198.728 1.0689 198.039C0.667286 197.35 0.443131 196.581 0.414734 195.795V186.45L5.03655 188.986V198.326C5.03655 199.683 5.94724 200.287 7.13691 199.848Z" fill="black"/>
<path d="M5.03644 188.986V198.321C5.03644 199.818 6.14189 200.417 7.50001 199.669L141.206 126.462C141.924 126.018 142.521 125.42 142.949 124.717C143.377 124.014 143.624 123.224 143.67 122.413V113.059L5.03644 188.986Z" fill="#89B1FF"/>
<path opacity="0.3" d="M5.03644 188.966V198.321C5.03644 199.818 6.14189 200.417 7.50001 199.669L141.206 126.462C141.924 126.018 142.521 125.42 142.949 124.717C143.377 124.014 143.624 123.224 143.67 122.413V113.059L5.03644 188.966Z" fill="black"/>
<path d="M9.65839 177.265V81.8237C9.68674 81.3369 9.83539 80.8632 10.0923 80.4409C10.3493 80.0186 10.7073 79.6595 11.1376 79.3926L137.58 10.1644C138.396 9.72017 139.059 10.0796 139.059 10.9731V106.439C139.031 106.925 138.882 107.398 138.625 107.82C138.368 108.241 138.01 108.599 137.58 108.865L11.1376 178.078C10.3217 178.523 9.65839 178.158 9.65839 177.265Z" fill="#89B1FF"/>
<path d="M9.65839 177.265V81.8237C9.68674 81.3369 9.83539 80.8632 10.0923 80.4409C10.3493 80.0186 10.7073 79.6595 11.1376 79.3926L137.58 10.1644C138.396 9.72017 139.059 10.0796 139.059 10.9731V106.439C139.031 106.925 138.882 107.398 138.625 107.82C138.368 108.241 138.01 108.599 137.58 108.865L11.1376 178.078C10.3217 178.523 9.65839 178.158 9.65839 177.265Z" fill="#263238"/>
<path opacity="0.7" d="M5.763 78.0546C5.32529 78.7572 5.07586 79.5507 5.03656 80.3659V188.985L0.414734 186.45V77.84C0.446502 77.0259 0.694565 76.2326 1.13591 75.5337L5.763 78.0546Z" fill="black"/>
<path opacity="0.3" d="M143.66 4.07434C143.486 2.87129 142.459 2.43699 141.217 3.1109L7.51064 76.3226C6.78253 76.7506 6.18256 77.3488 5.76824 78.0598L1.14642 75.5289C1.56374 74.82 2.16307 74.2225 2.88882 73.7917L136.601 0.609938C137.333 0.239889 138.147 0.0393066 138.977 0.0245584C139.807 0.00981012 140.628 0.181314 141.375 0.525075C142 0.928597 142.527 1.45391 142.921 2.06596C143.315 2.678 143.567 3.3627 143.66 4.07434Z" fill="black"/>
</svg>
