<svg width="400" height="400" viewBox="0 0 400 400" fill="none" xmlns="http://www.w3.org/2000/svg">
<path d="M200 400C310.457 400 400 350.58 400 289.618C400 228.655 310.457 179.235 200 179.235C89.543 179.235 0 228.655 0 289.618C0 350.58 89.543 400 200 400Z" fill="#F5F5F5"/>
<path d="M55.3692 317.101C71.4863 317.101 84.5519 309.891 84.5519 300.997C84.5519 292.102 71.4863 284.892 55.3692 284.892C39.252 284.892 26.1864 292.102 26.1864 300.997C26.1864 309.891 39.252 317.101 55.3692 317.101Z" fill="#E0E0E0"/>
<path d="M175.85 265.735L95.4606 310.104L37.0144 277.604L117.404 233.243L175.85 265.735Z" fill="#E0E0E0"/>
<path d="M306.854 356.849L109.231 247.778C108.819 247.553 108.477 247.228 108.238 246.836C108 246.443 107.875 245.998 107.875 245.544C107.875 245.091 108 244.645 108.238 244.253C108.477 243.86 108.819 243.535 109.231 243.31L141.132 225.705C142.432 224.984 143.908 224.605 145.411 224.605C146.914 224.605 148.39 224.984 149.69 225.705L347.313 334.767C347.727 334.991 348.072 335.317 348.312 335.71C348.551 336.103 348.677 336.55 348.677 337.005C348.677 337.46 348.551 337.907 348.312 338.301C348.072 338.694 347.727 339.019 347.313 339.243L315.421 356.849C314.118 357.565 312.641 357.942 311.137 357.942C309.634 357.942 308.157 357.565 306.854 356.849Z" fill="#E0E0E0"/>
<path d="M337.687 300.491L348.793 306.657C348.793 306.657 343.186 289.558 346.299 272.355C347.475 265.855 349.942 262.631 350.785 260.899C351.628 259.166 358.356 248.43 352.462 243.491C346.569 238.551 332.726 248.379 333.354 274.877C333.66 283.556 335.116 292.163 337.687 300.491Z" fill="#89B1FF"/>
<path opacity="0.3" d="M337.687 300.491L348.793 306.657C348.793 306.657 343.186 289.558 346.299 272.355C347.475 265.855 349.942 262.631 350.785 260.899C351.628 259.166 358.356 248.43 352.462 243.491C346.569 238.551 332.726 248.379 333.354 274.877C333.66 283.556 335.116 292.163 337.687 300.491Z" fill="black"/>
<path d="M342.846 303.741C342.764 303.741 342.684 303.717 342.617 303.673C342.55 303.629 342.498 303.566 342.469 303.493C342.424 303.381 338.235 292.25 338.45 274.388C338.665 256.525 348.533 246.869 348.632 246.775C348.708 246.702 348.811 246.661 348.919 246.661C349.027 246.661 349.13 246.702 349.206 246.775C349.282 246.848 349.325 246.946 349.325 247.049C349.325 247.152 349.282 247.251 349.206 247.324C349.107 247.418 339.473 256.757 339.257 274.396C339.042 292.036 343.187 303.115 343.222 303.227C343.241 303.273 343.25 303.323 343.248 303.373C343.247 303.423 343.235 303.472 343.213 303.518C343.191 303.563 343.16 303.604 343.122 303.638C343.083 303.672 343.038 303.698 342.989 303.716C342.943 303.732 342.895 303.741 342.846 303.741Z" fill="white"/>
<path d="M340.845 302.087L359.2 312.378C359.2 312.378 367.597 311.194 366.96 303.639C366.323 296.084 362.914 294.292 367.166 290.973C371.418 287.655 372.549 287.432 372.306 284.173C372.064 280.914 369.812 279.499 368.718 278.17C367.624 276.841 364.636 274.174 366.744 270.246C368.853 266.319 371.732 262.529 367.471 260.728C364.932 259.656 360.662 261.002 357.827 263.875C354.992 266.748 352.669 268.814 349.986 269.483C347.304 270.152 341.706 270.204 341.913 274.629C342.119 279.053 343.303 280.571 342.182 282.535C340.029 286.308 330.977 288.263 340.845 302.087Z" fill="#89B1FF"/>
<path d="M348.282 306.674C348.182 306.672 348.085 306.636 348.011 306.571C347.936 306.506 347.889 306.418 347.878 306.322C347.878 306.056 345.869 279.953 364.843 262.81C364.879 262.774 364.923 262.746 364.972 262.726C365.02 262.707 365.073 262.697 365.125 262.697C365.178 262.697 365.23 262.707 365.279 262.726C365.327 262.746 365.371 262.774 365.408 262.81C365.482 262.884 365.524 262.982 365.524 263.085C365.524 263.187 365.482 263.286 365.408 263.359C346.721 280.244 348.677 305.988 348.704 306.236C348.711 306.338 348.677 306.439 348.609 306.517C348.54 306.596 348.442 306.646 348.336 306.657L348.282 306.674Z" fill="white"/>
<path d="M351.61 284.257C351.509 284.258 351.411 284.222 351.337 284.157C351.262 284.091 351.215 284.002 351.206 283.906C351.051 281.888 350.47 279.921 349.499 278.123C348.528 276.325 347.186 274.733 345.555 273.444C345.512 273.414 345.475 273.376 345.447 273.333C345.419 273.29 345.401 273.242 345.392 273.191C345.384 273.141 345.386 273.09 345.399 273.04C345.411 272.991 345.434 272.944 345.465 272.903C345.495 272.862 345.534 272.828 345.578 272.801C345.623 272.775 345.673 272.757 345.724 272.749C345.776 272.741 345.829 272.743 345.88 272.755C345.931 272.767 345.979 272.788 346.021 272.818C347.763 274.166 349.192 275.845 350.217 277.75C351.243 279.654 351.842 281.742 351.978 283.88C351.983 283.982 351.947 284.082 351.876 284.158C351.806 284.235 351.707 284.283 351.601 284.292L351.61 284.257Z" fill="white"/>
<path d="M350.22 288.726C350.17 288.726 350.121 288.718 350.074 288.7C350.028 288.682 349.986 288.656 349.951 288.623C349.913 288.588 349.883 288.546 349.863 288.499C349.842 288.453 349.832 288.403 349.832 288.353C349.832 288.302 349.842 288.252 349.863 288.206C349.883 288.16 349.913 288.118 349.951 288.082C350.148 287.877 354.912 282.937 365.91 284.412C366.016 284.425 366.112 284.477 366.177 284.558C366.243 284.638 366.273 284.74 366.26 284.841C366.244 284.943 366.188 285.035 366.102 285.097C366.017 285.16 365.909 285.188 365.802 285.175C355.253 283.786 350.597 288.546 350.552 288.606C350.51 288.649 350.458 288.682 350.401 288.703C350.343 288.724 350.281 288.732 350.22 288.726Z" fill="white"/>
<path d="M320.266 223.313L294.653 208.975L309.904 229.024L320.266 223.313Z" fill="#BBCEFF"/>
<path opacity="0.6" d="M320.266 223.313L294.653 208.975L309.904 229.024L320.266 223.313Z" fill="black"/>
<path d="M305.042 276.378L155.145 193.642C154.502 193.288 153.967 192.778 153.596 192.164C153.224 191.55 153.028 190.853 153.028 190.143V92.3064C153.028 91.597 153.224 90.9002 153.595 90.2858C153.966 89.6714 154.499 89.161 155.142 88.8057C155.784 88.4505 156.513 88.2629 157.255 88.2617C157.997 88.2606 158.727 88.4458 159.37 88.7991L309.285 171.535C309.928 171.891 310.463 172.402 310.834 173.018C311.206 173.633 311.402 174.331 311.402 175.042V272.879C311.402 273.59 311.206 274.289 310.833 274.904C310.46 275.52 309.925 276.031 309.28 276.385C308.635 276.74 307.904 276.926 307.16 276.925C306.416 276.923 305.685 276.735 305.042 276.378Z" fill="#E0E0E0"/>
<path d="M309.904 229.025L320.265 223.314V339.082C320.267 340.126 319.979 341.151 319.433 342.054C318.886 342.958 318.099 343.707 317.152 344.227L306.917 349.895L309.904 229.025Z" fill="#BBCEFF"/>
<path opacity="0.3" d="M309.904 229.025L320.265 223.314V339.082C320.267 340.126 319.979 341.151 319.433 342.054C318.886 342.958 318.099 343.707 317.152 344.227L306.917 349.895L309.904 229.025Z" fill="black"/>
<path d="M298.242 280.039L148.327 197.304C147.686 196.946 147.154 196.434 146.784 195.818C146.414 195.203 146.219 194.506 146.219 193.796V95.9337C146.218 95.224 146.413 94.5267 146.784 93.912C147.155 93.2972 147.689 92.7868 148.332 92.4321C148.975 92.0774 149.705 91.8909 150.447 91.8914C151.189 91.8919 151.919 92.0794 152.561 92.435L302.476 175.171C303.119 175.525 303.654 176.034 304.025 176.649C304.397 177.263 304.593 177.96 304.593 178.669V276.532C304.593 277.243 304.398 277.941 304.027 278.556C303.655 279.172 303.121 279.683 302.477 280.039C301.833 280.394 301.103 280.581 300.359 280.582C299.616 280.582 298.885 280.395 298.242 280.039Z" fill="#EBEBEB"/>
<path d="M291.433 283.865L141.527 201.138C140.884 200.781 140.349 200.27 139.978 199.655C139.606 199.039 139.41 198.341 139.41 197.63V99.7934C139.409 99.0837 139.604 98.3863 139.975 97.7716C140.346 97.1569 140.88 96.6464 141.523 96.2917C142.166 95.937 142.896 95.7505 143.638 95.751C144.381 95.7515 145.11 95.939 145.752 96.2946L295.667 179.03C296.313 179.386 296.849 179.898 297.221 180.516C297.593 181.133 297.787 181.834 297.784 182.546V280.366C297.783 281.076 297.587 281.773 297.214 282.387C296.842 283.002 296.308 283.512 295.664 283.866C295.021 284.221 294.291 284.407 293.548 284.407C292.806 284.407 292.076 284.22 291.433 283.865Z" fill="#FAFAFA"/>
<path d="M118.31 98.5066V242.316C118.309 244.357 118.871 246.362 119.939 248.129C121.007 249.897 122.543 251.364 124.392 252.384L301.121 349.903C302.014 350.395 303.027 350.654 304.057 350.653C305.088 350.653 306.1 350.393 306.993 349.901C307.885 349.408 308.627 348.7 309.142 347.847C309.658 346.994 309.93 346.026 309.931 345.041V229.024L216.722 177.572L200.619 142.07C197.613 135.439 192.455 129.91 185.906 126.299L126.922 93.7129C126.046 93.2295 125.052 92.9758 124.041 92.9775C123.029 92.9793 122.036 93.2365 121.162 93.723C120.288 94.2095 119.564 94.9081 119.063 95.7481C118.562 96.5882 118.302 97.5397 118.31 98.5066Z" fill="#BBCEFF"/>
<path opacity="0.2" d="M118.31 98.5066V242.316C118.309 244.357 118.871 246.362 119.939 248.129C121.007 249.897 122.543 251.364 124.392 252.384L301.121 349.903C302.014 350.395 303.027 350.654 304.057 350.653C305.088 350.653 306.1 350.393 306.993 349.901C307.885 349.408 308.627 348.7 309.142 347.847C309.658 346.994 309.93 346.026 309.931 345.041V229.024L216.722 177.572L200.619 142.07C197.613 135.439 192.455 129.91 185.906 126.299L126.922 93.7129C126.046 93.2295 125.052 92.9758 124.041 92.9775C123.029 92.9793 122.036 93.2365 121.162 93.723C120.288 94.2095 119.564 94.9081 119.063 95.7481C118.562 96.5882 118.302 97.5397 118.31 98.5066Z" fill="black"/>
<path d="M258.366 255.436C257.872 255.162 257.379 254.922 256.894 254.708C256.518 243.645 248.444 230.568 238.575 225.114C235.247 223.27 232.125 222.541 229.434 222.764C225.666 211.084 217.009 199.611 206.926 194.019C194.061 186.919 183.511 192.038 182.489 205.382C181.87 204.97 181.242 204.584 180.614 204.233C170.844 198.847 162.932 203.212 162.932 213.991C162.932 224.771 170.844 237.883 180.614 243.268L258.392 286.196C266.099 290.484 272.342 287.003 272.342 278.479C272.342 269.955 266.072 259.647 258.366 255.436Z" fill="#BBCEFF"/>
<path opacity="0.4" d="M258.366 255.436C257.872 255.162 257.379 254.922 256.894 254.708C256.518 243.645 248.444 230.568 238.575 225.114C235.247 223.27 232.125 222.541 229.434 222.764C225.666 211.084 217.009 199.611 206.926 194.019C194.061 186.919 183.511 192.038 182.489 205.382C181.87 204.97 181.242 204.584 180.614 204.233C170.844 198.847 162.932 203.212 162.932 213.991C162.932 224.771 170.844 237.883 180.614 243.268L258.392 286.196C266.099 290.484 272.342 287.003 272.342 278.479C272.342 269.955 266.072 259.647 258.366 255.436Z" fill="white"/>
<path d="M192.097 254.433L210.424 286.376L230.008 275.031L222.266 270.855V239.237L201.4 227.746V259.621L192.097 254.433Z" fill="white"/>
<path d="M139.374 52.5596C119.841 52.5592 100.815 58.5029 85.052 69.5297C69.2891 80.5565 57.6077 96.0938 51.7 113.891L44.281 109.809C44.0635 109.687 43.8172 109.621 43.5653 109.615C43.3134 109.61 43.0643 109.666 42.8415 109.779C42.6187 109.891 42.4296 110.056 42.2922 110.258C42.1548 110.46 42.0735 110.692 42.0561 110.932C40.7082 124.678 42.7833 138.533 48.1116 151.365C50.7318 157.734 54.2773 163.719 58.6436 169.142C58.7833 169.311 58.9671 169.442 59.1763 169.521C59.3856 169.6 59.613 169.625 59.8357 169.594C60.0584 169.563 60.2686 169.476 60.4451 169.343C60.6217 169.209 60.7584 169.034 60.8415 168.834C64.0746 161.082 68.5344 153.852 74.0648 147.395C77.6418 143.152 81.6638 139.27 86.068 135.81C86.3153 135.617 86.5097 135.369 86.6345 135.089C86.7593 134.808 86.8107 134.502 86.7842 134.198C86.7577 133.894 86.6541 133.601 86.4824 133.344C86.3107 133.087 86.0761 132.874 85.7989 132.723L76.8996 127.809C81.6432 111.424 92.0109 97.0386 106.337 86.9643C120.663 76.89 138.116 71.7114 155.892 72.2605C173.668 72.8097 190.735 79.0546 204.351 89.9921C217.967 100.93 227.341 115.925 230.968 132.568C228.901 110.711 218.358 90.3823 201.409 75.5777C184.461 60.773 162.333 52.5625 139.374 52.5596Z" fill="#89B1FF"/>
<path opacity="0.4" d="M139.374 52.5596C119.841 52.5592 100.815 58.5029 85.052 69.5297C69.2891 80.5565 57.6077 96.0938 51.7 113.891L44.281 109.809C44.0635 109.687 43.8172 109.621 43.5653 109.615C43.3134 109.61 43.0643 109.666 42.8415 109.779C42.6187 109.891 42.4296 110.056 42.2922 110.258C42.1548 110.46 42.0735 110.692 42.0561 110.932C40.7082 124.678 42.7833 138.533 48.1116 151.365C50.7318 157.734 54.2773 163.719 58.6436 169.142C58.7833 169.311 58.9671 169.442 59.1763 169.521C59.3856 169.6 59.613 169.625 59.8357 169.594C60.0584 169.563 60.2686 169.476 60.4451 169.343C60.6217 169.209 60.7584 169.034 60.8415 168.834C64.0746 161.082 68.5344 153.852 74.0648 147.395C77.6418 143.152 81.6638 139.27 86.068 135.81C86.3153 135.617 86.5097 135.369 86.6345 135.089C86.7593 134.808 86.8107 134.502 86.7842 134.198C86.7577 133.894 86.6541 133.601 86.4824 133.344C86.3107 133.087 86.0761 132.874 85.7989 132.723L76.8996 127.809C81.6432 111.424 92.0109 97.0386 106.337 86.9643C120.663 76.89 138.116 71.7114 155.892 72.2605C173.668 72.8097 190.735 79.0546 204.351 89.9921C217.967 100.93 227.341 115.925 230.968 132.568C228.901 110.711 218.358 90.3823 201.409 75.5777C184.461 60.773 162.333 52.5625 139.374 52.5596Z" fill="white"/>
<path d="M316.236 70.7704C326.353 65.1866 326.354 47.0808 316.237 30.33C306.119 13.5793 289.716 4.52671 279.598 10.1105C269.48 15.6944 269.48 33.8001 279.597 50.5509C289.715 67.3016 306.118 76.3542 316.236 70.7704Z" fill="#89B1FF"/>
<path opacity="0.2" d="M316.236 70.7704C326.353 65.1866 326.354 47.0808 316.237 30.33C306.119 13.5793 289.716 4.52671 279.598 10.1105C269.48 15.6944 269.48 33.8001 279.597 50.5509C289.715 67.3016 306.118 76.3542 316.236 70.7704Z" fill="black"/>
<path d="M314.713 71.6105C324.831 66.0266 324.831 47.9209 314.714 31.1701C304.597 14.4194 288.193 5.36679 278.076 10.9506C267.958 16.5344 267.958 34.6402 278.075 51.391C288.192 68.1417 304.596 77.1943 314.713 71.6105Z" fill="#89B1FF"/>
<path d="M286.122 49.6258L306.065 60.6881C306.307 60.8242 306.584 60.8964 306.865 60.8976C307.147 60.8987 307.423 60.8287 307.667 60.6946C307.912 60.5606 308.114 60.3672 308.255 60.1341C308.396 59.9011 308.469 59.6366 308.469 59.3675V35.7851C308.464 35.1947 308.295 34.6161 307.98 34.1084C307.665 33.6007 307.214 33.182 306.675 32.8952L286.732 21.8672C286.489 21.7311 286.213 21.6589 285.931 21.6577C285.65 21.6566 285.373 21.7266 285.129 21.8607C284.885 21.9947 284.682 22.1881 284.541 22.4212C284.401 22.6542 284.327 22.9187 284.328 23.1878V46.7702C284.339 47.3547 284.51 47.9262 284.825 48.4274C285.14 48.9286 285.587 49.3419 286.122 49.6258Z" fill="#89B1FF"/>
<path opacity="0.6" d="M286.122 49.6258L306.065 60.6881C306.307 60.8242 306.584 60.8964 306.865 60.8976C307.147 60.8987 307.423 60.8287 307.667 60.6946C307.912 60.5606 308.114 60.3672 308.255 60.1341C308.396 59.9011 308.469 59.6366 308.469 59.3675V35.7851C308.464 35.1947 308.295 34.6161 307.98 34.1084C307.665 33.6007 307.214 33.182 306.675 32.8952L286.732 21.8672C286.489 21.7311 286.213 21.6589 285.931 21.6577C285.65 21.6566 285.373 21.7266 285.129 21.8607C284.885 21.9947 284.682 22.1881 284.541 22.4212C284.401 22.6542 284.327 22.9187 284.328 23.1878V46.7702C284.339 47.3547 284.51 47.9262 284.825 48.4274C285.14 48.9286 285.587 49.3419 286.122 49.6258Z" fill="white"/>
<path d="M288.122 46.1963L304.153 55.0033C304.35 55.114 304.574 55.1722 304.802 55.1718C305.03 55.1715 305.254 55.1126 305.45 55.0013C305.646 54.89 305.808 54.7304 305.917 54.5392C306.027 54.348 306.081 54.1321 306.073 53.9142V36.2489C306.073 35.7795 305.943 35.3185 305.698 34.9121C305.452 34.5057 305.099 34.1682 304.674 33.9335L288.643 25.0922C288.448 24.9856 288.227 24.9298 288.002 24.9304C287.777 24.931 287.557 24.988 287.362 25.0957C287.168 25.2033 287.007 25.3579 286.894 25.5439C286.782 25.7299 286.723 25.9409 286.723 26.1556V43.8467C286.717 44.3218 286.843 44.79 287.089 45.2029C287.335 45.6159 287.692 45.9588 288.122 46.1963Z" fill="#89B1FF"/>
<path opacity="0.4" d="M306.073 36.2494V53.9147C306.076 54.1305 306.019 54.343 305.907 54.5306C305.795 54.7181 305.634 54.874 305.438 54.9821C305.243 55.0903 305.021 55.147 304.795 55.1462C304.57 55.1455 304.348 55.0875 304.154 54.9781L288.122 46.1968C287.697 45.9649 287.343 45.6292 287.097 45.224C286.851 44.8188 286.722 44.3585 286.723 43.8901V26.1561C286.72 25.9403 286.778 25.7278 286.889 25.5402C287.001 25.3527 287.163 25.1968 287.358 25.0887C287.553 24.9805 287.775 24.9238 288.001 24.9246C288.227 24.9253 288.448 24.9833 288.643 25.0927L304.674 33.9426C305.1 34.1745 305.454 34.5102 305.699 34.9154C305.945 35.3206 306.074 35.7809 306.073 36.2494Z" fill="white"/>
<path d="M306.073 53.2883V53.9143C306.076 54.13 306.018 54.3426 305.907 54.5301C305.795 54.7177 305.633 54.8735 305.438 54.9817C305.243 55.0899 305.021 55.1465 304.795 55.1458C304.57 55.1451 304.348 55.0871 304.154 54.9776L288.122 46.1964C287.697 45.9645 287.343 45.6288 287.097 45.2236C286.851 44.8183 286.722 44.3581 286.723 43.8896V42.1745L290.921 38.7444L295.873 45.4847L300.709 39.9878L306.073 53.2883Z" fill="#FAFAFA"/>
<path d="M292.249 33.436C292.29 34.1515 292.506 34.8478 292.88 35.4689C293.254 36.09 293.776 36.6185 294.402 37.012C295.595 37.6723 296.564 37.1406 296.564 35.82C296.522 35.1037 296.304 34.4069 295.929 33.7858C295.553 33.1646 295.03 32.6365 294.402 32.244C293.218 31.618 292.249 32.124 292.249 33.436Z" fill="#FAFAFA"/>
<path d="M361.135 158.814C371.253 153.23 371.253 135.125 361.136 118.374C351.019 101.623 334.615 92.5704 324.498 98.1542C314.38 103.738 314.38 121.844 324.497 138.595C334.614 155.345 351.018 164.398 361.135 158.814Z" fill="#89B1FF"/>
<path opacity="0.2" d="M361.135 158.814C371.253 153.23 371.253 135.125 361.136 118.374C351.019 101.623 334.615 92.5704 324.498 98.1542C314.38 103.738 314.38 121.844 324.497 138.595C334.614 155.345 351.018 164.398 361.135 158.814Z" fill="black"/>
<path d="M359.617 159.661C369.735 154.077 369.735 135.971 359.618 119.221C349.501 102.47 333.097 93.4173 322.98 99.0012C312.862 104.585 312.862 122.691 322.979 139.442C333.096 156.192 349.5 165.245 359.617 159.661Z" fill="#89B1FF"/>
<path d="M331.632 109.912C331.388 109.779 331.111 109.708 330.83 109.709C330.549 109.71 330.273 109.781 330.029 109.915C329.786 110.05 329.584 110.243 329.443 110.476C329.302 110.709 329.228 110.973 329.227 111.241V134.824C329.227 135.409 329.389 135.983 329.696 136.489C330.004 136.995 330.445 137.415 330.977 137.705L350.964 148.742C351.21 148.888 351.494 148.968 351.784 148.972C352.074 148.977 352.36 148.905 352.611 148.766C352.862 148.627 353.068 148.425 353.208 148.182C353.348 147.939 353.416 147.664 353.404 147.387V129.884L348.022 118.916L331.632 109.912Z" fill="#89B1FF"/>
<path opacity="0.6" d="M331.632 109.912C331.388 109.779 331.111 109.708 330.83 109.709C330.549 109.71 330.273 109.781 330.029 109.915C329.786 110.05 329.584 110.243 329.443 110.476C329.302 110.709 329.228 110.973 329.227 111.241V134.824C329.227 135.409 329.389 135.983 329.696 136.489C330.004 136.995 330.445 137.415 330.977 137.705L350.964 148.742C351.21 148.888 351.494 148.968 351.784 148.972C352.074 148.977 352.36 148.905 352.611 148.766C352.862 148.627 353.068 148.425 353.208 148.182C353.348 147.939 353.416 147.664 353.404 147.387V129.884L348.022 118.916L331.632 109.912Z" fill="white"/>
<path d="M347.241 122.93L347.941 118.916L353.324 129.893L348.434 126.042C347.968 125.669 347.612 125.185 347.402 124.639C347.193 124.092 347.137 123.503 347.241 122.93Z" fill="#89B1FF"/>
<path opacity="0.4" d="M347.241 122.93L347.941 118.916L353.324 129.893L348.434 126.042C347.968 125.669 347.612 125.185 347.402 124.639C347.193 124.092 347.137 123.503 347.241 122.93Z" fill="white"/>
<path d="M349.188 132.139C349.09 132.137 348.994 132.111 348.91 132.061L333.13 123.375C333.005 123.303 332.914 123.188 332.877 123.053C332.84 122.918 332.86 122.775 332.933 122.654C333.006 122.535 333.125 122.449 333.264 122.413C333.404 122.378 333.552 122.397 333.677 122.466L349.466 131.17C349.591 131.241 349.682 131.357 349.719 131.491C349.756 131.626 349.736 131.769 349.664 131.89C349.614 131.968 349.544 132.032 349.461 132.076C349.377 132.119 349.283 132.141 349.188 132.139Z" fill="#FAFAFA"/>
<path d="M349.188 137.251C349.091 137.248 348.996 137.225 348.91 137.182L333.13 128.469C333.005 128.398 332.914 128.282 332.877 128.148C332.84 128.013 332.86 127.87 332.933 127.749C333.006 127.63 333.125 127.544 333.264 127.508C333.404 127.473 333.552 127.492 333.677 127.56L349.466 136.239C349.591 136.31 349.682 136.426 349.719 136.56C349.756 136.695 349.736 136.838 349.664 136.959C349.62 137.045 349.553 137.118 349.469 137.169C349.385 137.221 349.288 137.249 349.188 137.251Z" fill="#FAFAFA"/>
<path d="M349.188 142.36C349.091 142.358 348.996 142.335 348.91 142.292L333.13 133.579C333.005 133.508 332.914 133.392 332.877 133.258C332.84 133.123 332.86 132.98 332.933 132.859C333.006 132.74 333.125 132.653 333.264 132.618C333.404 132.583 333.552 132.601 333.677 132.67L349.466 141.383C349.572 141.44 349.654 141.529 349.701 141.637C349.747 141.744 349.755 141.863 349.723 141.975C349.692 142.087 349.622 142.185 349.525 142.255C349.428 142.325 349.309 142.362 349.188 142.36Z" fill="#FAFAFA"/>
<path d="M267.403 107.884C277.567 102.3 277.605 84.1323 267.487 67.3047C257.37 50.4771 240.929 41.3622 230.765 46.946C220.601 52.5298 220.563 70.6979 230.68 87.5255C240.797 104.353 257.239 113.468 267.403 107.884Z" fill="#89B1FF"/>
<path opacity="0.2" d="M267.403 107.884C277.567 102.3 277.605 84.1323 267.487 67.3047C257.37 50.4771 240.929 41.3622 230.765 46.946C220.601 52.5298 220.563 70.6979 230.68 87.5255C240.797 104.353 257.239 113.468 267.403 107.884Z" fill="black"/>
<path d="M264.805 108.23C274.923 102.647 274.923 84.5408 264.806 67.79C254.689 51.0392 238.285 41.9867 228.168 47.5705C218.05 53.1543 218.05 71.2601 228.167 88.0108C238.284 104.762 254.688 113.814 264.805 108.23Z" fill="#89B1FF"/>
<path d="M236.162 86.286L256.15 97.314C256.393 97.45 256.669 97.5223 256.95 97.5234C257.232 97.5246 257.509 97.4546 257.753 97.3205C257.997 97.1864 258.199 96.9931 258.34 96.76C258.481 96.5269 258.555 96.2624 258.554 95.9934V72.411C258.554 71.8248 258.392 71.2491 258.085 70.7417C257.778 70.2344 257.336 69.8134 256.805 69.5211L236.781 58.4931C236.539 58.3592 236.263 58.2886 235.983 58.2886C235.703 58.2885 235.428 58.3589 235.185 58.4927C234.942 58.6266 234.741 58.8191 234.6 59.0509C234.46 59.2828 234.386 59.5459 234.386 59.8137V83.3961C234.39 83.9846 234.556 84.5617 234.868 85.0691C235.18 85.5765 235.626 85.9963 236.162 86.286Z" fill="#89B1FF"/>
<path opacity="0.6" d="M236.162 86.286L256.15 97.314C256.393 97.45 256.669 97.5223 256.95 97.5234C257.232 97.5246 257.509 97.4546 257.753 97.3205C257.997 97.1864 258.199 96.9931 258.34 96.76C258.481 96.5269 258.555 96.2624 258.554 95.9934V72.411C258.554 71.8248 258.392 71.2491 258.085 70.7417C257.778 70.2344 257.336 69.8134 256.805 69.5211L236.781 58.4931C236.539 58.3592 236.263 58.2886 235.983 58.2886C235.703 58.2885 235.428 58.3589 235.185 58.4927C234.942 58.6266 234.741 58.8191 234.6 59.0509C234.46 59.2828 234.386 59.5459 234.386 59.8137V83.3961C234.39 83.9846 234.556 84.5617 234.868 85.0691C235.18 85.5765 235.626 85.9963 236.162 86.286Z" fill="white"/>
<path d="M241.608 73.9037V81.9045C241.608 82.2207 241.739 82.5239 241.973 82.7474C242.207 82.9709 242.524 83.0965 242.855 83.0965H250.112C250.351 83.0964 250.585 83.0306 250.786 82.9071C250.987 82.7835 251.147 82.6074 251.246 82.3996C251.345 82.1918 251.38 81.9611 251.346 81.735C251.312 81.5089 251.211 81.2969 251.054 81.1242L243.797 73.1233C243.63 72.9398 243.409 72.8094 243.163 72.7494C242.916 72.6893 242.657 72.7027 242.419 72.7875C242.181 72.8724 241.975 73.0248 241.831 73.2243C241.686 73.4237 241.608 73.6608 241.608 73.9037Z" fill="#FAFAFA"/>
<path d="M297.919 74.9403C297.75 74.9403 297.588 74.8761 297.468 74.7619C297.349 74.6478 297.282 74.4929 297.282 74.3314V72.7107C297.282 72.5492 297.349 72.3943 297.468 72.2801C297.588 72.166 297.75 72.1018 297.919 72.1018C298.002 72.1018 298.084 72.1176 298.161 72.1483C298.238 72.179 298.308 72.224 298.366 72.2806C298.424 72.3373 298.47 72.4045 298.502 72.4783C298.533 72.5521 298.548 72.6311 298.547 72.7107V74.3314C298.548 74.411 298.533 74.4899 298.502 74.5638C298.47 74.6376 298.424 74.7048 298.366 74.7614C298.308 74.8181 298.238 74.8631 298.161 74.8938C298.084 74.9245 298.002 74.9403 297.919 74.9403Z" fill="#89B1FF"/>
<path d="M297.919 165.652C297.75 165.652 297.588 165.587 297.468 165.473C297.349 165.359 297.282 165.204 297.282 165.043V161.801C297.282 161.64 297.349 161.485 297.468 161.371C297.588 161.256 297.75 161.192 297.919 161.192C298.002 161.192 298.084 161.208 298.161 161.239C298.238 161.269 298.308 161.314 298.366 161.371C298.424 161.428 298.47 161.495 298.502 161.569C298.533 161.643 298.548 161.722 298.547 161.801V165.043C298.548 165.122 298.533 165.201 298.502 165.275C298.47 165.349 298.424 165.416 298.366 165.473C298.308 165.529 298.238 165.574 298.161 165.605C298.084 165.636 298.002 165.652 297.919 165.652ZM297.919 159.169C297.75 159.169 297.588 159.104 297.468 158.99C297.349 158.876 297.282 158.721 297.282 158.56V155.327C297.282 155.165 297.349 155.01 297.468 154.896C297.588 154.782 297.75 154.718 297.919 154.718C298.002 154.718 298.084 154.734 298.161 154.764C298.238 154.795 298.308 154.84 298.366 154.897C298.424 154.953 298.47 155.021 298.502 155.094C298.533 155.168 298.548 155.247 298.547 155.327V158.534C298.552 158.616 298.539 158.697 298.51 158.774C298.48 158.851 298.435 158.921 298.376 158.981C298.317 159.04 298.246 159.087 298.168 159.12C298.089 159.152 298.004 159.169 297.919 159.169ZM297.919 152.694C297.75 152.694 297.588 152.63 297.468 152.516C297.349 152.402 297.282 152.247 297.282 152.085V148.844C297.282 148.682 297.349 148.527 297.468 148.413C297.588 148.299 297.75 148.235 297.919 148.235C298.002 148.235 298.084 148.251 298.161 148.281C298.238 148.312 298.308 148.357 298.366 148.414C298.424 148.47 298.47 148.538 298.502 148.611C298.533 148.685 298.548 148.764 298.547 148.844V152.085C298.548 152.165 298.533 152.244 298.502 152.318C298.47 152.391 298.424 152.459 298.366 152.515C298.308 152.572 298.238 152.617 298.161 152.648C298.084 152.678 298.002 152.694 297.919 152.694ZM297.919 146.211C297.75 146.211 297.588 146.147 297.468 146.033C297.349 145.919 297.282 145.764 297.282 145.602V142.361C297.282 142.281 297.298 142.202 297.33 142.129C297.363 142.056 297.41 141.989 297.469 141.933C297.528 141.877 297.598 141.833 297.676 141.804C297.753 141.774 297.836 141.759 297.919 141.76C298.085 141.76 298.245 141.824 298.363 141.936C298.481 142.049 298.547 142.201 298.547 142.361V145.602C298.548 145.682 298.533 145.761 298.502 145.835C298.47 145.908 298.424 145.976 298.366 146.032C298.308 146.089 298.238 146.134 298.161 146.165C298.084 146.195 298.002 146.211 297.919 146.211ZM297.919 139.737C297.75 139.737 297.588 139.672 297.468 139.558C297.349 139.444 297.282 139.289 297.282 139.128V135.886C297.282 135.725 297.349 135.57 297.468 135.456C297.588 135.342 297.75 135.277 297.919 135.277C298.002 135.277 298.084 135.293 298.161 135.324C298.238 135.355 298.308 135.4 298.366 135.456C298.424 135.513 298.47 135.58 298.502 135.654C298.533 135.728 298.548 135.807 298.547 135.886V139.128C298.548 139.207 298.533 139.286 298.502 139.36C298.47 139.434 298.424 139.501 298.366 139.558C298.308 139.614 298.238 139.659 298.161 139.69C298.084 139.721 298.002 139.737 297.919 139.737ZM297.919 133.254C297.75 133.254 297.588 133.189 297.468 133.075C297.349 132.961 297.282 132.806 297.282 132.645V129.378C297.282 129.216 297.349 129.061 297.468 128.947C297.588 128.833 297.75 128.769 297.919 128.769C298.002 128.769 298.084 128.784 298.161 128.815C298.238 128.846 298.308 128.891 298.366 128.948C298.424 129.004 298.47 129.071 298.502 129.145C298.533 129.219 298.548 129.298 298.547 129.378V132.619C298.552 132.701 298.539 132.782 298.51 132.859C298.48 132.936 298.435 133.006 298.376 133.066C298.317 133.125 298.246 133.173 298.168 133.205C298.089 133.237 298.004 133.254 297.919 133.254ZM297.919 126.771C297.836 126.772 297.753 126.757 297.676 126.727C297.598 126.698 297.528 126.654 297.469 126.598C297.41 126.542 297.363 126.475 297.33 126.402C297.298 126.329 297.282 126.25 297.282 126.17V122.929C297.282 122.767 297.349 122.612 297.468 122.498C297.588 122.384 297.75 122.32 297.919 122.32C298.002 122.32 298.084 122.336 298.161 122.366C298.238 122.397 298.308 122.442 298.366 122.499C298.424 122.555 298.47 122.623 298.502 122.696C298.533 122.77 298.548 122.849 298.547 122.929V126.17C298.552 126.252 298.539 126.334 298.51 126.411C298.48 126.487 298.435 126.558 298.376 126.617C298.317 126.677 298.246 126.724 298.168 126.756C298.089 126.788 298.004 126.805 297.919 126.805V126.771ZM297.919 120.296C297.75 120.296 297.588 120.232 297.468 120.118C297.349 120.004 297.282 119.849 297.282 119.687V116.446C297.282 116.284 297.349 116.129 297.468 116.015C297.588 115.901 297.75 115.837 297.919 115.837C298.002 115.837 298.084 115.853 298.161 115.883C298.238 115.914 298.308 115.959 298.366 116.016C298.424 116.072 298.47 116.14 298.502 116.213C298.533 116.287 298.548 116.366 298.547 116.446V119.687C298.548 119.767 298.533 119.846 298.502 119.92C298.47 119.993 298.424 120.061 298.366 120.117C298.308 120.174 298.238 120.219 298.161 120.25C298.084 120.28 298.002 120.296 297.919 120.296ZM297.919 113.813C297.835 113.813 297.752 113.797 297.675 113.767C297.598 113.736 297.527 113.691 297.468 113.635C297.409 113.578 297.362 113.511 297.33 113.437C297.298 113.363 297.282 113.284 297.282 113.204V109.971C297.282 109.81 297.349 109.655 297.468 109.541C297.588 109.427 297.75 109.363 297.919 109.363C298.002 109.363 298.084 109.378 298.161 109.409C298.238 109.44 298.308 109.485 298.366 109.541C298.424 109.598 298.47 109.665 298.502 109.739C298.533 109.813 298.548 109.892 298.547 109.971V113.204C298.548 113.284 298.533 113.363 298.502 113.437C298.47 113.51 298.424 113.578 298.366 113.634C298.308 113.691 298.238 113.736 298.161 113.767C298.084 113.797 298.002 113.813 297.919 113.813ZM297.919 107.339C297.75 107.339 297.588 107.275 297.468 107.16C297.349 107.046 297.282 106.891 297.282 106.73V103.488C297.282 103.327 297.349 103.172 297.468 103.058C297.588 102.944 297.75 102.88 297.919 102.88C298.002 102.879 298.084 102.895 298.161 102.926C298.238 102.957 298.308 103.002 298.366 103.058C298.424 103.115 298.47 103.182 298.502 103.256C298.533 103.33 298.548 103.409 298.547 103.488V106.73C298.548 106.809 298.533 106.888 298.502 106.962C298.47 107.036 298.424 107.103 298.366 107.16C298.308 107.217 298.238 107.262 298.161 107.292C298.084 107.323 298.002 107.339 297.919 107.339ZM297.919 100.856C297.75 100.856 297.588 100.792 297.468 100.677C297.349 100.563 297.282 100.408 297.282 100.247V97.0053C297.282 96.9258 297.298 96.847 297.33 96.7736C297.363 96.7002 297.41 96.6337 297.469 96.5778C297.528 96.522 297.598 96.4779 297.676 96.4483C297.753 96.4186 297.836 96.4039 297.919 96.4051C298.085 96.4051 298.245 96.4683 298.363 96.5809C298.481 96.6935 298.547 96.8461 298.547 97.0053V100.221C298.552 100.303 298.539 100.385 298.51 100.461C298.48 100.538 298.435 100.609 298.376 100.668C298.317 100.727 298.246 100.775 298.168 100.807C298.089 100.839 298.004 100.856 297.919 100.856ZM297.919 94.3813C297.75 94.3813 297.588 94.3171 297.468 94.2029C297.349 94.0888 297.282 93.9339 297.282 93.7724V90.5309C297.282 90.3694 297.349 90.2146 297.468 90.1004C297.588 89.9862 297.75 89.922 297.919 89.922C298.002 89.922 298.084 89.9378 298.161 89.9686C298.238 89.9993 298.308 90.0442 298.366 90.1009C298.424 90.1575 298.47 90.2247 298.502 90.2985C298.533 90.3724 298.548 90.4514 298.547 90.5309V93.7724C298.548 93.852 298.533 93.9309 298.502 94.0048C298.47 94.0786 298.424 94.1458 298.366 94.2024C298.308 94.2591 298.238 94.3041 298.161 94.3348C298.084 94.3655 298.002 94.3813 297.919 94.3813ZM297.919 87.8982C297.75 87.8982 297.588 87.8341 297.468 87.7199C297.349 87.6057 297.282 87.4509 297.282 87.2894V84.0479C297.282 83.8864 297.349 83.7315 297.468 83.6174C297.588 83.5032 297.75 83.439 297.919 83.439C298.002 83.439 298.084 83.4548 298.161 83.4855C298.238 83.5162 298.308 83.5612 298.366 83.6179C298.424 83.6745 298.47 83.7417 298.502 83.8155C298.533 83.8894 298.548 83.9683 298.547 84.0479V87.2894C298.548 87.3689 298.533 87.4479 298.502 87.5217C298.47 87.5956 298.424 87.6628 298.366 87.7194C298.308 87.7761 298.238 87.821 298.161 87.8518C298.084 87.8825 298.002 87.8983 297.919 87.8982ZM297.919 81.4152C297.836 81.4164 297.753 81.4017 297.676 81.372C297.598 81.3424 297.528 81.2983 297.469 81.2425C297.41 81.1866 297.363 81.1201 297.33 81.0467C297.298 80.9733 297.282 80.8945 297.282 80.815V77.5735C297.282 77.412 297.349 77.2571 297.468 77.1429C297.588 77.0287 297.75 76.9646 297.919 76.9646C298.002 76.9646 298.084 76.9804 298.161 77.0111C298.238 77.0418 298.308 77.0868 298.366 77.1434C298.424 77.2001 298.47 77.2673 298.502 77.3411C298.533 77.4149 298.548 77.4939 298.547 77.5735V80.815C298.547 80.8938 298.53 80.9718 298.499 81.0447C298.467 81.1175 298.421 81.1837 298.363 81.2394C298.304 81.2952 298.235 81.3394 298.159 81.3695C298.083 81.3997 298.001 81.4152 297.919 81.4152Z" fill="#89B1FF"/>
<path d="M297.919 170.54C297.836 170.541 297.753 170.526 297.676 170.497C297.598 170.467 297.528 170.423 297.469 170.367C297.41 170.311 297.363 170.245 297.33 170.171C297.298 170.098 297.282 170.019 297.282 169.94V168.319C297.282 168.157 297.349 168.002 297.468 167.888C297.588 167.774 297.75 167.71 297.919 167.71C298.002 167.71 298.084 167.726 298.161 167.756C298.238 167.787 298.308 167.832 298.366 167.889C298.424 167.945 298.47 168.013 298.502 168.086C298.533 168.16 298.548 168.239 298.547 168.319V169.94C298.547 170.099 298.481 170.251 298.363 170.364C298.245 170.477 298.085 170.54 297.919 170.54Z" fill="#89B1FF"/>
<path d="M313.932 130.655C313.814 130.657 313.699 130.626 313.598 130.567C313.498 130.508 313.418 130.422 313.367 130.321C313.329 130.25 313.306 130.172 313.3 130.092C313.293 130.012 313.304 129.932 313.331 129.856C313.357 129.78 313.4 129.71 313.455 129.65C313.511 129.59 313.578 129.541 313.654 129.506L315.17 128.786C315.244 128.75 315.325 128.729 315.408 128.724C315.491 128.718 315.574 128.728 315.652 128.753C315.731 128.778 315.804 128.818 315.867 128.87C315.929 128.922 315.981 128.985 316.018 129.056C316.055 129.127 316.077 129.204 316.083 129.283C316.089 129.362 316.078 129.442 316.052 129.517C316.026 129.592 315.984 129.662 315.93 129.722C315.876 129.782 315.809 129.831 315.735 129.866L314.219 130.595C314.13 130.636 314.031 130.657 313.932 130.655Z" fill="#89B1FF"/>
<path d="M306.468 134.206C306.35 134.207 306.235 134.176 306.134 134.117C306.034 134.058 305.954 133.972 305.903 133.871C305.857 133.798 305.828 133.716 305.818 133.632C305.808 133.547 305.817 133.462 305.844 133.38C305.871 133.299 305.916 133.225 305.976 133.161C306.035 133.098 306.108 133.048 306.19 133.014L309.922 131.238C309.999 131.196 310.084 131.17 310.172 131.161C310.26 131.152 310.349 131.16 310.434 131.186C310.518 131.212 310.596 131.254 310.662 131.311C310.729 131.367 310.782 131.436 310.819 131.513C310.863 131.586 310.891 131.668 310.9 131.752C310.91 131.836 310.901 131.922 310.874 132.002C310.847 132.083 310.802 132.157 310.743 132.221C310.685 132.284 310.613 132.335 310.532 132.37L306.755 134.146C306.666 134.187 306.567 134.207 306.468 134.206Z" fill="#89B1FF"/>
<path d="M301.22 136.701C301.102 136.702 300.987 136.672 300.886 136.613C300.786 136.553 300.706 136.468 300.655 136.367C300.609 136.294 300.58 136.212 300.57 136.127C300.56 136.043 300.569 135.957 300.596 135.876C300.623 135.795 300.668 135.72 300.728 135.657C300.787 135.594 300.86 135.543 300.942 135.509L302.458 134.789C302.535 134.746 302.62 134.72 302.708 134.711C302.796 134.702 302.886 134.711 302.97 134.736C303.054 134.762 303.132 134.805 303.199 134.861C303.265 134.917 303.318 134.986 303.355 135.063C303.43 135.208 303.441 135.375 303.388 135.527C303.334 135.68 303.219 135.806 303.068 135.878L301.552 136.598C301.453 136.661 301.338 136.697 301.22 136.701Z" fill="#89B1FF"/>
<path d="M277.734 92.7608C277.625 92.7616 277.518 92.7351 277.424 92.6839C277.33 92.6327 277.251 92.5587 277.196 92.4692L276.299 91.08C276.25 91.0117 276.217 90.9345 276.201 90.8533C276.185 90.7721 276.187 90.6887 276.206 90.6082C276.225 90.5277 276.262 90.4519 276.313 90.3855C276.365 90.3192 276.43 90.2636 276.505 90.2224C276.578 90.1788 276.659 90.1495 276.744 90.1363C276.828 90.123 276.915 90.1261 276.999 90.1452C277.082 90.1644 277.161 90.1993 277.23 90.2479C277.299 90.2965 277.358 90.3578 277.402 90.4283L278.299 91.8175C278.359 91.9093 278.392 92.015 278.394 92.1232C278.396 92.2314 278.368 92.3382 278.312 92.4322C278.256 92.5262 278.174 92.604 278.075 92.6573C277.977 92.7106 277.865 92.7375 277.752 92.735L277.734 92.7608Z" fill="#89B1FF"/>
<path d="M291.657 114.722C291.547 114.723 291.439 114.696 291.343 114.645C291.247 114.594 291.167 114.52 291.11 114.43L289.369 111.686C289.321 111.618 289.287 111.541 289.271 111.46C289.254 111.379 289.255 111.296 289.273 111.216C289.291 111.135 289.327 111.059 289.376 110.992C289.426 110.924 289.49 110.867 289.564 110.824C289.637 110.781 289.719 110.753 289.804 110.741C289.89 110.729 289.977 110.734 290.06 110.756C290.143 110.777 290.221 110.814 290.289 110.865C290.357 110.916 290.413 110.979 290.455 111.052L292.195 113.796C292.241 113.865 292.271 113.943 292.285 114.024C292.299 114.105 292.296 114.188 292.276 114.268C292.256 114.348 292.219 114.423 292.168 114.489C292.118 114.555 292.054 114.611 291.98 114.653C291.881 114.704 291.769 114.728 291.657 114.722ZM288.176 109.234C288.066 109.234 287.958 109.208 287.862 109.157C287.767 109.106 287.686 109.032 287.629 108.942L285.888 106.198C285.843 106.128 285.812 106.051 285.798 105.97C285.784 105.889 285.788 105.806 285.808 105.726C285.828 105.646 285.864 105.571 285.915 105.505C285.966 105.439 286.03 105.383 286.104 105.34C286.176 105.296 286.257 105.265 286.342 105.251C286.427 105.238 286.515 105.24 286.598 105.26C286.682 105.279 286.761 105.314 286.83 105.363C286.9 105.413 286.958 105.475 287.001 105.546L288.741 108.29C288.797 108.383 288.827 108.487 288.828 108.594C288.829 108.701 288.801 108.806 288.747 108.899C288.693 108.993 288.614 109.071 288.519 109.126C288.423 109.182 288.315 109.213 288.203 109.217L288.176 109.234ZM284.695 103.745C284.585 103.743 284.477 103.715 284.381 103.662C284.286 103.61 284.205 103.535 284.148 103.445L282.408 100.701C282.34 100.565 282.327 100.409 282.373 100.264C282.418 100.119 282.518 99.996 282.654 99.918C282.789 99.8399 282.95 99.8127 283.105 99.8418C283.26 99.8708 283.399 99.954 283.493 100.075L285.225 102.794C285.273 102.862 285.306 102.939 285.322 103.02C285.338 103.101 285.336 103.185 285.317 103.265C285.298 103.346 285.261 103.422 285.21 103.488C285.158 103.554 285.093 103.61 285.018 103.651C284.921 103.708 284.81 103.741 284.695 103.745ZM281.215 98.2486C281.105 98.2483 280.997 98.2215 280.902 98.1705C280.806 98.1195 280.725 98.046 280.667 97.957L278.927 95.2129C278.884 95.1442 278.856 95.0681 278.843 94.9889C278.831 94.9097 278.835 94.829 278.856 94.7513C278.876 94.6737 278.912 94.6006 278.962 94.5364C279.012 94.4721 279.075 94.4179 279.147 94.3768C279.219 94.3357 279.298 94.3085 279.381 94.2968C279.464 94.2851 279.548 94.2892 279.63 94.3087C279.711 94.3282 279.787 94.3628 279.854 94.4105C279.922 94.4583 279.978 94.5182 280.021 94.5869L281.762 97.331C281.822 97.4229 281.854 97.5285 281.857 97.6367C281.859 97.7449 281.83 97.8517 281.774 97.9457C281.718 98.0398 281.637 98.1176 281.538 98.1709C281.44 98.2242 281.328 98.251 281.215 98.2486Z" fill="#89B1FF"/>
<path d="M294.267 118.856C294.158 118.855 294.051 118.827 293.957 118.774C293.862 118.721 293.784 118.646 293.729 118.556L292.832 117.175C292.754 117.038 292.733 116.877 292.775 116.726C292.818 116.575 292.919 116.445 293.059 116.363C293.198 116.282 293.365 116.255 293.525 116.288C293.685 116.321 293.826 116.411 293.918 116.54L294.815 117.93C294.863 117.998 294.896 118.076 294.911 118.158C294.926 118.239 294.924 118.323 294.903 118.403C294.883 118.484 294.846 118.56 294.793 118.626C294.741 118.692 294.675 118.747 294.599 118.787C294.497 118.839 294.383 118.862 294.267 118.856Z" fill="#89B1FF"/>
<path d="M109.949 210.407L69.7048 233.157V254.416L48.6947 265.667V277.098L87.6828 298.716L148.928 265.864V232.025L109.949 210.407Z" fill="#263238"/>
<path d="M48.6948 265.666L87.6829 287.285V298.716L48.6948 277.097V265.666Z" fill="#455A64"/>
<path d="M108.684 254.784V276.043L87.6829 287.285V298.716L148.928 265.864V232.025L108.684 254.784Z" fill="#263238"/>
<path d="M87.6829 287.286L108.684 276.044L69.705 254.417L48.6948 265.667L87.6829 287.286Z" fill="#37474F"/>
<path d="M108.684 276.042V254.784L69.705 233.157V254.415L108.684 276.042Z" fill="#455A64"/>
<path d="M108.684 254.785L69.7049 233.157L109.949 210.407L148.928 232.025L108.684 254.785Z" fill="#37474F"/>
<path d="M119.727 154.563C119.727 154.563 110.128 167.427 115.834 171.877C121.54 176.328 134.054 172.735 134.557 170.617C135.059 168.499 119.727 154.563 119.727 154.563Z" fill="#263238"/>
<path d="M76.8461 267.141L62.7437 285.08L66.664 288.039C66.664 288.039 72.3157 286.907 74.3163 279.772C75.4891 275.628 76.3348 271.406 76.8461 267.141Z" fill="#FFA8A7"/>
<path d="M78.1201 265.923C78.1201 265.923 82.0404 269.353 80.309 272.363C78.5776 275.373 75.5723 277.851 75.4826 281.856C75.3929 285.861 73.2937 293.004 68.6467 294.136C63.9997 295.268 59.4514 293.725 59.5411 292.147C59.6308 290.569 62.7438 285.081 62.7438 285.081C62.7438 285.081 67.014 287.61 70.1628 285.166C73.3116 282.722 74.0383 272.458 74.0383 272.458L78.1201 265.923Z" fill="#89B1FF"/>
<path opacity="0.2" d="M78.1201 265.923C78.1201 265.923 82.0404 269.353 80.309 272.363C78.5776 275.373 75.5723 277.851 75.4826 281.856C75.3929 285.861 73.2937 293.004 68.6467 294.136C63.9997 295.268 59.4514 293.725 59.5411 292.147C59.6308 290.569 62.7438 285.081 62.7438 285.081C62.7438 285.081 67.014 287.61 70.1628 285.166C73.3116 282.722 74.0383 272.458 74.0383 272.458L78.1201 265.923Z" fill="black"/>
<path d="M102.216 210.388C102.216 210.388 70.7636 223.106 68.2158 224.358C65.6681 225.61 61.2005 227.788 61.6491 237.59C62.0976 247.391 64.6723 271.668 64.6723 271.668L81.9146 239.939L126.438 219.71L102.216 210.388Z" fill="#89B1FF"/>
<path opacity="0.5" d="M102.216 210.388C102.216 210.388 70.7636 223.106 68.2158 224.358C65.6681 225.61 61.2005 227.788 61.6491 237.59C62.0976 247.391 64.6723 271.668 64.6723 271.668L81.9146 239.939L126.438 219.71L102.216 210.388Z" fill="black"/>
<path d="M63.3894 259.105C64.0533 266.034 64.6543 271.668 64.6543 271.668L81.8966 239.939L113.645 225.49L106.468 220.096C96.322 224.967 81.5826 232.033 77.1779 234.194C71.5799 236.938 69.8485 244.699 65.0221 255.478C64.4749 256.661 63.9366 257.862 63.3894 259.105Z" fill="#89B1FF"/>
<path opacity="0.7" d="M63.3894 259.105C64.0533 266.034 64.6543 271.668 64.6543 271.668L81.8966 239.939L113.645 225.49L106.468 220.096C96.322 224.967 81.5826 232.033 77.1779 234.194C71.5799 236.938 69.8485 244.699 65.0221 255.478C64.4749 256.661 63.9366 257.862 63.3894 259.105Z" fill="black"/>
<path d="M104.809 216.872L108.056 221.563L105.518 221.932L104.809 216.872Z" fill="#89B1FF"/>
<path opacity="0.7" d="M104.809 216.872L108.056 221.563L105.518 221.932L104.809 216.872Z" fill="black"/>
<path d="M62.9142 292.147C62.9142 292.147 63.3628 292.868 63.3628 296.495C63.3628 300.122 61.8467 300.886 59.9717 301.494C58.0968 302.103 52.5258 306.005 51.0007 307.703C49.4756 309.401 43.3215 311.133 37.2392 310.121C31.1568 309.109 29.8739 305.268 32.7985 302.806C35.7231 300.345 44.0571 295.86 44.0571 295.86L62.9142 292.147Z" fill="#89B1FF"/>
<path d="M135.741 217.901L122.212 214.908C122.212 214.908 84.6328 232.917 79.0348 235.661C73.4369 238.405 71.7145 246.174 66.8701 256.954C63.2817 265.066 58.5002 276.197 55.3693 282.886C55.3693 282.886 57.5941 288.528 64.6453 287.113C67.0316 282.131 71.248 277.68 77.3842 269.757C81.3215 264.862 84.1173 259.219 85.5837 253.206C85.8171 252.136 86.3619 251.15 87.1554 250.363C87.949 249.576 88.959 249.018 90.0692 248.756C96.2682 247.315 108.908 244.185 122.257 239.794C141.069 233.603 135.741 217.901 135.741 217.901Z" fill="#89B1FF"/>
<path opacity="0.5" d="M135.741 217.901L122.212 214.908C122.212 214.908 84.6328 232.917 79.0348 235.661C73.4369 238.405 71.7145 246.174 66.8701 256.954C63.2817 265.066 58.5002 276.197 55.3693 282.886C55.3693 282.886 57.5941 288.528 64.6453 287.113C67.0316 282.131 71.248 277.68 77.3842 269.757C81.3215 264.862 84.1173 259.219 85.5837 253.206C85.8171 252.136 86.3619 251.15 87.1554 250.363C87.949 249.576 88.959 249.018 90.0692 248.756C96.2682 247.315 108.908 244.185 122.257 239.794C141.069 233.603 135.741 217.901 135.741 217.901Z" fill="black"/>
<path d="M55.3695 282.877C54.3378 285.081 53.4856 286.805 52.9025 287.774C50.5431 291.693 43.6623 295.938 41.2401 297.944C38.818 299.951 38.3066 300.705 40.6211 302.403C46.4792 306.691 51.5568 302.009 54.8402 298.973C57.0326 297.049 59.4393 295.361 62.017 293.939C62.2023 293.842 62.3633 293.707 62.4887 293.544C62.6142 293.381 62.7012 293.194 62.7437 292.996C63.1073 290.963 63.7498 288.986 64.6545 287.113C57.5943 288.528 55.3695 282.877 55.3695 282.877Z" fill="#FFA8A7"/>
<path d="M121.396 230.181L97.7397 243.233L58.4017 221.494L82.0583 208.168L121.396 230.181Z" fill="#37474F"/>
<path d="M100.278 226.459L91.406 221.563L96.968 218.493L105.849 223.389L100.278 226.459Z" fill="#263238"/>
<path d="M96.7258 239.974L108.684 233.242L85.3236 219.728L96.7258 239.974Z" fill="#263238"/>
<path d="M97.4257 199.626L87.9613 203.914C85.1342 204.598 82.3464 205.422 79.6092 206.384C79.6092 206.384 73.0245 208.957 72.7195 210.672C72.4145 212.387 77.6625 216.426 82.2647 214.445C83.4779 213.836 84.7728 213.388 86.1132 213.116C88.9114 212.861 91.556 211.776 93.6758 210.011L101.328 208.005C101.328 208.005 105.275 200.681 97.4257 199.626Z" fill="#FFA8A7"/>
<path d="M91.2985 212.249C90.204 213.373 87.0821 216.203 86.4003 217.017C85.7185 217.832 84.1037 215.731 86.9296 212.601C89.3718 211.743 91.6689 210.547 93.7476 209.051C93.0188 210.176 92.2 211.245 91.2985 212.249Z" fill="#FFA8A7"/>
<path d="M116.794 168.172C114.619 167.84 112.392 168.257 110.509 169.349C108.627 170.44 107.21 172.135 106.513 174.132C105.51 177.014 104.862 179.999 104.584 183.025C103.768 192.338 103.544 196.994 103.544 196.994L93.7473 201.282C93.7473 201.282 99.0402 201.522 98.6814 208.657L110.873 205.698L116.794 168.172Z" fill="#89B1FF"/>
<path opacity="0.3" d="M116.794 168.172C114.619 167.84 112.392 168.257 110.509 169.349C108.627 170.44 107.21 172.135 106.513 174.132C105.51 177.014 104.862 179.999 104.584 183.025C103.768 192.338 103.544 196.994 103.544 196.994L93.7473 201.282C93.7473 201.282 98.9954 201.522 98.6814 208.657L110.873 205.698L116.794 168.172Z" fill="white"/>
<path d="M103.544 196.995C104.644 197.322 105.638 197.913 106.432 198.71C106.432 198.71 105.248 196.566 103.598 195.906L103.544 196.995Z" fill="#89B1FF"/>
<path opacity="0.1" d="M103.544 196.995C104.644 197.322 105.638 197.913 106.432 198.71C106.432 198.71 105.248 196.566 103.598 195.906L103.544 196.995Z" fill="white"/>
<path d="M112.506 147.025C112.506 147.025 106.459 145.31 108.639 138.784C110.819 132.258 126.24 129.463 137.849 138.784C137.849 138.784 145.995 137.584 145.995 148.457C145.995 159.331 141.437 164.296 148.453 167.126C148.453 167.126 144.174 171.002 140.711 167.126C140.711 167.126 139.984 175.616 126.859 172.657L112.506 147.025Z" fill="#263238"/>
<path d="M132.242 171.878L139.114 174.673V193.934C136.963 198.862 135.797 204.133 135.678 209.472V219.008C135.678 219.008 121.629 223.793 110.739 218.614C105.464 216.11 102.198 210.39 102.198 210.39C102.198 210.39 108.002 207.123 108.002 203.135C107.89 200.019 107.502 196.918 106.845 193.865C105.575 192.658 104.612 191.189 104.032 189.569C103.451 187.95 103.269 186.224 103.499 184.526C104.27 178.163 116.794 168.173 116.794 168.173L121.459 168.782L132.242 171.878Z" fill="#89B1FF"/>
<path d="M132.242 171.877L121.459 168.782V156.304H132.242V171.877Z" fill="#FFA8A7"/>
<path d="M121.459 168.823C123.655 168.039 125.663 166.836 127.359 165.288C129.055 163.741 130.405 161.88 131.327 159.819V156.389H121.459V168.823Z" fill="#F28F8F"/>
<path d="M118.947 139.402C118.947 139.402 109.079 139.951 110.299 156.081C110.864 163.533 112.685 167.392 118.696 167.109C125.496 166.792 135.158 162.324 134.53 149.564C133.902 136.804 118.947 139.402 118.947 139.402Z" fill="#FFA8A7"/>
<path d="M132.242 156.303C132.242 156.303 129.551 156.989 129.551 153.285C129.551 153.285 117.529 152.504 114.874 141.099C114.874 141.099 116.058 137.669 123.567 137.669C131.076 137.669 137.373 144.006 135.418 152.727L132.242 156.303Z" fill="#263238"/>
<path d="M117.53 152.839V158.388L114.13 157.393L117.53 152.839Z" fill="#F28F8F"/>
<path d="M122.634 153.431C122.634 153.655 122.564 153.874 122.434 154.061C122.303 154.247 122.118 154.392 121.901 154.477C121.684 154.563 121.446 154.585 121.216 154.54C120.986 154.496 120.775 154.387 120.609 154.228C120.444 154.069 120.332 153.866 120.287 153.646C120.243 153.426 120.267 153.198 120.358 152.992C120.449 152.785 120.603 152.609 120.799 152.485C120.994 152.362 121.224 152.297 121.459 152.299C121.614 152.299 121.768 152.328 121.911 152.385C122.054 152.442 122.184 152.526 122.293 152.631C122.402 152.736 122.489 152.861 122.547 152.998C122.606 153.136 122.635 153.283 122.634 153.431Z" fill="#263238"/>
<path d="M114.865 152.642C114.867 152.867 114.799 153.087 114.669 153.274C114.54 153.462 114.355 153.608 114.138 153.695C113.922 153.781 113.683 153.805 113.452 153.761C113.222 153.718 113.01 153.61 112.844 153.451C112.678 153.292 112.565 153.09 112.519 152.869C112.474 152.649 112.498 152.421 112.589 152.213C112.679 152.006 112.833 151.829 113.029 151.706C113.225 151.582 113.455 151.517 113.69 151.519C114.001 151.521 114.298 151.64 114.518 151.85C114.738 152.06 114.863 152.345 114.865 152.642Z" fill="#263238"/>
<path d="M112.246 150.292L114.56 148.98C114.56 148.98 113.663 148.123 112.766 148.629C112.515 148.824 112.331 149.087 112.238 149.384C112.145 149.68 112.148 149.997 112.246 150.292Z" fill="#263238"/>
<path d="M117.826 160.248C119.173 160.34 120.513 159.996 121.629 159.27C121.629 159.27 121.89 161.191 120.212 161.551C119.718 161.632 119.21 161.546 118.774 161.309C118.339 161.071 118.004 160.696 117.826 160.248Z" fill="#F28F8F"/>
<path d="M131.291 156.724C131.25 155.786 131.431 154.851 131.82 153.989C132.009 153.451 132.358 152.978 132.826 152.629C133.293 152.28 133.858 152.069 134.449 152.025C137.472 151.948 137.885 154.735 137.84 155.729C137.732 158.302 135.525 161.149 131.417 161.26L131.291 156.724Z" fill="#FFA8A7"/>
<path d="M121.459 168.824L118.274 172.777C117.916 173.222 117.665 173.737 117.537 174.284C117.409 174.832 117.408 175.4 117.533 175.948C117.659 176.496 117.908 177.011 118.264 177.457C118.62 177.904 119.073 178.27 119.593 178.532C121.005 179.238 122.63 179.453 124.189 179.14C125.749 178.827 127.146 178.006 128.142 176.817L132.242 171.92L121.459 168.824Z" fill="#FFA8A7"/>
<path d="M121.396 216.332L112.425 221.023C111.045 220.925 109.66 220.925 108.28 221.023C106.684 221.211 102.449 221.949 101.355 221.992C100.26 222.035 101.31 223.99 104.181 223.818C104.181 223.818 97.7126 226.648 97.4793 228.346C97.2461 230.044 102.665 233.903 107.186 231.776C108.367 231.119 109.638 230.622 110.963 230.301C113.751 229.923 116.348 228.725 118.391 226.871L125.953 224.556C125.953 224.556 129.273 217.07 121.396 216.332Z" fill="#FFA8A7"/>
<path d="M139.114 174.673C139.114 174.673 133.615 178.257 134.557 189.405C135.104 196.15 135.104 202.925 134.557 209.669L121.387 216.332C122.8 217.23 123.952 218.455 124.736 219.893C125.52 221.331 125.911 222.935 125.873 224.556C125.873 224.556 144.784 220.834 145.914 216.624C147.044 212.413 147.457 192.27 147.457 188.771C147.457 185.272 145.986 177.468 139.114 174.673Z" fill="#89B1FF"/>
<path opacity="0.3" d="M139.114 174.673C139.114 174.673 133.615 178.257 134.557 189.405C135.104 196.15 135.104 202.925 134.557 209.669L121.387 216.332C122.8 217.23 123.952 218.455 124.736 219.893C125.52 221.331 125.911 222.935 125.873 224.556C125.873 224.556 144.784 220.834 145.914 216.624C147.044 212.413 147.457 192.27 147.457 188.771C147.457 185.272 145.986 177.468 139.114 174.673Z" fill="white"/>
<path d="M134.565 209.669C136.014 209.64 137.455 209.89 138.8 210.406C137.59 209.507 136.16 208.917 134.646 208.691L134.565 209.669Z" fill="#89B1FF"/>
<path opacity="0.1" d="M134.565 209.669C136.014 209.64 137.455 209.89 138.8 210.406C137.59 209.507 136.16 208.917 134.646 208.691L134.565 209.669Z" fill="white"/>
<path d="M52.9203 196.574L57.029 222.3C57.0248 222.314 57.0248 222.329 57.029 222.343L97.892 245C97.9021 245.004 97.9132 245.006 97.9244 245.005C97.9355 245.004 97.9461 245.001 97.9553 244.995C97.9644 244.988 97.9717 244.98 97.9763 244.97C97.981 244.961 97.9829 244.95 97.9818 244.939L93.9897 219.976C93.9044 219.449 93.6997 218.945 93.3898 218.501C93.0799 218.056 92.6723 217.682 92.1954 217.404L54.7325 195.408C54.5367 195.29 54.3092 195.228 54.0775 195.231C53.8459 195.234 53.6203 195.302 53.4282 195.426C53.236 195.549 53.0857 195.724 52.9955 195.928C52.9053 196.132 52.8792 196.356 52.9203 196.574Z" fill="#455A64"/>
<path d="M97.9189 245.008L119.736 232.925C120.24 232.646 120.658 232.246 120.949 231.765C121.24 231.283 121.394 230.737 121.396 230.181L97.7305 243.233L97.9189 245.008Z" fill="#263238"/>
<path d="M76.5589 221.374C76.5589 223.218 75.2133 223.947 73.5447 223.038C72.6673 222.491 71.9372 221.754 71.4135 220.887C70.8898 220.02 70.5872 219.047 70.5304 218.047C70.5304 216.212 71.885 215.474 73.5447 216.383C74.4225 216.93 75.153 217.667 75.6768 218.534C76.2005 219.401 76.5028 220.374 76.5589 221.374Z" fill="#37474F"/>
<path opacity="0.2" d="M116.794 195.245C116.794 195.245 125.038 197.388 129.416 191.471C129.416 191.471 126.581 199.112 116.794 195.245Z" fill="black"/>
<path d="M188.267 219.2C194.164 219.2 199.831 219.944 205.267 221.431C210.703 222.918 215.805 225.072 220.574 227.893C225.344 230.713 229.651 234.046 233.497 237.893C237.344 241.739 240.677 246.046 243.497 250.816C246.318 255.585 248.472 260.687 249.959 266.123C251.446 271.559 252.215 277.252 252.267 283.2C252.267 289.098 251.523 294.764 250.036 300.2C248.549 305.636 246.395 310.739 243.574 315.508C240.754 320.277 237.42 324.585 233.574 328.431C229.728 332.277 225.42 335.61 220.651 338.431C215.882 341.252 210.779 343.405 205.344 344.893C199.908 346.38 194.215 347.149 188.267 347.2C182.369 347.2 176.703 346.457 171.267 344.969C165.831 343.482 160.728 341.328 155.959 338.508C151.19 335.687 146.882 332.354 143.036 328.508C139.19 324.662 135.856 320.354 133.036 315.585C130.215 310.816 128.062 305.713 126.574 300.277C125.087 294.841 124.318 289.149 124.267 283.2C124.267 277.303 125.01 271.636 126.497 266.2C127.985 260.764 130.138 255.662 132.959 250.893C135.779 246.123 139.113 241.816 142.959 237.969C146.805 234.123 151.113 230.79 155.882 227.969C160.651 225.149 165.754 222.995 171.19 221.508C176.626 220.021 182.318 219.251 188.267 219.2ZM188.267 337.354C194.626 337.354 200.754 336.303 206.651 334.2C212.549 332.098 217.959 328.969 222.882 324.816L146.651 248.585C142.549 253.457 139.446 258.841 137.344 264.739C135.241 270.636 134.164 276.79 134.113 283.2C134.113 288.175 134.754 292.969 136.036 297.585C137.318 302.2 139.138 306.508 141.497 310.508C143.856 314.508 146.677 318.149 149.959 321.431C153.241 324.713 156.908 327.559 160.959 329.969C165.01 332.38 169.318 334.2 173.882 335.431C178.446 336.662 183.241 337.303 188.267 337.354ZM229.882 317.816C233.985 312.944 237.087 307.559 239.19 301.662C241.292 295.764 242.369 289.61 242.42 283.2C242.42 278.226 241.779 273.431 240.497 268.816C239.215 264.2 237.395 259.893 235.036 255.893C232.677 251.893 229.856 248.251 226.574 244.969C223.292 241.687 219.626 238.841 215.574 236.431C211.523 234.021 207.215 232.2 202.651 230.969C198.087 229.739 193.292 229.098 188.267 229.046C181.908 229.046 175.779 230.098 169.882 232.2C163.985 234.303 158.574 237.431 153.651 241.585L229.882 317.816Z" fill="#173D58"/>
</svg>
