<svg width="325" height="217" viewBox="0 0 325 217" fill="none" xmlns="http://www.w3.org/2000/svg">
<path d="M324.598 190.696H0V190.842H324.598V190.696Z" fill="#EBEBEB"/>
<path d="M292.073 200.068H270.572V200.214H292.073V200.068Z" fill="#EBEBEB"/>
<path d="M215.026 201.652H209.385V201.798H215.026V201.652Z" fill="#EBEBEB"/>
<path d="M269.922 194.662H257.464V194.809H269.922V194.662Z" fill="#EBEBEB"/>
<path d="M62.0956 195.641H34.0568V195.787H62.0956V195.641Z" fill="#EBEBEB"/>
<path d="M71.9893 195.641H67.8799V195.787H71.9893V195.641Z" fill="#EBEBEB"/>
<path d="M146.166 198.099H85.3498V198.245H146.166V198.099Z" fill="#EBEBEB"/>
<path d="M153.859 164.718H28.5062C27.5242 164.717 26.583 164.366 25.8892 163.742C25.1954 163.119 24.8058 162.274 24.8058 161.393V3.2967C24.8143 2.4207 25.2078 1.5831 25.9006 0.965839C26.5935 0.348575 27.5298 0.00150063 28.5062 0H153.859C154.842 0 155.785 0.350398 156.48 0.974111C157.176 1.59782 157.566 2.44376 157.566 3.32582V161.393C157.566 162.275 157.176 163.121 156.48 163.744C155.785 164.368 154.842 164.718 153.859 164.718ZM28.5062 0.116492C27.5672 0.118035 26.6673 0.453771 26.004 1.05001C25.3406 1.64625 24.9681 2.45426 24.9681 3.2967V161.393C24.9681 162.235 25.3406 163.043 26.004 163.639C26.6673 164.236 27.5672 164.571 28.5062 164.573H153.859C154.799 164.571 155.699 164.236 156.364 163.64C157.028 163.044 157.402 162.236 157.404 161.393V3.2967C157.402 2.45373 157.028 1.64572 156.364 1.04965C155.699 0.453582 154.799 0.118031 153.859 0.116492H28.5062Z" fill="#EBEBEB"/>
<path d="M294.287 164.718H168.927C167.945 164.717 167.003 164.366 166.308 163.743C165.613 163.119 165.222 162.274 165.22 161.393V3.2967C165.23 2.42017 165.625 1.58258 166.319 0.965475C167.013 0.348372 167.95 0.00148427 168.927 0H294.287C295.262 0.00303139 296.197 0.350784 296.888 0.967883C297.58 1.58498 297.972 2.42171 297.981 3.2967V161.393C297.981 162.273 297.592 163.117 296.899 163.74C296.207 164.364 295.268 164.715 294.287 164.718ZM168.927 0.116492C167.988 0.118031 167.087 0.453582 166.423 1.04965C165.758 1.64572 165.384 2.45373 165.383 3.2967V161.393C165.384 162.236 165.758 163.044 166.423 163.64C167.087 164.236 167.988 164.571 168.927 164.573H294.287C295.226 164.571 296.127 164.236 296.791 163.64C297.456 163.044 297.83 162.236 297.831 161.393V3.2967C297.83 2.45373 297.456 1.64572 296.791 1.04965C296.127 0.453582 295.226 0.118031 294.287 0.116492H168.927Z" fill="#EBEBEB"/>
<path d="M267.131 170.549C267.131 170.549 262.145 161.812 267.845 153.157C273.545 144.502 275.194 142.486 271.558 140.716C267.923 138.945 266.261 147.624 266.261 147.624C266.261 147.624 263.197 141.653 265.729 135.392C268.261 129.131 269.845 118.967 266.378 117.878C262.911 116.788 265.729 130.569 262.716 135.27C262.716 135.27 260.204 130.028 259.789 125.018C259.373 120.009 260.022 111.989 257.296 109.933C254.569 107.877 252.816 109.304 255.497 120.376C257.107 126.974 257.998 133.696 258.159 140.448C258.159 140.448 252.238 125.921 248.265 125.502C244.292 125.083 244.299 129.783 247.7 133.86C251.102 137.937 257.659 145.253 258.737 149.004C258.737 149.004 252.245 138.077 246.402 141.432C240.559 144.787 251.492 151.386 256.367 153.768C261.243 156.151 264.619 171.114 264.619 171.114L267.131 170.549Z" fill="#E0E0E0"/>
<path d="M263.19 174.154C263.19 174.154 268.053 165.336 262.223 156.768C256.393 148.2 254.712 146.191 258.328 144.379C261.944 142.568 263.729 151.223 263.729 151.223C263.729 151.223 266.702 145.212 264.08 138.992C261.457 132.771 259.724 122.619 263.158 121.489C266.592 120.359 264.008 134.175 267.053 138.834C267.053 138.834 269.494 133.592 269.832 128.554C270.169 123.516 269.403 115.524 272.104 113.439C274.804 111.354 276.564 112.752 274.051 123.853C272.542 130.471 271.751 137.205 271.688 143.96C271.688 143.96 277.395 129.364 281.361 128.892C285.328 128.42 285.393 133.126 282.049 137.244C278.706 141.362 272.26 148.753 271.24 152.528C271.24 152.528 277.576 141.519 283.471 144.799C289.366 148.078 278.531 154.811 273.694 157.257C268.858 159.704 265.696 174.696 265.696 174.696L263.19 174.154Z" fill="#E6E6E6"/>
<path d="M285.601 167.858H245.467L248.713 190.97H282.355L285.601 167.858Z" fill="#F0F0F0"/>
<path d="M214.014 21.5862H140.901V94.1718H214.014V21.5862Z" fill="#E9E9E9"/>
<path d="M210.989 24.4634H144.121V91.4458H210.989V24.4634Z" fill="#F4F4F4"/>
<path d="M163.02 24.4634L144.121 87.9627V53.5862L152.769 24.4634H163.02Z" fill="white"/>
<path d="M171.465 24.4634L151.535 91.4458H147.776L167.707 24.4634H171.465Z" fill="white"/>
<path d="M210.989 42.7288V77.1111L206.756 91.4454H196.505L210.989 42.7288Z" fill="white"/>
<path d="M178.756 21.5862H176.159V94.1718H178.756V21.5862Z" fill="#E9E9E9"/>
<path d="M212.611 36.3162H142.174V38.646H212.611V36.3162Z" fill="#E9E9E9"/>
<path d="M114.038 21.5862H40.9254V94.1718H114.038V21.5862Z" fill="#E9E9E9"/>
<path d="M111.012 24.4634H44.1452V91.4458H111.012V24.4634Z" fill="#F4F4F4"/>
<path d="M63.0433 24.4634L44.1452 87.9627V53.5862L52.7925 24.4634H63.0433Z" fill="white"/>
<path d="M71.4895 24.4634L51.5592 91.4458H47.8003L67.7306 24.4634H71.4895Z" fill="white"/>
<path d="M111.012 42.7288V77.1111L106.78 91.4454H96.5287L111.012 42.7288Z" fill="white"/>
<path d="M78.7798 21.5862H76.183V94.1718H78.7798V21.5862Z" fill="#E9E9E9"/>
<path d="M112.635 36.3162H42.1977V38.646H112.635V36.3162Z" fill="#E9E9E9"/>
<path d="M162.299 217C231.816 217 288.171 214.048 288.171 210.407C288.171 206.765 231.816 203.813 162.299 203.813C92.7814 203.813 36.4263 206.765 36.4263 210.407C36.4263 214.048 92.7814 217 162.299 217Z" fill="#F5F5F5"/>
<path d="M247.772 190.97H148.127C147.531 190.978 146.939 190.874 146.391 190.662C145.843 190.451 145.351 190.138 144.947 189.745C144.543 189.351 144.236 188.885 144.047 188.377C143.858 187.87 143.79 187.332 143.849 186.8L156.411 42.2109C156.524 41.0841 157.098 40.0348 158.022 39.2649C158.946 38.495 160.155 38.0589 161.416 38.0405H261.054C261.651 38.0322 262.243 38.1371 262.791 38.3482C263.34 38.5594 263.832 38.872 264.237 39.2656C264.641 39.6593 264.948 40.1251 265.138 40.6327C265.328 41.1402 265.397 41.678 265.339 42.2109L252.777 186.8C252.662 187.926 252.088 188.975 251.164 189.744C250.24 190.514 249.032 190.95 247.772 190.97Z" fill="#2E353A"/>
<path opacity="0.2" d="M247.772 190.97H148.127C147.531 190.978 146.939 190.874 146.391 190.662C145.843 190.451 145.351 190.138 144.947 189.745C144.543 189.351 144.236 188.885 144.047 188.377C143.858 187.87 143.79 187.332 143.849 186.8L156.411 42.2109C156.524 41.0841 157.098 40.0348 158.022 39.2649C158.946 38.495 160.155 38.0589 161.416 38.0405H261.054C261.651 38.0322 262.243 38.1371 262.791 38.3482C263.34 38.5594 263.832 38.872 264.237 39.2656C264.641 39.6593 264.948 40.1251 265.138 40.6327C265.328 41.1402 265.397 41.678 265.339 42.2109L252.777 186.8C252.662 187.926 252.088 188.975 251.164 189.744C250.24 190.514 249.032 190.95 247.772 190.97Z" fill="white"/>
<path d="M234.275 47.4942H186.559C186.351 47.4975 186.144 47.4612 185.952 47.3877C185.76 47.3142 185.587 47.2051 185.446 47.0676C185.304 46.9301 185.197 46.7673 185.13 46.5899C185.064 46.4124 185.04 46.2244 185.06 46.038L185.793 37.5866C185.833 37.1919 186.034 36.8244 186.358 36.5546C186.681 36.2847 187.104 36.1316 187.546 36.1246H235.262C235.471 36.122 235.678 36.1591 235.869 36.2333C236.061 36.3075 236.233 36.4173 236.374 36.5553C236.515 36.6934 236.622 36.8566 236.687 37.0344C236.753 37.2121 236.776 37.4003 236.755 37.5866L236.022 46.0147C235.988 46.412 235.79 46.7838 235.467 47.0573C235.144 47.3309 234.719 47.4866 234.275 47.4942Z" fill="#89B1FF"/>
<path opacity="0.2" d="M234.275 47.4942H186.559C186.351 47.4975 186.144 47.4612 185.952 47.3877C185.76 47.3142 185.587 47.2051 185.446 47.0676C185.304 46.9301 185.197 46.7673 185.13 46.5899C185.064 46.4124 185.04 46.2244 185.06 46.038L185.793 37.5866C185.833 37.1919 186.034 36.8244 186.358 36.5546C186.681 36.2847 187.104 36.1316 187.546 36.1246H235.262C235.471 36.122 235.678 36.1591 235.869 36.2333C236.061 36.3075 236.233 36.4173 236.374 36.5553C236.515 36.6934 236.622 36.8566 236.687 37.0344C236.753 37.2121 236.776 37.4003 236.755 37.5866L236.022 46.0147C235.988 46.412 235.79 46.7838 235.467 47.0573C235.144 47.3309 234.719 47.4866 234.275 47.4942Z" fill="black"/>
<path d="M214.884 38.7511H207.418L207.71 35.3961C207.801 34.4914 208.262 33.6489 209.004 33.0306C209.746 32.4123 210.716 32.062 211.729 32.047C212.208 32.0401 212.684 32.1241 213.125 32.2935C213.566 32.4629 213.962 32.7138 214.287 33.0299C214.612 33.346 214.86 33.7202 215.013 34.1279C215.166 34.5357 215.222 34.9678 215.176 35.3961L214.884 38.7511Z" fill="#89B1FF"/>
<path opacity="0.4" d="M214.884 38.7511H207.418L207.71 35.3961C207.801 34.4914 208.262 33.6489 209.004 33.0306C209.746 32.4123 210.716 32.062 211.729 32.047C212.208 32.0401 212.684 32.1241 213.125 32.2935C213.566 32.4629 213.962 32.7138 214.287 33.0299C214.612 33.346 214.86 33.7202 215.013 34.1279C215.166 34.5357 215.222 34.9678 215.176 35.3961L214.884 38.7511Z" fill="white"/>
<path d="M246.428 184.93H150.516L162.76 44.075H258.665L246.428 184.93Z" fill="white"/>
<path d="M225.401 51.4491H194.759C194.267 51.4552 193.78 51.3684 193.329 51.1941C192.878 51.0198 192.472 50.7621 192.14 50.4378C191.807 50.1135 191.554 49.7299 191.398 49.312C191.242 48.8941 191.186 48.4513 191.233 48.0126L191.623 43.5393C191.717 42.6114 192.19 41.7474 192.951 41.1131C193.712 40.4789 194.707 40.1191 195.745 40.1028H226.394C226.885 40.0968 227.373 40.1837 227.824 40.3579C228.276 40.5321 228.681 40.7896 229.015 41.1139C229.348 41.4381 229.601 41.8216 229.758 42.2395C229.915 42.6574 229.972 43.1003 229.925 43.5393L229.536 48.0126C229.439 48.9415 228.963 49.8057 228.2 50.4397C227.437 51.0737 226.44 51.4331 225.401 51.4491ZM195.628 41.2736C194.944 41.2839 194.287 41.521 193.785 41.9392C193.283 42.3574 192.971 42.9272 192.908 43.5393L192.519 48.0126C192.487 48.3022 192.523 48.5947 192.626 48.8708C192.729 49.1469 192.895 49.4005 193.114 49.6149C193.334 49.8293 193.601 49.9998 193.899 50.1151C194.197 50.2304 194.519 50.288 194.843 50.2842H225.498C226.185 50.2738 226.843 50.0361 227.346 49.6168C227.849 49.1976 228.162 48.6262 228.225 48.0126L228.614 43.5393C228.644 43.2498 228.606 42.9579 228.502 42.6825C228.398 42.4071 228.231 42.1543 228.011 41.9407C227.792 41.727 227.524 41.5572 227.226 41.4423C226.929 41.3273 226.608 41.2699 226.283 41.2736H195.628Z" fill="#89B1FF"/>
<g opacity="0.4">
<path d="M225.401 51.4491H194.759C194.267 51.4552 193.78 51.3684 193.329 51.1941C192.878 51.0198 192.472 50.7621 192.14 50.4378C191.807 50.1135 191.554 49.7299 191.398 49.312C191.242 48.8941 191.186 48.4513 191.233 48.0126L191.623 43.5393C191.717 42.6114 192.19 41.7474 192.951 41.1131C193.712 40.4789 194.707 40.1191 195.745 40.1028H226.394C226.885 40.0968 227.373 40.1837 227.824 40.3579C228.276 40.5321 228.681 40.7896 229.015 41.1139C229.348 41.4381 229.601 41.8216 229.758 42.2395C229.915 42.6574 229.972 43.1003 229.925 43.5393L229.536 48.0126C229.439 48.9415 228.963 49.8057 228.2 50.4397C227.437 51.0737 226.44 51.4331 225.401 51.4491ZM195.628 41.2736C194.944 41.2839 194.287 41.521 193.785 41.9392C193.283 42.3574 192.971 42.9272 192.908 43.5393L192.519 48.0126C192.487 48.3022 192.523 48.5947 192.626 48.8708C192.729 49.1469 192.895 49.4005 193.114 49.6149C193.334 49.8293 193.601 49.9998 193.899 50.1151C194.197 50.2304 194.519 50.288 194.843 50.2842H225.498C226.185 50.2738 226.843 50.0361 227.346 49.6168C227.849 49.1976 228.162 48.6262 228.225 48.0126L228.614 43.5393C228.644 43.2498 228.606 42.9579 228.502 42.6825C228.398 42.4071 228.231 42.1543 228.011 41.9407C227.792 41.727 227.524 41.5572 227.226 41.4423C226.929 41.3273 226.608 41.2699 226.283 41.2736H195.628Z" fill="white"/>
</g>
<path d="M223.817 42.6828H197.849C197.734 42.6849 197.62 42.6652 197.515 42.6251C197.41 42.5849 197.315 42.5252 197.237 42.4498C197.159 42.3744 197.1 42.2851 197.063 42.1877C197.026 42.0903 197.013 41.9871 197.024 41.8848L197.226 39.555C197.249 39.3386 197.361 39.1377 197.54 38.9905C197.718 38.8434 197.951 38.7602 198.193 38.757H224.161C224.275 38.7548 224.388 38.7744 224.494 38.8146C224.599 38.8548 224.693 38.9147 224.771 38.9902C224.848 39.0657 224.907 39.1551 224.942 39.2525C224.978 39.3498 224.991 39.453 224.979 39.555L224.777 41.8848C224.755 42.1007 224.645 42.3015 224.467 42.4488C224.29 42.5961 224.058 42.6794 223.817 42.6828Z" fill="#89B1FF"/>
<path d="M245.805 64.6533H173.095L173.712 57.5356H246.421L245.805 64.6533Z" fill="#89B1FF"/>
<path d="M216.377 74.5608H167.973L168.135 72.7261H216.539L216.377 74.5608Z" fill="#89B1FF"/>
<path d="M215.922 79.8613H167.518L167.674 78.0208H216.078L215.922 79.8613Z" fill="#89B1FF"/>
<path d="M215.461 85.1614H167.057L167.213 83.3208H215.617L215.461 85.1614Z" fill="#89B1FF"/>
<path d="M215.001 90.4561H166.597L166.752 88.6213H215.156L215.001 90.4561Z" fill="#89B1FF"/>
<path d="M246.759 90.456H227.011L228.556 72.7261H248.304L246.759 90.456Z" fill="#89B1FF"/>
<path d="M241.293 79.3079C241.384 78.2711 240.488 77.5605 238.865 77.5605C238.235 77.5336 237.606 77.6349 237.026 77.8568C236.446 78.0787 235.93 78.4155 235.515 78.8419L234.269 77.9974C234.874 77.3914 235.622 76.9138 236.459 76.5995C237.295 76.2852 238.199 76.1419 239.105 76.1801C241.702 76.1801 243.299 77.2693 243.137 79.0924C242.903 81.8008 239.689 82.0047 239.508 84.1073H237.696C237.924 81.5445 241.131 81.1718 241.293 79.3079ZM237.216 86.7226C237.239 86.4321 237.388 86.1613 237.631 85.9676C237.873 85.774 238.19 85.6729 238.514 85.6858C238.664 85.6806 238.812 85.7046 238.95 85.756C239.088 85.8074 239.212 85.8851 239.313 85.9837C239.415 86.0823 239.491 86.1994 239.537 86.327C239.583 86.4545 239.597 86.5895 239.579 86.7226C239.555 87.0043 239.413 87.2675 239.182 87.4596C238.951 87.6517 238.648 87.7587 238.333 87.7593C238.18 87.7696 238.026 87.7494 237.883 87.7004C237.739 87.6514 237.61 87.5747 237.503 87.4758C237.397 87.3769 237.316 87.2581 237.266 87.1279C237.216 86.9977 237.199 86.8594 237.216 86.7226Z" fill="white"/>
<path d="M214.046 101.395H165.642L165.805 99.554H214.209L214.046 101.395Z" fill="#89B1FF"/>
<path d="M213.585 106.689H165.181L165.344 104.854H213.748L213.585 106.689Z" fill="#89B1FF"/>
<path d="M213.131 111.99H164.727L164.883 110.155H213.287L213.131 111.99Z" fill="#89B1FF"/>
<path d="M212.67 117.29H164.266L164.422 115.449H212.826L212.67 117.29Z" fill="#89B1FF"/>
<path d="M244.429 117.29H224.68L226.219 99.554H245.967L244.429 117.29Z" fill="#89B1FF"/>
<path d="M238.962 106.141C239.053 105.099 238.157 104.394 236.534 104.394C235.904 104.367 235.276 104.468 234.696 104.69C234.116 104.912 233.599 105.249 233.184 105.675L231.938 104.842C232.542 104.235 233.29 103.757 234.127 103.443C234.964 103.128 235.868 102.986 236.774 103.025C239.371 103.025 240.968 104.114 240.806 105.937C240.572 108.646 237.359 108.85 237.177 110.952H235.366C235.586 108.337 238.8 108.005 238.962 106.141ZM234.885 113.579C234.907 113.293 235.05 113.025 235.286 112.831C235.522 112.637 235.831 112.532 236.151 112.537C236.301 112.531 236.451 112.555 236.589 112.607C236.727 112.659 236.852 112.737 236.953 112.836C237.054 112.936 237.13 113.054 237.176 113.182C237.221 113.31 237.235 113.446 237.216 113.579C237.19 113.861 237.048 114.123 236.817 114.315C236.586 114.507 236.284 114.614 235.969 114.616C235.819 114.622 235.669 114.599 235.53 114.548C235.391 114.497 235.265 114.419 235.162 114.321C235.059 114.222 234.981 114.105 234.934 113.977C234.886 113.849 234.869 113.714 234.885 113.579Z" fill="white"/>
<path d="M211.716 128.222H163.312L163.474 126.387H211.878L211.716 128.222Z" fill="#89B1FF"/>
<path d="M211.255 133.523H162.851L163.013 131.682H211.417L211.255 133.523Z" fill="#89B1FF"/>
<path d="M210.794 138.823H162.396L162.552 136.983H210.956L210.794 138.823Z" fill="#89B1FF"/>
<path d="M210.339 144.118H161.935L162.091 142.283H210.495L210.339 144.118Z" fill="#89B1FF"/>
<path d="M242.098 144.117H222.349L223.888 126.387H243.637L242.098 144.117Z" fill="#89B1FF"/>
<path d="M236.632 132.97C236.723 131.933 235.827 131.222 234.197 131.222C233.568 131.196 232.941 131.297 232.362 131.519C231.783 131.741 231.267 132.078 230.854 132.504L229.607 131.636C230.212 131.029 230.96 130.55 231.797 130.236C232.633 129.922 233.538 129.779 234.444 129.818C237.041 129.818 238.631 130.902 238.475 132.702C238.242 135.416 235.028 135.614 234.846 137.717H233.061C233.256 135.194 236.469 134.833 236.632 132.97ZM232.555 140.373C232.578 140.087 232.722 139.821 232.958 139.628C233.193 139.435 233.502 139.331 233.821 139.336C233.97 139.331 234.119 139.355 234.257 139.406C234.395 139.457 234.519 139.535 234.62 139.634C234.721 139.732 234.797 139.849 234.843 139.977C234.889 140.104 234.903 140.239 234.885 140.373C234.861 140.654 234.719 140.917 234.488 141.11C234.257 141.302 233.954 141.409 233.639 141.409C233.488 141.416 233.338 141.393 233.198 141.343C233.058 141.292 232.932 141.215 232.829 141.116C232.726 141.018 232.648 140.9 232.601 140.771C232.553 140.643 232.538 140.507 232.555 140.373Z" fill="white"/>
<path d="M209.385 155.056H160.981L161.143 153.215H209.547L209.385 155.056Z" fill="#89B1FF"/>
<path d="M208.924 160.356H160.52L160.682 158.516H209.086L208.924 160.356Z" fill="#89B1FF"/>
<path d="M208.463 165.651H160.059L160.221 163.816H208.625L208.463 165.651Z" fill="#89B1FF"/>
<path d="M208.002 170.951H159.598L159.761 169.111H208.165L208.002 170.951Z" fill="#89B1FF"/>
<path d="M239.767 170.951H220.019L221.557 153.215H241.306L239.767 170.951Z" fill="#89B1FF"/>
<path d="M234.301 159.803C234.392 158.761 233.496 158.056 231.867 158.056C231.238 158.029 230.61 158.13 230.031 158.352C229.452 158.574 228.936 158.911 228.523 159.337L227.277 158.493C227.881 157.886 228.629 157.407 229.466 157.093C230.303 156.779 231.207 156.636 232.113 156.675C234.71 156.675 236.301 157.765 236.145 159.588C235.911 162.296 232.698 162.5 232.516 164.603H230.705C230.925 162.022 234.139 161.667 234.301 159.803ZM230.224 167.218C230.246 166.931 230.389 166.664 230.625 166.47C230.86 166.275 231.17 166.17 231.49 166.175C231.64 166.17 231.789 166.194 231.928 166.246C232.066 166.298 232.191 166.376 232.292 166.475C232.393 166.574 232.469 166.692 232.515 166.82C232.56 166.949 232.574 167.084 232.555 167.218C232.529 167.499 232.387 167.761 232.156 167.953C231.925 168.145 231.623 168.253 231.308 168.255C231.158 168.26 231.008 168.237 230.869 168.186C230.729 168.135 230.604 168.058 230.501 167.959C230.398 167.861 230.32 167.744 230.272 167.616C230.225 167.488 230.208 167.352 230.224 167.218Z" fill="white"/>
<path opacity="0.7" d="M245.805 64.6533H173.095L173.712 57.5356H246.421L245.805 64.6533Z" fill="white"/>
<path opacity="0.7" d="M216.377 74.5608H167.973L168.135 72.7261H216.539L216.377 74.5608Z" fill="white"/>
<path opacity="0.7" d="M215.922 79.8613H167.518L167.674 78.0208H216.078L215.922 79.8613Z" fill="white"/>
<path opacity="0.7" d="M215.461 85.1614H167.057L167.213 83.3208H215.617L215.461 85.1614Z" fill="white"/>
<path opacity="0.7" d="M215.001 90.4561H166.597L166.752 88.6213H215.156L215.001 90.4561Z" fill="white"/>
<path opacity="0.7" d="M246.759 90.456H227.011L228.556 72.7261H248.304L246.759 90.456Z" fill="white"/>
<path opacity="0.7" d="M214.046 101.395H165.642L165.805 99.554H214.209L214.046 101.395Z" fill="white"/>
<path opacity="0.7" d="M213.585 106.689H165.181L165.344 104.854H213.748L213.585 106.689Z" fill="white"/>
<path opacity="0.7" d="M213.131 111.99H164.727L164.883 110.155H213.287L213.131 111.99Z" fill="white"/>
<path opacity="0.7" d="M212.67 117.29H164.266L164.422 115.449H212.826L212.67 117.29Z" fill="white"/>
<path opacity="0.7" d="M244.429 117.29H224.68L226.219 99.554H245.967L244.429 117.29Z" fill="white"/>
<path opacity="0.7" d="M211.716 128.222H163.312L163.474 126.387H211.878L211.716 128.222Z" fill="white"/>
<path opacity="0.7" d="M211.255 133.523H162.851L163.013 131.682H211.417L211.255 133.523Z" fill="white"/>
<path opacity="0.7" d="M210.794 138.823H162.396L162.552 136.983H210.956L210.794 138.823Z" fill="white"/>
<path opacity="0.7" d="M210.339 144.118H161.935L162.091 142.283H210.495L210.339 144.118Z" fill="white"/>
<path opacity="0.7" d="M242.098 144.117H222.349L223.888 126.387H243.637L242.098 144.117Z" fill="white"/>
<path opacity="0.7" d="M209.385 155.056H160.981L161.143 153.215H209.547L209.385 155.056Z" fill="white"/>
<path opacity="0.7" d="M208.924 160.356H160.52L160.682 158.516H209.086L208.924 160.356Z" fill="white"/>
<path opacity="0.7" d="M208.463 165.651H160.059L160.221 163.816H208.625L208.463 165.651Z" fill="white"/>
<path opacity="0.7" d="M208.002 170.951H159.598L159.761 169.111H208.165L208.002 170.951Z" fill="white"/>
<path opacity="0.7" d="M239.767 170.951H220.019L221.557 153.215H241.306L239.767 170.951Z" fill="white"/>
<path d="M129.839 117.656V133.697C129.844 136.86 128.483 139.902 126.041 142.184L109.357 157.846H118.803L136.136 142.539C137.429 141.398 138.456 140.039 139.159 138.539C139.861 137.039 140.224 135.429 140.226 133.802V117.656H129.839Z" fill="#89B1FF"/>
<path opacity="0.4" d="M140.226 117.656V133.785C140.229 134.688 140.115 135.589 139.889 136.47C139.32 138.777 138.017 140.885 136.136 142.539L118.803 157.846H109.357L126.041 142.184C128.483 139.902 129.844 136.86 129.839 133.697V117.656H140.226Z" fill="white"/>
<path opacity="0.2" d="M140.226 117.656V133.785C140.229 134.688 140.115 135.589 139.889 136.47L129.839 132.829V117.656H140.226Z" fill="black"/>
<path d="M102.793 159.593L88.8098 207.389C88.6846 207.824 88.4017 208.21 88.0057 208.485C87.6097 208.76 87.1229 208.91 86.622 208.91H61.6345C61.4287 208.909 61.2258 208.866 61.0413 208.784C60.8567 208.703 60.6955 208.584 60.5698 208.438C60.4437 208.292 60.357 208.122 60.3165 207.941C60.2759 207.76 60.2826 207.573 60.3361 207.395L74.3263 159.593H71.6386L57.8237 206.801C57.6724 207.324 57.6563 207.872 57.7767 208.401C57.8971 208.931 58.1508 209.429 58.5185 209.857C58.8862 210.285 59.358 210.632 59.8981 210.872C60.4381 211.111 61.0321 211.237 61.6345 211.239H86.622C87.6963 211.239 88.7401 210.919 89.5904 210.33C90.4407 209.741 91.0497 208.916 91.3222 207.983L105.475 159.593H102.793Z" fill="#89B1FF"/>
<g opacity="0.4">
<path d="M102.793 159.593L88.8098 207.389C88.6846 207.824 88.4017 208.21 88.0057 208.485C87.6097 208.76 87.1229 208.91 86.622 208.91H61.6345C61.4287 208.909 61.2258 208.866 61.0413 208.784C60.8567 208.703 60.6955 208.584 60.5698 208.438C60.4437 208.292 60.357 208.122 60.3165 207.941C60.2759 207.76 60.2826 207.573 60.3361 207.395L74.3263 159.593H71.6386L57.8237 206.801C57.6724 207.324 57.6563 207.872 57.7767 208.401C57.8971 208.931 58.1508 209.429 58.5185 209.857C58.8862 210.285 59.358 210.632 59.8981 210.872C60.4381 211.111 61.0321 211.237 61.6345 211.239H86.622C87.6963 211.239 88.7401 210.919 89.5904 210.33C90.4407 209.741 91.0497 208.916 91.3222 207.983L105.475 159.593H102.793Z" fill="white"/>
</g>
<path d="M108.513 211.24L93.2244 158.935L90.712 159.523L105.825 211.24H108.513Z" fill="#89B1FF"/>
<path d="M139.674 211.24L124.386 158.935L121.874 159.523L136.987 211.24H139.674Z" fill="#89B1FF"/>
<g opacity="0.5">
<path d="M108.513 211.24L93.2244 158.935L90.712 159.523L105.825 211.24H108.513Z" fill="white"/>
</g>
<g opacity="0.5">
<path d="M139.674 211.24L124.386 158.935L121.874 159.523L136.987 211.24H139.674Z" fill="white"/>
</g>
<path opacity="0.2" d="M71.6387 159.593H74.3264L72.2165 166.798L69.7301 166.117L71.6387 159.593Z" fill="black"/>
<path opacity="0.2" d="M93.2244 158.935L96.6976 170.823L93.7827 170.031L90.712 159.523L93.2244 158.935Z" fill="black"/>
<path opacity="0.2" d="M102.794 159.593H105.475L101.073 174.679L98.5803 173.997L102.794 159.593Z" fill="black"/>
<path opacity="0.2" d="M130.521 180.067L127.593 179.263L121.874 159.669L124.386 159.028L130.521 180.067Z" fill="black"/>
<path d="M69.2692 160.391L57.1292 101.429L56.9669 100.538C56.847 99.987 56.8633 99.4193 57.0147 98.8748C57.1662 98.3303 57.449 97.8223 57.8433 97.3867C58.2242 96.9775 58.7023 96.65 59.2427 96.4282C59.783 96.2065 60.3719 96.0961 60.966 96.1053H87.2454C88.4926 96.1603 89.6839 96.5864 90.6314 97.3162C91.5789 98.046 92.2285 99.0381 92.4779 100.136L92.6727 101.132L104.806 159.96L102.248 160.379L90.0759 101.376L89.9201 100.549C89.785 99.9866 89.4523 99.4776 88.9708 99.097C88.4894 98.7165 87.8847 98.4845 87.2454 98.4351H60.94C60.7267 98.4277 60.5143 98.4636 60.3187 98.5403C60.123 98.6169 59.9493 98.7323 59.8104 98.8777C59.6588 99.0552 59.5523 99.2604 59.4985 99.4787C59.4446 99.6971 59.4448 99.9234 59.4988 100.142L59.6806 101.12L71.827 159.948L69.2692 160.391Z" fill="#89B1FF"/>
<g opacity="0.5">
<path d="M69.2692 160.391L57.1292 101.429L56.9669 100.538C56.847 99.987 56.8633 99.4193 57.0147 98.8748C57.1662 98.3303 57.449 97.8223 57.8433 97.3867C58.2242 96.9775 58.7023 96.65 59.2427 96.4282C59.783 96.2065 60.3719 96.0961 60.966 96.1053H87.2454C88.4926 96.1603 89.6839 96.5864 90.6314 97.3162C91.5789 98.046 92.2285 99.0381 92.4779 100.136L92.6727 101.132L104.806 159.96L102.248 160.379L90.0759 101.376L89.9201 100.549C89.785 99.9866 89.4523 99.4776 88.9708 99.097C88.4894 98.7165 87.8847 98.4845 87.2454 98.4351H60.94C60.7267 98.4277 60.5143 98.4636 60.3187 98.5403C60.123 98.6169 59.9493 98.7323 59.8104 98.8777C59.6588 99.0552 59.5523 99.2604 59.4985 99.4787C59.4446 99.6971 59.4448 99.9234 59.4988 100.142L59.6806 101.12L71.827 159.948L69.2692 160.391Z" fill="white"/>
</g>
<path d="M74.5796 154.543H124.522C125.383 154.543 126.209 154.85 126.817 155.396C127.426 155.942 127.768 156.683 127.768 157.455V161.34H71.3336V157.444C71.3371 156.673 71.6806 155.936 72.289 155.392C72.8973 154.848 73.721 154.543 74.5796 154.543Z" fill="#89B1FF"/>
<path d="M128.547 157.951H70.5545C69.8338 157.951 69.2496 158.475 69.2496 159.121V160.181C69.2496 160.828 69.8338 161.352 70.5545 161.352H128.547C129.268 161.352 129.852 160.828 129.852 160.181V159.121C129.852 158.475 129.268 157.951 128.547 157.951Z" fill="#89B1FF"/>
<path opacity="0.6" d="M128.547 157.951H70.5545C69.8338 157.951 69.2496 158.475 69.2496 159.121V160.181C69.2496 160.828 69.8338 161.352 70.5545 161.352H128.547C129.268 161.352 129.852 160.828 129.852 160.181V159.121C129.852 158.475 129.268 157.951 128.547 157.951Z" fill="white"/>
<path d="M96.2952 125.228H63.2966L58.3757 101.347H91.3678L96.2497 125.007L96.2952 125.228Z" fill="#89B1FF"/>
<path d="M128.755 74.3394C128.755 74.3394 124.607 65.6957 124.25 64.7696C123.893 63.8435 124.315 59.1664 123.996 58.3626C123.678 57.5588 118.861 56.9822 117.842 57.087C116.823 57.1919 117.719 64.426 118.141 64.9968C118.691 65.584 119.311 66.1153 119.991 66.5811L123.659 76.4828L128.755 74.3394Z" fill="#B97964"/>
<path d="M107.767 90.6541C110.597 91.056 122.185 92.5587 124.775 91.0094C126.866 89.7571 120.978 69.4585 120.978 69.4585L126.217 67.5422C126.217 67.5422 138.662 92.1335 132.014 97.7484C128.638 100.602 119.147 101.325 105.494 101.325L107.767 90.6541Z" fill="#89B1FF"/>
<path opacity="0.8" d="M107.767 90.6541C110.597 91.056 122.185 92.5587 124.775 91.0094C126.866 89.7571 120.978 69.4585 120.978 69.4585L126.217 67.5422C126.217 67.5422 138.662 92.1335 132.014 97.7484C128.638 100.602 119.147 101.325 105.494 101.325L107.767 90.6541Z" fill="white"/>
<path opacity="0.1" d="M112.564 101.266C110.552 101.319 108.403 101.342 106.144 101.342L108.091 94.6497C110.201 96.4664 111.744 98.7478 112.564 101.266Z" fill="black"/>
<path d="M124.107 104.837L137.844 117.872" stroke="#2E353A" stroke-width="2" stroke-miterlimit="10"/>
<path d="M114.258 112.513C114.258 112.513 124.743 112.222 125.834 112.123C126.924 112.024 131.462 109.694 132.436 109.601C133.41 109.508 136.007 113.189 136.331 114.062C136.656 114.936 128.976 117.266 128.216 117.173C127.391 116.971 126.592 116.689 125.834 116.334L114.258 117.557V112.513Z" fill="#B97964"/>
<path d="M108.091 206.673L113.265 206.039L113.979 195.007L108.818 195.648L108.091 206.673Z" fill="#B97964"/>
<path d="M113.655 205.479L107.812 205.147C107.714 205.141 107.618 205.168 107.542 205.223C107.466 205.278 107.416 205.357 107.403 205.444L106.832 209.58C106.816 209.797 106.896 210.011 107.056 210.174C107.215 210.338 107.44 210.438 107.682 210.453C109.721 210.541 110.701 210.488 113.272 210.617C114.856 210.698 117.965 211.001 120.14 210.809C122.315 210.617 122.049 208.694 121.114 208.601C118.881 208.374 115.92 206.906 114.531 205.788C114.285 205.601 113.977 205.492 113.655 205.479Z" fill="#2E353A"/>
<path d="M115.447 206.376C114.979 206.339 114.518 206.257 114.07 206.132C114.047 206.127 114.027 206.116 114.011 206.1C113.994 206.085 113.984 206.065 113.979 206.044C113.978 206.023 113.983 206.002 113.993 205.982C114.003 205.963 114.019 205.946 114.038 205.934C114.213 205.841 115.752 205.019 116.375 205.276C116.445 205.306 116.504 205.352 116.549 205.409C116.593 205.466 116.62 205.533 116.628 205.602C116.659 205.705 116.658 205.814 116.625 205.917C116.592 206.02 116.528 206.112 116.44 206.184C116.147 206.357 115.793 206.426 115.447 206.376ZM116.271 205.497C115.94 205.357 115.044 205.701 114.414 206.01C115.336 206.225 116.018 206.237 116.284 206.039C116.337 205.988 116.376 205.927 116.395 205.859C116.414 205.792 116.414 205.721 116.394 205.654C116.392 205.62 116.379 205.588 116.357 205.56C116.335 205.533 116.306 205.511 116.271 205.497Z" fill="#89B1FF"/>
<path d="M114.096 206.132C114.079 206.137 114.061 206.137 114.044 206.132C114.011 206.111 113.988 206.08 113.979 206.044C113.979 206.004 113.979 204.635 114.512 204.21C114.585 204.155 114.671 204.116 114.763 204.095C114.855 204.074 114.951 204.071 115.044 204.087C115.147 204.095 115.244 204.134 115.319 204.197C115.394 204.261 115.444 204.345 115.46 204.437C115.544 204.955 114.7 205.887 114.161 206.132C114.151 206.136 114.14 206.138 114.129 206.138C114.117 206.138 114.106 206.136 114.096 206.132ZM114.94 204.314C114.891 204.311 114.842 204.317 114.797 204.332C114.751 204.347 114.709 204.371 114.674 204.402C114.336 204.652 114.252 205.421 114.233 205.858C114.736 205.527 115.087 205.042 115.219 204.495C115.219 204.431 115.174 204.349 114.999 204.32L114.94 204.314Z" fill="#89B1FF"/>
<path opacity="0.2" d="M108.818 195.648L113.979 195.013L113.57 201.315L108.416 201.723L108.818 195.648Z" fill="black"/>
<path d="M108.299 141.834L107.039 134.74L78.0464 133.185C78.0464 133.185 74.9627 147.944 77.3323 151.876C81.5586 158.894 104.352 155.37 111.019 156.04C107.033 170.666 107.422 199.247 107.422 199.247L116.946 199.899C116.946 199.899 124.276 169.105 125.756 154.468C126.756 144.595 117.634 144.84 108.299 141.834Z" fill="#2E353A"/>
<path d="M106.306 199.649L117.751 200.325L118.731 195.927L106.156 195.403L106.306 199.649Z" fill="#89B1FF"/>
<path d="M120.023 202.555L125.23 202.899L128.489 192.246L123.289 191.908L120.023 202.555Z" fill="#B97964"/>
<path d="M125.743 202.421L120.101 201.012C120.008 200.984 119.907 200.991 119.819 201.03C119.731 201.069 119.665 201.138 119.634 201.221L118.115 205.159C118.082 205.264 118.073 205.374 118.088 205.482C118.103 205.59 118.142 205.695 118.203 205.79C118.263 205.885 118.344 205.968 118.44 206.034C118.536 206.101 118.646 206.15 118.764 206.178C120.711 206.638 121.705 206.761 124.191 207.378C125.717 207.757 128.69 208.63 130.865 208.852C133.04 209.073 133.221 207.139 132.325 206.877C130.196 206.236 127.651 204.244 126.541 202.893C126.342 202.659 126.061 202.493 125.743 202.421Z" fill="#2E353A"/>
<path d="M127.288 203.639C126.835 203.517 126.399 203.349 125.989 203.138C125.968 203.13 125.95 203.116 125.938 203.098C125.926 203.08 125.921 203.059 125.924 203.039C125.926 203.017 125.934 202.997 125.948 202.979C125.962 202.962 125.98 202.948 126.002 202.94C126.191 202.882 127.891 202.357 128.437 202.736C128.5 202.778 128.55 202.834 128.582 202.898C128.613 202.962 128.626 203.033 128.619 203.103C128.627 203.213 128.6 203.323 128.541 203.42C128.483 203.517 128.395 203.597 128.287 203.65C127.964 203.758 127.608 203.754 127.288 203.639ZM128.294 202.928C128.002 202.73 127.048 202.928 126.346 203.085C127.197 203.47 127.865 203.61 128.164 203.464C128.229 203.426 128.282 203.373 128.317 203.31C128.353 203.248 128.369 203.178 128.365 203.109C128.372 203.074 128.368 203.039 128.353 203.007C128.338 202.975 128.313 202.948 128.281 202.928H128.294Z" fill="#89B1FF"/>
<path d="M126.022 203.15H125.944C125.929 203.137 125.917 203.122 125.911 203.104C125.904 203.087 125.902 203.069 125.905 203.051C125.905 203.01 126.21 201.67 126.846 201.356C126.932 201.32 127.025 201.302 127.119 201.302C127.213 201.302 127.306 201.32 127.392 201.356C127.491 201.384 127.578 201.441 127.638 201.518C127.698 201.595 127.728 201.687 127.723 201.781C127.677 202.299 126.639 203.056 126.054 203.196C126.038 203.184 126.026 203.168 126.022 203.15ZM127.242 201.53C127.196 201.519 127.147 201.516 127.099 201.522C127.051 201.528 127.004 201.542 126.963 201.565C126.574 201.752 126.314 202.486 126.191 202.911C126.723 202.689 127.424 202.101 127.489 201.746C127.489 201.682 127.489 201.6 127.314 201.542L127.242 201.53Z" fill="#89B1FF"/>
<path opacity="0.2" d="M123.289 191.908L128.489 192.252L126.626 198.338L121.484 197.773L123.289 191.908Z" fill="black"/>
<path d="M130.255 197.587L121.088 195.17C121.088 195.17 126.593 167.456 132.111 157.846C131.696 157.724 131.144 157.566 130.462 157.386C129.235 157.054 127.606 156.64 125.691 156.163C112.369 152.848 85.3692 146.634 85.3692 146.634L97.7039 136.307C97.7039 136.307 146.835 143.028 147.854 154.642C148.341 160.228 130.255 197.587 130.255 197.587Z" fill="#2E353A"/>
<path d="M119.906 195.35L130.943 198.152L132.923 194.034L120.744 191.168L119.906 195.35Z" fill="#89B1FF"/>
<path opacity="0.2" d="M130.488 157.386C129.261 157.054 127.632 156.64 125.717 156.162C126.1 153.343 126.106 150.111 124.594 148.462C121.588 145.177 113.856 143.249 109.454 142.55C105.773 141.968 93.4063 140.803 93.4063 140.803C93.4063 140.803 109.454 139.423 125.866 143.715C133.942 145.847 132.365 152.959 130.488 157.386Z" fill="black"/>
<path d="M107.767 90.654C107.767 90.654 111.973 104.633 107.059 134.74C97.8988 134.565 82.5064 134.245 78.0464 134.158C77.936 129.964 81.3832 109.415 77.3517 89.594C80.2549 89.1447 83.1904 88.8838 86.1354 88.8135C90.4456 88.6755 94.7612 88.7591 99.0608 89.0639C102.004 89.3923 104.915 89.9239 107.767 90.654Z" fill="#89B1FF"/>
<path opacity="0.7" d="M107.767 90.654C107.767 90.654 111.973 104.633 107.059 134.74C97.8988 134.565 82.5064 134.245 78.0464 134.158C77.936 129.964 81.3832 109.415 77.3517 89.594C80.2549 89.1447 83.1904 88.8838 86.1354 88.8135C90.4456 88.6755 94.7612 88.7591 99.0608 89.0639C102.004 89.3923 104.915 89.9239 107.767 90.654Z" fill="white"/>
<path opacity="0.1" d="M87.531 115.135C84.9342 114.622 81.8376 112.38 79.2862 110.166C79.2862 106.229 79.072 102.041 78.5981 97.7717C82.2076 102.565 91.9845 116.014 87.531 115.135Z" fill="black"/>
<path d="M77.3322 89.594C67.406 92.8033 84.8304 116.917 90.2382 119.404C95.646 121.891 123.133 116.684 123.133 116.684L122.049 111.698C122.049 111.698 97.7299 112.252 95.4902 111.745C93.2505 111.238 87.9271 100.958 84.8629 96.1058C83.1595 93.2916 80.5296 91.0175 77.3322 89.594Z" fill="#89B1FF"/>
<path opacity="0.8" d="M77.3322 89.594C67.406 92.8033 84.8304 116.917 90.2382 119.404C95.646 121.891 123.133 116.684 123.133 116.684L122.049 111.698C122.049 111.698 97.7299 112.252 95.4902 111.745C93.2505 111.238 87.9271 100.958 84.8629 96.1058C83.1595 93.2916 80.5296 91.0175 77.3322 89.594Z" fill="white"/>
<path d="M120.101 111.25L121.51 117.872L124.107 117.074L123.133 111.25H120.101Z" fill="#89B1FF"/>
<path opacity="0.7" d="M120.101 111.25L121.51 117.872L124.107 117.074L123.133 111.25H120.101Z" fill="white"/>
<path d="M120.802 70.9321L127.788 68.4508L126.431 66.3132L120.231 68.2586L120.802 70.9321Z" fill="#89B1FF"/>
<path opacity="0.7" d="M120.802 70.9321L127.788 68.4508L126.431 66.3132L120.231 68.2586L120.802 70.9321Z" fill="white"/>
<path opacity="0.1" d="M84.5514 88.8718C84.5514 88.8718 84.7397 91.5918 90.6928 94.2129L94.8087 91.5394C94.8087 91.5394 95.9837 98.3658 96.7563 103.462C96.7563 103.462 96.7043 95.3079 95.9253 92.1743L99.0739 93.1761C99.0739 93.1761 96.3927 89.0465 91.8289 88.0971C87.265 87.1477 84.5514 88.8718 84.5514 88.8718Z" fill="black"/>
<path d="M87.7063 75.8127C88.4334 79.5579 89.0825 86.4076 86.1157 88.8423L94.7825 91.009L99.0152 89.0927C94.3995 88.0094 94.5942 84.9224 95.4706 82.0392L87.7063 75.8127Z" fill="#B97964"/>
<path opacity="0.2" d="M90.8875 78.3525L95.4968 82.0395C95.2834 82.7104 95.1335 83.3962 95.0488 84.0897C93.283 83.8276 90.894 82.0337 90.7447 80.3678C90.6524 79.6939 90.7009 79.0105 90.8875 78.3525Z" fill="black"/>
<path d="M93.8544 65.4041C91.9652 67.2447 93.5947 69.3473 99.6257 71.9043C101.06 69.0678 100.184 64.3324 98.2364 63.5053C96.2889 62.6782 95.5033 63.8082 93.8544 65.4041Z" fill="#2E353A"/>
<path d="M85.1746 71.1943C86.7067 76.0694 87.3299 78.9875 90.7187 80.9853C95.8214 83.985 102.073 80.4029 102.196 75.2132C102.3 70.5536 99.7814 63.3602 93.9192 62.4458C92.629 62.239 91.3013 62.3311 90.0619 62.7135C88.8224 63.0958 87.7123 63.7557 86.8366 64.6306C85.9609 65.5055 85.3487 66.5665 85.0578 67.7131C84.7669 68.8596 84.8071 70.0539 85.1746 71.1826V71.1943Z" fill="#B97964"/>
<path d="M93.7244 70.9493C93.8218 71.3512 94.1399 71.6308 94.432 71.5726C94.7242 71.5143 94.88 71.1474 94.7826 70.7455C94.6852 70.3436 94.3736 70.064 94.0815 70.1164C93.7893 70.1688 93.6595 70.5474 93.7244 70.9493Z" fill="#2E353A"/>
<path d="M98.8207 69.9655C98.918 70.3674 99.2362 70.6469 99.5283 70.5887C99.8204 70.5305 99.9827 70.1635 99.8853 69.7558C99.788 69.3481 99.4699 69.0743 99.1777 69.1326C98.8856 69.1908 98.7233 69.5636 98.8207 69.9655Z" fill="#2E353A"/>
<path d="M97.204 70.4778C98.0334 71.6047 99.0342 72.6222 100.177 73.5007C99.9178 73.7564 99.5992 73.9582 99.2437 74.092C98.8883 74.2258 98.5046 74.2884 98.1194 74.2754L97.204 70.4778Z" fill="#A24E3F"/>
<path d="M91.9846 69.7788C91.9364 69.795 91.8838 69.7975 91.8339 69.7862C91.784 69.7749 91.7391 69.7502 91.7053 69.7154C91.6714 69.6806 91.6502 69.6373 91.6444 69.5914C91.6387 69.5455 91.6486 69.4991 91.673 69.4584C91.8429 69.1058 92.1051 68.7951 92.4373 68.5527C92.7696 68.3104 93.1622 68.1435 93.5816 68.0664C93.6495 68.056 93.7192 68.0696 93.7761 68.1044C93.833 68.1392 93.8726 68.1923 93.8868 68.2528C93.8945 68.3157 93.8753 68.3789 93.8332 68.4297C93.791 68.4805 93.729 68.5151 93.6595 68.5265C93.33 68.5921 93.0226 68.7272 92.763 68.9207C92.5033 69.1142 92.2988 69.3604 92.1664 69.639C92.1508 69.6737 92.1262 69.7045 92.0945 69.7288C92.0629 69.7531 92.0252 69.7703 91.9846 69.7788Z" fill="#2E353A"/>
<path d="M100.768 67.9733C100.718 67.9846 100.666 67.9824 100.617 67.9668C100.568 67.9513 100.526 67.9231 100.495 67.8859C100.294 67.6425 100.032 67.4451 99.7293 67.3095C99.4271 67.174 99.0935 67.104 98.7556 67.1054C98.6843 67.1103 98.6137 67.0898 98.5591 67.0484C98.5044 67.007 98.4701 66.948 98.4635 66.8841C98.4596 66.8213 98.4821 66.7595 98.5266 66.711C98.5711 66.6624 98.6343 66.6306 98.7037 66.622C99.1319 66.6132 99.5562 66.6964 99.9413 66.8646C100.326 67.0328 100.661 67.2811 100.917 67.5888C100.939 67.6136 100.956 67.642 100.965 67.6725C100.975 67.703 100.978 67.7348 100.974 67.7663C100.969 67.7977 100.958 67.8281 100.941 67.8556C100.923 67.8832 100.9 67.9073 100.872 67.9267C100.842 67.95 100.807 67.9661 100.768 67.9733Z" fill="#2E353A"/>
<path d="M86.343 66.4004C89.1086 66.6916 89.3942 69.2427 86.6676 74.7003C83.519 73.384 80.7469 69.2719 81.6363 67.5128C82.5257 65.7538 83.8955 66.1382 86.343 66.4004Z" fill="#2E353A"/>
<path d="M83.5062 75.6558C83.8388 76.2122 84.2903 76.7044 84.835 77.1042C85.3797 77.5039 86.0069 77.8035 86.6807 77.9856C88.4855 78.4574 89.4073 77.0129 88.9269 75.4753C88.492 74.089 87.0248 72.1727 85.207 72.3766C83.3893 72.5804 82.6882 74.2754 83.5062 75.6558Z" fill="#B97964"/>
<path d="M81.8505 67.0933C81.8505 67.0933 80.4807 65.5091 83.1489 62.3405C85.8171 59.1719 92.335 58.1992 97.3338 59.0729C102.333 59.9466 99.3593 64.8975 97.574 65.7187L97.7947 64.9441C95.8839 65.8385 93.7799 66.3511 91.6274 66.4468L92.6141 65.6255C92.6141 65.6255 84.7719 67.4486 81.8505 67.0933Z" fill="#2E353A"/>
<path d="M97.7884 75.6151C97.6751 76.2138 97.6122 76.8193 97.6002 77.4265L97.2496 77.4731C95.6396 77.6653 94.8281 77.2751 94.4126 76.7916C94.2153 76.5484 94.0841 76.2672 94.0296 75.9704C94.0029 75.8023 94.0029 75.6317 94.0296 75.4636C95.0821 75.7426 96.1894 75.8141 97.2756 75.6733C97.5742 75.65 97.7884 75.6151 97.7884 75.6151Z" fill="#2E353A"/>
<path d="M97.2366 75.6733L97.1652 76.2092C95.6591 76.3839 94.5684 76.3257 94.0296 75.9704C94.0029 75.8023 94.0029 75.6317 94.0296 75.4636C95.0698 75.7375 96.1632 75.809 97.2366 75.6733Z" fill="white"/>
<path d="M97.2496 77.4675C95.6396 77.6597 94.8281 77.2695 94.4126 76.786C95.0228 76.7239 95.6404 76.7594 96.2368 76.8909C96.6336 76.9827 96.988 77.1845 97.2496 77.4675Z" fill="#A24E3F"/>
<path d="M87.6413 86.542C87.6413 86.542 92.3285 89.6989 94.7825 90.427C94.7825 90.427 95.9381 88.4816 95.4642 86.874L99.0153 89.0932C99.4145 90.4286 99.4145 91.8349 99.0153 93.1703L94.7825 91.0094L90.7834 93.6305C90.7834 93.6305 84.8693 92.0928 84.5252 88.8718L87.6413 86.542Z" fill="#89B1FF"/>
<path opacity="0.8" d="M87.6413 86.542C87.6413 86.542 92.3285 89.6989 94.7825 90.427C94.7825 90.427 95.9381 88.4816 95.4642 86.874L99.0153 89.0932C99.4145 90.4286 99.4145 91.8349 99.0153 93.1703L94.7825 91.0094L90.7834 93.6305C90.7834 93.6305 84.8693 92.0928 84.5252 88.8718L87.6413 86.542Z" fill="white"/>
<path d="M165.006 116.416H100.301C99.8813 116.416 99.5412 116.721 99.5412 117.097V118.804C99.5412 119.18 99.8813 119.486 100.301 119.486H165.006C165.426 119.486 165.766 119.18 165.766 118.804V117.097C165.766 116.721 165.426 116.416 165.006 116.416Z" fill="#89B1FF"/>
<path opacity="0.5" d="M165.545 117.016V118.722C165.545 119.101 165.428 119.404 165.012 119.404H100.301C99.8787 119.404 99.3269 119.101 99.3269 118.722V117.016C99.3269 116.643 99.8787 116.492 100.301 116.492H165.012C165.428 116.492 165.545 116.643 165.545 117.016Z" fill="white"/>
<path opacity="0.2" d="M126.593 117.016V118.722C126.593 119.101 126.45 119.404 126.035 119.404H100.301C99.8787 119.404 99.3269 119.101 99.3269 118.722V117.016C99.3269 116.643 99.8787 116.492 100.301 116.492H126.035C126.45 116.492 126.593 116.643 126.593 117.016Z" fill="black"/>
<path d="M111.895 31.5287C111.336 29.71 110.271 28.0486 108.801 26.7001C107.33 25.3515 105.502 24.3601 103.487 23.8187C101.473 23.2773 99.3385 23.2037 97.2837 23.6047C95.229 24.0058 93.3214 24.8683 91.7397 26.1116C90.1581 27.3548 88.9542 28.938 88.2409 30.7128C87.5276 32.4876 87.3282 34.3958 87.6615 36.2586C87.9948 38.1214 88.8498 39.8777 90.1464 41.363C91.4431 42.8483 93.1388 44.0138 95.0747 44.7505C95.9067 45.0567 96.5776 45.6356 96.9509 46.3697L97.3728 47.2259L109.325 44.3136L109.201 43.3817C109.115 42.5738 109.368 41.7661 109.909 41.1159C111.023 39.755 111.78 38.1861 112.124 36.5261C112.468 34.8661 112.39 33.1579 111.895 31.5287Z" fill="#89B1FF"/>
<path d="M101.275 47.2491C101.275 47.2491 99.4763 42.1876 96.3018 39.9451L98.0611 39.5141L98.1974 37.0852L101.073 40.8188L100.84 36.2756L103.677 40.4169L103.962 38.0871L106.475 37.5046C105.1 40.2745 104.854 43.3895 105.78 46.3055" stroke="white" stroke-linecap="round" stroke-linejoin="round"/>
<path d="M103.534 46.3988C101.417 46.9172 100.236 49.1014 100.898 51.274C101.56 53.4465 103.806 54.7687 105.923 54.2678C108.039 53.7669 109.214 51.571 108.558 49.3984C107.903 47.2259 105.65 45.8862 103.534 46.3988Z" fill="#2E353A"/>
<path d="M107.611 52.27L103.352 53.3126C102.335 53.561 101.25 53.4553 100.316 53.0168C99.3818 52.5783 98.6668 51.8393 98.3141 50.9479L96.9183 47.4123C96.8904 47.3425 96.8789 47.2682 96.8847 47.1942C96.8904 47.1201 96.9132 47.048 96.9517 46.9823C96.9901 46.9166 97.0434 46.8587 97.108 46.8124C97.1727 46.7662 97.2474 46.7324 97.3273 46.7134L109.065 43.8419C109.145 43.8221 109.228 43.8174 109.31 43.8281C109.392 43.8388 109.471 43.8647 109.541 43.9042C109.611 43.9436 109.671 43.9957 109.718 44.0572C109.765 44.1187 109.796 44.1882 109.811 44.2613L110.61 47.9366C110.811 48.8651 110.614 49.8275 110.058 50.6311C109.501 51.4347 108.627 52.0201 107.611 52.27Z" fill="#89B1FF"/>
<path opacity="0.4" d="M107.611 52.27L103.352 53.3126C102.335 53.561 101.25 53.4553 100.316 53.0168C99.3818 52.5783 98.6668 51.8393 98.3141 50.9479L96.9183 47.4123C96.8904 47.3425 96.8789 47.2682 96.8847 47.1942C96.8904 47.1201 96.9132 47.048 96.9517 46.9823C96.9901 46.9166 97.0434 46.8587 97.108 46.8124C97.1727 46.7662 97.2474 46.7324 97.3273 46.7134L109.065 43.8419C109.145 43.8221 109.228 43.8174 109.31 43.8281C109.392 43.8388 109.471 43.8647 109.541 43.9042C109.611 43.9436 109.671 43.9957 109.718 44.0572C109.765 44.1187 109.796 44.1882 109.811 44.2613L110.61 47.9366C110.811 48.8651 110.614 49.8275 110.058 50.6311C109.501 51.4347 108.627 52.0201 107.611 52.27Z" fill="white"/>
<path d="M83.3437 42.6649C82.1807 42.4731 81.0011 42.3737 79.8186 42.3678C79.2307 42.3646 78.6432 42.3938 78.0593 42.4552C77.7671 42.4959 77.475 42.5251 77.1959 42.5891C77.053 42.6241 76.9102 42.6416 76.7739 42.6882L76.3649 42.8047L75.8975 42.9386L76.1766 42.5717C76.964 41.5258 77.5907 40.3895 78.0398 39.1934C78.263 38.6001 78.426 37.99 78.5267 37.3703C78.5763 37.0634 78.6066 36.7542 78.6176 36.4442C78.6371 36.1358 78.6371 35.8266 78.6176 35.5181C78.5928 35.2127 78.5451 34.9092 78.4748 34.6095L78.3514 34.1668L78.1891 33.73C78.0739 33.4444 77.9327 33.1678 77.7672 32.9029C77.6076 32.6358 77.4275 32.3789 77.2283 32.1341C77.0275 31.8898 76.8108 31.6564 76.5791 31.4351L76.2221 31.1089L75.8325 30.8061C75.5794 30.5964 75.2807 30.4333 75.0146 30.2236C74.7484 30.0139 74.4303 29.8974 74.1381 29.7285L73.489 29.3441L74.2096 29.0354C74.5536 28.884 74.9172 28.7034 75.2613 28.517C75.6053 28.3306 75.9494 28.1384 76.287 27.9346C76.9561 27.5254 77.5918 27.0738 78.1891 26.5833C78.4813 26.3386 78.7669 26.0882 79.0461 25.8261C79.3252 25.564 79.5784 25.2844 79.8186 25.0048C80.0588 24.7252 80.2925 24.4223 80.4678 24.1253C80.6775 23.8275 80.8661 23.5182 81.0326 23.1992C81.2042 22.8823 81.3516 22.5554 81.4741 22.2207L81.6428 21.7198L81.7662 21.2014C81.8386 20.8592 81.882 20.5126 81.896 20.1646C81.9305 19.4624 81.8606 18.7592 81.6883 18.0736L81.5584 17.5552L81.3767 17.0485C81.2663 16.7048 81.091 16.3845 80.9482 16.0525C80.8054 15.7205 80.5976 15.4118 80.4224 15.0856L79.494 13.3382L81.2728 14.3633C81.5844 14.5497 81.922 14.7303 82.292 14.8992C82.6621 15.0681 83.0062 15.2312 83.3697 15.3768C84.0937 15.6802 84.8398 15.939 85.6029 16.1515C85.986 16.2505 86.369 16.3437 86.752 16.4194C87.1352 16.4979 87.5233 16.5562 87.9141 16.5941C88.2994 16.6385 88.6876 16.6599 89.0761 16.6582C89.4604 16.6556 89.8441 16.6323 90.2252 16.5883L90.7835 16.5009L91.3353 16.367C91.6917 16.262 92.0388 16.1335 92.374 15.9826C92.5412 15.9104 92.7018 15.8267 92.8544 15.7321C93.0172 15.6472 93.1714 15.5498 93.3154 15.4409C93.6132 15.2329 93.8952 15.0071 94.1593 14.7652C94.419 14.5139 94.6597 14.2473 94.8799 13.9673C95.1089 13.6858 95.315 13.3899 95.4967 13.0819C95.6979 12.7849 95.8343 12.4471 96.0095 12.1325C96.1848 11.818 96.2887 11.4685 96.4315 11.1365L97.243 9.22607L97.6455 11.2181C97.7135 11.5439 97.8067 11.865 97.9247 12.1791C98.2669 13.1532 98.7892 14.0688 99.4697 14.8875C99.9184 15.4222 100.45 15.8968 101.047 16.2971C101.342 16.4985 101.655 16.6778 101.982 16.8329C102.31 16.9925 102.65 17.1288 103.001 17.2407C103.354 17.3511 103.714 17.4406 104.079 17.5086C104.45 17.5756 104.825 17.6222 105.202 17.6484C105.581 17.6659 105.96 17.6659 106.338 17.6484C106.721 17.6484 107.104 17.6018 107.487 17.5727C107.87 17.5435 108.253 17.462 108.63 17.4096L109.766 17.1649L110.889 16.8621L111.999 16.5068L113.538 16.0117L112.655 17.2407C112.493 17.4562 112.33 17.7183 112.181 17.9687C112.032 18.2192 111.895 18.4755 111.766 18.7434C111.51 19.2657 111.308 19.8076 111.162 20.3626C111.017 20.9102 110.945 21.4714 110.948 22.0343C110.954 22.586 111.062 23.1329 111.266 23.6535L111.441 24.0379L111.662 24.4631C111.82 24.6993 112.001 24.9233 112.2 25.1329C112.401 25.341 112.618 25.5356 112.85 25.7154C113.09 25.9028 113.344 26.076 113.609 26.2338C113.872 26.3949 114.146 26.5427 114.427 26.6765C114.706 26.8162 115.005 26.9211 115.297 27.0492L116.206 27.3579L117.141 27.62L117.79 27.8064L117.245 28.185C116.878 28.4408 116.532 28.7212 116.212 29.0237C115.889 29.3271 115.59 29.6501 115.317 29.9906C115.167 30.1595 115.05 30.3401 114.921 30.5148C114.795 30.6909 114.683 30.8737 114.583 31.0623C114.469 31.2486 114.373 31.4435 114.297 31.6448C114.207 31.833 114.136 32.0279 114.083 32.2273C114.038 32.4311 113.96 32.6291 113.934 32.8097L113.869 33.4329C113.869 33.6426 113.869 33.8523 113.908 34.062C113.921 34.2711 113.96 34.4782 114.025 34.6794C114.067 34.8777 114.128 35.0726 114.206 35.2618L114.473 35.8443C114.562 36.0475 114.673 36.2425 114.804 36.4268L115.167 37.0092L115.304 37.2131H115.05C114.09 37.2153 113.135 37.3289 112.207 37.5509C111.742 37.6613 111.294 37.8196 110.87 38.0227C110.764 38.0734 110.662 38.1298 110.564 38.1916C110.459 38.2451 110.361 38.3096 110.272 38.3838C110.176 38.4474 110.084 38.5175 110 38.5935L109.747 38.8323L109.987 38.5818C110.065 38.499 110.152 38.423 110.246 38.3547C110.334 38.2772 110.43 38.207 110.532 38.145C110.629 38.0868 110.727 38.0169 110.831 37.9644C111.251 37.7387 111.697 37.555 112.162 37.4169C113.096 37.1445 114.068 36.9897 115.05 36.9568L114.94 37.1607L114.538 36.5782C114.391 36.3954 114.265 36.2003 114.161 35.9957L113.856 35.4133C113.759 35.2068 113.685 34.9921 113.635 34.7726C113.554 34.5596 113.502 34.3386 113.479 34.1144C113.479 33.8931 113.421 33.6659 113.414 33.4446V32.7631C113.414 32.5418 113.505 32.3204 113.544 32.0991C113.594 31.877 113.663 31.6588 113.752 31.4468C113.823 31.2297 113.916 31.0191 114.031 30.8177C114.129 30.6169 114.242 30.4223 114.369 30.2353C114.487 30.035 114.617 29.8405 114.758 29.6528C115.038 29.2813 115.349 28.9289 115.687 28.5986C116.025 28.2613 116.392 27.9478 116.784 27.6608L116.907 28.2433L115.927 27.9928L114.96 27.6841C114.641 27.5618 114.31 27.4511 114.012 27.3055C113.7 27.1692 113.399 27.0156 113.109 26.8454C112.812 26.6781 112.528 26.4933 112.259 26.292C111.992 26.0895 111.744 25.8674 111.519 25.628C111.277 25.388 111.059 25.1287 110.87 24.8534L110.603 24.434L110.389 23.9855C110.139 23.3925 109.999 22.7669 109.974 22.1333C109.948 21.4977 110.011 20.8618 110.162 20.2403C110.306 19.6293 110.51 19.0309 110.772 18.4522C110.902 18.1609 111.045 17.8697 111.201 17.6018C111.357 17.3339 111.519 17.0543 111.72 16.7689L112.369 17.5028L111.214 17.8814L110.039 18.2075C109.636 18.3066 109.234 18.3881 108.831 18.4755C108.429 18.5628 108.02 18.6153 107.604 18.656C107.189 18.7076 106.77 18.7387 106.351 18.7492C105.919 18.7706 105.485 18.7706 105.053 18.7492C104.63 18.7217 104.209 18.6711 103.793 18.5978C103.374 18.5221 102.959 18.4228 102.553 18.3007C102.148 18.1714 101.754 18.0177 101.372 17.8406C100.988 17.6618 100.621 17.4553 100.275 17.2232C99.5825 16.7658 98.9661 16.2226 98.444 15.6098C97.9257 15.0063 97.4898 14.3493 97.1456 13.6527C96.9702 13.3073 96.8163 12.9534 96.6847 12.5927C96.5446 12.2251 96.4318 11.8495 96.3471 11.4685L97.5611 11.5501C97.4118 11.9112 97.2755 12.2781 97.1132 12.6334C96.9468 12.993 96.7605 13.3449 96.5549 13.6877C96.3655 14.037 96.1485 14.3738 95.9057 14.6953C95.6511 15.0216 95.3736 15.3329 95.0747 15.6273C94.7648 15.9177 94.4306 16.1864 94.0749 16.4311C93.8997 16.5575 93.713 16.6705 93.5166 16.7689C93.3293 16.881 93.1341 16.9822 92.9323 17.0718C92.5284 17.252 92.1095 17.4039 91.6794 17.5261L91.0302 17.6717L90.381 17.7765C89.9505 17.8257 89.5166 17.8471 89.0826 17.8406C88.6484 17.8414 88.2147 17.8161 87.7842 17.7649C87.3476 17.7184 86.9141 17.6503 86.4858 17.561C86.0639 17.4795 85.6484 17.3746 85.2394 17.2581C84.4261 17.0297 83.6321 16.7494 82.8633 16.4194C82.4738 16.2621 82.0973 16.0874 81.7272 15.9068C81.3572 15.7263 80.9936 15.5341 80.6106 15.3244L81.4611 14.6313C81.6493 14.9807 81.8506 15.3186 82.0194 15.6797C82.1932 16.0356 82.347 16.3991 82.4803 16.7689L82.6751 17.3513L82.8179 17.9338C82.9052 18.3188 82.9703 18.7076 83.0126 19.0987C83.0379 19.4867 83.0379 19.8756 83.0126 20.2636C82.9929 20.6548 82.9408 21.0442 82.8568 21.4285L82.714 22.011L82.5193 22.5934C82.3774 22.968 82.2083 23.3338 82.0129 23.6885C81.8234 24.0415 81.6065 24.3821 81.3637 24.7077C81.1261 25.0261 80.8704 25.3333 80.5976 25.628C80.3185 25.9309 80.0328 26.2105 79.7342 26.4959C79.4356 26.7813 79.1175 27.0317 78.7994 27.288C78.152 27.7877 77.4689 28.2488 76.7544 28.6685C76.3952 28.8781 76.0316 29.0723 75.6638 29.2509C75.2872 29.4373 74.9172 29.612 74.5082 29.7751L74.5536 29.082C74.8588 29.2684 75.2028 29.4373 75.4755 29.6295C75.7482 29.8217 76.0727 30.0197 76.3389 30.2527L76.7544 30.5906L77.1374 30.9517C77.3871 31.1999 77.6212 31.4605 77.8386 31.7322C78.0534 32.0091 78.2465 32.2991 78.4163 32.6C78.5887 32.8965 78.7363 33.2041 78.8578 33.5203L79.0201 34.0037L79.137 34.493C79.2058 34.8219 79.2492 35.1547 79.2668 35.489C79.3129 36.8089 79.0566 38.1232 78.5137 39.3507C77.9965 40.5663 77.3 41.7143 76.4428 42.7639L76.2545 42.5309L76.6895 42.4202C76.8388 42.3795 76.9881 42.362 77.1374 42.3329C77.4296 42.2746 77.7282 42.2571 78.0268 42.2222C78.6236 42.1902 79.2219 42.1902 79.8186 42.2222C81.0056 42.2787 82.185 42.4268 83.3437 42.6649Z" fill="#89B1FF"/>
<path opacity="0.7" d="M83.3437 42.6649C82.1807 42.4731 81.0011 42.3737 79.8186 42.3678C79.2307 42.3646 78.6432 42.3938 78.0593 42.4552C77.7671 42.4959 77.475 42.5251 77.1959 42.5891C77.053 42.6241 76.9102 42.6416 76.7739 42.6882L76.3649 42.8047L75.8975 42.9386L76.1766 42.5717C76.964 41.5258 77.5907 40.3895 78.0398 39.1934C78.263 38.6001 78.426 37.99 78.5267 37.3703C78.5763 37.0634 78.6066 36.7542 78.6176 36.4442C78.6371 36.1358 78.6371 35.8266 78.6176 35.5181C78.5928 35.2127 78.5451 34.9092 78.4748 34.6095L78.3514 34.1668L78.1891 33.73C78.0739 33.4444 77.9327 33.1678 77.7672 32.9029C77.6076 32.6358 77.4275 32.3789 77.2283 32.1341C77.0275 31.8898 76.8108 31.6564 76.5791 31.4351L76.2221 31.1089L75.8325 30.8061C75.5794 30.5964 75.2807 30.4333 75.0146 30.2236C74.7484 30.0139 74.4303 29.8974 74.1381 29.7285L73.489 29.3441L74.2096 29.0354C74.5536 28.884 74.9172 28.7034 75.2613 28.517C75.6053 28.3306 75.9494 28.1384 76.287 27.9346C76.9561 27.5254 77.5918 27.0738 78.1891 26.5833C78.4813 26.3386 78.7669 26.0882 79.0461 25.8261C79.3252 25.564 79.5784 25.2844 79.8186 25.0048C80.0588 24.7252 80.2925 24.4223 80.4678 24.1253C80.6775 23.8275 80.8661 23.5182 81.0326 23.1992C81.2042 22.8823 81.3516 22.5554 81.4741 22.2207L81.6428 21.7198L81.7662 21.2014C81.8386 20.8592 81.882 20.5126 81.896 20.1646C81.9305 19.4624 81.8606 18.7592 81.6883 18.0736L81.5584 17.5552L81.3767 17.0485C81.2663 16.7048 81.091 16.3845 80.9482 16.0525C80.8054 15.7205 80.5976 15.4118 80.4224 15.0856L79.494 13.3382L81.2728 14.3633C81.5844 14.5497 81.922 14.7303 82.292 14.8992C82.6621 15.0681 83.0062 15.2312 83.3697 15.3768C84.0937 15.6802 84.8398 15.939 85.6029 16.1515C85.986 16.2505 86.369 16.3437 86.752 16.4194C87.1352 16.4979 87.5233 16.5562 87.9141 16.5941C88.2994 16.6385 88.6876 16.6599 89.0761 16.6582C89.4604 16.6556 89.8441 16.6323 90.2252 16.5883L90.7835 16.5009L91.3353 16.367C91.6917 16.262 92.0388 16.1335 92.374 15.9826C92.5412 15.9104 92.7018 15.8267 92.8544 15.7321C93.0172 15.6472 93.1714 15.5498 93.3154 15.4409C93.6132 15.2329 93.8952 15.0071 94.1593 14.7652C94.419 14.5139 94.6597 14.2473 94.8799 13.9673C95.1089 13.6858 95.315 13.3899 95.4967 13.0819C95.6979 12.7849 95.8343 12.4471 96.0095 12.1325C96.1848 11.818 96.2887 11.4685 96.4315 11.1365L97.243 9.22607L97.6455 11.2181C97.7135 11.5439 97.8067 11.865 97.9247 12.1791C98.2669 13.1532 98.7892 14.0688 99.4697 14.8875C99.9184 15.4222 100.45 15.8968 101.047 16.2971C101.342 16.4985 101.655 16.6778 101.982 16.8329C102.31 16.9925 102.65 17.1288 103.001 17.2407C103.354 17.3511 103.714 17.4406 104.079 17.5086C104.45 17.5756 104.825 17.6222 105.202 17.6484C105.581 17.6659 105.96 17.6659 106.338 17.6484C106.721 17.6484 107.104 17.6018 107.487 17.5727C107.87 17.5435 108.253 17.462 108.63 17.4096L109.766 17.1649L110.889 16.8621L111.999 16.5068L113.538 16.0117L112.655 17.2407C112.493 17.4562 112.33 17.7183 112.181 17.9687C112.032 18.2192 111.895 18.4755 111.766 18.7434C111.51 19.2657 111.308 19.8076 111.162 20.3626C111.017 20.9102 110.945 21.4714 110.948 22.0343C110.954 22.586 111.062 23.1329 111.266 23.6535L111.441 24.0379L111.662 24.4631C111.82 24.6993 112.001 24.9233 112.2 25.1329C112.401 25.341 112.618 25.5356 112.85 25.7154C113.09 25.9028 113.344 26.076 113.609 26.2338C113.872 26.3949 114.146 26.5427 114.427 26.6765C114.706 26.8162 115.005 26.9211 115.297 27.0492L116.206 27.3579L117.141 27.62L117.79 27.8064L117.245 28.185C116.878 28.4408 116.532 28.7212 116.212 29.0237C115.889 29.3271 115.59 29.6501 115.317 29.9906C115.167 30.1595 115.05 30.3401 114.921 30.5148C114.795 30.6909 114.683 30.8737 114.583 31.0623C114.469 31.2486 114.373 31.4435 114.297 31.6448C114.207 31.833 114.136 32.0279 114.083 32.2273C114.038 32.4311 113.96 32.6291 113.934 32.8097L113.869 33.4329C113.869 33.6426 113.869 33.8523 113.908 34.062C113.921 34.2711 113.96 34.4782 114.025 34.6794C114.067 34.8777 114.128 35.0726 114.206 35.2618L114.473 35.8443C114.562 36.0475 114.673 36.2425 114.804 36.4268L115.167 37.0092L115.304 37.2131H115.05C114.09 37.2153 113.135 37.3289 112.207 37.5509C111.742 37.6613 111.294 37.8196 110.87 38.0227C110.764 38.0734 110.662 38.1298 110.564 38.1916C110.459 38.2451 110.361 38.3096 110.272 38.3838C110.176 38.4474 110.084 38.5175 110 38.5935L109.747 38.8323L109.987 38.5818C110.065 38.499 110.152 38.423 110.246 38.3547C110.334 38.2772 110.43 38.207 110.532 38.145C110.629 38.0868 110.727 38.0169 110.831 37.9644C111.251 37.7387 111.697 37.555 112.162 37.4169C113.096 37.1445 114.068 36.9897 115.05 36.9568L114.94 37.1607L114.538 36.5782C114.391 36.3954 114.265 36.2003 114.161 35.9957L113.856 35.4133C113.759 35.2068 113.685 34.9921 113.635 34.7726C113.554 34.5596 113.502 34.3386 113.479 34.1144C113.479 33.8931 113.421 33.6659 113.414 33.4446V32.7631C113.414 32.5418 113.505 32.3204 113.544 32.0991C113.594 31.877 113.663 31.6588 113.752 31.4468C113.823 31.2297 113.916 31.0191 114.031 30.8177C114.129 30.6169 114.242 30.4223 114.369 30.2353C114.487 30.035 114.617 29.8405 114.758 29.6528C115.038 29.2813 115.349 28.9289 115.687 28.5986C116.025 28.2613 116.392 27.9478 116.784 27.6608L116.907 28.2433L115.927 27.9928L114.96 27.6841C114.641 27.5618 114.31 27.4511 114.012 27.3055C113.7 27.1692 113.399 27.0156 113.109 26.8454C112.812 26.6781 112.528 26.4933 112.259 26.292C111.992 26.0895 111.744 25.8674 111.519 25.628C111.277 25.388 111.059 25.1287 110.87 24.8534L110.603 24.434L110.389 23.9855C110.139 23.3925 109.999 22.7669 109.974 22.1333C109.948 21.4977 110.011 20.8618 110.162 20.2403C110.306 19.6293 110.51 19.0309 110.772 18.4522C110.902 18.1609 111.045 17.8697 111.201 17.6018C111.357 17.3339 111.519 17.0543 111.72 16.7689L112.369 17.5028L111.214 17.8814L110.039 18.2075C109.636 18.3066 109.234 18.3881 108.831 18.4755C108.429 18.5628 108.02 18.6153 107.604 18.656C107.189 18.7076 106.77 18.7387 106.351 18.7492C105.919 18.7706 105.485 18.7706 105.053 18.7492C104.63 18.7217 104.209 18.6711 103.793 18.5978C103.374 18.5221 102.959 18.4228 102.553 18.3007C102.148 18.1714 101.754 18.0177 101.372 17.8406C100.988 17.6618 100.621 17.4553 100.275 17.2232C99.5825 16.7658 98.9661 16.2226 98.444 15.6098C97.9257 15.0063 97.4898 14.3493 97.1456 13.6527C96.9702 13.3073 96.8163 12.9534 96.6847 12.5927C96.5446 12.2251 96.4318 11.8495 96.3471 11.4685L97.5611 11.5501C97.4118 11.9112 97.2755 12.2781 97.1132 12.6334C96.9468 12.993 96.7605 13.3449 96.5549 13.6877C96.3655 14.037 96.1485 14.3738 95.9057 14.6953C95.6511 15.0216 95.3736 15.3329 95.0747 15.6273C94.7648 15.9177 94.4306 16.1864 94.0749 16.4311C93.8997 16.5575 93.713 16.6705 93.5166 16.7689C93.3293 16.881 93.1341 16.9822 92.9323 17.0718C92.5284 17.252 92.1095 17.4039 91.6794 17.5261L91.0302 17.6717L90.381 17.7765C89.9505 17.8257 89.5166 17.8471 89.0826 17.8406C88.6484 17.8414 88.2147 17.8161 87.7842 17.7649C87.3476 17.7184 86.9141 17.6503 86.4858 17.561C86.0639 17.4795 85.6484 17.3746 85.2394 17.2581C84.4261 17.0297 83.6321 16.7494 82.8633 16.4194C82.4738 16.2621 82.0973 16.0874 81.7272 15.9068C81.3572 15.7263 80.9936 15.5341 80.6106 15.3244L81.4611 14.6313C81.6493 14.9807 81.8506 15.3186 82.0194 15.6797C82.1932 16.0356 82.347 16.3991 82.4803 16.7689L82.6751 17.3513L82.8179 17.9338C82.9052 18.3188 82.9703 18.7076 83.0126 19.0987C83.0379 19.4867 83.0379 19.8756 83.0126 20.2636C82.9929 20.6548 82.9408 21.0442 82.8568 21.4285L82.714 22.011L82.5193 22.5934C82.3774 22.968 82.2083 23.3338 82.0129 23.6885C81.8234 24.0415 81.6065 24.3821 81.3637 24.7077C81.1261 25.0261 80.8704 25.3333 80.5976 25.628C80.3185 25.9309 80.0328 26.2105 79.7342 26.4959C79.4356 26.7813 79.1175 27.0317 78.7994 27.288C78.152 27.7877 77.4689 28.2488 76.7544 28.6685C76.3952 28.8781 76.0316 29.0723 75.6638 29.2509C75.2872 29.4373 74.9172 29.612 74.5082 29.7751L74.5536 29.082C74.8588 29.2684 75.2028 29.4373 75.4755 29.6295C75.7482 29.8217 76.0727 30.0197 76.3389 30.2527L76.7544 30.5906L77.1374 30.9517C77.3871 31.1999 77.6212 31.4605 77.8386 31.7322C78.0534 32.0091 78.2465 32.2991 78.4163 32.6C78.5887 32.8965 78.7363 33.2041 78.8578 33.5203L79.0201 34.0037L79.137 34.493C79.2058 34.8219 79.2492 35.1547 79.2668 35.489C79.3129 36.8089 79.0566 38.1232 78.5137 39.3507C77.9965 40.5663 77.3 41.7143 76.4428 42.7639L76.2545 42.5309L76.6895 42.4202C76.8388 42.3795 76.9881 42.362 77.1374 42.3329C77.4296 42.2746 77.7282 42.2571 78.0268 42.2222C78.6236 42.1902 79.2219 42.1902 79.8186 42.2222C81.0056 42.2787 82.185 42.4268 83.3437 42.6649Z" fill="white"/>
</svg>
