<svg width="400" height="401" viewBox="0 0 400 401" fill="none" xmlns="http://www.w3.org/2000/svg">
<g opacity="0.3">
<path d="M381.014 50.9795H289.333V170.229H381.014V50.9795Z" stroke="black" stroke-miterlimit="10"/>
<path d="M364.191 72.8597H306.156V148.348H364.191V72.8597Z" stroke="black" stroke-miterlimit="10"/>
</g>
<path d="M267.855 37.6149H25.1228V251.606H267.855V37.6149Z" fill="#263238" stroke="#263238" stroke-miterlimit="10"/>
<path d="M263.253 32.4047H20.521V246.396H263.253V32.4047Z" fill="white" stroke="#263238" stroke-linecap="round" stroke-linejoin="round"/>
<path d="M215.988 118.763H228.058V106.809H215.988V118.763Z" fill="white" stroke="#263238" stroke-linecap="round" stroke-linejoin="round"/>
<path d="M231.788 118.763H243.858V106.809H231.788V118.763Z" fill="white" stroke="#263238" stroke-linecap="round" stroke-linejoin="round"/>
<path d="M211.164 113.509H149.844" stroke="#263238" stroke-linecap="round" stroke-linejoin="round"/>
<path d="M215.988 146.982H228.058V135.028H215.988V146.982Z" fill="white" stroke="#263238" stroke-linecap="round" stroke-linejoin="round"/>
<path d="M231.788 146.982H243.858V135.028H231.788V146.982Z" fill="white" stroke="#263238" stroke-linecap="round" stroke-linejoin="round"/>
<path d="M211.164 141.719H149.844" stroke="#263238" stroke-linecap="round" stroke-linejoin="round"/>
<path d="M215.988 175.201H228.058V163.247H215.988V175.201Z" fill="white" stroke="#263238" stroke-linecap="round" stroke-linejoin="round"/>
<path d="M231.788 175.201H243.858V163.247H231.788V175.201Z" fill="white" stroke="#263238" stroke-linecap="round" stroke-linejoin="round"/>
<path d="M211.164 169.938H149.844" stroke="#263238" stroke-linecap="round" stroke-linejoin="round"/>
<path d="M100.595 118.763H112.665V106.809H100.595V118.763Z" fill="white" stroke="#263238" stroke-linecap="round" stroke-linejoin="round"/>
<path d="M116.403 118.763H128.473V106.809H116.403V118.763Z" fill="white" stroke="#263238" stroke-linecap="round" stroke-linejoin="round"/>
<path d="M95.7705 113.509H34.4511" stroke="#263238" stroke-linecap="round" stroke-linejoin="round"/>
<path d="M100.595 146.982H112.665V135.028H100.595V146.982Z" fill="white" stroke="#263238" stroke-linecap="round" stroke-linejoin="round"/>
<path d="M116.403 146.982H128.473V135.028H116.403V146.982Z" fill="white" stroke="#263238" stroke-linecap="round" stroke-linejoin="round"/>
<path d="M95.7705 141.719H34.4511" stroke="#263238" stroke-linecap="round" stroke-linejoin="round"/>
<path d="M100.595 175.201H112.665V163.247H100.595V175.201Z" fill="white" stroke="#263238" stroke-linecap="round" stroke-linejoin="round"/>
<path d="M116.403 175.201H128.473V163.247H116.403V175.201Z" fill="white" stroke="#263238" stroke-linecap="round" stroke-linejoin="round"/>
<path d="M95.7705 169.938H34.4511" stroke="#263238" stroke-linecap="round" stroke-linejoin="round"/>
<path d="M51.5589 216.299H38.2607V229.47H51.5589V216.299Z" fill="white" stroke="#263238" stroke-linecap="round" stroke-linejoin="round"/>
<path d="M105.829 216.299H92.5306V229.47H105.829V216.299Z" fill="white" stroke="#263238" stroke-linecap="round" stroke-linejoin="round"/>
<path d="M162.253 216.299H148.954V229.47H162.253V216.299Z" fill="white" stroke="#263238" stroke-linecap="round" stroke-linejoin="round"/>
<path d="M120.364 110.811L122.42 114.902L132.381 105.372" stroke="#263238" stroke-width="2" stroke-linecap="round" stroke-linejoin="round"/>
<path d="M120.364 138.713L122.42 142.794L132.381 133.265" stroke="#263238" stroke-width="2" stroke-linecap="round" stroke-linejoin="round"/>
<path d="M103.185 167.972L105.25 172.054L115.21 162.524" stroke="#263238" stroke-width="2" stroke-linecap="round" stroke-linejoin="round"/>
<path d="M235.09 110.476L237.146 114.558L247.107 105.028" stroke="#263238" stroke-width="2" stroke-linecap="round" stroke-linejoin="round"/>
<path d="M218.463 139.048L220.519 143.129L230.479 133.609" stroke="#263238" stroke-width="2" stroke-linecap="round" stroke-linejoin="round"/>
<path d="M218.463 167.716L220.519 171.798L230.479 162.277" stroke="#263238" stroke-width="2" stroke-linecap="round" stroke-linejoin="round"/>
<path d="M263.253 32.4047H20.521V65.8337H263.253V32.4047Z" fill="#89B1FF" stroke="#263238" stroke-linecap="round" stroke-linejoin="round"/>
<path d="M263.253 32.4048H254.112V246.396H263.253V32.4048Z" fill="#DBDBDB" stroke="#263238" stroke-linecap="round" stroke-linejoin="round"/>
<path d="M263.253 64.5642H254.112V105.866H263.253V64.5642Z" fill="#949494" stroke="#263238" stroke-linecap="round" stroke-linejoin="round"/>
<path d="M263.253 32.4047H20.521V48.6607H263.253V32.4047Z" fill="#DBDBDB" stroke="#263238" stroke-linecap="round" stroke-linejoin="round"/>
<path d="M128.553 37.1388H32.8309V43.9092H128.553V37.1388Z" fill="white" stroke="#263238" stroke-linecap="round" stroke-linejoin="round"/>
<path d="M248.922 37.4563H257.325" stroke="#263238" stroke-linecap="round" stroke-linejoin="round"/>
<path d="M248.922 40.9735H257.325" stroke="#263238" stroke-linecap="round" stroke-linejoin="round"/>
<path d="M248.922 44.5001H257.325" stroke="#263238" stroke-linecap="round" stroke-linejoin="round"/>
<path d="M105.312 79.3571C105.312 77.2678 106.425 76.0776 108.455 76.0776C110.484 76.0776 111.588 77.2678 111.588 79.3571V86.1275C111.588 88.208 110.484 89.3981 108.455 89.3981C106.425 89.3981 105.312 88.208 105.312 86.1275V79.3571ZM107.386 86.2597C107.386 87.1854 107.796 87.538 108.455 87.538C109.113 87.538 109.523 87.1854 109.523 86.2597V79.2072C109.523 78.2727 109.113 77.9201 108.455 77.9201C107.796 77.9201 107.386 78.2727 107.386 79.2072V86.2597Z" fill="#263238"/>
<path d="M114.765 79.8242V89.2482H112.905V76.2274H115.495L117.623 84.0205V76.2274H119.465V89.2482H117.338L114.765 79.8242Z" fill="#263238"/>
<path d="M120.943 76.2274H123.017V87.388H126.444V89.2482H120.969L120.943 76.2274Z" fill="#263238"/>
<path d="M127.334 76.2274H129.399V89.2482H127.334V76.2274Z" fill="#263238"/>
<path d="M132.728 79.8242V89.2482H130.894V76.2274H133.484L135.612 84.0205V76.2274H137.445V89.2482H135.345L132.728 79.8242Z" fill="#263238"/>
<path d="M140.97 81.7196H143.81V83.5797H140.97V87.388H144.531V89.2482H138.905V76.2274H144.539V78.0875H140.979L140.97 81.7196Z" fill="#263238"/>
<path d="M148.135 76.2274H154.517V78.0875H152.355V89.2482H150.289V78.0875H148.135V76.2274Z" fill="#263238"/>
<path d="M157.491 81.7196H160.321V83.5797H157.491V87.388H161.051V89.2482H155.417V76.2274H161.051V78.0875H157.491V81.7196Z" fill="#263238"/>
<path d="M165.11 76.0776C167.121 76.0776 168.154 77.2678 168.154 79.3571V79.7626H166.205V79.2248C166.205 78.2904 165.831 77.9377 165.172 77.9377C164.513 77.9377 164.14 78.2904 164.14 79.2248C164.14 81.8695 168.172 82.4073 168.172 86.1275C168.172 88.208 167.121 89.3981 165.092 89.3981C163.063 89.3981 162.048 88.208 162.048 86.1275V85.3253H164.006V86.2597C164.006 87.1854 164.416 87.5204 165.074 87.5204C165.733 87.5204 166.142 87.1854 166.142 86.2597C166.142 83.615 162.11 83.0773 162.11 79.3571C162.048 77.2678 163.107 76.0776 165.11 76.0776Z" fill="#263238"/>
<path d="M168.759 76.2274H175.141V78.0875H172.987V89.2482H170.949V78.0875H168.786L168.759 76.2274Z" fill="#263238"/>
<path d="M48.6127 213.126H46.5209L46.1649 210.763H43.6637L43.3076 213.126H41.3761L43.4768 200.105H46.5031L48.6127 213.126ZM43.8951 208.991H45.889L44.892 202.406L43.8951 208.991Z" fill="#263238"/>
<path d="M102.01 203.076V203.534C102.01 204.874 101.601 205.729 100.675 206.179C101.788 206.602 102.215 207.59 102.215 208.965V210.032C102.215 212.042 101.147 213.117 99.0817 213.117H95.8328V200.105H98.9482C101.093 200.105 102.01 201.092 102.01 203.076ZM97.8979 201.939V205.377H98.7079C99.4734 205.377 99.9451 205.042 99.9451 204.002V203.279C99.9451 202.344 99.6247 201.939 98.8948 201.939H97.8979ZM97.8979 207.228V211.23H99.0817C99.776 211.23 100.15 210.913 100.15 209.943V208.815C100.15 207.598 99.7582 207.228 98.8236 207.228H97.8979Z" fill="#263238"/>
<path d="M158.968 208.269V210.032C158.968 212.121 157.918 213.311 155.888 213.311C153.859 213.311 152.809 212.121 152.809 210.032V203.261C152.809 201.181 153.859 199.991 155.888 199.991C157.918 199.991 158.968 201.181 158.968 203.261V204.531H157.019V203.076C157.019 202.142 156.6 201.789 155.942 201.789C155.283 201.789 154.874 202.142 154.874 203.076V210.129C154.874 211.063 155.292 211.398 155.942 211.398C156.592 211.398 157.019 211.063 157.019 210.129V208.269H158.968Z" fill="#263238"/>
<path d="M35.3857 193.167H193.157" stroke="#263238" stroke-linecap="round" stroke-linejoin="round"/>
<path opacity="0.3" d="M294.522 33.4537H311.942V16.2015L294.522 16.2015V33.4537Z" stroke="black" stroke-linecap="round" stroke-linejoin="round"/>
<path opacity="0.3" d="M317.336 33.4537H334.755V16.2015L317.336 16.2015V33.4537Z" stroke="black" stroke-linecap="round" stroke-linejoin="round"/>
<path opacity="0.3" d="M298.27 23.0249L301.243 28.9138L309.984 19.384" stroke="black" stroke-width="2" stroke-linecap="round" stroke-linejoin="round"/>
<path opacity="0.3" d="M30.8285 286.569H48.2479V269.317H30.8285L30.8285 286.569Z" stroke="black" stroke-linecap="round" stroke-linejoin="round"/>
<path opacity="0.3" d="M53.6328 286.569H71.0522V269.317H53.6328V286.569Z" stroke="black" stroke-linecap="round" stroke-linejoin="round"/>
<path opacity="0.3" d="M34.5581 276.14L37.531 282.029L46.2719 272.5" stroke="black" stroke-width="2" stroke-linecap="round" stroke-linejoin="round"/>
<path opacity="0.3" d="M113.35 286.569H130.77V269.317H113.35V286.569Z" stroke="black" stroke-linecap="round" stroke-linejoin="round"/>
<path opacity="0.3" d="M136.164 286.569H153.583V269.317H136.164V286.569Z" stroke="black" stroke-linecap="round" stroke-linejoin="round"/>
<path opacity="0.3" d="M117.089 276.14L120.062 282.029L128.802 272.5" stroke="black" stroke-width="2" stroke-linecap="round" stroke-linejoin="round"/>
<g opacity="0.3">
<path d="M140.366 24.8302C146.461 23.8546 150.604 18.1699 149.619 12.1331C148.634 6.09625 142.894 1.9933 136.799 2.96889C130.703 3.94448 126.56 9.62917 127.546 15.666C128.531 21.7028 134.27 25.8058 140.366 24.8302Z" stroke="black" stroke-linecap="round" stroke-linejoin="round"/>
<path d="M141.709 17.903L138.585 13.9007V7.59753" stroke="black" stroke-linecap="round" stroke-linejoin="round"/>
</g>
<g opacity="0.3">
<path d="M347.261 226.279H345.606L345.321 224.41H343.309L343.025 226.279H341.52L343.194 215.956H345.588L347.261 226.279ZM343.523 223.008H345.098L344.306 217.781L343.523 223.008Z" fill="black"/>
<path d="M370.573 218.327V218.697C370.636 219.109 370.569 219.53 370.381 219.903C370.193 220.275 369.893 220.581 369.523 220.778C369.941 220.966 370.286 221.284 370.506 221.683C370.725 222.082 370.809 222.541 370.742 222.991V223.872C370.783 224.205 370.747 224.543 370.636 224.859C370.525 225.176 370.342 225.463 370.101 225.699C369.86 225.935 369.569 226.113 369.248 226.219C368.927 226.326 368.586 226.358 368.25 226.314H365.678V215.956H368.152C369.843 215.956 370.573 216.732 370.573 218.327ZM367.315 217.446V220.179H367.956C368.562 220.179 368.935 219.914 368.935 219.085V218.512C368.935 217.772 368.686 217.446 368.099 217.446H367.315ZM367.315 221.651V224.824H368.25C368.802 224.824 369.14 224.578 369.14 223.811V222.929C369.14 221.977 368.82 221.677 368.081 221.677L367.315 221.651Z" fill="black"/>
<path d="M394.179 222.47V223.837C394.179 225.494 393.351 226.438 391.74 226.438C390.129 226.438 389.292 225.494 389.292 223.837V218.468C389.292 216.811 390.129 215.868 391.74 215.868C393.351 215.868 394.179 216.811 394.179 218.468V219.473H392.63V218.327C392.63 217.587 392.301 217.313 391.785 217.313C391.268 217.313 390.895 217.587 390.895 218.327V223.907C390.895 224.648 391.224 224.912 391.785 224.912C392.345 224.912 392.63 224.648 392.63 223.907V222.47H394.179Z" fill="black"/>
<path d="M350.519 231.912H337.853V244.457H350.519V231.912Z" stroke="black" stroke-miterlimit="10"/>
<path d="M374.08 231.912H361.414V244.457H374.08V231.912Z" stroke="black" stroke-miterlimit="10"/>
<path d="M397.641 231.912H384.975V244.457H397.641V231.912Z" stroke="black" stroke-miterlimit="10"/>
</g>
<path d="M50.2858 377.239H23.4847" stroke="#263238" stroke-miterlimit="10"/>
<path d="M400 377.239H59.018" stroke="#263238" stroke-miterlimit="10"/>
<path d="M297.024 376.939L302.756 290.722L306.975 249.729L295.404 236.937L289.6 232.759C289.6 232.759 281.429 239.811 275.634 241.371C269.84 242.932 264.268 244.51 264.268 244.51C264.268 244.51 244.498 281.324 242.905 298.03C241.312 314.735 238.686 376.621 238.686 376.621L240.885 376.939H297.024Z" fill="#9E9E9E" stroke="#263238" stroke-miterlimit="10"/>
<path d="M269.849 305.858C269.849 305.858 268.861 305.356 270.837 300.313" stroke="#263238" stroke-miterlimit="10"/>
<path d="M267.525 243.628C268.508 250.593 269.052 257.612 269.154 264.645C269.154 264.645 275.091 262.291 279.836 254.066C282.457 249.652 284.713 245.035 286.583 240.26L267.525 243.628Z" fill="#263238" stroke="#263238" stroke-miterlimit="10"/>
<path d="M297.024 376.939L302.177 299.423C297.121 301.979 287.143 306.202 276.133 306.387C262.941 306.607 246.608 296.46 246.608 296.46L242.932 297.889C242.932 297.933 242.932 297.986 242.932 298.03C241.347 314.779 238.713 376.621 238.713 376.621L240.911 376.939H297.024Z" fill="white" stroke="#263238" stroke-miterlimit="10"/>
<path d="M288.443 333.548C288.443 353.516 289.137 372.725 289.333 376.921H328.186C328.72 370.697 332.067 331.961 333.785 318.077C335.663 302.905 347.982 280.319 347.982 272.235C347.982 264.151 350.483 265.429 339.233 259.549C327.982 253.669 303.165 240.975 299.73 239.423C296.294 237.872 292.538 234.134 292.538 234.134C292.538 234.134 293.784 241.874 293.428 262.917C293.072 283.96 288.443 310.971 288.443 333.548Z" fill="#89B1FF"/>
<g opacity="0.2">
<path d="M292.537 234.213C293.001 237.876 293.268 241.56 293.339 245.25V234.962C292.84 234.513 292.537 234.213 292.537 234.213Z" fill="black"/>
<path d="M343.63 284.595V287.239C343.932 286.437 344.235 285.661 344.52 284.894V284.577H344.635C344.751 284.286 344.858 283.986 344.965 283.695H344.52V272.72H347.964C347.964 272.588 347.964 272.447 347.964 272.314C347.964 272.182 347.964 271.997 347.964 271.838H344.52V262.441C344.244 262.273 343.95 262.115 343.63 261.938V271.838H334.283V260.819H341.511L339.838 259.937H334.283V257.028L333.393 256.561V259.911H324.047V251.747L323.157 251.289V259.911H313.811V248.918H318.466L316.739 248.036H313.811V246.546L312.921 246.088V248.036H303.575V241.38C303.263 241.222 302.97 241.072 302.685 240.939V248.036H293.428C293.428 248.327 293.428 248.618 293.428 248.918H302.685V259.937H293.508C293.508 260.228 293.508 260.519 293.508 260.819H302.685V271.838H293.339V267.651C293.161 271.953 292.84 276.467 292.448 281.06V283.704H292.217L292.137 284.586H292.448V295.641H291.113L291.024 296.522H292.493V307.542H289.965L289.885 308.423H292.493V319.443H289.022L288.968 320.325H292.529V331.344H288.585C288.585 331.644 288.585 331.935 288.585 332.226H292.537V343.245H288.612C288.612 343.545 288.612 343.836 288.612 344.127H292.529V355.146H288.79C288.79 355.446 288.79 355.737 288.79 356.028H292.511V376.965H293.401V356.002H302.685V376.939H303.575V356.002H312.921V376.939H313.811V356.002H323.157V376.939H324.047V356.002H330.038C330.038 355.711 330.038 355.42 330.118 355.12H324.047V344.127H331.168C331.168 343.836 331.23 343.545 331.257 343.245H324.047V332.226H332.272C332.272 331.926 332.325 331.644 332.361 331.344H324.047V320.325H333.393V321.497L333.785 318.121C333.91 317.133 334.079 316.111 334.283 315.062V308.423H335.948L336.215 307.542H334.283V296.522H340.069C340.185 296.231 340.292 295.932 340.407 295.641H334.283V284.621L343.63 284.595ZM334.283 272.72H343.63V283.74H334.283V272.72ZM302.685 355.12H293.339V344.127H302.685V355.12ZM302.685 343.219H293.339V332.199H302.685V343.219ZM302.685 331.318H293.339V320.325H302.685V331.318ZM302.685 319.417H293.339V308.397H302.685V319.417ZM302.685 307.515H293.339V296.522H302.685V307.515ZM302.685 295.614H293.339V284.595H302.685V295.614ZM302.685 283.713H293.339V272.72H302.685V283.713ZM312.921 355.12H303.575V344.127H312.921V355.12ZM312.921 343.219H303.575V332.199H312.921V343.219ZM312.921 331.318H303.575V320.325H312.921V331.318ZM312.921 319.417H303.575V308.397H312.921V319.417ZM312.921 307.515H303.575V296.522H312.921V307.515ZM312.921 295.614H303.575V284.595H312.921V295.614ZM312.921 283.713H303.575V272.72H312.921V283.713ZM312.921 271.812H303.575V260.792H312.921V271.812ZM312.921 259.911H303.575V248.918H312.921V259.911ZM323.157 355.12H313.811V344.127H323.157V355.12ZM323.157 343.219H313.811V332.199H323.157V343.219ZM323.157 331.318H313.811V320.325H323.157V331.318ZM323.157 319.417H313.811V308.397H323.157V319.417ZM323.157 307.515H313.811V296.522H323.157V307.515ZM323.157 295.614H313.811V284.595H323.157V295.614ZM323.157 283.713H313.811V272.72H323.157V283.713ZM323.157 271.812H313.811V260.792H323.157V271.812ZM333.393 319.417H324.047V308.397H333.393V319.417ZM333.393 307.515H324.047V296.522H333.393V307.515ZM333.393 295.614H324.047V284.595H333.393V295.614ZM333.393 283.713H324.047V272.72H333.393V283.713ZM333.393 271.812H324.047V260.792H333.393V271.812Z" fill="black"/>
</g>
<path d="M288.443 333.548C288.443 353.516 289.137 372.725 289.333 376.921H328.186C328.72 370.697 332.067 331.961 333.785 318.077C335.663 302.905 347.982 280.319 347.982 272.235C347.982 264.151 350.483 265.429 339.233 259.549C327.982 253.669 303.165 240.975 299.73 239.423C296.294 237.872 292.538 234.134 292.538 234.134C292.538 234.134 293.784 241.874 293.428 262.917C293.072 283.96 288.443 310.971 288.443 333.548Z" stroke="#263238" stroke-miterlimit="10"/>
<path d="M292.537 234.213C292.537 234.213 293.784 241.953 293.428 262.996C293.356 268.286 292.991 273.998 292.537 279.887C293.606 278.433 297.05 273.787 297.878 273.522C298.813 273.214 303.815 277.859 307.874 278.477C311.933 279.094 313.499 279.094 309.129 274.448C304.759 269.802 302.898 256.191 301.314 245.973C301.012 243.786 300.527 241.627 299.863 239.52H299.756C296.285 237.933 292.537 234.213 292.537 234.213Z" fill="#263238" stroke="#263238" stroke-miterlimit="10"/>
<path d="M318.181 329.951C321.057 328.655 323.317 327.535 323.317 327.535L324.377 335.628C324.377 335.628 308.818 342.416 300.121 342.936C291.425 343.456 290.633 343.721 290.633 343.721L290.891 335.893" stroke="#263238" stroke-miterlimit="10"/>
<path d="M310.393 333.116C311.986 332.587 313.855 331.838 315.68 331.053" stroke="#263238" stroke-miterlimit="10"/>
<path d="M293.784 335.108C298.333 334.994 302.871 334.584 307.367 333.883" stroke="#263238" stroke-miterlimit="10"/>
<path d="M324.377 335.628L324.902 341.896" stroke="#263238" stroke-miterlimit="10"/>
<path d="M205.12 376.939H248.842C248.94 373.545 250.204 330.41 251.058 308.397C251.949 285.476 267.65 250.707 267.65 250.707C267.65 250.707 269.751 245.806 267.525 243.602C265.3 241.398 259.96 242.279 255.954 245.365C251.949 248.45 215.009 264.319 212.784 266.522C210.559 268.726 211.004 276.22 210.114 285.035C209.223 293.851 194.537 354.679 194.537 354.679C194.537 354.679 190.531 355.561 189.196 356.442C187.861 357.324 187.861 359.968 187.861 359.968C187.861 359.968 189.641 360.409 194.982 363.054C199.895 365.487 204.426 375.361 205.12 376.939Z" fill="#89B1FF"/>
<path opacity="0.2" d="M261.74 260.792V265.297C262.042 264.486 262.336 263.701 262.63 262.943V260.792H263.467L263.814 259.911H262.63V248.918H268.237C268.3 248.644 268.371 248.345 268.416 248.036H262.63V242.5C262.336 242.544 262.042 242.588 261.74 242.658V248.036H252.394V247.437L251.503 247.886V248.036H251.201L249.421 248.918H251.503V259.937H242.157V252.356L241.267 252.77V259.911H231.921V257.098L231.031 257.513V259.911H225.86L223.972 260.792H231.031V271.838H221.685V261.877L220.795 262.3V271.838H211.449V269.617C210.948 272.828 210.651 276.066 210.559 279.314V283.722H210.238L210.158 284.603H210.559V295.641H208.164L207.977 296.522H210.559V307.542H205.565C205.503 307.833 205.432 308.132 205.369 308.423H210.559V319.443H202.859C202.788 319.743 202.726 320.034 202.654 320.324H210.559V331.344H201.212V326.495L200.322 330.304V331.3H200.091L199.886 332.182H200.322V343.245H197.278L197.065 344.127H200.322V355.146H192.765C191.858 355.387 190.966 355.681 190.095 356.028V360.824C190.362 360.929 190.656 361.053 190.985 361.203V356.028H200.322V368.37C200.634 368.811 200.928 369.251 201.212 369.701V356.037H210.559V376.974H211.449V356.001H220.795V376.939H221.685V356.001H231.031V376.939H231.921V356.001H241.267V376.939H242.157V356.001H249.465V355.12H242.157V344.127H249.839V343.245H242.157V332.226H250.222V331.344H242.157V320.324H250.622C250.622 320.034 250.622 319.734 250.622 319.443H242.157V308.423H251.058C251.058 308.132 251.058 307.841 251.103 307.542H242.157V296.522H251.503V303.037C251.735 301.159 252.029 299.229 252.394 297.271V296.522H252.536C252.589 296.231 252.652 295.94 252.705 295.641H252.394V284.621H255.375C255.456 284.33 255.545 284.039 255.625 283.739H252.394V272.72H259.069C259.176 272.429 259.274 272.129 259.372 271.838H252.394V260.819L261.74 260.792ZM252.394 248.918H261.74V259.937H252.394V248.918ZM210.559 355.146H201.212V344.127H210.559V355.146ZM210.559 343.245H201.212V332.226H210.559V343.245ZM220.795 355.146H211.449V344.127H220.795V355.146ZM220.795 343.245H211.449V332.226H220.795V343.245ZM220.795 331.344H211.449V320.324H220.795V331.344ZM220.795 319.443H211.449V308.423H220.795V319.443ZM220.795 307.542H211.449V296.522H220.795V307.542ZM220.795 295.641H211.449V284.621H220.795V295.641ZM220.795 283.739H211.449V272.72H220.795V283.739ZM231.031 355.146H221.685V344.127H231.031V355.146ZM231.031 343.245H221.685V332.226H231.031V343.245ZM231.031 331.344H221.685V320.324H231.031V331.344ZM231.031 319.443H221.685V308.423H231.031V319.443ZM231.031 307.542H221.685V296.522H231.031V307.542ZM231.031 295.641H221.685V284.621H231.031V295.641ZM231.031 283.739H221.685V272.72H231.031V283.739ZM241.267 355.146H231.921V344.127H241.267V355.146ZM241.267 343.245H231.921V332.226H241.267V343.245ZM241.267 331.344H231.921V320.324H241.267V331.344ZM241.267 319.443H231.921V308.423H241.267V319.443ZM241.267 307.542H231.921V296.522H241.267V307.542ZM241.267 295.641H231.921V284.621H241.267V295.641ZM241.267 283.739H231.921V272.72H241.267V283.739ZM241.267 271.838H231.921V260.819H241.267V271.838ZM251.503 295.641H242.157V284.621H251.503V295.641ZM251.503 283.739H242.157V272.72H251.503V283.739ZM251.503 271.838H242.157V260.819H251.503V271.838Z" fill="black"/>
<path d="M205.12 376.939H248.842C248.94 373.545 250.204 330.41 251.058 308.397C251.949 285.476 267.65 250.707 267.65 250.707C267.65 250.707 269.751 245.806 267.525 243.602C265.3 241.398 259.96 242.279 255.954 245.365C251.949 248.45 215.009 264.319 212.784 266.522C210.559 268.726 211.004 276.22 210.114 285.035C209.223 293.851 194.537 354.679 194.537 354.679C194.537 354.679 190.531 355.561 189.196 356.442C187.861 357.324 187.861 359.968 187.861 359.968C187.861 359.968 189.641 360.409 194.982 363.054C199.895 365.487 204.426 375.361 205.12 376.939Z" stroke="#263238" stroke-miterlimit="10"/>
<path d="M187.861 359.995C187.861 359.995 189.641 360.436 194.982 363.08C200.322 365.725 205.218 377.185 205.218 377.185H213.843C214.386 375.581 215.712 369.745 209.668 362.64C202.548 354.265 194.537 354.705 194.537 354.705C194.537 354.705 190.531 355.587 189.196 356.469C187.861 357.35 187.861 359.995 187.861 359.995Z" fill="#263238" stroke="#263238" stroke-miterlimit="10"/>
<path d="M262.149 242.552C260.235 247.569 255.705 258.914 251.949 264.318C247.053 271.371 238.152 277.101 241.267 279.746C244.383 282.39 253.284 274.016 253.284 274.016C253.284 274.016 255.509 280.186 255.954 281.95C255.978 282.03 256.017 282.104 256.07 282.17C259.283 271.461 263.147 260.954 267.641 250.707C267.641 250.707 269.742 245.805 267.517 243.601C266.368 242.455 264.41 242.156 262.149 242.552Z" fill="#263238" stroke="#263238" stroke-miterlimit="10"/>
<path d="M229.643 285.106C229.898 283.476 230.064 281.834 230.141 280.187" stroke="#263238" stroke-miterlimit="10"/>
<path d="M222.575 378.041C222.575 378.041 223.91 349.831 223.91 333.522C223.91 321.77 227.141 302.006 228.957 289.902" stroke="#263238" stroke-miterlimit="10"/>
<path d="M224.8 327.377C224.8 327.377 231.921 329.581 235.482 330.022L246.163 331.344L245.353 341.332C245.353 341.332 244.828 341.041 236.817 338.397C228.806 335.752 223.91 333.548 223.91 333.548" stroke="#263238" stroke-miterlimit="10"/>
<path d="M245.353 341.306C245.353 341.306 244.828 360.876 244.828 363.521C244.828 366.166 236.817 364.403 236.817 364.403" stroke="#263238" stroke-miterlimit="10"/>
<path d="M251.744 233.243C251.744 233.243 260.138 245.197 267.65 250.707C275.163 256.217 281.571 248.503 286.583 240.234C291.594 231.965 294.932 225.9 297.433 218.733C299.934 211.566 297.433 199.717 287.419 190.346C277.406 180.975 254.014 167.188 248.175 174.355C242.335 181.522 236.763 197.275 240.653 210.737C242.977 218.83 246.732 226.45 251.744 233.243Z" fill="#9E9E9E" stroke="#263238" stroke-miterlimit="10"/>
<path d="M248.21 207.528C251.378 206.587 254.754 206.587 257.921 207.528" stroke="#263238" stroke-width="2" stroke-miterlimit="10" stroke-linecap="round"/>
<path d="M255.393 214.907C255.66 216.335 255.322 217.595 254.637 217.719C253.951 217.842 253.195 216.784 252.928 215.348C252.661 213.911 252.999 212.659 253.684 212.535C254.37 212.412 255.126 213.47 255.393 214.907Z" fill="#263238"/>
<path d="M280.156 215.286C280.414 216.714 280.076 217.931 279.399 218.098C278.723 218.266 277.957 217.164 277.69 215.727C277.423 214.29 277.762 213.038 278.447 212.914C279.132 212.791 279.889 213.849 280.156 215.286Z" fill="#263238"/>
<path d="M261.811 234.724C265.027 235.822 268.428 236.289 271.825 236.1C277.673 235.826 282.684 231.692 282.684 231.692" stroke="#263238" stroke-miterlimit="10"/>
<path d="M249.038 180.446C249.038 180.446 261.402 208.374 262.95 209.141C264.499 209.908 267.588 200.722 267.588 200.722C267.588 200.722 271.834 208.366 276.872 210.666C281.91 212.967 283.441 209.141 283.441 209.141C285.965 210.549 288.416 212.082 290.784 213.734L292.715 215.259L294.647 222.144C294.647 222.144 288.852 240.895 290.784 243.196C292.716 245.497 303.53 242.429 303.53 242.429C303.53 242.429 300.86 246.255 304.305 246.255C307.749 246.255 313.962 247.022 322.846 235.156C331.729 223.291 332.503 204.169 332.503 204.169C332.503 204.169 336.749 208.753 337.141 203.014C337.532 197.275 332.121 187.711 332.121 187.711C332.121 187.711 340.612 196.129 339.847 187.331C339.081 178.533 334.052 168.581 332.121 166.288C330.189 163.996 318.591 157.473 318.591 157.473C318.591 157.473 323.228 156.706 319.757 151.346C316.286 145.986 303.53 144.461 298.893 144.461C294.255 144.461 284.598 145.995 284.598 145.995C284.598 145.995 290.784 134.129 284.215 133.362C277.646 132.595 266.057 145.228 266.057 145.228C266.057 145.228 254.485 136.042 250.987 137.955C247.489 139.868 249.83 142.548 249.83 142.548C249.83 142.548 234.77 143.694 230.515 150.2C226.26 156.706 231.289 160.532 231.289 160.532C231.289 160.532 204.248 178.895 208.494 185.78C212.739 192.665 220.474 186.168 220.474 186.168C220.474 186.168 209.651 213.717 211.2 215.63C212.748 217.543 220.101 214.863 220.101 214.863C220.101 214.863 219.718 237.052 225.512 239.353C231.307 241.654 232.464 237.44 232.464 237.44C232.464 237.44 235.553 240.499 242.513 240.878C249.474 241.257 251.779 233.226 251.779 233.226C251.779 233.226 244.053 215.242 244.445 200.326C244.837 185.41 249.038 180.446 249.038 180.446Z" fill="#263238" stroke="#263238" stroke-miterlimit="10"/>
<path d="M264.597 212.667C264.597 212.667 261.811 227.002 264.036 230.034C266.262 233.067 274.059 230.034 274.611 228.386" fill="#9E9E9E"/>
<path d="M264.597 212.667C264.597 212.667 261.811 227.002 264.036 230.034C266.262 233.067 274.059 230.034 274.611 228.386" stroke="#263238" stroke-miterlimit="10"/>
<path d="M253.043 221.492C259.115 221.492 264.036 217.912 264.036 213.496C264.036 209.08 259.115 205.5 253.043 205.5C246.972 205.5 242.051 209.08 242.051 213.496C242.051 217.912 246.972 221.492 253.043 221.492Z" stroke="#263238" stroke-miterlimit="10"/>
<path d="M279.48 220.946C285.551 220.946 290.472 217.366 290.472 212.95C290.472 208.534 285.551 204.954 279.48 204.954C273.408 204.954 268.487 208.534 268.487 212.95C268.487 217.366 273.408 220.946 279.48 220.946Z" stroke="#263238" stroke-miterlimit="10"/>
<path d="M264.597 212.667C264.597 212.667 266.822 211.019 268.487 212.95" stroke="#263238" stroke-miterlimit="10"/>
<path d="M173.005 365.205C173.005 365.205 186.98 361.3 191.279 360.594C195.578 359.889 204.186 367.691 205.619 371.949C207.052 376.207 205.218 377.159 205.218 377.159L176.583 376.216L173.005 365.205Z" fill="#9E9E9E" stroke="#263238" stroke-miterlimit="10"/>
<path d="M178.07 363.83C178.07 363.83 188.617 367.744 191.252 369.313C193.887 370.882 193.095 374.012 191.519 375.572C189.619 377.146 187.352 378.224 184.923 378.711C182.466 378.849 180.002 378.849 177.545 378.711C174.385 378.446 171.483 378.975 168.848 378.975C166.213 378.975 158.3 378.19 158.3 378.19L155.924 376.621C155.924 376.621 151.473 377.926 148.02 379.266C144.566 380.606 145.643 377.697 148.278 375.607C150.912 373.518 157.508 368.299 158.567 367.779C159.627 367.259 173.067 363.371 173.067 363.371L178.07 363.83Z" fill="#9E9E9E" stroke="#263238" stroke-miterlimit="10"/>
<path d="M182.022 364.87C182.022 364.87 175.159 361.74 173.316 361.74C171.474 361.74 158.291 366.148 156.449 367.479C154.606 368.811 152.755 381.32 154.072 382.105C155.39 382.889 156.449 380.535 156.743 378.975C157.036 377.415 160.704 369.049 160.704 369.049L158.033 382.369C158.033 382.369 159.093 384.45 160.143 382.625C161.193 380.8 167.789 368.264 168.314 367.479C169.005 366.752 169.807 366.136 170.691 365.655C170.691 365.655 169.373 371.402 168.314 376.886C167.255 382.369 168.056 383.938 169.64 384.194C171.225 384.45 172.008 380.8 172.8 378.975C173.592 377.15 177.019 366.695 177.019 366.695" fill="#9E9E9E"/>
<path d="M182.022 364.87C182.022 364.87 175.159 361.74 173.316 361.74C171.474 361.74 158.291 366.148 156.449 367.479C154.606 368.811 152.755 381.32 154.072 382.105C155.39 382.889 156.449 380.535 156.743 378.975C157.036 377.415 160.704 369.049 160.704 369.049L158.033 382.369C158.033 382.369 159.093 384.45 160.143 382.625C161.193 380.8 167.789 368.264 168.314 367.479C169.005 366.752 169.807 366.136 170.691 365.655C170.691 365.655 169.373 371.402 168.314 376.886C167.255 382.369 168.056 383.938 169.64 384.194C171.225 384.45 172.008 380.8 172.8 378.975C173.592 377.15 177.019 366.695 177.019 366.695" stroke="#263238" stroke-miterlimit="10"/>
<path d="M189.641 370.098C189.641 370.098 181.737 378.191 180.678 380.015C179.619 381.84 179.627 382.105 182.529 382.105C185.431 382.105 194.394 376.357 195.178 375.572C195.961 374.788 195.712 372.443 193.86 370.874C193.271 370.42 192.58 370.113 191.846 369.978C191.112 369.843 190.356 369.884 189.641 370.098Z" fill="#9E9E9E" stroke="#263238" stroke-miterlimit="10"/>
<path d="M239.006 369.199C239.006 369.199 228.459 372.575 225.868 374.488C223.278 376.401 219.54 378.508 220.35 379.151C221.16 379.795 223.759 379.151 224.569 378.508C225.379 377.864 229.108 377.221 229.108 377.221C229.108 377.221 233.488 374.647 236.897 372.566C240.306 370.486 242.896 368.229 239.006 369.199Z" fill="#9E9E9E" stroke="#263238" stroke-miterlimit="10"/>
<path d="M297.228 351.514C297.228 351.514 267.855 356.804 257.227 360.497C246.599 364.191 242.371 366.765 237.057 370.485C231.743 374.206 220.973 381.232 222.575 382.466C224.177 383.7 229.758 379.372 230.702 378.446C231.645 377.52 238.508 374.735 238.508 374.735L243.101 372.407C243.101 372.407 236.185 380.844 233.693 382.986C231.2 385.128 232.883 386.468 234.761 385.851C236.639 385.234 240.181 381.54 240.181 381.54L251.601 374.1C251.601 374.1 246.911 380.606 244.721 382.457C242.531 384.308 247.222 385.869 248.166 384.317C249.109 382.766 253.791 378.746 253.791 378.746C253.791 378.746 261.597 374.726 263.476 373.174C265.354 371.623 270.036 367.294 270.036 367.294L305.035 370.08C305.035 370.08 307.224 368.846 305.978 361.723C304.732 354.6 297.228 351.514 297.228 351.514Z" fill="#9E9E9E" stroke="#263238" stroke-miterlimit="10"/>
<path d="M320.976 296.734L338.164 338.837L310.349 348.429L318.164 371.023C318.164 371.023 338.138 371.076 353.768 370.142C369.398 369.207 380.364 359.871 377.863 348.737C375.362 337.603 365.989 321.497 358.486 302.305C350.982 283.113 353.305 271.671 349.869 265.791C346.433 259.911 336.74 258.359 336.74 258.359L331.4 257.478" fill="#89B1FF"/>
<path opacity="0.2" d="M375.228 360.444V356.037H377.552C377.65 355.746 377.73 355.455 377.801 355.155H375.228V344.127H376.564C376.466 343.844 376.359 343.545 376.261 343.245H375.228V340.556C374.944 339.825 374.65 339.075 374.338 338.326V343.245H364.992V332.225H371.704C371.57 331.934 371.445 331.644 371.312 331.344H364.992V320.324H366.238C366.096 320.033 365.962 319.742 365.829 319.443H364.992V317.6C364.698 316.948 364.396 316.295 364.102 315.634V319.443H354.756V308.423H360.987C360.862 308.132 360.737 307.841 360.622 307.542H354.756V296.522H356.42C356.323 296.231 356.234 295.931 356.145 295.64H354.756V290.615C354.418 289.223 354.124 287.891 353.866 286.613V295.64H344.52V284.621H353.492L353.332 283.739H344.52V272.72H351.828L351.694 271.838H344.52V261.03C343.739 260.615 342.937 260.242 342.116 259.911H334.284V257.936L333.393 257.777V259.911H330.768L330.527 260.792H333.393V271.838H327.608L327.376 272.72H333.402V283.739H324.439L324.199 284.621H333.393V295.64H324.047V285.185L323.157 288.526V295.579H321.27L321.039 296.46H323.157V302.041L324.047 304.218V296.522H333.393V307.542H325.382L325.738 308.423H333.393V319.443H330.278L330.643 320.324H333.438V327.174L334.328 329.351V320.324H343.63V331.344H335.094L335.458 332.225H343.63V343.245H334.284V340.195L333.393 340.503V343.245H325.436L322.872 344.127H323.157V355.146H313.811V347.212L312.921 347.521V355.102H312.663L313.811 358.417V355.984H323.157V370.97H324.047V355.984H333.393V370.856H334.284V356.001H343.63V370.574H344.52V356.001H353.866V370.106L354.756 370.036V356.001H364.102V368.096L364.992 367.761V356.001H374.338V361.537C374.65 361.176 374.953 360.815 375.228 360.444ZM333.393 355.155H324.047V344.127H333.393V355.155ZM343.63 355.155H334.284V344.127H343.63V355.155ZM343.63 319.452H334.284V308.432H343.63V319.452ZM343.63 307.55H334.284V296.522H343.63V307.55ZM343.63 295.649H334.284V284.63H343.63V295.649ZM343.63 283.748H334.284V272.72H343.63V283.748ZM343.63 271.847H334.284V260.827H343.63V271.847ZM353.866 355.155H344.52V344.127H353.866V355.155ZM353.866 343.254H344.52V332.234H353.866V343.254ZM353.866 331.353H344.52V320.324H353.866V331.353ZM353.866 319.452H344.52V308.432H353.866V319.452ZM353.866 307.55H344.52V296.522H353.866V307.55ZM364.102 355.155H354.756V344.127H364.102V355.155ZM364.102 343.254H354.756V332.234H364.102V343.254ZM364.102 331.353H354.756V320.324H364.102V331.353ZM364.992 355.155V344.127H374.338V355.146L364.992 355.155Z" fill="#263238"/>
<path d="M320.976 296.734L338.164 338.837L310.349 348.429L318.164 371.023C318.164 371.023 338.138 371.076 353.768 370.142C369.398 369.207 380.364 359.871 377.863 348.737C375.362 337.603 365.989 321.497 358.486 302.305C350.982 283.113 353.305 271.671 349.869 265.791C346.433 259.911 336.74 258.359 336.74 258.359L331.4 257.478" stroke="#263238" stroke-miterlimit="10"/>
<path d="M354.898 334.553C349.227 335.593 343.636 337.022 338.164 338.829C338.164 338.829 350.038 331.089 356.599 330.471" stroke="#263238" stroke-miterlimit="10"/>
<path d="M362.856 334.184C361.624 334.007 360.376 333.966 359.135 334.059" stroke="#263238" stroke-miterlimit="10"/>
<path d="M318.475 345.008C318.475 345.008 324.795 350.994 326.664 355.631C328.533 360.268 327.848 372.866 326.602 374.1C325.356 375.334 302.097 375.184 298.27 370.45C297.273 369.216 304.1 366.368 300.664 359.554C297.228 352.739 295.662 352.131 295.662 352.131C295.662 352.131 292.849 350.58 298.163 347.177C303.477 343.774 315.662 341.305 318.475 345.008Z" fill="#263238" stroke="#263238" stroke-miterlimit="10"/>
<path d="M373.884 392.736H350.813L347.929 347.565H376.768L373.884 392.736Z" fill="#263238" stroke="#263238" stroke-linejoin="round"/>
<path d="M378.05 347.635H346.656V354.212H378.05V347.635Z" fill="white" stroke="#263238" stroke-linejoin="round"/>
<path d="M378.05 347.882H346.656L349.789 343.986H374.908L378.05 347.882Z" fill="white" stroke="#263238" stroke-linejoin="round"/>
<path d="M374.73 379.486L375.878 361.493H348.819L349.967 379.486H374.73Z" fill="white" stroke="#263238" stroke-linejoin="round"/>
<path d="M240.929 395.742L269.359 388.302V392.11L240.929 400V395.742Z" fill="#263238" stroke="#263238" stroke-linejoin="round"/>
<path d="M269.359 388.302H120.72L91.9875 395.742H240.929L269.359 388.302Z" fill="white" stroke="#263238" stroke-linejoin="round"/>
<path d="M240.929 310.671H91.9875V400H240.929V310.671Z" fill="white" stroke="#263238" stroke-linejoin="round"/>
<path d="M240.929 323.595C208.529 325.12 189.232 354.696 160.561 374.514C134.428 392.586 102.153 395.672 92.0231 396.156V400H240.929V323.595Z" fill="#263238" stroke="#263238" stroke-linejoin="round"/>
<path d="M240.929 395.742H91.9875V400H240.929V395.742Z" fill="white" stroke="#263238" stroke-miterlimit="10"/>
<path d="M47.8916 366.272C47.8916 366.272 35.4835 346.613 45.4438 335.549C55.4041 324.485 71.4972 329.81 74.8173 340.054C78.1374 350.298 71.0967 367.506 71.0967 367.506L47.8916 366.272Z" fill="#89B1FF" stroke="#263238" stroke-linecap="round" stroke-linejoin="round"/>
<path d="M48.301 343.739C46.2359 343.739 38.3763 340.874 35.8929 337.189C33.4095 333.504 32.9822 325.305 40.0319 325.305C47.0815 325.305 49.5471 337.594 49.5471 337.594L49.9566 342.099" fill="#89B1FF"/>
<path d="M48.301 343.739C46.2359 343.739 38.3763 340.874 35.8929 337.189C33.4095 333.504 32.9822 325.305 40.0319 325.305C47.0815 325.305 49.5471 337.594 49.5471 337.594L49.9566 342.099" stroke="#263238" stroke-linecap="round" stroke-linejoin="round"/>
<path d="M54.6654 336.087C52.8139 335.205 47.0727 329.14 46.512 324.741C45.9512 320.342 49.2802 312.831 55.5733 315.925C61.8663 319.02 58.5462 331.132 58.5462 331.132L56.8817 335.346" fill="#89B1FF"/>
<path d="M54.6654 336.087C52.8139 335.205 47.0727 329.14 46.512 324.741C45.9512 320.342 49.2802 312.831 55.5733 315.925C61.8663 319.02 58.5462 331.132 58.5462 331.132L56.8817 335.346" stroke="#263238" stroke-linecap="round" stroke-linejoin="round"/>
<path d="M62.1778 338.15C61.1453 336.386 59.7567 328.197 61.7506 324.23C63.7444 320.263 70.7228 315.837 74.2121 321.885C77.7013 327.932 68.1682 336.166 68.1682 336.166L64.4209 338.758" fill="#89B1FF"/>
<path d="M62.1778 338.15C61.1453 336.386 59.7567 328.197 61.7506 324.23C63.7444 320.263 70.7228 315.837 74.2121 321.885C77.7013 327.932 68.1682 336.166 68.1682 336.166L64.4209 338.758" stroke="#263238" stroke-linecap="round" stroke-linejoin="round"/>
<path d="M64.6433 352.836C64.305 350.809 65.8538 342.663 69.0938 339.613C72.3338 336.563 80.4427 334.808 81.6087 341.676C82.7747 348.543 70.9274 353.013 70.9274 353.013L66.4769 354.159" fill="#89B1FF"/>
<path d="M64.6433 352.836C64.305 350.809 65.8538 342.663 69.0938 339.613C72.3338 336.563 80.4427 334.808 81.6087 341.676C82.7747 348.543 70.9274 353.013 70.9274 353.013L66.4769 354.159" stroke="#263238" stroke-linecap="round" stroke-linejoin="round"/>
<path d="M36.8007 332.243L38.1982 334.421" stroke="white" stroke-linecap="round" stroke-linejoin="round"/>
<path d="M40.7973 337.585L42.987 339.357" stroke="white" stroke-linecap="round" stroke-linejoin="round"/>
<path d="M38.403 328.091L40.5927 331.255" stroke="white" stroke-linecap="round" stroke-linejoin="round"/>
<path d="M43.5924 333.83L45.9868 338.176" stroke="white" stroke-linecap="round" stroke-linejoin="round"/>
<path d="M49.1734 323.348L49.9745 325.719" stroke="white" stroke-linecap="round" stroke-linejoin="round"/>
<path d="M51.9682 330.065L53.3657 332.049" stroke="white" stroke-linecap="round" stroke-linejoin="round"/>
<path d="M51.3718 318.605L53.1698 322.555" stroke="white" stroke-linecap="round" stroke-linejoin="round"/>
<path d="M44.3844 346.48L44.9897 350.033" stroke="white" stroke-linecap="round" stroke-linejoin="round"/>
<path d="M46.1825 353.392L46.9836 356.363" stroke="white" stroke-linecap="round" stroke-linejoin="round"/>
<path d="M48.1764 346.674L48.9775 350.623" stroke="white" stroke-linecap="round" stroke-linejoin="round"/>
<path d="M50.7755 353.392L51.3719 356.363" stroke="white" stroke-linecap="round" stroke-linejoin="round"/>
<path d="M52.1729 341.535L53.3657 347.071" stroke="white" stroke-linecap="round" stroke-linejoin="round"/>
<path d="M54.968 352.404L55.1638 354.978" stroke="white" stroke-linecap="round" stroke-linejoin="round"/>
<path d="M57.1576 339.754L58.1545 344.893" stroke="white" stroke-linecap="round" stroke-linejoin="round"/>
<path d="M58.1544 350.236L58.555 355.569" stroke="white" stroke-linecap="round" stroke-linejoin="round"/>
<path d="M62.9523 341.729V346.083" stroke="white" stroke-linecap="round" stroke-linejoin="round"/>
<path d="M62.3468 351.62L62.5515 354.978" stroke="white" stroke-linecap="round" stroke-linejoin="round"/>
<path d="M67.9367 321.17L66.9398 323.55" stroke="white" stroke-linecap="round" stroke-linejoin="round"/>
<path d="M66.5391 326.31L65.5422 329.678" stroke="white" stroke-linecap="round" stroke-linejoin="round"/>
<path d="M72.3249 325.719L70.7316 328.884" stroke="white" stroke-linecap="round" stroke-linejoin="round"/>
<path d="M67.3402 332.446L65.5422 334.42" stroke="white" stroke-linecap="round" stroke-linejoin="round"/>
<path d="M63.5486 325.525L62.9523 328.091" stroke="white" stroke-linecap="round" stroke-linejoin="round"/>
<path d="M72.3249 339.754L70.1352 343.315" stroke="white" stroke-linecap="round" stroke-linejoin="round"/>
<path d="M68.7378 345.484L67.5362 348.649" stroke="white" stroke-linecap="round" stroke-linejoin="round"/>
<path d="M70.5357 350.235L74.1229 348.252" stroke="white" stroke-linecap="round" stroke-linejoin="round"/>
<path d="M76.3215 339.754L74.5235 342.725" stroke="white" stroke-linecap="round" stroke-linejoin="round"/>
<path d="M78.1195 343.113L75.7251 344.894" stroke="white" stroke-linecap="round" stroke-linejoin="round"/>
<path d="M75.5383 359.413H41.6074V393.018H75.5383V359.413Z" fill="#263238" stroke="#263238" stroke-linecap="round" stroke-linejoin="round"/>
</svg>
