<svg width="585" height="500" viewBox="0 0 585 500" fill="none" xmlns="http://www.w3.org/2000/svg">
<path d="M584.964 439.392H0.964325V439.728H584.964V439.392Z" fill="#EBEBEB"/>
<path d="M526.448 460.986H487.763V461.321H526.448V460.986Z" fill="#EBEBEB"/>
<path d="M387.83 464.637H377.679V464.972H387.83V464.637Z" fill="#EBEBEB"/>
<path d="M486.595 448.532H464.181V448.867H486.595V448.532Z" fill="#EBEBEB"/>
<path d="M112.683 450.786H62.2376V451.122H112.683V450.786Z" fill="#EBEBEB"/>
<path d="M130.484 450.786H123.09V451.122H130.484V450.786Z" fill="#EBEBEB"/>
<path d="M263.94 456.45H154.521V456.785H263.94V456.45Z" fill="#EBEBEB"/>
<path d="M277.78 379.536H52.2512C50.4844 379.533 48.7911 378.724 47.5429 377.287C46.2946 375.85 45.5936 373.903 45.5936 371.873V7.59609C45.609 5.57766 46.3168 3.64771 47.5634 2.22544C48.8099 0.80317 50.4945 0.00345768 52.2512 0H277.78C279.549 0 281.245 0.80737 282.496 2.2445C283.747 3.68163 284.45 5.63079 284.45 7.66319V371.873C284.45 373.905 283.747 375.855 282.496 377.292C281.245 378.729 279.549 379.536 277.78 379.536ZM52.2512 0.268414C50.5619 0.271969 48.9428 1.04556 47.7493 2.41938C46.5559 3.7932 45.8856 5.65499 45.8856 7.59609V371.873C45.8856 373.814 46.5559 375.676 47.7493 377.05C48.9428 378.424 50.5619 379.197 52.2512 379.201H277.78C279.471 379.197 281.091 378.424 282.286 377.051C283.482 375.677 284.155 373.815 284.158 371.873V7.59609C284.155 5.65376 283.482 3.792 282.286 2.41856C281.091 1.04512 279.471 0.271962 277.78 0.268414H52.2512Z" fill="#EBEBEB"/>
<path d="M530.43 379.536H304.89C303.122 379.533 301.427 378.724 300.177 377.288C298.927 375.851 298.223 373.904 298.22 371.873V7.59609C298.239 5.57644 298.949 3.6465 300.198 2.2246C301.446 0.802701 303.132 0.00341997 304.89 0H530.43C532.185 0.00698478 533.867 0.808258 535.111 2.23015C536.355 3.65204 537.061 5.57998 537.076 7.59609V371.873C537.076 373.901 536.377 375.846 535.131 377.282C533.886 378.719 532.195 379.529 530.43 379.536ZM304.89 0.268414C303.199 0.271962 301.579 1.04512 300.384 2.41856C299.188 3.792 298.515 5.65376 298.512 7.59609V371.873C298.515 373.815 299.188 375.677 300.384 377.051C301.579 378.424 303.199 379.197 304.89 379.201H530.43C532.121 379.197 533.741 378.424 534.936 377.051C536.132 375.677 536.805 373.815 536.808 371.873V7.59609C536.805 5.65376 536.132 3.792 534.936 2.41856C533.741 1.04512 532.121 0.271962 530.43 0.268414H304.89Z" fill="#EBEBEB"/>
<path d="M317.212 437.943H475.242V171.704H317.212V437.943Z" fill="#F0F0F0"/>
<path d="M322.795 229.265L469.659 229.265V180.092L322.795 180.092V229.265Z" fill="#E0E0E0"/>
<path d="M461.319 229.265H469.659V188.05H461.319V229.265Z" fill="#EBEBEB"/>
<path d="M420.977 229.265H429.317V188.05H420.977V229.265Z" fill="#EBEBEB"/>
<path d="M369.095 227.622L377.314 229.25L383.407 188.634L375.188 187.006L369.095 227.622Z" fill="#EBEBEB"/>
<path d="M450.983 229.265H459.323V193.486H450.983V229.265Z" fill="#EBEBEB"/>
<path d="M431.804 229.265H440.144V193.486H431.804V229.265Z" fill="#EBEBEB"/>
<path d="M383.402 229.265H391.742V193.486H383.402V229.265Z" fill="#EBEBEB"/>
<path d="M403.282 227.171L411.424 229.25L418.179 194.323L410.038 192.244L403.282 227.171Z" fill="#EBEBEB"/>
<path d="M443.765 229.265H447.935V186.01H443.765V229.265Z" fill="#EBEBEB"/>
<path d="M394.148 229.265H398.318V186.01H394.148V229.265Z" fill="#EBEBEB"/>
<path d="M469.659 237.049H322.795V286.222H469.659V237.049Z" fill="#E0E0E0"/>
<path d="M331.135 245.008H322.795V286.222H331.135V245.008Z" fill="#EBEBEB"/>
<path d="M371.478 245.008H363.138V286.222H371.478V245.008Z" fill="#EBEBEB"/>
<path d="M417.287 243.955L409.068 245.583L415.161 286.199L423.38 284.571L417.287 243.955Z" fill="#EBEBEB"/>
<path d="M341.472 250.443H333.132V286.222H341.472V250.443Z" fill="#EBEBEB"/>
<path d="M360.65 250.443H352.31V286.222H360.65V250.443Z" fill="#EBEBEB"/>
<path d="M409.052 250.443H400.712V286.222H409.052V250.443Z" fill="#EBEBEB"/>
<path d="M382.455 249.186L374.313 251.265L381.069 286.193L389.21 284.114L382.455 249.186Z" fill="#EBEBEB"/>
<path d="M348.69 242.968H344.52V286.222H348.69V242.968Z" fill="#EBEBEB"/>
<path d="M398.307 242.968H394.137V286.222H398.307V242.968Z" fill="#EBEBEB"/>
<path d="M461.319 286.222H469.659V245.008H461.319V286.222Z" fill="#EBEBEB"/>
<path d="M450.983 286.222H459.323V250.443H450.983V286.222Z" fill="#EBEBEB"/>
<path d="M431.804 286.222H440.144V250.443H431.804V286.222Z" fill="#EBEBEB"/>
<path d="M443.765 286.222H447.935V242.968H443.765V286.222Z" fill="#EBEBEB"/>
<path d="M322.795 343.18H469.659V294.006H322.795V343.18Z" fill="#E0E0E0"/>
<path d="M377.025 343.18H385.365V301.965H377.025V343.18Z" fill="#EBEBEB"/>
<path d="M325.145 341.531L333.364 343.159L339.457 302.543L331.238 300.915L325.145 341.531Z" fill="#EBEBEB"/>
<path d="M407.031 343.18H415.371V307.4H407.031V343.18Z" fill="#EBEBEB"/>
<path d="M387.852 343.18H396.192V307.4H387.852V343.18Z" fill="#EBEBEB"/>
<path d="M339.45 343.18H347.79V307.4H339.45V343.18Z" fill="#EBEBEB"/>
<path d="M359.329 341.08L367.47 343.159L374.226 308.231L366.084 306.152L359.329 341.08Z" fill="#EBEBEB"/>
<path d="M399.813 343.18H403.983V299.925H399.813V343.18Z" fill="#EBEBEB"/>
<path d="M350.196 343.18H354.366V299.925H350.196V343.18Z" fill="#EBEBEB"/>
<path d="M421.136 341.534L429.355 343.161L435.448 302.546L427.229 300.918L421.136 341.534Z" fill="#EBEBEB"/>
<path d="M435.436 343.18H443.776V307.4H435.436V343.18Z" fill="#EBEBEB"/>
<path d="M455.323 341.084L463.465 343.163L470.22 308.235L462.079 306.156L455.323 341.084Z" fill="#EBEBEB"/>
<path d="M446.171 343.18H450.341V299.925H446.171V343.18Z" fill="#EBEBEB"/>
<path d="M502.504 171.717H475.242V438.641H502.504V171.717Z" fill="#E0E0E0"/>
<path d="M122.927 114.398C122.927 114.398 121.56 104.037 128.136 97.3803C134.712 90.7237 134.14 86.778 132.259 86.268C130.379 85.758 128.65 92.4013 125.753 94.2265C125.753 94.2265 125.66 84.7515 128.603 81.2621C131.547 77.7727 133.077 68.7809 130.285 68.6198C127.494 68.4588 127.202 73.9881 126.618 77.8533C126.034 81.7184 122.927 87.2477 122.927 87.2477C122.927 87.2477 122.32 78.7659 120.416 75.2765C118.512 71.7871 123.581 63.8018 121.584 60.3125C119.586 56.8231 116.164 63.4797 116.444 70.955C116.725 78.4304 121.116 86.4156 120.065 94.2265C120.065 94.2265 118.15 88.7374 116.433 88.2408C114.716 87.7443 112.929 84.1073 111.761 82.7652C110.593 81.4232 109.156 86.0801 111.761 90.4016C114.365 94.723 121.023 106.278 120.007 115.632L122.927 114.398Z" fill="#E6E6E6"/>
<path d="M126.864 109.687L129.013 125.228C129.17 126.356 129.113 127.51 128.844 128.61C128.575 129.709 128.102 130.729 127.456 131.598C126.811 132.467 126.009 133.165 125.106 133.643C124.203 134.121 123.221 134.368 122.227 134.368H119.891C118.895 134.37 117.911 134.125 117.007 133.647C116.103 133.17 115.299 132.473 114.653 131.603C114.006 130.734 113.532 129.714 113.262 128.613C112.993 127.512 112.935 126.357 113.092 125.228L115.242 109.687H126.864Z" fill="#E6E6E6"/>
<path d="M94.2525 137.629L246.606 137.629V128.637L94.2525 128.637V137.629Z" fill="#E0E0E0"/>
<path d="M232.882 128.637H239.598V95.488H232.882V128.637Z" fill="#EBEBEB"/>
<path d="M200.435 128.637H207.151V95.488H200.435V128.637Z" fill="#EBEBEB"/>
<path d="M158.679 127.326L165.298 128.637L170.199 95.9698L163.58 94.6589L158.679 127.326Z" fill="#EBEBEB"/>
<path d="M224.566 128.637H231.282V99.8497H224.566V128.637Z" fill="#EBEBEB"/>
<path d="M209.137 128.637H215.853V99.8497H209.137V128.637Z" fill="#EBEBEB"/>
<path d="M170.195 128.637H176.912V99.8497H170.195V128.637Z" fill="#EBEBEB"/>
<path d="M186.186 126.948L192.743 128.622L198.178 100.52L191.622 98.8459L186.186 126.948Z" fill="#EBEBEB"/>
<path d="M218.773 128.624H222.125V93.8238H218.773V128.624Z" fill="#EBEBEB"/>
<path d="M178.851 128.624H182.203V93.8238H178.851V128.624Z" fill="#EBEBEB"/>
<path d="M246.618 195.781H94.2642V204.772H246.618V195.781Z" fill="#E0E0E0"/>
<path d="M107.989 162.632H101.272V195.781H107.989V162.632Z" fill="#EBEBEB"/>
<path d="M140.447 162.632H133.731V195.781H140.447V162.632Z" fill="#EBEBEB"/>
<path d="M177.297 161.796L170.678 163.107L175.579 195.775L182.197 194.464L177.297 161.796Z" fill="#EBEBEB"/>
<path d="M116.305 166.993H109.588V195.781H116.305V166.993Z" fill="#EBEBEB"/>
<path d="M131.734 166.993H125.018V195.781H131.734V166.993Z" fill="#EBEBEB"/>
<path d="M170.675 166.993H163.959V195.781H170.675V166.993Z" fill="#EBEBEB"/>
<path d="M149.273 165.987L142.716 167.662L148.152 195.763L154.708 194.089L149.273 165.987Z" fill="#EBEBEB"/>
<path d="M122.098 160.981H118.745V195.781H122.098V160.981Z" fill="#EBEBEB"/>
<path d="M162.02 160.981H158.668V195.781H162.02V160.981Z" fill="#EBEBEB"/>
<path d="M231.995 169.543H199.291V195.485H231.995V169.543Z" fill="#EBEBEB"/>
<path d="M404.707 114.156C417.305 114.156 427.518 102.421 427.518 87.9456C427.518 73.4699 417.305 61.735 404.707 61.735C392.109 61.735 381.896 73.4699 381.896 87.9456C381.896 102.421 392.109 114.156 404.707 114.156Z" fill="#E0E0E0"/>
<path d="M404.707 110.237C415.421 110.237 424.107 100.257 424.107 87.9456C424.107 75.6342 415.421 65.6538 404.707 65.6538C393.992 65.6538 385.306 75.6342 385.306 87.9456C385.306 100.257 393.992 110.237 404.707 110.237Z" fill="#F0F0F0"/>
<path d="M403.796 72.6594V88.2408L394.802 82.3894" fill="#F0F0F0"/>
<path d="M403.797 89.5829C403.596 89.5793 403.4 89.5194 403.224 89.4084L394.23 83.557C393.961 83.3822 393.763 83.0919 393.68 82.7498C393.597 82.4076 393.635 82.0416 393.786 81.7318C393.862 81.5769 393.963 81.4407 394.084 81.331C394.206 81.2214 394.345 81.1406 394.494 81.0931C394.643 81.0457 394.798 81.0327 394.951 81.0547C395.104 81.0768 395.252 81.1336 395.386 81.2218L402.628 85.9324V72.6594C402.628 72.3035 402.752 71.9621 402.971 71.7104C403.19 71.4587 403.487 71.3174 403.797 71.3174C404.106 71.3174 404.403 71.4587 404.622 71.7104C404.842 71.9621 404.965 72.3035 404.965 72.6594V88.2408C404.965 88.5967 404.842 88.9381 404.622 89.1898C404.403 89.4415 404.106 89.5829 403.797 89.5829Z" fill="#E0E0E0"/>
<path d="M292.964 500C418.037 500 519.428 493.198 519.428 484.808C519.428 476.417 418.037 469.616 292.964 469.616C167.892 469.616 66.5007 476.417 66.5007 484.808C66.5007 493.198 167.892 500 292.964 500Z" fill="#F5F5F5"/>
<path d="M494.456 97.5414H262.001V350.44H494.456V97.5414Z" fill="#89B1FF"/>
<path opacity="0.7" d="M494.456 97.5414H262.001V350.44H494.456V97.5414Z" fill="white"/>
<path d="M494.456 97.5414H262.001V110.412H494.456V97.5414Z" fill="#89B1FF"/>
<path opacity="0.2" d="M494.456 110.425H486.771V350.682H494.456V110.425Z" fill="black"/>
<path opacity="0.6" d="M491.046 116.115H490.345C489.261 116.115 488.382 117.125 488.382 118.37V147.332C488.382 148.577 489.261 149.587 490.345 149.587H491.046C492.129 149.587 493.008 148.577 493.008 147.332V118.37C493.008 117.125 492.129 116.115 491.046 116.115Z" fill="white"/>
<path opacity="0.2" d="M481.69 276.466H266.778C266.624 276.462 266.477 276.39 266.368 276.265C266.259 276.14 266.197 275.971 266.194 275.795C266.194 275.617 266.255 275.446 266.365 275.32C266.474 275.194 266.623 275.124 266.778 275.124H481.69C481.845 275.124 481.993 275.194 482.103 275.32C482.212 275.446 482.274 275.617 482.274 275.795C482.274 275.973 482.212 276.143 482.103 276.269C481.993 276.395 481.845 276.466 481.69 276.466Z" fill="black"/>
<path opacity="0.2" d="M481.69 218.757H266.778C266.624 218.753 266.477 218.682 266.368 218.556C266.259 218.431 266.197 218.263 266.194 218.086C266.194 217.908 266.255 217.737 266.365 217.611C266.474 217.485 266.623 217.415 266.778 217.415H481.69C481.845 217.415 481.993 217.485 482.103 217.611C482.212 217.737 482.274 217.908 482.274 218.086C482.274 218.264 482.212 218.434 482.103 218.56C481.993 218.686 481.845 218.757 481.69 218.757Z" fill="black"/>
<path d="M481.701 116.102H266.836V153.854H481.701V116.102Z" fill="#89B1FF"/>
<path opacity="0.6" d="M491.782 103.983C491.782 104.623 491.616 105.248 491.307 105.78C490.998 106.312 490.558 106.727 490.044 106.971C489.529 107.216 488.963 107.28 488.417 107.155C487.871 107.031 487.37 106.723 486.976 106.27C486.582 105.818 486.314 105.242 486.206 104.614C486.097 103.987 486.153 103.336 486.366 102.745C486.579 102.154 486.94 101.649 487.403 101.294C487.865 100.939 488.41 100.749 488.967 100.749C489.713 100.749 490.429 101.09 490.957 101.696C491.485 102.303 491.782 103.125 491.782 103.983Z" fill="white"/>
<path opacity="0.6" d="M481.854 103.983C481.854 104.623 481.689 105.248 481.379 105.78C481.07 106.312 480.63 106.727 480.116 106.971C479.601 107.216 479.035 107.28 478.489 107.155C477.943 107.031 477.442 106.723 477.048 106.27C476.654 105.818 476.386 105.242 476.278 104.614C476.169 103.987 476.225 103.336 476.438 102.745C476.651 102.154 477.012 101.649 477.475 101.294C477.938 100.939 478.482 100.749 479.039 100.749C479.785 100.749 480.501 101.09 481.029 101.696C481.557 102.303 481.854 103.125 481.854 103.983Z" fill="white"/>
<path opacity="0.6" d="M471.926 103.983C471.926 104.623 471.761 105.248 471.451 105.78C471.142 106.312 470.702 106.727 470.188 106.971C469.673 107.216 469.107 107.28 468.561 107.155C468.015 107.031 467.514 106.723 467.12 106.27C466.726 105.818 466.458 105.242 466.35 104.614C466.241 103.987 466.297 103.336 466.51 102.745C466.723 102.154 467.084 101.649 467.547 101.294C468.01 100.939 468.554 100.749 469.111 100.749C469.857 100.749 470.573 101.09 471.101 101.696C471.629 102.303 471.926 103.125 471.926 103.983Z" fill="white"/>
<path opacity="0.4" d="M276.04 179.139C274.68 179.139 273.35 178.675 272.218 177.807C271.087 176.938 270.205 175.704 269.684 174.259C269.163 172.815 269.027 171.225 269.293 169.692C269.558 168.159 270.213 166.75 271.176 165.645C272.138 164.539 273.364 163.786 274.698 163.481C276.033 163.176 277.416 163.333 278.673 163.931C279.93 164.529 281.005 165.543 281.761 166.843C282.517 168.142 282.92 169.671 282.92 171.234C282.917 173.33 282.191 175.338 280.902 176.82C279.612 178.301 277.864 179.135 276.04 179.139Z" fill="black"/>
<path d="M276.881 168.228V174.227H275.713V169.342H274.673V168.228H276.881Z" fill="white"/>
<path opacity="0.4" d="M472.404 163.571H289.39C288.655 163.571 288.059 164.256 288.059 165.101V166.054C288.059 166.899 288.655 167.584 289.39 167.584H472.404C473.14 167.584 473.736 166.899 473.736 166.054V165.101C473.736 164.256 473.14 163.571 472.404 163.571Z" fill="black"/>
<path opacity="0.4" d="M472.404 173.999H289.39C288.655 173.999 288.059 174.684 288.059 175.529V176.482C288.059 177.327 288.655 178.012 289.39 178.012H472.404C473.14 178.012 473.736 177.327 473.736 176.482V175.529C473.736 174.684 473.14 173.999 472.404 173.999Z" fill="black"/>
<path opacity="0.4" d="M409.099 184.413H289.39C288.655 184.413 288.059 185.098 288.059 185.943V186.896C288.059 187.741 288.655 188.426 289.39 188.426H409.099C409.834 188.426 410.43 187.741 410.43 186.896V185.943C410.43 185.098 409.834 184.413 409.099 184.413Z" fill="black"/>
<path opacity="0.2" d="M291.259 208.074C293.02 208.074 294.448 206.434 294.448 204.41C294.448 202.387 293.02 200.746 291.259 200.746C289.498 200.746 288.07 202.387 288.07 204.41C288.07 206.434 289.498 208.074 291.259 208.074Z" fill="black"/>
<path d="M293.455 204.41C293.457 204.913 293.33 205.405 293.088 205.824C292.846 206.243 292.502 206.571 292.098 206.764C291.694 206.958 291.249 207.009 290.82 206.912C290.39 206.814 289.996 206.573 289.686 206.217C289.377 205.861 289.167 205.408 289.082 204.915C288.997 204.422 289.042 203.911 289.21 203.447C289.379 202.983 289.663 202.587 290.028 202.309C290.393 202.031 290.822 201.884 291.259 201.887C291.842 201.887 292.4 202.153 292.812 202.626C293.224 203.099 293.455 203.741 293.455 204.41Z" fill="white"/>
<path opacity="0.4" d="M332.583 202.41H301.678C300.942 202.41 300.346 203.095 300.346 203.94V204.893C300.346 205.738 300.942 206.423 301.678 206.423H332.583C333.318 206.423 333.914 205.738 333.914 204.893V203.94C333.914 203.095 333.318 202.41 332.583 202.41Z" fill="black"/>
<path opacity="0.2" d="M359.237 204.33C359.237 205.054 359.05 205.763 358.7 206.365C358.349 206.968 357.851 207.437 357.269 207.714C356.686 207.992 356.045 208.064 355.426 207.923C354.808 207.782 354.239 207.433 353.793 206.92C353.347 206.408 353.044 205.755 352.921 205.044C352.798 204.334 352.861 203.597 353.102 202.927C353.343 202.258 353.752 201.686 354.277 201.283C354.801 200.881 355.418 200.666 356.048 200.666C356.894 200.666 357.705 201.052 358.303 201.739C358.901 202.426 359.237 203.358 359.237 204.33Z" fill="black"/>
<path d="M358.256 204.33C358.258 204.832 358.131 205.323 357.889 205.742C357.648 206.161 357.304 206.488 356.901 206.683C356.498 206.877 356.054 206.929 355.625 206.832C355.196 206.736 354.801 206.496 354.491 206.141C354.181 205.787 353.97 205.335 353.884 204.843C353.798 204.35 353.841 203.84 354.007 203.375C354.174 202.911 354.457 202.514 354.82 202.235C355.184 201.956 355.611 201.806 356.048 201.806C356.632 201.806 357.191 202.072 357.605 202.545C358.019 203.017 358.253 203.659 358.256 204.33Z" fill="#89B1FF"/>
<path opacity="0.4" d="M397.395 202.33H366.478C365.743 202.33 365.147 203.015 365.147 203.86V204.813C365.147 205.658 365.743 206.343 366.478 206.343H397.395C398.131 206.343 398.727 205.658 398.727 204.813V203.86C398.727 203.015 398.131 202.33 397.395 202.33Z" fill="black"/>
<path opacity="0.2" d="M424.038 204.249C424.038 204.974 423.851 205.682 423.5 206.284C423.15 206.887 422.652 207.357 422.069 207.634C421.486 207.911 420.845 207.984 420.227 207.842C419.608 207.701 419.04 207.352 418.594 206.84C418.148 206.327 417.844 205.674 417.721 204.964C417.598 204.253 417.661 203.516 417.903 202.847C418.144 202.177 418.553 201.605 419.077 201.203C419.602 200.8 420.218 200.585 420.849 200.585C421.695 200.585 422.506 200.971 423.104 201.658C423.702 202.345 424.038 203.277 424.038 204.249Z" fill="black"/>
<path d="M423.056 204.249C423.056 204.751 422.927 205.241 422.684 205.658C422.442 206.075 422.097 206.4 421.694 206.592C421.29 206.784 420.846 206.835 420.418 206.737C419.99 206.639 419.596 206.397 419.288 206.043C418.979 205.688 418.769 205.236 418.684 204.744C418.598 204.252 418.642 203.742 418.809 203.278C418.976 202.815 419.259 202.419 419.622 202.14C419.985 201.861 420.412 201.712 420.849 201.712C421.434 201.712 421.996 201.98 422.41 202.455C422.824 202.931 423.056 203.576 423.056 204.249Z" fill="white"/>
<path opacity="0.4" d="M462.184 202.236H431.279C430.543 202.236 429.947 202.921 429.947 203.766V204.719C429.947 205.564 430.543 206.249 431.279 206.249H462.184C462.919 206.249 463.516 205.564 463.516 204.719V203.766C463.516 202.921 462.919 202.236 462.184 202.236Z" fill="black"/>
<path opacity="0.4" d="M276.04 246.001C279.84 246.001 282.92 242.462 282.92 238.096C282.92 233.73 279.84 230.191 276.04 230.191C272.241 230.191 269.16 233.73 269.16 238.096C269.16 242.462 272.241 246.001 276.04 246.001Z" fill="black"/>
<path d="M278.026 240.015V241.142H274.089V240.23L276.098 238.042C276.566 237.532 276.647 237.224 276.647 236.942C276.647 236.66 276.367 236.19 275.806 236.19C275.598 236.182 275.391 236.233 275.204 236.338C275.016 236.443 274.854 236.6 274.732 236.794L273.856 236.136C274.095 235.77 274.408 235.477 274.769 235.283C275.129 235.089 275.526 234.999 275.923 235.023C277.091 235.023 277.862 235.707 277.862 236.794C277.856 237.166 277.773 237.531 277.621 237.86C277.468 238.189 277.251 238.472 276.986 238.686L275.818 240.028L278.026 240.015Z" fill="white"/>
<path opacity="0.4" d="M472.404 230.473H289.39C288.655 230.473 288.059 231.158 288.059 232.003V232.956C288.059 233.801 288.655 234.486 289.39 234.486H472.404C473.14 234.486 473.736 233.801 473.736 232.956V232.003C473.736 231.158 473.14 230.473 472.404 230.473Z" fill="black"/>
<path opacity="0.4" d="M324.173 240.887H289.39C288.655 240.887 288.059 241.572 288.059 242.417V243.37C288.059 244.215 288.655 244.9 289.39 244.9H324.173C324.909 244.9 325.505 244.215 325.505 243.37V242.417C325.505 241.572 324.909 240.887 324.173 240.887Z" fill="black"/>
<path opacity="0.2" d="M291.259 264.387C293.02 264.387 294.448 262.747 294.448 260.723C294.448 258.7 293.02 257.059 291.259 257.059C289.498 257.059 288.07 258.7 288.07 260.723C288.07 262.747 289.498 264.387 291.259 264.387Z" fill="black"/>
<path d="M291.259 263.26C292.478 263.26 293.467 262.124 293.467 260.723C293.467 259.322 292.478 258.187 291.259 258.187C290.04 258.187 289.051 259.322 289.051 260.723C289.051 262.124 290.04 263.26 291.259 263.26Z" fill="white"/>
<path opacity="0.4" d="M332.583 258.723H301.678C300.942 258.723 300.346 259.408 300.346 260.253V261.206C300.346 262.051 300.942 262.736 301.678 262.736H332.583C333.318 262.736 333.914 262.051 333.914 261.206V260.253C333.914 259.408 333.318 258.723 332.583 258.723Z" fill="black"/>
<path opacity="0.2" d="M356.048 264.306C357.809 264.306 359.237 262.666 359.237 260.643C359.237 258.619 357.809 256.979 356.048 256.979C354.287 256.979 352.859 258.619 352.859 260.643C352.859 262.666 354.287 264.306 356.048 264.306Z" fill="black"/>
<path d="M356.048 263.179C357.267 263.179 358.256 262.044 358.256 260.643C358.256 259.242 357.267 258.106 356.048 258.106C354.829 258.106 353.841 259.242 353.841 260.643C353.841 262.044 354.829 263.179 356.048 263.179Z" fill="white"/>
<path opacity="0.4" d="M397.395 258.63H366.478C365.743 258.63 365.147 259.315 365.147 260.159V261.112C365.147 261.957 365.743 262.642 366.478 262.642H397.395C398.131 262.642 398.727 261.957 398.727 261.112V260.159C398.727 259.315 398.131 258.63 397.395 258.63Z" fill="black"/>
<path opacity="0.2" d="M424.038 260.562C424.038 261.287 423.851 261.995 423.5 262.597C423.15 263.2 422.652 263.67 422.069 263.947C421.486 264.224 420.845 264.297 420.227 264.155C419.608 264.014 419.04 263.665 418.594 263.153C418.148 262.64 417.844 261.987 417.721 261.277C417.598 260.566 417.661 259.829 417.903 259.16C418.144 258.49 418.553 257.918 419.077 257.516C419.602 257.113 420.218 256.898 420.849 256.898C421.695 256.898 422.506 257.284 423.104 257.971C423.702 258.658 424.038 259.59 424.038 260.562Z" fill="black"/>
<path d="M423.056 260.562C423.056 261.064 422.927 261.554 422.684 261.971C422.442 262.388 422.097 262.714 421.694 262.906C421.29 263.097 420.846 263.148 420.418 263.05C419.99 262.952 419.596 262.71 419.288 262.356C418.979 262.001 418.769 261.549 418.684 261.057C418.598 260.565 418.642 260.055 418.809 259.591C418.976 259.128 419.259 258.732 419.622 258.453C419.985 258.174 420.412 258.026 420.849 258.026C421.434 258.026 421.996 258.293 422.41 258.769C422.824 259.244 423.056 259.889 423.056 260.562Z" fill="#89B1FF"/>
<path opacity="0.4" d="M462.184 258.549H431.279C430.543 258.549 429.947 259.234 429.947 260.079V261.032C429.947 261.877 430.543 262.562 431.279 262.562H462.184C462.919 262.562 463.516 261.877 463.516 261.032V260.079C463.516 259.234 462.919 258.549 462.184 258.549Z" fill="black"/>
<path opacity="0.4" d="M276.04 304.058C274.68 304.058 273.35 303.595 272.218 302.726C271.087 301.858 270.205 300.623 269.684 299.179C269.163 297.734 269.027 296.145 269.293 294.611C269.558 293.078 270.213 291.67 271.176 290.564C272.138 289.459 273.364 288.706 274.698 288.401C276.033 288.096 277.416 288.252 278.673 288.851C279.93 289.449 281.005 290.462 281.761 291.762C282.517 293.062 282.92 294.59 282.92 296.154C282.92 298.25 282.196 300.261 280.905 301.743C279.615 303.226 277.865 304.058 276.04 304.058Z" fill="black"/>
<path d="M277.979 297.268C277.979 298.274 277.302 299.2 275.818 299.2C275.115 299.219 274.423 298.995 273.832 298.556L274.3 297.496C274.734 297.846 275.252 298.034 275.783 298.033C276.391 298.033 276.764 297.751 276.764 297.268C276.764 296.784 276.472 296.529 275.783 296.529H275.234V295.617L276.309 294.275H274.089V293.161H277.781V294.06L276.612 295.603C276.98 295.634 277.325 295.821 277.578 296.13C277.831 296.438 277.974 296.844 277.979 297.268Z" fill="white"/>
<path opacity="0.4" d="M472.404 288.477H289.39C288.655 288.477 288.059 289.162 288.059 290.007V290.96C288.059 291.805 288.655 292.49 289.39 292.49H472.404C473.14 292.49 473.736 291.805 473.736 290.96V290.007C473.736 289.162 473.14 288.477 472.404 288.477Z" fill="black"/>
<path opacity="0.4" d="M472.404 298.891H289.39C288.655 298.891 288.059 299.576 288.059 300.421V301.374C288.059 302.219 288.655 302.904 289.39 302.904H472.404C473.14 302.904 473.736 302.219 473.736 301.374V300.421C473.736 299.576 473.14 298.891 472.404 298.891Z" fill="black"/>
<path opacity="0.4" d="M381.067 309.319H289.39C288.655 309.319 288.059 310.004 288.059 310.849V311.802C288.059 312.647 288.655 313.332 289.39 313.332H381.067C381.802 313.332 382.398 312.647 382.398 311.802V310.849C382.398 310.004 381.802 309.319 381.067 309.319Z" fill="black"/>
<path opacity="0.4" d="M358.77 325.907H353.327C353.069 325.907 352.859 326.148 352.859 326.444V332.698C352.859 332.995 353.069 333.235 353.327 333.235H358.77C359.028 333.235 359.237 332.995 359.237 332.698V326.444C359.237 326.148 359.028 325.907 358.77 325.907Z" fill="black"/>
<path d="M358.477 332.363V326.793H353.63V332.363H358.477Z" fill="white"/>
<path opacity="0.4" d="M397.395 327.571H366.478C365.743 327.571 365.147 328.256 365.147 329.101V330.054C365.147 330.899 365.743 331.584 366.478 331.584H397.395C398.131 331.584 398.727 330.899 398.727 330.054V329.101C398.727 328.256 398.131 327.571 397.395 327.571Z" fill="black"/>
<path d="M355.791 331.182C355.754 331.182 355.717 331.175 355.683 331.158C355.649 331.142 355.618 331.118 355.593 331.088L354.424 329.826C354.37 329.761 354.34 329.675 354.34 329.584C354.34 329.494 354.37 329.408 354.424 329.343C354.452 329.31 354.484 329.285 354.52 329.267C354.557 329.249 354.595 329.24 354.635 329.24C354.674 329.24 354.713 329.249 354.749 329.267C354.785 329.285 354.818 329.31 354.845 329.343L355.838 330.376L357.532 328.068C357.581 327.999 357.653 327.955 357.73 327.946C357.808 327.937 357.886 327.964 357.946 328.021C358.007 328.078 358.045 328.16 358.053 328.249C358.06 328.339 358.037 328.428 357.987 328.497L356.036 331.061C355.985 331.127 355.914 331.169 355.838 331.182H355.791Z" fill="#89B1FF"/>
<path opacity="0.4" d="M423.57 325.827H418.127C417.869 325.827 417.66 326.067 417.66 326.363V332.618C417.66 332.914 417.869 333.154 418.127 333.154H423.57C423.829 333.154 424.038 332.914 424.038 332.618V326.363C424.038 326.067 423.829 325.827 423.57 325.827Z" fill="black"/>
<path d="M423.266 332.282V326.712H418.419V332.282H423.266Z" fill="white"/>
<path opacity="0.4" d="M462.184 327.477H431.279C430.543 327.477 429.947 328.162 429.947 329.007V329.96C429.947 330.805 430.543 331.49 431.279 331.49H462.184C462.919 331.49 463.516 330.805 463.516 329.96V329.007C463.516 328.162 462.919 327.477 462.184 327.477Z" fill="black"/>
<path d="M420.592 331.101C420.518 331.096 420.448 331.063 420.393 331.007L419.225 329.732C419.191 329.704 419.163 329.668 419.142 329.627C419.121 329.585 419.108 329.539 419.104 329.491C419.1 329.444 419.104 329.395 419.118 329.35C419.131 329.305 419.153 329.263 419.182 329.228C419.211 329.193 419.246 329.166 419.284 329.148C419.323 329.13 419.364 329.121 419.406 329.123C419.448 329.125 419.489 329.138 419.526 329.159C419.563 329.181 419.596 329.211 419.622 329.249L420.603 330.282L422.309 327.974C422.332 327.935 422.361 327.901 422.396 327.876C422.431 327.851 422.47 327.834 422.511 327.827C422.551 327.821 422.593 327.824 422.632 327.837C422.672 327.85 422.709 327.873 422.74 327.903C422.772 327.933 422.797 327.971 422.815 328.014C422.833 328.056 422.843 328.103 422.844 328.15C422.845 328.197 422.838 328.244 422.822 328.288C422.806 328.332 422.783 328.371 422.753 328.403L420.86 330.98C420.804 331.046 420.73 331.089 420.65 331.101H420.592Z" fill="#89B1FF"/>
<path opacity="0.4" d="M293.969 325.988H288.526C288.268 325.988 288.059 326.228 288.059 326.525V332.779C288.059 333.075 288.268 333.315 288.526 333.315H293.969C294.227 333.315 294.436 333.075 294.436 332.779V326.525C294.436 326.228 294.227 325.988 293.969 325.988Z" fill="black"/>
<path d="M293.677 332.443V326.874H288.829V332.443H293.677Z" fill="white"/>
<path opacity="0.4" d="M332.583 327.652H301.678C300.942 327.652 300.346 328.337 300.346 329.182V330.135C300.346 330.98 300.942 331.665 301.678 331.665H332.583C333.318 331.665 333.914 330.98 333.914 330.135V329.182C333.914 328.337 333.318 327.652 332.583 327.652Z" fill="black"/>
<path d="M277.138 133.777C277.086 132.749 277.305 131.728 277.764 130.844C278.224 129.961 278.904 129.256 279.717 128.822C280.529 128.387 281.436 128.243 282.32 128.408C283.205 128.573 284.026 129.039 284.677 129.746C285.328 130.453 285.78 131.368 285.973 132.374C286.166 133.379 286.092 134.428 285.76 135.384C285.429 136.34 284.855 137.16 284.113 137.738C283.371 138.315 282.496 138.623 281.6 138.622C281.026 138.66 280.451 138.564 279.911 138.337C279.371 138.111 278.876 137.76 278.458 137.307C278.04 136.853 277.708 136.306 277.481 135.699C277.254 135.092 277.137 134.438 277.138 133.777ZM284.146 133.777C284.137 133.198 283.979 132.635 283.693 132.159C283.406 131.683 283.003 131.315 282.535 131.1C282.067 130.886 281.554 130.835 281.061 130.955C280.568 131.074 280.117 131.358 279.764 131.771C279.41 132.185 279.171 132.708 279.076 133.277C278.981 133.845 279.035 134.434 279.23 134.968C279.425 135.502 279.752 135.957 280.172 136.278C280.592 136.599 281.084 136.77 281.588 136.77C281.931 136.781 282.273 136.711 282.592 136.565C282.91 136.418 283.199 136.197 283.44 135.916C283.681 135.635 283.869 135.301 283.993 134.932C284.116 134.564 284.173 134.171 284.158 133.777H284.146Z" fill="white"/>
<path d="M293.759 134.341V138.461H291.948V134.663C291.948 133.495 291.481 132.958 290.675 132.958C289.869 132.958 289.168 133.576 289.168 134.904V138.461H287.358V131.254H289.087V132.1C289.356 131.782 289.68 131.534 290.038 131.37C290.396 131.206 290.781 131.13 291.166 131.147C291.529 131.119 291.893 131.184 292.231 131.338C292.57 131.492 292.874 131.731 293.122 132.036C293.371 132.342 293.557 132.708 293.667 133.106C293.777 133.505 293.808 133.926 293.759 134.341Z" fill="white"/>
<path d="M295.405 128.53H297.216V138.461H295.405V128.53Z" fill="white"/>
<path d="M298.688 129.093C298.69 128.925 298.723 128.76 298.784 128.608C298.846 128.456 298.934 128.32 299.045 128.21C299.155 128.1 299.284 128.017 299.424 127.968C299.564 127.919 299.711 127.905 299.856 127.926C299.998 127.901 300.144 127.911 300.283 127.956C300.422 128.001 300.551 128.079 300.661 128.186C300.772 128.293 300.861 128.425 300.924 128.575C300.986 128.724 301.02 128.887 301.024 129.053C300.956 129.337 300.81 129.588 300.606 129.767C300.402 129.946 300.153 130.043 299.897 130.043C299.64 130.043 299.391 129.946 299.187 129.767C298.983 129.588 298.837 129.337 298.769 129.053L298.688 129.093ZM298.909 131.254H300.732V138.461H298.909V131.254Z" fill="white"/>
<path d="M308.826 134.341V138.461H306.981V134.663C306.981 133.495 306.513 132.958 305.707 132.958C304.901 132.958 304.212 133.576 304.212 134.904V138.461H302.39V131.254H304.13V132.099C304.397 131.782 304.719 131.533 305.075 131.369C305.432 131.205 305.814 131.129 306.198 131.147C306.563 131.115 306.93 131.178 307.272 131.33C307.614 131.481 307.922 131.719 308.174 132.025C308.425 132.331 308.615 132.698 308.727 133.098C308.84 133.499 308.874 133.923 308.826 134.341Z" fill="white"/>
<path d="M316.64 135.455H311.898C311.994 135.902 312.228 136.294 312.557 136.558C312.886 136.822 313.286 136.94 313.685 136.891C313.974 136.903 314.263 136.849 314.533 136.731C314.804 136.614 315.052 136.435 315.262 136.206L316.231 137.401C315.899 137.801 315.495 138.113 315.047 138.315C314.599 138.517 314.118 138.603 313.638 138.568C313.187 138.619 312.732 138.561 312.302 138.398C311.872 138.235 311.476 137.971 311.14 137.622C310.804 137.273 310.534 136.848 310.349 136.373C310.164 135.899 310.067 135.385 310.064 134.864C310.059 134.363 310.143 133.866 310.311 133.403C310.479 132.94 310.728 132.522 311.041 132.174C311.355 131.826 311.728 131.555 312.136 131.378C312.545 131.202 312.98 131.123 313.416 131.147C313.85 131.122 314.283 131.201 314.689 131.381C315.094 131.56 315.462 131.835 315.769 132.188C316.076 132.541 316.315 132.963 316.471 133.429C316.627 133.895 316.697 134.393 316.675 134.891C316.675 135.052 316.652 135.28 316.64 135.455ZM311.874 134.233H314.958C314.895 133.816 314.705 133.439 314.423 133.166C314.141 132.894 313.785 132.745 313.416 132.745C313.048 132.745 312.691 132.894 312.409 133.166C312.127 133.439 311.938 133.816 311.874 134.233Z" fill="white"/>
<path d="M322.994 130.851H320.389V129.093H327.491V130.851H324.886V138.461H322.994V130.851Z" fill="white"/>
<path d="M333.845 135.455H329.102C329.199 135.902 329.433 136.294 329.762 136.558C330.09 136.822 330.491 136.94 330.89 136.891C331.179 136.903 331.467 136.849 331.738 136.731C332.009 136.614 332.257 136.435 332.466 136.206L333.436 137.401C333.104 137.801 332.7 138.113 332.252 138.315C331.804 138.517 331.323 138.603 330.843 138.568C330.392 138.619 329.937 138.561 329.507 138.398C329.077 138.235 328.681 137.97 328.345 137.622C328.008 137.273 327.739 136.848 327.554 136.373C327.368 135.899 327.271 135.385 327.268 134.864C327.263 134.364 327.347 133.868 327.514 133.406C327.682 132.945 327.929 132.527 328.242 132.179C328.555 131.831 328.926 131.56 329.333 131.382C329.74 131.205 330.174 131.125 330.609 131.147C331.044 131.12 331.479 131.198 331.885 131.376C332.292 131.555 332.661 131.83 332.97 132.183C333.278 132.536 333.518 132.959 333.675 133.426C333.832 133.892 333.902 134.392 333.88 134.891C333.845 135.052 333.845 135.28 333.845 135.455ZM329.079 134.233H332.163C332.099 133.816 331.91 133.439 331.628 133.166C331.346 132.894 330.989 132.745 330.621 132.745C330.252 132.745 329.896 132.894 329.614 133.166C329.332 133.439 329.142 133.816 329.079 134.233Z" fill="white"/>
<path d="M334.475 137.79L335.082 136.3C335.746 136.743 336.499 136.979 337.267 136.985C338.108 136.985 338.435 136.73 338.435 136.34C338.435 135.159 334.639 136.34 334.639 133.482C334.639 132.14 335.713 131.147 337.547 131.147C338.382 131.128 339.208 131.345 339.953 131.777L339.346 133.267C338.799 132.905 338.178 132.72 337.547 132.73C336.729 132.73 336.379 133.026 336.379 133.401C336.379 134.636 340.164 133.401 340.164 136.287C340.164 137.629 339.077 138.568 337.208 138.568C336.253 138.591 335.31 138.323 334.475 137.79Z" fill="white"/>
<path d="M345.314 138.112C344.871 138.432 344.354 138.591 343.831 138.568C343.522 138.619 343.207 138.588 342.91 138.478C342.613 138.368 342.341 138.182 342.116 137.934C341.891 137.686 341.718 137.382 341.611 137.045C341.503 136.709 341.463 136.348 341.495 135.991V133.026H340.525V131.415H341.495V129.67H343.305V131.415H344.87V133.026H343.305V135.965C343.291 136.088 343.301 136.214 343.334 136.333C343.368 136.452 343.425 136.56 343.5 136.651C343.575 136.741 343.667 136.811 343.769 136.854C343.871 136.898 343.98 136.915 344.088 136.904C344.352 136.908 344.61 136.814 344.824 136.636L345.314 138.112Z" fill="white"/>
<path d="M469.198 142.654C472.816 138.498 472.816 131.76 469.198 127.603C465.581 123.447 459.716 123.447 456.099 127.603C452.482 131.76 452.482 138.498 456.099 142.654C459.716 146.811 465.581 146.811 469.198 142.654Z" fill="white"/>
<path opacity="0.2" d="M470.851 130.18L462.675 135.146V124.503C464.358 124.507 466.008 125.037 467.449 126.037C468.89 127.038 470.066 128.47 470.851 130.18Z" fill="black"/>
<path d="M445.26 462.717C445.26 462.717 450.306 435.299 441.113 420.456C431.921 405.613 449.418 420.281 451.439 434.185C451.439 434.185 454.452 409.33 445.528 391.856C436.605 374.383 453.296 388.716 454.721 406.74C454.721 406.74 457.454 384.569 453.354 372.101C449.254 359.633 456.379 367.659 459.124 375.47C461.869 383.281 458.271 402.62 458.271 402.62C458.271 402.62 465.42 366.854 472.194 369.699C478.968 372.544 462.067 395.977 459.731 408.162C459.731 408.162 467.709 391.762 473.747 395.185C479.786 398.607 464.403 400.298 457.302 424.71L454.837 436.171C454.837 436.171 462.184 419.986 466.985 425.099C471.785 430.213 452.747 439.017 448.297 463.55L445.26 462.717Z" fill="#263238"/>
<path d="M446.253 464.355C446.253 464.355 447.304 429.797 462.172 415.168C477.041 400.54 452.268 412.122 446.253 428.079C446.253 428.079 449.079 397.278 464.287 379.389C479.494 361.499 455.795 372.987 449.43 394.071C449.43 394.071 451.906 366.585 460.047 353.071C468.188 339.556 457.571 346.696 452.268 355.111C446.965 363.525 446.253 387.857 446.253 387.857C446.253 387.857 446.953 342.576 438.077 343.676C429.2 344.777 443.379 378.57 443.029 394.004C443.029 394.004 437.715 371.631 429.585 373.645C421.456 375.658 439.49 383.039 441.616 414.685V429.273C441.616 429.273 437.014 407.371 429.936 411.826C422.858 416.282 443.379 433.38 442.316 464.274L446.253 464.355Z" fill="#263238"/>
<path opacity="0.2" d="M446.253 464.355C446.253 464.355 447.304 429.797 462.172 415.168C477.041 400.54 452.268 412.122 446.253 428.079C446.253 428.079 449.079 397.278 464.287 379.389C479.494 361.499 455.795 372.987 449.43 394.071C449.43 394.071 451.906 366.585 460.047 353.071C468.188 339.556 457.571 346.696 452.268 355.111C446.965 363.525 446.253 387.857 446.253 387.857C446.253 387.857 446.953 342.576 438.077 343.676C429.2 344.777 443.379 378.57 443.029 394.004C443.029 394.004 437.715 371.631 429.585 373.645C421.456 375.658 439.49 383.039 441.616 414.685V429.273C441.616 429.273 437.014 407.371 429.936 411.826C422.858 416.282 443.379 433.38 442.316 464.274L446.253 464.355Z" fill="white"/>
<path d="M453.588 488.633H435.577C432.17 488.633 428.902 487.077 426.492 484.309C424.083 481.54 422.729 477.785 422.729 473.87V471.092H466.424V473.87C466.424 477.783 465.072 481.536 462.665 484.304C460.258 487.072 456.993 488.629 453.588 488.633Z" fill="#89A0FF"/>
<path d="M421.935 476.662H467.23C469.946 476.662 472.147 474.132 472.147 471.012V466.61C472.147 463.489 469.946 460.959 467.23 460.959H421.935C419.219 460.959 417.018 463.489 417.018 466.61V471.012C417.018 474.132 419.219 476.662 421.935 476.662Z" fill="#89A0FF"/>
<path opacity="0.2" d="M421.935 476.662H467.23C469.946 476.662 472.147 474.132 472.147 471.012V466.61C472.147 463.489 469.946 460.959 467.23 460.959H421.935C419.219 460.959 417.018 463.489 417.018 466.61V471.012C417.018 474.132 419.219 476.662 421.935 476.662Z" fill="white"/>
<path d="M201.522 299.911C201.358 300.299 201.288 300.73 201.317 301.159C201.347 301.589 201.475 302.002 201.689 302.355C201.903 302.709 202.195 302.991 202.535 303.172C202.875 303.354 203.251 303.428 203.624 303.387H258.94C259.86 303.336 260.747 302.981 261.495 302.365C262.243 301.748 262.82 300.896 263.157 299.911L274.837 261.126C274.953 260.765 275.013 260.383 275.012 259.998C275.01 259.667 274.948 259.34 274.83 259.038C274.712 258.736 274.54 258.466 274.326 258.245C274.111 258.024 273.859 257.857 273.585 257.754C273.311 257.652 273.021 257.616 272.735 257.65H217.453C216.534 257.701 215.646 258.056 214.898 258.673C214.15 259.289 213.573 260.141 213.237 261.126L201.522 299.911Z" fill="#263238"/>
<path d="M259.361 301.441C259.812 301.417 260.247 301.244 260.614 300.941C260.981 300.639 261.264 300.22 261.428 299.737L273.108 260.951C273.157 260.797 273.181 260.633 273.178 260.468C273.178 259.931 272.84 259.596 272.302 259.596H217.044C216.593 259.62 216.158 259.794 215.791 260.096C215.424 260.399 215.141 260.817 214.977 261.3L203.297 300.086C203.237 300.243 203.211 300.414 203.222 300.584C203.232 300.755 203.278 300.92 203.355 301.066C203.443 301.195 203.557 301.297 203.687 301.363C203.818 301.429 203.961 301.456 204.103 301.441H259.361Z" fill="#407BFF"/>
<path opacity="0.8" d="M259.361 301.441C259.812 301.417 260.247 301.244 260.614 300.941C260.981 300.639 261.264 300.22 261.428 299.737L273.108 260.951C273.157 260.797 273.181 260.633 273.178 260.468C273.178 259.931 272.84 259.596 272.302 259.596H217.044C216.593 259.62 216.158 259.794 215.791 260.096C215.424 260.399 215.141 260.817 214.977 261.3L203.297 300.086C203.237 300.243 203.211 300.414 203.222 300.584C203.232 300.755 203.278 300.92 203.355 301.066C203.443 301.195 203.557 301.297 203.687 301.363C203.818 301.429 203.961 301.456 204.103 301.441H259.361Z" fill="white"/>
<path d="M177.846 300.516V302.3L188.802 305.535H258.684C259.201 305.535 259.697 305.299 260.063 304.878C260.429 304.458 260.634 303.888 260.634 303.294V300.516H177.846Z" fill="#263238"/>
<path opacity="0.2" d="M236.316 300.516V302.3L247.284 305.535H188.802L177.846 302.3V300.516H236.316Z" fill="white"/>
<g opacity="0.2">
<path d="M269.628 268.709H213.715L215.888 261.703H271.8L269.628 268.709Z" fill="#407BFF"/>
</g>
<g opacity="0.1">
<path d="M266.824 277.727H210.912C210.749 277.727 210.667 277.58 210.725 277.378C210.757 277.284 210.811 277.201 210.881 277.139C210.951 277.078 211.035 277.04 211.123 277.029H267.046C267.198 277.029 267.28 277.19 267.222 277.378C267.194 277.475 267.141 277.561 267.07 277.623C266.999 277.685 266.914 277.722 266.824 277.727Z" fill="black"/>
</g>
<g opacity="0.1">
<path d="M263.764 287.565H207.852C207.689 287.565 207.607 287.404 207.665 287.216C207.698 287.119 207.754 287.035 207.826 286.974C207.898 286.912 207.984 286.875 208.074 286.867H263.986C264.15 286.867 264.231 287.014 264.173 287.216C264.14 287.312 264.085 287.396 264.012 287.458C263.94 287.519 263.854 287.556 263.764 287.565Z" fill="black"/>
</g>
<g opacity="0.1">
<path d="M260.716 297.402H204.804C204.64 297.402 204.558 297.241 204.617 297.053C204.644 296.954 204.697 296.867 204.767 296.802C204.838 296.738 204.924 296.699 205.014 296.691H260.926C261.09 296.691 261.171 296.852 261.113 297.053C261.082 297.148 261.029 297.232 260.958 297.294C260.888 297.355 260.804 297.393 260.716 297.402Z" fill="black"/>
</g>
<path d="M242.121 488.472H248.207L259.151 313.413H251.068L242.121 488.472Z" fill="#263238"/>
<path opacity="0.2" d="M242.11 488.472H248.207L258.613 322.109L259.151 313.695H251.068L250.636 322.109L242.11 488.472Z" fill="white"/>
<path opacity="0.2" d="M250.636 321.693H258.614L259.151 313.695H251.068L250.636 321.693Z" fill="black"/>
<path d="M197.422 488.472H203.508L204.5 313.413H196.429L197.422 488.472Z" fill="#263238"/>
<path opacity="0.3" d="M196.417 313.695L196.581 341.932L197.41 488.472H203.508L204.349 341.932L204.5 313.695H196.417Z" fill="white"/>
<path opacity="0.2" d="M196.417 313.695L196.581 342.254H204.349L204.5 313.695H196.417Z" fill="black"/>
<path d="M132.762 488.472H138.847L149.791 313.413H141.708L132.762 488.472Z" fill="#263238"/>
<path opacity="0.3" d="M132.762 488.472H138.847L149.265 322.109L149.791 313.695H141.708L141.276 322.109L132.762 488.472Z" fill="white"/>
<path opacity="0.2" d="M141.276 321.693H149.266L149.791 313.695H141.708L141.276 321.693Z" fill="black"/>
<path d="M311.792 488.472H317.878L308.931 313.413H300.848L311.792 488.472Z" fill="#263238"/>
<path opacity="0.3" d="M300.848 313.695L301.386 322.109L311.792 488.472H317.878L309.363 322.109L308.931 313.695H300.848Z" fill="white"/>
<path opacity="0.2" d="M308.931 313.695H300.848L301.386 321.693H309.364L308.931 313.695Z" fill="black"/>
<path d="M312.809 317.801L137.819 317.801C137.488 317.801 137.16 317.726 136.853 317.581C136.547 317.435 136.269 317.221 136.035 316.952C135.801 316.683 135.615 316.363 135.488 316.012C135.361 315.66 135.296 315.283 135.296 314.902V309.038H315.355V314.902C315.355 315.285 315.289 315.665 315.161 316.018C315.032 316.371 314.844 316.692 314.608 316.962C314.371 317.231 314.09 317.444 313.781 317.588C313.472 317.732 313.142 317.805 312.809 317.801Z" fill="#407BFF"/>
<path opacity="0.2" d="M135.308 313.413H315.331V309.024H135.308V313.413Z" fill="black"/>
<path d="M131.535 310.165H319.104C319.674 310.165 320.221 309.905 320.624 309.442C321.027 308.979 321.253 308.35 321.253 307.696C321.253 307.041 321.027 306.413 320.624 305.949C320.221 305.486 319.674 305.226 319.104 305.226H131.535C130.965 305.226 130.418 305.486 130.015 305.949C129.612 306.413 129.386 307.041 129.386 307.696C129.386 308.35 129.612 308.979 130.015 309.442C130.418 309.905 130.965 310.165 131.535 310.165Z" fill="#407BFF"/>
<path d="M313.112 299.012C313.194 301.143 312.855 303.268 312.119 305.226H269.382V304.059H270.247V293.913H269.382V292.745H312.119C312.851 294.724 313.19 296.865 313.112 299.012Z" fill="#263238"/>
<path opacity="0.2" d="M313.112 299.012C313.194 301.143 312.855 303.268 312.119 305.226H269.382V304.059H270.247V293.913H269.382V292.745H312.119C312.851 294.724 313.19 296.865 313.112 299.012Z" fill="white"/>
<path opacity="0.2" d="M290.243 299.012C290.325 301.143 289.986 303.268 289.25 305.226H269.394V304.059H270.258V293.913H269.394V292.745H289.25C289.981 294.724 290.32 296.865 290.243 299.012Z" fill="black"/>
<path opacity="0.8" d="M288.141 299.012C288.208 300.743 287.932 302.468 287.335 304.059H270.247V293.913H287.335C287.928 295.523 288.203 297.265 288.141 299.012Z" fill="white"/>
<path opacity="0.6" d="M306.152 299.012C306.234 301.143 305.894 303.268 305.159 305.226H297.204C297.94 303.268 298.279 301.143 298.197 299.012C298.269 296.878 297.93 294.751 297.204 292.785H305.159C305.885 294.751 306.224 296.878 306.152 299.012Z" fill="white"/>
<path d="M316.92 286.571C317.002 288.702 316.663 290.827 315.927 292.785H273.19V291.618H274.054V281.512H273.19V280.344H315.927C316.651 282.311 316.99 284.437 316.92 286.571Z" fill="#407BFF"/>
<path opacity="0.2" d="M294.051 286.571C294.133 288.702 293.793 290.827 293.058 292.785H273.202V291.618H274.066V281.512H273.202V280.344H293.058C293.782 282.311 294.121 284.437 294.051 286.571Z" fill="black"/>
<path opacity="0.8" d="M291.948 286.571C292.016 288.302 291.74 290.027 291.142 291.618H274.054V281.512H291.142C291.73 283.11 292.006 284.837 291.948 286.571Z" fill="white"/>
<path opacity="0.2" d="M309.959 286.571C310.041 288.702 309.702 290.827 308.966 292.785H301.012C301.747 290.827 302.087 288.702 302.005 286.571C302.075 284.437 301.736 282.311 301.012 280.344H308.966C309.69 282.311 310.029 284.437 309.959 286.571Z" fill="black"/>
<path d="M173.537 458.544L169.776 478.54L160.864 478.366L164.59 458.544H173.537Z" fill="#EBB376"/>
<path opacity="0.2" d="M173.549 458.544L171.68 468.435L162.849 467.75L164.59 458.544H173.549Z" fill="black"/>
<path d="M171.119 478.031H171.305C171.305 478.031 171.504 478.111 171.527 478.138C171.538 478.144 171.55 478.147 171.562 478.147C171.575 478.147 171.586 478.144 171.597 478.138C172.356 478.418 173.14 478.598 173.934 478.675C174.521 478.798 175.127 478.659 175.627 478.286C175.792 478.125 175.911 477.911 175.969 477.672C176.027 477.433 176.022 477.179 175.954 476.943C175.938 476.79 175.889 476.644 175.811 476.517C175.734 476.391 175.631 476.288 175.51 476.219C174.657 476.057 173.781 476.242 173.034 476.742C173.563 476.112 173.874 475.282 173.91 474.407C173.877 474.201 173.786 474.013 173.651 473.872C173.516 473.731 173.344 473.646 173.163 473.629C172.99 473.593 172.813 473.599 172.642 473.645C172.471 473.691 172.311 473.777 172.17 473.897C171.235 474.823 171.083 477.722 171.083 477.923L171.119 478.031ZM172.076 477.44L171.901 477.561C171.845 476.452 172.108 475.354 172.649 474.434C172.709 474.368 172.781 474.317 172.859 474.284C172.938 474.252 173.021 474.239 173.104 474.246H173.209C173.501 474.246 173.571 474.474 173.571 474.622C173.38 475.735 172.85 476.734 172.076 477.44ZM172.205 477.95C173.279 477.266 174.81 476.527 175.382 476.823C175.44 476.856 175.489 476.905 175.526 476.966C175.563 477.027 175.585 477.098 175.592 477.172C175.625 477.32 175.623 477.476 175.589 477.624C175.554 477.772 175.487 477.907 175.394 478.017C174.997 478.447 173.828 478.42 172.205 477.95Z" fill="#89A0FF"/>
<path d="M170.908 476.783L160.922 476.071C160.839 476.06 160.755 476.068 160.675 476.094C160.595 476.121 160.52 476.165 160.454 476.225C160.389 476.285 160.335 476.359 160.295 476.443C160.255 476.528 160.23 476.62 160.221 476.715L159.24 485.774C159.217 486.25 159.357 486.717 159.63 487.075C159.903 487.434 160.287 487.656 160.7 487.694C164.204 487.868 165.863 487.761 170.254 488.029C174.156 488.506 178.083 488.667 182.004 488.512C185.73 488.096 185.275 483.869 183.663 483.667C179.855 483.171 174.809 479.95 172.415 477.507C171.996 477.081 171.466 476.826 170.908 476.783Z" fill="#263238"/>
<path d="M225.712 458.544L221.95 478.54L213.026 478.366L216.764 458.544H225.712Z" fill="#EBB376"/>
<path opacity="0.2" d="M225.711 458.544L223.843 468.435L215.012 467.75L216.752 458.544H225.711Z" fill="black"/>
<path d="M223.281 478.03H223.468C223.468 478.03 223.667 478.111 223.702 478.138C223.713 478.144 223.725 478.147 223.737 478.147C223.749 478.147 223.761 478.144 223.772 478.138C224.531 478.417 225.314 478.597 226.108 478.675C226.699 478.802 227.31 478.662 227.814 478.285C227.976 478.123 228.093 477.909 228.149 477.67C228.205 477.431 228.198 477.178 228.129 476.943C228.116 476.789 228.068 476.641 227.99 476.514C227.912 476.387 227.807 476.285 227.685 476.219C226.832 476.057 225.956 476.242 225.209 476.742C225.736 476.109 226.05 475.281 226.097 474.407C226.06 474.201 225.966 474.013 225.829 473.873C225.692 473.733 225.52 473.647 225.337 473.628C225.165 473.594 224.988 473.6 224.817 473.646C224.646 473.692 224.486 473.777 224.344 473.897C223.41 474.823 223.258 477.722 223.258 477.923L223.281 478.03ZM224.239 477.44L224.064 477.561C224.014 476.453 224.276 475.356 224.812 474.434C224.872 474.368 224.944 474.318 225.022 474.285C225.101 474.253 225.184 474.24 225.267 474.246H225.372C225.664 474.246 225.734 474.474 225.746 474.622C225.544 475.734 225.012 476.73 224.239 477.44ZM224.368 477.95C225.442 477.265 226.973 476.527 227.545 476.823C227.603 476.856 227.652 476.905 227.689 476.966C227.726 477.027 227.748 477.098 227.755 477.172C227.789 477.319 227.79 477.474 227.757 477.622C227.724 477.77 227.659 477.906 227.568 478.017C227.113 478.446 225.945 478.42 224.368 477.95Z" fill="#89A0FF"/>
<path d="M223.071 476.783L213.085 476.071C213.002 476.06 212.918 476.068 212.838 476.094C212.757 476.121 212.682 476.165 212.617 476.225C212.552 476.285 212.498 476.359 212.458 476.443C212.418 476.528 212.393 476.62 212.384 476.715L211.403 485.774C211.38 486.25 211.52 486.717 211.793 487.075C212.066 487.434 212.45 487.656 212.863 487.694C216.367 487.868 218.025 487.761 222.417 488.029C226.316 488.492 230.239 488.64 234.156 488.472C237.881 488.056 237.426 483.828 235.826 483.627C232.006 483.13 226.961 479.91 224.578 477.467C224.154 477.056 223.625 476.815 223.071 476.783Z" fill="#263238"/>
<path d="M189.526 420.483C186.132 435.525 181.791 450.264 176.538 464.583L160.256 463.16C160.256 463.16 166.937 433.179 169.355 405.72C170.85 388.77 170.721 374.745 166.4 373.658C163.678 372.96 157.324 372.987 149.172 373.202V338.308C172.041 343.676 194.794 353.876 196.523 362.036C198.94 373.537 194.712 397.855 189.526 420.483Z" fill="#89A0FF"/>
<path opacity="0.4" d="M189.526 420.483C186.132 435.525 181.791 450.264 176.538 464.583L160.256 463.16C160.256 463.16 166.937 433.179 169.355 405.72C170.85 388.77 170.721 374.745 166.4 373.658C163.678 372.96 157.324 372.987 149.172 373.202V338.308C172.041 343.676 194.794 353.876 196.523 362.036C198.94 373.537 194.712 397.855 189.526 420.483Z" fill="white"/>
<path opacity="0.2" d="M189.526 420.483C183.453 416.054 176.34 410.86 169.355 405.72C170.85 388.77 170.721 374.745 166.4 373.658C163.678 372.96 157.324 372.987 149.172 373.202V338.308C172.041 343.676 194.794 353.876 196.523 362.036C198.94 373.537 194.712 397.855 189.526 420.483Z" fill="black"/>
<path d="M180.626 334.886L182.063 321.64L135.46 312.822C135.46 312.822 120.217 347.595 127.681 364.532C134.513 380.127 207.35 370.84 218.563 373.645C229.776 376.45 212.372 463.147 212.372 463.147L228.724 464.583C228.724 464.583 253.883 386.582 248.709 362.049C246.431 351.353 208.027 337.181 180.626 334.886Z" fill="#89A0FF"/>
<path opacity="0.6" d="M180.626 334.886L182.063 321.64L135.46 312.822C135.46 312.822 120.217 347.595 127.681 364.532C134.513 380.127 207.35 370.84 218.563 373.645C229.776 376.45 212.372 463.147 212.372 463.147L228.724 464.583C228.724 464.583 253.883 386.582 248.709 362.049C246.431 351.353 208.027 337.181 180.626 334.886Z" fill="white"/>
<path d="M206.264 227.131C205.867 227.923 205.913 228.822 206.369 229.118C206.824 229.413 207.537 229.01 207.899 228.205C208.261 227.4 208.249 226.527 207.806 226.219C207.362 225.91 206.696 226.366 206.264 227.131Z" fill="#263238"/>
<path d="M205.528 222.85C205.432 222.796 205.351 222.712 205.294 222.609C205.25 222.476 205.25 222.33 205.296 222.198C205.341 222.066 205.428 221.959 205.539 221.897C206.219 221.541 206.963 221.377 207.708 221.419C208.454 221.461 209.181 221.708 209.826 222.139C209.928 222.213 210.001 222.331 210.03 222.466C210.058 222.601 210.039 222.744 209.978 222.864C209.907 222.981 209.799 223.062 209.677 223.09C209.555 223.117 209.428 223.089 209.324 223.011C208.812 222.681 208.239 222.495 207.652 222.469C207.065 222.444 206.481 222.579 205.948 222.864C205.882 222.899 205.81 222.917 205.737 222.914C205.664 222.912 205.592 222.89 205.528 222.85Z" fill="#263238"/>
<path d="M206.918 226.111C206.535 229.095 206.507 232.124 206.836 235.117C206.167 235.189 205.491 235.095 204.856 234.84C204.221 234.585 203.641 234.176 203.157 233.64L206.918 226.111Z" fill="#DE5753"/>
<path d="M202.736 237.331C202.456 237.72 202.176 238.096 201.872 238.445C200.169 240.498 197.96 241.903 195.541 242.471C194.929 242.618 194.309 242.712 193.684 242.753C192.045 242.879 190.401 242.582 188.873 241.886C187.346 241.189 185.973 240.11 184.854 238.727C183.851 237.466 183.076 235.988 182.577 234.378C180.404 227.668 182.577 222.3 185.742 213.026C186.44 210.834 187.615 208.884 189.155 207.361C190.695 205.839 192.548 204.794 194.538 204.328C196.529 203.861 198.59 203.987 200.526 204.695C202.462 205.402 204.208 206.667 205.598 208.369C211.928 215.965 207.7 230.044 202.736 237.331Z" fill="#E4897B"/>
<path opacity="0.2" d="M195.542 242.444C194.93 242.591 194.309 242.685 193.685 242.726C192.045 242.852 190.401 242.556 188.874 241.859C187.346 241.163 185.973 240.083 184.854 238.7C185.64 237.792 186.523 237.003 187.482 236.351C190.62 237.458 193.416 239.572 195.542 242.444Z" fill="black"/>
<path d="M169.226 242.793C170.021 249.369 182.518 251.825 182.518 251.825C182.518 251.825 188.685 255.046 188.942 252.241C186.384 248.846 186.104 245.88 186.992 243.29C187.577 241.72 188.431 240.3 189.503 239.116C190.079 238.434 190.688 237.789 191.325 237.183L187.506 219.2C184.761 226.031 175.37 241.827 169.226 242.793Z" fill="#E4897B"/>
<path d="M204.885 203.216C204.885 203.216 207.56 202.826 209.557 208.584C211.286 213.402 207.221 214.449 207.397 219.575C207.572 224.702 203.507 227.534 203.507 227.534C203.507 227.534 200.073 230.929 197.165 229.091C197.165 229.091 193.357 231.238 192.353 234.982C191.348 238.727 185.45 231.963 180.135 232.996C180.135 232.996 176.55 229.131 176.807 219.763C177.012 215.695 177.879 211.707 179.365 208.007C180.07 206.048 181.108 204.271 182.417 202.777C183.727 201.284 185.282 200.106 186.992 199.31C193.112 196.17 203.752 198.532 204.885 203.216Z" fill="#263238"/>
<path d="M196.476 226.299C196.295 227.228 196.296 228.191 196.478 229.119C196.659 230.047 197.018 230.917 197.527 231.667C198.824 233.291 200.903 231.225 201.756 228.379C202.48 225.843 202.737 221.87 200.833 221.427C198.929 220.985 196.885 223.561 196.476 226.299Z" fill="#E4897B"/>
<path d="M187.506 245.195C184.065 241.702 179.818 239.427 175.277 238.646C173.292 238.365 171.284 238.858 169.572 240.046C167.861 241.233 166.546 243.047 165.839 245.195L186.793 250.067L187.506 245.195Z" fill="#89A0FF"/>
<path d="M183.943 296.006L192.481 297.469C194.424 296.773 196.418 296.283 198.438 296.006C200.634 295.792 202.841 295.792 205.037 296.006C205.037 296.006 208.868 297.67 208.868 301.965C208.868 301.965 199.851 304.743 196.394 303.079L183.943 301.965V296.006Z" fill="#E4897B"/>
<path opacity="0.2" d="M183.943 296.006L192.481 297.469C194.424 296.773 196.418 296.283 198.438 296.006C200.634 295.792 202.841 295.792 205.037 296.006C205.037 296.006 208.868 297.67 208.868 301.965C208.868 301.965 199.851 304.743 196.394 303.079L183.943 301.965V296.006Z" fill="black"/>
<path d="M197.819 248.282C196.083 253.865 194.525 259.233 193.147 264.387C192.259 267.581 191.453 270.708 190.718 273.781C190.087 276.318 189.55 278.774 188.977 281.163C188.72 282.304 188.463 283.444 188.218 284.572C186.875 290.745 185.789 296.395 184.936 301.361C183.516 309.177 182.463 317.075 181.782 325.022L133.894 318.137C135.553 308.675 136.849 300.421 138.66 291.51C139.653 286.625 140.797 281.552 142.257 275.982C143.285 271.956 144.476 267.729 145.901 263.112C150.702 247.262 155.14 242.874 155.14 242.874C173.525 239.398 197.819 248.282 197.819 248.282Z" fill="#89A0FF"/>
<path d="M213.751 297.026L222.289 298.502C224.23 297.798 226.224 297.304 228.245 297.026C230.442 296.82 232.649 296.82 234.845 297.026C234.845 297.026 238.711 298.69 238.711 302.945C238.711 302.945 229.694 305.723 226.225 304.058L213.751 302.945V297.026Z" fill="#E4897B"/>
<path d="M158.527 464.033L177.916 465.509L180.766 455.886L159.403 454.732L158.527 464.033Z" fill="#89A0FF"/>
<path opacity="0.2" d="M158.527 464.033L177.916 465.509L180.766 455.886L159.403 454.732L158.527 464.033Z" fill="white"/>
<path d="M210.69 464.033L230.079 465.509L232.929 455.886L211.566 454.732L210.69 464.033Z" fill="#89A0FF"/>
<path opacity="0.2" d="M210.69 464.033L230.079 465.509L232.929 455.886L211.566 454.732L210.69 464.033Z" fill="white"/>
<path d="M133.743 318.848L155.339 322.109L156.04 318.445L134.408 314.835L133.743 318.848Z" fill="black"/>
<path d="M157.838 318.472L157.57 322.109L177.531 325.263V321.666L157.838 318.472Z" fill="black"/>
<path d="M178.769 321.868V325.263L181.666 325.706V322.418L178.769 321.868Z" fill="black"/>
<path opacity="0.2" d="M193.136 264.387C192.248 267.581 191.442 270.708 190.706 273.781C190.075 276.318 189.538 278.774 188.966 281.163C187.47 271.768 190.134 260.535 190.134 260.535L193.136 264.387Z" fill="black"/>
<path d="M196.371 251.449C200.272 252.349 202.292 283.485 203.157 287.605C203.916 291.201 222.289 298.502 222.289 298.502V303.562C222.289 303.562 201.965 301.965 197.188 299.71C192.411 297.456 189.526 266.709 189.526 266.709L196.371 251.449Z" fill="#E4897B"/>
<g opacity="0.2">
<path d="M197.819 248.282C196.083 253.865 194.525 259.233 193.147 264.387C192.259 267.581 191.453 270.708 190.718 273.781C190.087 276.318 189.55 278.774 188.977 281.163C188.72 282.304 188.463 283.444 188.218 284.572C186.875 290.745 185.789 296.395 184.936 301.361C183.516 309.177 182.463 317.075 181.782 325.022L133.894 318.137C135.553 308.675 136.849 300.421 138.66 291.51C139.653 286.625 140.797 281.552 142.257 275.982C143.285 271.956 144.476 267.729 145.901 263.112C150.702 247.262 155.14 242.874 155.14 242.874C173.525 239.398 197.819 248.282 197.819 248.282Z" fill="white"/>
</g>
<path d="M197.82 248.282C201.394 249.624 203.158 276.466 203.158 276.466L190.18 278.438L187.494 267.407C187.494 267.407 188.569 262.199 190.11 256.737C192.353 248.819 197.82 248.282 197.82 248.282Z" fill="#89A0FF"/>
<path d="M114.109 483.895C114.109 482.96 113.868 482.047 113.415 481.269C112.963 480.492 112.32 479.887 111.568 479.53C110.816 479.172 109.989 479.08 109.191 479.263C108.393 479.446 107.66 479.898 107.086 480.56C106.511 481.222 106.121 482.065 105.963 482.982C105.806 483.899 105.889 484.849 106.202 485.712C106.515 486.575 107.044 487.312 107.722 487.83C108.399 488.347 109.195 488.622 110.009 488.619C110.548 488.619 111.083 488.497 111.581 488.26C112.079 488.022 112.531 487.674 112.912 487.235C113.293 486.796 113.595 486.275 113.8 485.702C114.006 485.129 114.111 484.515 114.109 483.895Z" fill="#263238"/>
<path opacity="0.2" d="M114.109 483.895C114.109 482.96 113.868 482.047 113.415 481.269C112.963 480.492 112.32 479.887 111.568 479.53C110.816 479.172 109.989 479.08 109.191 479.263C108.393 479.446 107.66 479.898 107.086 480.56C106.511 481.222 106.121 482.065 105.963 482.982C105.806 483.899 105.889 484.849 106.202 485.712C106.515 486.575 107.044 487.312 107.722 487.83C108.399 488.347 109.195 488.622 110.009 488.619C110.548 488.619 111.083 488.497 111.581 488.26C112.079 488.022 112.531 487.674 112.912 487.235C113.293 486.796 113.595 486.275 113.8 485.702C114.006 485.129 114.111 484.515 114.109 483.895Z" fill="white"/>
<path d="M212.933 483.895C212.933 482.961 212.692 482.048 212.241 481.271C211.789 480.494 211.147 479.888 210.395 479.531C209.644 479.173 208.817 479.08 208.02 479.262C207.222 479.444 206.489 479.894 205.914 480.555C205.339 481.216 204.948 482.057 204.789 482.974C204.631 483.89 204.712 484.84 205.023 485.703C205.334 486.566 205.861 487.304 206.538 487.823C207.214 488.342 208.009 488.619 208.822 488.619C209.362 488.621 209.898 488.5 210.397 488.263C210.897 488.027 211.351 487.679 211.733 487.24C212.115 486.801 212.418 486.279 212.624 485.705C212.83 485.131 212.935 484.516 212.933 483.895Z" fill="#263238"/>
<path opacity="0.2" d="M212.933 483.895C212.933 482.961 212.692 482.048 212.241 481.271C211.789 480.494 211.147 479.888 210.395 479.531C209.644 479.173 208.817 479.08 208.02 479.262C207.222 479.444 206.489 479.894 205.914 480.555C205.339 481.216 204.948 482.057 204.789 482.974C204.631 483.89 204.712 484.84 205.023 485.703C205.334 486.566 205.861 487.304 206.538 487.823C207.214 488.342 208.009 488.619 208.822 488.619C209.362 488.621 209.898 488.5 210.397 488.263C210.897 488.027 211.351 487.679 211.733 487.24C212.115 486.801 212.418 486.279 212.624 485.705C212.83 485.131 212.935 484.516 212.933 483.895Z" fill="white"/>
<path opacity="0.2" d="M112.053 483.895C112.053 483.428 111.932 482.97 111.706 482.582C111.479 482.193 111.158 481.89 110.781 481.712C110.405 481.533 109.991 481.487 109.592 481.58C109.193 481.672 108.826 481.898 108.539 482.23C108.252 482.562 108.058 482.984 107.98 483.443C107.902 483.902 107.944 484.377 108.101 484.809C108.259 485.24 108.524 485.608 108.864 485.866C109.203 486.124 109.602 486.26 110.009 486.257C110.278 486.257 110.545 486.196 110.794 486.077C111.043 485.958 111.269 485.784 111.458 485.565C111.648 485.345 111.799 485.085 111.901 484.798C112.003 484.512 112.055 484.205 112.053 483.895Z" fill="white"/>
<path opacity="0.2" d="M208.822 486.257C209.957 486.257 210.878 485.2 210.878 483.895C210.878 482.591 209.957 481.533 208.822 481.533C207.686 481.533 206.766 482.591 206.766 483.895C206.766 485.2 207.686 486.257 208.822 486.257Z" fill="white"/>
<path d="M162.814 463.201V412.457H156.016V463.201C129.573 463.979 113.501 474.608 110.277 476.93C110.094 477.066 109.943 477.252 109.839 477.473C109.735 477.693 109.681 477.941 109.682 478.192V482.406C109.682 482.801 109.818 483.18 110.062 483.459C110.305 483.738 110.634 483.895 110.978 483.895C111.214 483.904 111.447 483.839 111.653 483.706C111.859 483.574 112.03 483.379 112.146 483.144L113.711 479.977C127.412 474.958 141.674 472.245 156.051 471.924V480.272C156.054 480.782 156.233 481.27 156.548 481.63C156.863 481.989 157.289 482.191 157.733 482.191H161.167C161.611 482.191 162.037 481.989 162.352 481.63C162.667 481.27 162.846 480.782 162.849 480.272V471.924C177.227 472.245 191.488 474.958 205.189 479.977L206.754 483.144C206.871 483.379 207.041 483.574 207.247 483.706C207.453 483.839 207.686 483.904 207.922 483.895C208.266 483.895 208.596 483.738 208.839 483.459C209.082 483.18 209.219 482.801 209.219 482.406V478.192C209.22 477.941 209.166 477.693 209.062 477.473C208.958 477.252 208.807 477.066 208.623 476.93C205.364 474.608 189.258 463.979 162.814 463.201Z" fill="#263238"/>
<path opacity="0.2" d="M162.814 463.201V412.457H156.016V463.201C129.573 463.979 113.501 474.608 110.277 476.93C110.094 477.066 109.943 477.252 109.839 477.473C109.735 477.693 109.681 477.941 109.682 478.192V482.406C109.682 482.801 109.818 483.18 110.062 483.459C110.305 483.738 110.634 483.895 110.978 483.895C111.214 483.904 111.447 483.839 111.653 483.706C111.859 483.574 112.03 483.379 112.146 483.144L113.711 479.977C127.412 474.958 141.674 472.245 156.051 471.924V480.272C156.054 480.782 156.233 481.27 156.548 481.63C156.863 481.989 157.289 482.191 157.733 482.191H161.167C161.611 482.191 162.037 481.989 162.352 481.63C162.667 481.27 162.846 480.782 162.849 480.272V471.924C177.227 472.245 191.488 474.958 205.189 479.977L206.754 483.144C206.871 483.379 207.041 483.574 207.247 483.706C207.453 483.839 207.686 483.904 207.922 483.895C208.266 483.895 208.596 483.738 208.839 483.459C209.082 483.18 209.219 482.801 209.219 482.406V478.192C209.22 477.941 209.166 477.693 209.062 477.473C208.958 477.252 208.807 477.066 208.623 476.93C205.364 474.608 189.258 463.979 162.814 463.201Z" fill="black"/>
<path d="M160.747 479.185H158.084C157.587 479.185 157.184 479.647 157.184 480.218V487.586C157.184 488.157 157.587 488.619 158.084 488.619H160.747C161.244 488.619 161.646 488.157 161.646 487.586V480.218C161.646 479.647 161.244 479.185 160.747 479.185Z" fill="#263238"/>
<path opacity="0.2" d="M160.747 479.185H158.084C157.587 479.185 157.184 479.647 157.184 480.218V487.586C157.184 488.157 157.587 488.619 158.084 488.619H160.747C161.244 488.619 161.646 488.157 161.646 487.586V480.218C161.646 479.647 161.244 479.185 160.747 479.185Z" fill="white"/>
<path d="M114.903 362.505H203.939C206.39 362.505 208.74 363.624 210.472 365.615C212.205 367.606 213.178 370.306 213.178 373.121V379.536H105.652V373.094C105.658 370.281 106.636 367.586 108.371 365.6C110.105 363.615 112.454 362.502 114.903 362.505Z" fill="#407BFF"/>
<path d="M143.998 320.338H203.192C203.917 320.311 204.638 320.479 205.297 320.828C205.956 321.178 206.536 321.698 206.989 322.35C207.442 323.001 207.758 323.765 207.909 324.58C208.061 325.396 208.046 326.241 207.864 327.048L197.188 379.55H194.747L203.764 333.49C203.921 332.689 203.918 331.858 203.756 331.059C203.593 330.259 203.275 329.513 202.826 328.875C202.376 328.237 201.807 327.724 201.16 327.375C200.513 327.026 199.806 326.85 199.092 326.86H145.212L143.998 320.338Z" fill="#263238"/>
<path d="M166.401 381.388V425.784C166.398 426.466 166.16 427.12 165.74 427.602C165.32 428.085 164.752 428.357 164.158 428.361H154.685C154.39 428.362 154.098 428.297 153.825 428.168C153.552 428.039 153.304 427.85 153.096 427.61C152.887 427.37 152.722 427.086 152.61 426.772C152.498 426.459 152.441 426.123 152.442 425.784V381.388H166.401Z" fill="#263238"/>
<path opacity="0.2" d="M166.412 381.388H152.442V399.828H166.412V381.388Z" fill="black"/>
<path d="M216.11 376.812V382.18C216.11 382.892 215.864 383.575 215.426 384.078C214.988 384.581 214.393 384.864 213.774 384.864H105.15C104.53 384.864 103.936 384.581 103.498 384.078C103.06 383.575 102.814 382.892 102.814 382.18V376.812C102.814 376.1 103.06 375.417 103.498 374.914C103.936 374.41 104.53 374.128 105.15 374.128H213.774C214.393 374.128 214.988 374.41 215.426 374.914C215.864 375.417 216.11 376.1 216.11 376.812Z" fill="#263238"/>
<path d="M166.12 379.55H102.72C102.72 379.55 82.5842 341.059 82.5842 277.459V254.093C82.5842 249.466 84.1839 245.028 87.0315 241.757C89.879 238.485 93.7411 236.646 97.7682 236.646H124.632C128.583 236.624 132.384 238.379 135.222 241.538C138.06 244.696 139.709 249.005 139.816 253.543C140.505 286.37 144.71 357.338 166.12 379.55Z" fill="#263238"/>
<path opacity="0.2" d="M152.174 379.55H105.594C104.711 379.552 103.844 379.275 103.088 378.75C102.332 378.224 101.716 377.47 101.307 376.57C96.7288 366.411 82.6194 330.739 82.6194 277.459V254.093C82.6194 249.466 84.2191 245.029 87.0667 241.757C89.9142 238.485 93.7763 236.647 97.8034 236.647H121.035C124.98 236.644 128.772 238.407 131.606 241.561C134.44 244.714 136.094 249.012 136.219 253.543C136.92 282.814 140.342 342.576 156.332 370.826C156.845 371.675 157.142 372.671 157.19 373.702C157.238 374.734 157.034 375.761 156.603 376.667C156.171 377.573 155.527 378.323 154.745 378.832C153.963 379.341 153.072 379.59 152.174 379.55Z" fill="white"/>
<path opacity="0.2" d="M216.11 376.812V382.18C216.11 382.892 215.864 383.575 215.426 384.078C214.988 384.581 214.393 384.864 213.774 384.864H165.068C164.224 384.861 163.414 384.474 162.817 383.787C162.22 383.101 161.883 382.171 161.88 381.2V377.805C161.88 376.833 162.216 375.901 162.814 375.214C163.412 374.527 164.223 374.141 165.068 374.141H213.762C214.069 374.139 214.373 374.207 214.657 374.34C214.941 374.474 215.199 374.67 215.417 374.918C215.635 375.166 215.809 375.461 215.928 375.786C216.046 376.111 216.108 376.459 216.11 376.812Z" fill="black"/>
</svg>
