<svg width="72" height="42" viewBox="0 0 72 42" fill="none" xmlns="http://www.w3.org/2000/svg">
<path d="M58.6354 2.74928L71.3375 0.388104C71.418 0.374249 71.501 0.384431 71.5751 0.417246C71.6492 0.450062 71.7107 0.503891 71.7511 0.571295C71.7916 0.638698 71.809 0.716342 71.8009 0.793516C71.7928 0.870689 71.7596 0.943573 71.706 1.0021L63.0887 10.2522L58.6354 2.74928Z" fill="#FFA8A7"/>
<path d="M71.7058 1.0021C71.7594 0.943573 71.7926 0.870689 71.8007 0.793515C71.8088 0.716342 71.7914 0.638698 71.7509 0.571295C71.7105 0.503891 71.649 0.450062 71.5749 0.417246C71.5008 0.384431 71.4177 0.374249 71.3373 0.388104L68.8579 0.85235C69.1991 1.0516 69.4753 1.33678 69.6556 1.67612C69.8359 2.01547 69.9133 2.39564 69.8791 2.77425V2.9839L71.7058 1.0021Z" fill="#263238"/>
<path d="M15.2859 36.2652L16.3387 35.7011L17.5968 35.0222L63.1044 10.2772C63.5216 8.95143 63.3956 7.52517 62.7517 6.28366C61.8516 4.37175 60.1197 2.86419 58.6563 2.78931L13.1698 27.5194L10.7589 28.7773C12.3591 28.0285 16.8809 35.4615 15.2859 36.2652Z" fill="#89B1FF"/>
<path d="M19.2497 34.1043L21.5659 32.8414C22.2502 32.4969 21.8554 30.8995 21.0395 29.2522C19.9866 27.0607 17.881 24.9341 16.9914 25.3934L15.2806 26.3219L14.6752 26.6663C15.5806 26.2071 17.6705 28.3286 18.7285 30.5251C19.4918 32.1026 19.8814 33.6451 19.3023 34.0594C19.2899 34.079 19.2716 34.0947 19.2497 34.1043Z" fill="#EBEBEB"/>
<path d="M19.8447 33.7694C21.4239 32.9707 16.881 25.5278 15.286 26.3265L12.9646 27.5894C14.5438 26.7857 19.113 34.2287 17.518 35.0274L19.8447 33.7694Z" fill="#89B1FF"/>
<path d="M15.2859 36.2649L17.581 35.0219C19.1602 34.2482 14.8174 27.0349 13.154 27.5041L13.0592 27.539L10.7589 28.777C12.3591 28.0282 16.8809 35.4612 15.2859 36.2649Z" fill="#EBEBEB"/>
<path opacity="0.15" d="M71.7638 0.598081L71.3374 0.388428L62.1201 5.1707L14.0226 31.3334C13.9331 31.1987 13.8594 31.1887 13.8015 31.2835C15.1544 33.2803 16.1756 35.8062 15.286 36.2455L16.3388 35.6814L17.5969 35.0025L63.1044 10.2575L71.7217 1.00742C71.772 0.951475 71.803 0.882227 71.8106 0.809028C71.8181 0.73583 71.8018 0.6622 71.7638 0.598081Z" fill="black"/>
<path d="M5.55272 41.527L15.2859 36.2655C15.9702 35.931 15.5912 34.3486 14.8016 32.7112C13.7488 30.5148 11.6748 28.3732 10.7588 28.8075L0.994063 34.1089C-0.943102 35.1722 0.83614 39.1658 2.99966 40.9479C3.79453 41.6068 4.69468 41.9064 5.55272 41.527Z" fill="#F28F8F"/>
<path opacity="0.1" d="M6.15781 38.6616C5.59982 36.585 3.82058 34.5433 2.18873 34.109C1.94812 34.0253 1.68963 33.9983 1.43559 34.0305C1.18155 34.0627 0.939587 34.153 0.730589 34.2937C-0.732813 35.5816 0.972732 39.2457 3.01518 40.933C3.80478 41.5969 4.68914 41.8914 5.52612 41.542C6.23151 41.1377 6.5105 40.0744 6.15781 38.6616Z" fill="black"/>
</svg>
