<svg width="400" height="400" viewBox="0 0 400 400" fill="none" xmlns="http://www.w3.org/2000/svg">
<path d="M307.369 10.1274L282.548 22.5337C281.639 22.9188 280.864 23.562 280.319 24.3831C279.774 25.2042 279.484 26.1669 279.485 27.1512V38.7203C279.462 49.2377 282.54 59.5301 288.335 68.3197C292.808 75.0852 298.739 83.7874 308.608 88.7517H313.055C324.044 85.3689 332.241 76.5145 337.248 68.9032C343.042 60.1132 346.12 49.8211 346.099 39.3039V27.1512C346.099 26.1681 345.809 25.2065 345.266 24.3858C344.723 23.565 343.951 22.921 343.044 22.5337L314.769 10.5249C313.505 9.99208 308.625 9.5946 307.369 10.1274Z" fill="#E0E0E0"/>
<path d="M306.368 10.5246L278.093 22.5335C277.184 22.9186 276.409 23.5618 275.864 24.3829C275.319 25.204 275.029 26.1667 275.03 27.151V38.7201C275.03 49.4382 278.221 59.9153 284.198 68.8257C290.175 77.7361 298.67 84.6793 308.608 88.7768C319.589 85.394 327.786 76.5396 332.801 68.9283C338.597 60.1294 341.674 49.8289 341.652 39.3036V27.151C341.653 26.1667 341.362 25.204 340.818 24.3829C340.273 23.5618 339.498 22.9186 338.589 22.5335L310.314 10.5246C309.689 10.263 309.018 10.1282 308.341 10.1282C307.663 10.1282 306.992 10.263 306.368 10.5246Z" fill="#F5F5F5"/>
<path d="M341.559 36.1663C341.597 36.3412 341.614 36.5201 341.61 36.699C341.61 37.0965 341.652 37.6039 341.677 38.2298C341.703 38.8556 341.745 39.7097 341.677 40.6569C341.61 41.6041 341.677 42.6866 341.525 43.8705C341.372 45.0545 341.33 46.4076 341.083 47.7523C340.973 48.4458 340.888 49.1646 340.744 49.9004C340.6 50.6361 340.422 51.3803 340.26 52.1499C339.478 55.4889 338.384 58.7477 336.993 61.8839C335.564 65.0046 333.86 67.9931 331.902 70.8144C330.96 72.0829 330.086 73.3515 329.152 74.3579C328.694 74.8906 328.304 75.4319 327.837 75.9055L326.547 77.267C325.741 78.1127 324.918 78.857 324.231 79.5166C323.543 80.1762 322.915 80.6921 322.398 81.1065L321.286 82.0706C321.154 82.1909 321.009 82.2959 320.853 82.3835C320.966 82.2431 321.094 82.1155 321.235 82.0029L322.381 80.9797C322.881 80.5483 323.492 80.0071 324.154 79.2883C324.816 78.5694 325.631 77.9098 326.411 77.0133L327.676 75.6349C328.109 75.1613 328.524 74.62 328.966 74.0872C329.882 73.0301 330.731 71.8039 331.656 70.5353C333.577 67.7269 335.252 64.7588 336.662 61.664C338.037 58.5508 339.131 55.3215 339.929 52.0146L340.43 49.7819C340.583 49.0547 340.676 48.3358 340.795 47.6508C341.05 46.2808 341.151 44.9869 341.279 43.8029C341.406 42.6189 341.423 41.5533 341.491 40.6062C341.559 39.659 341.55 38.8556 341.55 38.1875C341.55 37.5194 341.55 37.0542 341.55 36.6568C341.536 36.4934 341.539 36.329 341.559 36.1663Z" fill="#E0E0E0"/>
<path d="M306.232 61.3173L290.016 48.4712L294.513 42.8304L305.392 51.448L321.277 33.7307L326.666 38.5343L306.232 61.3173Z" fill="white"/>
<path d="M382.843 73.4363H379.771V56.7846C379.771 54.9005 379.02 53.0936 377.683 51.7614C376.346 50.4292 374.533 49.6807 372.643 49.6807C370.752 49.6807 368.939 50.4292 367.602 51.7614C366.265 53.0936 365.515 54.9005 365.515 56.7846V73.4363H362.443V56.7846C362.443 54.0931 363.515 51.5118 365.425 49.6086C367.335 47.7054 369.925 46.6362 372.626 46.6362C375.326 46.6362 377.916 47.7054 379.826 49.6086C381.736 51.5118 382.809 54.0931 382.809 56.7846L382.843 73.4363Z" fill="#EBEBEB"/>
<path d="M383.767 62.1372H361.509C360.065 62.1372 358.895 63.3034 358.895 64.7419V81.0047C358.895 82.4432 360.065 83.6094 361.509 83.6094H383.767C385.211 83.6094 386.381 82.4432 386.381 81.0047V64.7419C386.381 63.3034 385.211 62.1372 383.767 62.1372Z" fill="#EBEBEB"/>
<path d="M374.747 73.4275C375.02 73.1509 375.236 72.8232 375.381 72.4633C375.527 72.1033 375.6 71.7182 375.595 71.3301C375.6 70.7675 375.446 70.2148 375.151 69.7346C374.857 69.2544 374.434 68.8657 373.93 68.6124C373.425 68.3592 372.86 68.2513 372.298 68.3012C371.735 68.351 371.198 68.5565 370.747 68.8944C370.295 69.2324 369.948 69.6893 369.743 70.2137C369.538 70.7382 369.484 71.3092 369.588 71.8623C369.692 72.4155 369.948 72.9288 370.329 73.3443C370.71 73.7599 371.199 74.0611 371.743 74.214L371.098 77.0724H373.975L373.398 74.214C373.9 74.071 374.356 73.7999 374.721 73.4275" fill="#FAFAFA"/>
<path d="M33.98 316.472C30.6843 314.417 26.96 313.141 23.0927 312.742C21.3107 312.556 19.3674 312.607 17.9418 313.681C17.7763 313.775 17.6393 313.912 17.5452 314.077C17.4511 314.243 17.4034 314.43 17.4072 314.62C17.4941 314.888 17.6748 315.116 17.9163 315.263C20.228 316.906 22.9471 317.888 25.7788 318.101C28.6106 318.314 31.4468 317.751 33.98 316.472Z" fill="#E0E0E0"/>
<path d="M33.7 316.167C31.1792 314.321 28.8254 312.258 26.6652 310.002C24.5006 307.73 22.9807 304.925 22.261 301.875C22.1177 301.423 22.0746 300.946 22.1347 300.476C22.1947 300.005 22.3566 299.554 22.609 299.152C28.2096 303.516 32.6138 309.165 33.7 316.167Z" fill="#E0E0E0"/>
<path d="M33.9206 316.43C33.4041 313.377 33.4501 310.256 34.0563 307.22C34.6795 304.159 36.4329 301.443 38.9696 299.609C39.937 301.867 39.5212 304.471 38.8424 306.822C37.7873 310.476 36.139 313.933 33.963 317.055" fill="#E0E0E0"/>
<path d="M39.4195 326.248C36.1211 326.78 33.0698 328.319 30.6876 330.654C28.182 332.923 26.437 335.905 25.6894 339.196C28.965 338.993 31.7398 336.659 33.751 334.121C35.7621 331.584 37.1453 328.717 39.3771 326.307" fill="#E0E0E0"/>
<path d="M40.6159 327.813C39.3022 324.491 38.8416 320.894 39.2758 317.35C39.7099 313.806 41.0252 310.426 43.1023 307.516C45.0031 314.282 44.2988 321.893 40.6159 327.813Z" fill="#E0E0E0"/>
<path d="M47.8713 336.43C44.8216 336.246 41.7848 336.958 39.1374 338.478C36.4901 339.998 34.3486 342.259 32.9786 344.98C32.8004 345.344 32.6307 345.826 32.8852 346.139C33.0128 346.264 33.1695 346.356 33.3412 346.406C33.5129 346.456 33.6944 346.463 33.8696 346.426C36.8057 346.24 39.4024 344.481 41.5493 342.477C43.6962 340.473 45.5716 338.156 47.9392 336.422" fill="#E0E0E0"/>
<path d="M47.6424 335.973C46.0788 330.957 45.9817 325.6 47.3623 320.531C47.9139 318.544 48.8304 316.455 50.6718 315.525C50.7456 315.475 50.829 315.441 50.9166 315.425C51.0043 315.409 51.0943 315.411 51.181 315.431C51.3299 315.51 51.4424 315.644 51.495 315.804C52.1174 317.191 52.3856 318.711 52.2757 320.227C52.1668 321.74 51.9341 323.242 51.5798 324.717C51.0028 327.457 50.7312 330.4 49.1783 332.768C48.8238 333.338 48.5036 333.928 48.2194 334.536C47.9394 335.136 47.9394 335.381 47.6763 335.821" fill="#E0E0E0"/>
<path d="M66.8627 338.815C66.2166 335.996 66.1954 333.071 66.8007 330.243C67.4061 327.415 68.6232 324.753 70.3673 322.442C70.6134 322.113 70.9444 321.766 71.3602 321.8C71.9881 321.859 72.1494 322.696 72.1239 323.322C71.8636 328.873 70.0403 334.24 66.8627 338.807" fill="#E0E0E0"/>
<path d="M68.5938 339.999C71.9566 340.79 75.4514 340.844 78.8372 340.158C82.223 339.472 85.419 338.061 88.2047 336.024C84.9235 334.38 81.171 333.922 77.5889 334.73C74.0418 335.576 70.8002 337.115 68.5938 339.999Z" fill="#E0E0E0"/>
<path d="M70.0534 336.405C73.7448 330.417 80.8135 326.51 87.8737 326.147C87.0252 329.005 84.7085 331.221 82.0524 332.566C79.3297 333.783 76.4512 334.62 73.4987 335.052C72.3616 335.272 70.8002 335.517 70.1043 336.405" fill="#E0E0E0"/>
<path d="M67.2277 318.958C68.347 315.585 69.1092 312.104 69.5019 308.573C69.8963 305.019 69.1727 301.432 67.4313 298.306C63.986 304.945 63.6381 312.683 67.1258 319.322" fill="#E0E0E0"/>
<path d="M78.8193 313.14C82.8501 305.85 91.0644 300.023 99.3721 299.203C96.1644 307.161 87.424 313.309 78.8193 313.14Z" fill="#E0E0E0"/>
<path d="M76.2906 314.552C82.2901 315.465 87.4071 319.288 93.0163 321.605C94.1942 322.167 95.4982 322.415 96.8009 322.324C97.4062 322.316 97.9944 322.124 98.4866 321.773C98.9787 321.422 99.3511 320.929 99.5536 320.36C99.756 319.792 99.7788 319.175 99.619 318.593C99.4591 318.011 99.1242 317.492 98.6594 317.106C97.8654 316.365 96.9305 315.79 95.9099 315.415C89.8001 312.878 83.2405 312.818 76.8083 314.358" fill="#E0E0E0"/>
<path d="M72.8114 318.747C74.1691 319.136 74.6358 319.838 75.7135 320.751C79.3951 323.869 83.7523 326.092 88.4423 327.246C88.926 327.365 89.5625 327.415 89.8086 326.984C90.0546 326.553 89.7492 326.138 89.4776 325.8C87.4465 323.418 84.8079 321.627 81.8403 320.616C78.9127 319.525 76.3754 318.214 72.8793 318.502" fill="#E0E0E0"/>
<path d="M68.8908 293.401C71.3537 295.664 74.2643 297.388 77.4356 298.463C80.6069 299.538 83.9688 299.94 87.3052 299.643C87.6151 299.652 87.9176 299.547 88.1537 299.347C88.6205 298.839 88.0604 298.061 87.5258 297.655C82.1118 293.427 75.5522 291.735 68.9078 293.427" fill="#E0E0E0"/>
<path d="M73.5411 291.702C76.8006 289.313 80.5806 287.726 84.5728 287.07C88.565 286.415 92.6562 286.709 96.5123 287.93C93.5056 290.704 89.65 292.39 85.5656 292.716C81.5287 293.086 77.4581 292.743 73.5411 291.702Z" fill="#E0E0E0"/>
<path d="M71.6913 280.057C71.1652 274.669 71.5046 270.424 71.1312 265.012C71.1312 264.58 71.0124 264.064 70.6051 263.904C70.0365 263.692 69.5698 264.377 69.3831 264.952C68.5955 267.46 68.3933 270.113 68.7919 272.711C69.1904 275.308 70.1792 277.78 71.6828 279.938" fill="#E0E0E0"/>
<path d="M71.3009 280.648C74.8449 278.383 77.9 275.436 80.2874 271.98C82.0525 269.57 83.546 266.686 83.1471 263.726C81.9022 263.759 80.6795 264.062 79.5641 264.614C78.4488 265.166 77.4678 265.954 76.6894 266.923C75.1482 268.872 74.0273 271.118 73.3969 273.519C72.6841 275.887 72.1834 278.323 71.3348 280.648" fill="#E0E0E0"/>
<path d="M80.1006 278.212C88.1704 275.245 95.6424 270.863 102.164 265.273C99.5333 264.216 96.5208 264.85 93.8902 265.908C87.9181 268.162 82.9841 272.522 80.0243 278.162" fill="#E0E0E0"/>
<path d="M73.7787 283.6C77.8331 284.173 81.947 284.193 86.0068 283.659C89.9697 282.999 93.7204 281.426 97.4203 279.879C97.744 279.782 98.0215 279.572 98.201 279.287C98.2568 279.115 98.26 278.931 98.2101 278.758C98.1602 278.584 98.0595 278.43 97.9209 278.314C97.6344 278.09 97.3008 277.934 96.9451 277.857C92.9143 276.741 88.5695 277.265 84.6066 278.593C80.8322 279.882 77.2031 281.56 73.7787 283.6Z" fill="#E0E0E0"/>
<path d="M50.5869 293.587C47.812 288.006 48.0411 281.494 50.3917 275.743C52.0889 278.28 52.2841 281.561 51.9786 284.614C51.6731 287.667 50.7396 290.796 50.6717 293.858" fill="#E0E0E0"/>
<path d="M39.4789 288.014C36.0066 287.968 32.5629 288.645 29.3685 290.003C26.1742 291.36 23.2995 293.367 20.9288 295.896C24.4357 296.315 27.9876 295.661 31.1118 294.019C34.2048 292.382 37.1221 290.435 39.8183 288.209" fill="#E0E0E0"/>
<path d="M32.0283 285.528C28.634 285.257 25.3839 284.843 22.1253 285.832C20.4812 286.294 18.9563 287.103 17.6544 288.205C16.3525 289.307 15.3044 290.675 14.5814 292.217C17.7774 292.473 20.9835 291.868 23.8649 290.467C26.7293 289.068 29.4614 287.415 32.0283 285.528Z" fill="#E0E0E0"/>
<path d="M43.0599 285.647C40.0135 283.659 36.8822 281.63 33.3351 280.801C29.788 279.972 25.6978 280.589 23.203 283.253C26.0712 284.945 29.5589 285.131 32.8938 285.131C36.2288 285.131 40.302 285.088 43.4418 286.196" fill="#E0E0E0"/>
<path d="M43.077 285.807C37.8666 280.733 35.8979 271.548 37.9854 264.58C42.0968 270.855 43.8963 278.357 43.077 285.807Z" fill="#E0E0E0"/>
<path d="M57.3755 271.363C58.3598 269.079 59.0726 266.694 59.9212 264.377C60.7246 262.026 61.959 259.844 63.5617 257.941C65.1853 256.013 67.5047 254.798 70.0194 254.559C69.2162 258.071 67.6876 261.379 65.5312 264.271C63.3748 267.162 60.6377 269.575 57.4943 271.354" fill="#E0E0E0"/>
<path d="M54.8298 274.374C53.209 272.141 51.3251 269.113 49.1188 267.447C46.9125 265.781 44.0273 264.775 41.3542 265.409C42.7482 267.843 44.6916 269.92 47.0305 271.476C49.3694 273.032 52.0396 274.024 54.8298 274.374Z" fill="#E0E0E0"/>
<path d="M55.3305 271.549C54.1755 268.886 53.3216 266.103 52.7848 263.252C52.2515 260.367 52.712 257.387 54.0916 254.795C56.9513 260.182 57.8763 265.967 55.5087 271.591" fill="#E0E0E0"/>
<path d="M57.435 254.787C59.0558 249.451 63.9607 245.484 69.2643 243.708C69.9193 243.44 70.6301 243.336 71.3349 243.404C71.6871 243.44 72.0206 243.58 72.2926 243.806C72.5647 244.032 72.763 244.334 72.8623 244.672C73.0575 245.577 72.3023 246.364 71.5895 246.998C67.4498 250.524 62.6341 253.173 57.435 254.787Z" fill="#E0E0E0"/>
<path d="M57.4944 250.448C57.698 246.998 57.9102 243.505 59.0388 240.241C60.1674 236.977 62.3313 233.924 65.4796 232.494C66.0142 235.97 64.4782 239.429 62.6198 242.423C60.7614 245.417 58.5212 248.241 57.4095 251.582" fill="#E0E0E0"/>
<path d="M57.3756 252.816C56.0348 248.926 55.899 243.979 53.5569 240.588C51.9192 238.22 49.314 236.604 47.8969 234.093C47.0459 236.501 47.1645 239.144 48.2278 241.467C49.2917 243.765 50.7571 245.855 52.5556 247.641C54.2528 249.484 55.7633 250.871 57.3756 252.816Z" fill="#E0E0E0"/>
<path d="M57.435 367.45C57.3332 367.45 57.2399 341.487 57.2314 309.461C57.2229 277.434 57.3078 251.463 57.4096 251.463C57.5114 251.463 57.6048 277.418 57.6133 309.461C57.6217 341.504 57.5369 367.45 57.435 367.45Z" fill="#E0E0E0"/>
<path d="M80.2027 289.664C79.8913 289.821 79.5642 289.946 79.2268 290.036L76.5283 290.941C74.2541 291.71 71.1313 292.826 67.7454 294.213C64.3596 295.6 61.2198 296.81 59.4208 298.366C58.6918 298.961 58.1109 299.717 57.7236 300.573C57.4606 301.182 57.4181 301.554 57.3842 301.554C57.3503 301.554 57.3842 301.453 57.3842 301.275C57.4273 301.019 57.4926 300.767 57.5794 300.522C57.9192 299.617 58.479 298.809 59.2087 298.171C60.2971 297.254 61.5152 296.502 62.8236 295.939C64.2662 295.262 65.8701 294.56 67.5672 293.867C70.9616 292.48 74.1098 291.397 76.4095 290.687C77.5636 290.332 78.497 290.07 79.1504 289.892C79.4932 289.783 79.8455 289.707 80.2027 289.664Z" fill="#E0E0E0"/>
<path d="M87.6701 271.396C87.5904 271.504 87.4962 271.601 87.39 271.684L86.5414 272.47L83.4186 275.295L73.0319 284.513C68.9757 288.116 65.471 291.549 63.0441 294.137C61.8221 295.431 60.8632 296.505 60.2098 297.249L59.4546 298.095C59.3757 298.201 59.2813 298.295 59.1745 298.374C59.2378 298.256 59.3147 298.145 59.4036 298.044C59.5564 297.833 59.7855 297.52 60.0995 297.139C60.719 296.361 61.6524 295.262 62.8489 293.942C65.9833 290.528 69.2975 287.281 72.7774 284.217C76.8506 280.631 80.5504 277.401 83.2404 275.083C84.5642 273.95 85.6504 273.028 86.4396 272.343L87.2882 271.616C87.4048 271.526 87.5333 271.452 87.6701 271.396Z" fill="#E0E0E0"/>
<path d="M68.6702 288.175C68.5599 288.124 69.4085 286.179 70.2571 283.71C71.1056 281.24 71.5045 279.168 71.6148 279.185C71.5268 280.776 71.1889 282.342 70.6135 283.828C70.249 284.882 69.8269 285.916 69.3491 286.924C69.1786 287.368 68.9504 287.789 68.6702 288.175Z" fill="#E0E0E0"/>
<path d="M57.4604 303.888C57.2226 303.675 57.0117 303.433 56.8325 303.169L55.2287 301.123C53.8879 299.389 52.0295 296.996 49.942 294.357C47.8545 291.718 45.9451 289.393 44.5535 287.693L42.9496 285.697C42.7349 285.46 42.5445 285.202 42.3811 284.927C42.6288 285.131 42.8562 285.357 43.0599 285.604C43.4757 286.052 44.0698 286.72 44.7571 287.549C46.1997 289.241 48.1515 291.524 50.239 294.146C52.3265 296.767 54.151 299.22 55.4408 300.962C56.0942 301.808 56.6034 302.577 56.9513 303.085C57.148 303.334 57.3186 303.604 57.4604 303.888Z" fill="#E0E0E0"/>
<path d="M52.4623 297.503C51.4561 296.394 50.7392 295.055 50.3747 293.604C49.9777 292.33 49.8167 290.995 49.8995 289.664H50.0692C50.046 289.825 49.9913 289.98 49.908 290.12C49.908 290.12 49.908 289.943 49.908 289.638H50.0777C50.157 290.935 50.379 292.22 50.7396 293.469C51.2155 294.853 51.7912 296.202 52.4623 297.503Z" fill="#E0E0E0"/>
<path d="M46.0215 289.461C45.57 289.122 45.0801 288.838 44.5619 288.615C43.2484 288.22 41.8652 288.11 40.5056 288.293C39.1288 288.393 37.7632 288.611 36.4239 288.945C35.8674 289.116 35.3005 289.251 34.7268 289.351C35.2223 289.046 35.7638 288.823 36.3306 288.691C37.6741 288.277 39.0606 288.016 40.4632 287.913C41.8708 287.727 43.3027 287.88 44.6383 288.361C45.2132 288.557 45.7021 288.945 46.0215 289.461Z" fill="#E0E0E0"/>
<path d="M44.494 287.465C44.494 287.524 43.6454 287.126 42.2538 286.619C38.6272 285.389 34.7464 285.098 30.976 285.773C29.5334 286.027 28.6679 286.297 28.6424 286.238C28.8249 286.121 29.0257 286.036 29.2364 285.985C29.7914 285.791 30.3583 285.632 30.9336 285.511C32.8299 285.096 34.7766 284.96 36.7125 285.105C38.6449 285.255 40.5455 285.683 42.3556 286.374C42.9022 286.582 43.435 286.825 43.9509 287.101C44.1496 287.194 44.3328 287.316 44.494 287.465Z" fill="#E0E0E0"/>
<path d="M57.3755 279.185C56.7111 277.339 56.1669 275.452 55.7462 273.536C55.198 271.652 54.7729 269.733 54.4734 267.794C55.1384 269.641 55.6854 271.528 56.1111 273.443C56.6543 275.329 57.0766 277.247 57.3755 279.185Z" fill="#E0E0E0"/>
<path d="M57.5115 279.185C56.9898 278.017 56.3858 276.886 55.704 275.803C54.9398 274.777 54.044 273.856 53.0394 273.062C53.4182 273.159 53.7695 273.341 54.0662 273.595C54.8225 274.143 55.4796 274.815 56.0095 275.583C56.8202 276.631 57.3384 277.873 57.5115 279.185Z" fill="#E0E0E0"/>
<path d="M57.435 353.606C57.435 353.606 57.3162 352.98 57.0192 351.915C56.6031 350.363 56.0347 348.856 55.322 347.416C52.813 342.719 49.7102 338.362 46.0894 334.451C44.0273 332.1 42.0246 329.884 40.3275 327.762C38.7997 325.899 37.4208 323.919 36.2033 321.842C35.3845 320.438 34.6889 318.967 34.1243 317.444C33.9291 316.903 33.7933 316.48 33.717 316.193C33.6673 316.047 33.6304 315.897 33.6067 315.744C33.6067 315.744 33.8273 316.336 34.2601 317.394C34.8766 318.883 35.6028 320.324 36.4324 321.707C37.6759 323.751 39.0655 325.704 40.5905 327.55C42.2877 329.648 44.3073 331.846 46.3694 334.197C50.0166 338.132 53.111 342.542 55.5681 347.306C56.2773 348.768 56.8264 350.302 57.2058 351.881C57.3063 352.311 57.3828 352.745 57.435 353.183C57.448 353.324 57.448 353.466 57.435 353.606Z" fill="#E0E0E0"/>
<path d="M78.0132 330.451C77.6645 330.67 77.3048 330.87 76.9355 331.052C75.9576 331.597 75.0216 332.213 74.1351 332.895C72.8218 333.908 71.593 335.025 70.4608 336.236C69.1709 337.589 67.8471 339.162 66.4894 340.853C63.7824 344.236 61.2451 347.247 59.7007 349.64C58.9285 350.824 58.3684 351.822 58.0035 352.524C57.8291 352.897 57.6307 353.259 57.4095 353.607C57.4095 353.607 57.4095 353.497 57.5113 353.302C57.6132 353.108 57.698 352.82 57.8678 352.456C58.3493 351.44 58.8935 350.454 59.497 349.505C61.5583 346.421 63.7937 343.456 66.1924 340.625C67.5501 338.934 68.8994 337.361 70.2147 335.999C71.372 334.793 72.6296 333.687 73.9739 332.692C74.8909 332.009 75.8679 331.408 76.8931 330.9C77.1683 330.759 77.4516 330.635 77.7416 330.527C77.917 330.46 78.0075 330.434 78.0132 330.451Z" fill="#E0E0E0"/>
<path d="M78.412 337.961C77.66 338.126 76.8972 338.236 76.1293 338.291C74.2981 338.478 72.4885 338.835 70.7238 339.356C68.9784 339.922 67.3425 340.78 65.8869 341.894C64.7752 342.739 64.2491 343.458 64.1897 343.424C64.1303 343.39 64.2745 343.213 64.5206 342.9C64.8751 342.458 65.2731 342.053 65.7087 341.691C67.1524 340.489 68.8148 339.576 70.605 339.001C72.3917 338.47 74.2341 338.147 76.0954 338.037C76.8636 337.941 77.6391 337.916 78.412 337.961Z" fill="#E0E0E0"/>
<path d="M64.86 342.587C64.7412 342.52 65.768 340.955 66.5572 338.849C67.3464 336.743 67.4821 334.866 67.6094 334.891C67.6819 335.294 67.6819 335.706 67.6094 336.109C67.4937 337.089 67.2717 338.053 66.9475 338.985C66.5985 339.904 66.1549 340.786 65.6237 341.615C65.4264 341.98 65.1681 342.309 64.86 342.587Z" fill="#E0E0E0"/>
<path d="M84.6746 310.273C84.564 310.356 84.4409 310.422 84.3097 310.467L83.2405 310.949C82.7653 311.152 82.1968 311.406 81.5434 311.744C80.8899 312.083 80.1432 312.421 79.3625 312.886L78.1235 313.588C77.6908 313.842 77.275 314.129 76.8082 314.434C75.8918 314.983 74.9753 315.668 73.9909 316.362C71.911 317.935 69.9485 319.656 68.1187 321.512C66.3231 323.389 64.6695 325.396 63.1715 327.516C62.5011 328.523 61.8477 329.462 61.3215 330.392C61.0585 330.848 60.7785 331.288 60.5408 331.728L59.9214 332.997C59.4801 333.792 59.1661 334.553 58.8522 335.204C58.5382 335.855 58.3006 336.43 58.1139 336.895C57.9272 337.36 57.7829 337.69 57.6641 337.978C57.6176 338.107 57.5579 338.232 57.4859 338.35C57.5021 338.212 57.5393 338.078 57.5963 337.952L57.9781 336.844C58.1478 336.362 58.36 335.77 58.657 335.111C58.954 334.451 59.251 333.673 59.6838 332.87C59.8874 332.455 60.1081 332.024 60.3287 331.584C60.5493 331.144 60.8294 330.739 61.1009 330.231C61.6185 329.284 62.2635 328.337 62.9254 327.322C65.904 322.981 69.5962 319.173 73.8467 316.057C74.8395 315.364 75.773 314.687 76.6979 314.146C77.1646 313.867 77.5974 313.571 78.0302 313.3L79.2946 312.607C80.0923 312.159 80.856 311.829 81.5094 311.516C82.0618 311.241 82.6283 310.996 83.2066 310.78L84.3097 310.357C84.4283 310.317 84.5505 310.289 84.6746 310.273Z" fill="#E0E0E0"/>
<path d="M68.4072 321.148C68.5416 320.627 68.8388 320.162 69.2558 319.821C70.2596 318.95 71.5402 318.462 72.8708 318.442C74.1714 318.436 75.4605 318.686 76.6639 319.178C77.1722 319.341 77.6549 319.575 78.0981 319.871C77.5786 319.774 77.0699 319.627 76.5791 319.432C75.389 319.022 74.1384 318.813 72.8792 318.814C71.6308 318.841 70.4236 319.265 69.434 320.024C69.0624 320.371 68.719 320.747 68.4072 321.148Z" fill="#E0E0E0"/>
<path d="M65.9548 323.652C66.4379 322.592 66.7829 321.475 66.9816 320.328C67.0503 319.167 66.9733 318.002 66.7525 316.861C66.9708 317.146 67.1164 317.48 67.1768 317.833C67.6156 319.505 67.4066 321.281 66.5912 322.806C66.2688 323.381 65.9887 323.677 65.9548 323.652Z" fill="#E0E0E0"/>
<path d="M39.4365 357.327C39.9966 367.256 43.0006 377.345 47.6169 387.553H67.6859C72.0901 377.446 74.8819 367.374 75.3741 357.327H39.4365Z" fill="#E0E0E0"/>
<path d="M72.1239 373.387C72.1239 373.489 65.5134 373.573 57.367 373.573C49.2206 373.573 42.6101 373.489 42.6101 373.387C42.6101 373.286 49.2121 373.184 57.3755 373.184C65.5389 373.184 72.1239 373.286 72.1239 373.387Z" fill="#FAFAFA"/>
<path d="M71.6741 376.981C71.6741 377.083 65.4794 377.168 57.8421 377.168C50.2048 377.168 44.0017 377.083 44.0017 376.981C44.0017 376.88 50.1964 376.795 57.8421 376.795C65.4879 376.795 71.6741 376.88 71.6741 376.981Z" fill="#FAFAFA"/>
<path d="M47.9393 363.882C48.1883 366.947 48.1883 370.027 47.9393 373.091C47.6904 370.027 47.6904 366.947 47.9393 363.882Z" fill="#FAFAFA"/>
<path d="M58.6908 363.882C58.9398 367.057 58.9398 370.246 58.6908 373.421C58.4419 370.246 58.4419 367.057 58.6908 363.882Z" fill="#FAFAFA"/>
<path d="M68.789 363.763C69.0379 367.003 69.0379 370.257 68.789 373.497C68.54 370.257 68.54 367.003 68.789 363.763Z" fill="#FAFAFA"/>
<path d="M74.7378 363.882C74.7378 363.983 66.9902 364.068 57.4351 364.068C47.88 364.068 40.1154 363.983 40.1154 363.882C40.1154 363.78 47.8715 363.696 57.4351 363.696C66.9987 363.696 74.7378 363.738 74.7378 363.882Z" fill="#FAFAFA"/>
<path d="M386.109 271.303C387.946 270.495 389.504 269.167 390.592 267.485C391.679 265.803 392.248 263.841 392.228 261.84C392.228 256.191 387.985 251.59 382.647 251.573C377.31 251.556 372.999 256.106 372.982 261.721C372.943 263.738 373.505 265.721 374.595 267.42C375.685 269.119 377.256 270.458 379.109 271.269C364.301 273.493 364.971 289.528 364.971 289.528L399.992 289.689C399.992 289.689 400.79 273.51 386.109 271.303Z" fill="#EBEBEB"/>
<path d="M228.68 38.1282C229.97 37.8758 231.158 37.2555 232.101 36.3427C233.044 35.43 233.701 34.264 233.992 32.9864C234.233 32.1665 234.305 31.3062 234.202 30.458C234.099 29.6097 233.823 28.7913 233.392 28.0526C232.961 27.3138 232.384 26.6703 231.695 26.1612C231.007 25.6522 230.221 25.2882 229.387 25.0915C228.553 24.8949 227.687 24.8696 226.842 25.0173C225.998 25.1651 225.193 25.4827 224.475 25.9507C223.758 26.4188 223.144 27.0276 222.67 27.74C222.197 28.4523 221.874 29.2533 221.721 30.0941C221.395 31.3763 221.458 32.7263 221.902 33.9728C222.346 35.2194 223.151 36.3066 224.216 37.0965C214.432 36.3269 212.489 46.6613 212.489 46.6613L234.807 51.93C234.807 51.93 237.726 41.6717 228.68 38.1282Z" fill="#EBEBEB"/>
<path d="M387.068 124.22C388.138 123.553 388.989 122.588 389.514 121.444C390.039 120.3 390.215 119.027 390.021 117.784C389.958 116.961 389.725 116.16 389.339 115.43C388.952 114.701 388.419 114.057 387.774 113.541C387.128 113.024 386.382 112.645 385.584 112.426C384.785 112.208 383.95 112.155 383.13 112.271C382.31 112.387 381.523 112.669 380.817 113.1C380.11 113.531 379.5 114.102 379.024 114.777C378.548 115.452 378.215 116.217 378.047 117.025C377.879 117.834 377.88 118.668 378.048 119.476C378.204 120.734 378.732 121.918 379.565 122.877C380.397 123.836 381.496 124.527 382.724 124.863C373.72 127.577 375.578 137.489 375.578 137.489L397.37 134.453C397.37 134.453 396.394 124.279 387.068 124.22Z" fill="#F5F5F5"/>
<path d="M37.4168 127.29L25.6469 117.962L28.9055 113.869L36.8059 120.118L48.3297 107.272L52.2416 110.756L37.4168 127.29Z" fill="#F5F5F5"/>
<path d="M393.976 387.849C393.976 387.976 308.99 388.069 204.19 388.069C99.3891 388.069 14.3862 387.976 14.3862 387.849C14.3862 387.722 99.3467 387.629 204.19 387.629C309.032 387.629 393.976 387.73 393.976 387.849Z" fill="#263238"/>
<path d="M53.472 140.796L27.4459 153.811C26.5017 154.221 25.6987 154.897 25.1362 155.757C24.5737 156.617 24.2762 157.622 24.2807 158.648V170.784C24.2508 181.823 27.476 192.627 33.5557 201.855C38.2484 208.976 44.4685 218.075 54.8128 223.276H59.48C71.0038 219.775 79.6 210.447 84.8528 202.464C90.935 193.237 94.1631 182.433 94.1363 171.393V158.648C94.135 157.618 93.8304 156.61 93.2602 155.75C92.6901 154.891 91.8794 154.216 90.9286 153.811L61.2366 141.219C59.9213 140.66 54.8298 140.238 53.472 140.796Z" fill="#89B1FF"/>
<path opacity="0.3" d="M53.472 140.796L27.4459 153.811C26.5017 154.221 25.6987 154.897 25.1362 155.757C24.5737 156.617 24.2762 157.622 24.2807 158.648V170.784C24.2508 181.823 27.476 192.627 33.5557 201.855C38.2484 208.976 44.4685 218.075 54.8128 223.276H59.48C71.0038 219.775 79.6 210.447 84.8528 202.464C90.935 193.237 94.1631 182.433 94.1363 171.393V158.648C94.135 157.618 93.8304 156.61 93.2602 155.75C92.6901 154.891 91.8794 154.216 90.9286 153.811L61.2366 141.219C59.9213 140.66 54.8298 140.238 53.472 140.796Z" fill="black"/>
<path d="M52.4283 141.219L22.7702 153.811C21.8195 154.216 21.0088 154.891 20.4387 155.75C19.8685 156.61 19.5639 157.618 19.5626 158.648V170.784C19.5633 182.023 22.9088 193.01 29.1759 202.353C35.443 211.697 44.3501 218.979 54.7704 223.276C66.2858 219.775 74.8819 210.447 80.1432 202.464C86.2254 193.237 89.4536 182.433 89.4267 171.393V158.648C89.4261 157.619 89.1227 156.612 88.5542 155.752C87.9856 154.892 87.1767 154.218 86.2275 153.811L56.527 141.219C55.8781 140.947 55.1814 140.807 54.4777 140.807C53.7739 140.807 53.0772 140.947 52.4283 141.219Z" fill="#89B1FF"/>
<path opacity="0.3" d="M61.5321 196.262C71.5425 192.393 76.5099 181.169 72.6271 171.192C68.7444 161.216 57.4817 156.266 47.4713 160.135C37.4609 164.005 32.4935 175.229 36.3763 185.205C40.2591 195.182 51.5217 200.132 61.5321 196.262Z" fill="black"/>
<path d="M54.4903 179.275C58.9473 179.275 62.5604 175.674 62.5604 171.232C62.5604 166.79 58.9473 163.19 54.4903 163.19C50.0333 163.19 46.4203 166.79 46.4203 171.232C46.4203 175.674 50.0333 179.275 54.4903 179.275Z" fill="white"/>
<path d="M39.7589 190.827C41.0567 188.121 43.105 185.842 45.6614 184.259C48.2179 182.677 51.1756 181.857 54.1848 181.896C57.2706 181.897 60.2991 182.727 62.9513 184.298C65.6036 185.87 67.7816 188.125 69.2557 190.827C69.2557 190.827 64.4952 197.846 53.9812 197.592C51.2563 197.582 48.5677 196.969 46.1087 195.799C43.6496 194.63 41.481 192.931 39.7589 190.827Z" fill="white"/>
<path d="M73.9314 178.201C73.9217 178.097 73.9217 177.992 73.9314 177.888C73.9314 177.659 73.9314 177.355 73.8551 176.974C73.8551 176.771 73.8551 176.543 73.8551 176.298C73.8551 176.053 73.7702 175.782 73.7278 175.452C73.6393 174.781 73.5032 174.117 73.3204 173.465C72.8591 171.659 72.1298 169.931 71.1566 168.34C69.8801 166.228 68.2094 164.379 66.2348 162.894C63.8493 161.086 61.0701 159.863 58.1223 159.325C54.738 158.704 51.2487 158.996 48.0156 160.17C47.1407 160.473 46.2897 160.841 45.4698 161.27C44.65 161.718 43.8618 162.22 43.1108 162.775C42.3469 163.348 41.6186 163.966 40.9299 164.627C40.2549 165.325 39.6256 166.065 39.046 166.843C37.8581 168.446 36.9329 170.228 36.3051 172.12C34.9812 176.043 34.9812 180.29 36.3051 184.214C36.9292 186.108 37.8546 187.889 39.046 189.491C39.6256 190.272 40.2548 191.014 40.9299 191.715C41.6165 192.375 42.3449 192.991 43.1108 193.558C44.584 194.678 46.2249 195.56 47.9732 196.172C51.2062 197.346 54.6955 197.638 58.0798 197.017C60.7676 196.513 63.3182 195.449 65.5644 193.893C67.8106 192.338 69.7018 190.328 71.1141 187.994C72.0765 186.413 72.7945 184.697 73.2441 182.903C73.4261 182.248 73.5622 181.581 73.6514 180.907C73.6514 180.619 73.7532 180.349 73.7787 180.061C73.8041 179.774 73.7787 179.588 73.7787 179.385L73.8551 178.463C73.8464 178.359 73.8464 178.254 73.8551 178.15C73.8642 178.254 73.8642 178.359 73.8551 178.463C73.8551 178.7 73.8551 179.004 73.8551 179.393C73.8551 179.596 73.8551 179.824 73.8551 180.07C73.8551 180.315 73.7872 180.594 73.7447 180.915C73.6769 181.598 73.552 182.274 73.3714 182.937C72.9408 184.769 72.228 186.523 71.2584 188.138C68.9524 192.061 65.34 195.055 61.0489 196.6C56.7578 198.145 52.0592 198.143 47.7695 196.595C46.896 196.282 46.0454 195.909 45.2238 195.478C44.3884 195.01 43.5886 194.481 42.8307 193.897C42.0414 193.32 41.2929 192.69 40.5905 192.011C39.915 191.308 39.2857 190.562 38.7066 189.778C37.485 188.141 36.5339 186.319 35.8893 184.383C35.2449 182.384 34.9045 180.3 34.8795 178.201C34.9031 176.101 35.2464 174.016 35.8978 172.019C36.536 170.081 37.4845 168.259 38.7066 166.623C39.3032 165.828 39.9494 165.071 40.6414 164.357C41.3413 163.678 42.0869 163.048 42.8732 162.471C43.6256 161.899 44.4167 161.379 45.2407 160.915C46.0622 160.482 46.9128 160.106 47.7865 159.79C51.0864 158.598 54.6458 158.306 58.0968 158.944C60.8342 159.469 63.4276 160.57 65.7034 162.174C67.9791 163.779 69.8846 165.849 71.2923 168.247C72.2622 169.864 72.9749 171.622 73.4053 173.456C73.5859 174.116 73.7108 174.789 73.7787 175.469C73.7787 175.765 73.872 176.036 73.889 176.315V177C73.889 177.389 73.889 177.693 73.889 177.922C73.9109 178.013 73.9251 178.107 73.9314 178.201Z" fill="#263238"/>
<path d="M89.3248 168.103C89.3643 168.289 89.3843 168.479 89.3842 168.67C89.3842 169.076 89.3842 169.608 89.4521 170.276C89.52 170.945 89.52 171.824 89.4521 172.814C89.4521 173.313 89.4521 173.837 89.4521 174.403C89.4521 174.97 89.4521 175.562 89.3418 176.179C89.223 177.423 89.1381 178.793 88.875 180.247C88.7647 180.975 88.6714 181.727 88.5186 182.497C88.3659 183.266 88.1792 184.053 88.0095 184.865C87.1934 188.361 86.0572 191.775 84.6151 195.064C83.1249 198.336 81.3443 201.469 79.2945 204.426C78.3101 205.753 77.4021 207.039 76.4178 208.147C75.9426 208.705 75.5013 209.271 75.0346 209.77L73.6853 211.191C72.8368 212.13 71.9882 212.883 71.2584 213.551C70.6478 214.149 70.0047 214.714 69.3321 215.242L68.0762 216.257C67.9384 216.38 67.7876 216.488 67.6264 216.578C67.7471 216.437 67.8806 216.306 68.0253 216.189L69.2218 215.115C69.7564 214.659 70.3928 214.092 71.0887 213.424C71.7845 212.756 72.6331 211.969 73.4562 211.031L74.78 209.593C75.2383 209.094 75.6286 208.527 76.1378 207.969C77.0967 206.861 77.9877 205.576 78.9635 204.24C80.9778 201.295 82.7324 198.183 84.2078 194.937C85.6418 191.662 86.7779 188.266 87.6022 184.789L88.1283 182.438C88.281 181.676 88.3829 180.924 88.5101 180.205C88.7817 178.767 88.8835 177.406 89.0193 176.171C89.0957 175.554 89.1466 174.962 89.1636 174.403L89.2399 172.822C89.3163 171.833 89.2993 170.978 89.2993 170.285C89.2993 169.591 89.2993 169.092 89.2993 168.678C89.2933 168.486 89.3018 168.294 89.3248 168.103Z" fill="#263238"/>
<path d="M295.667 387.849H95.0104C93.6958 387.827 92.3984 387.547 91.1924 387.025C89.9865 386.503 88.8956 385.749 87.9822 384.806C87.0688 383.864 86.3507 382.751 85.8691 381.532C85.3875 380.312 85.1517 379.01 85.1753 377.7V72.0492C85.1517 70.7391 85.3875 69.4372 85.8691 68.2179C86.3507 66.9986 87.0688 65.8859 87.9822 64.9434C88.8956 64.0009 89.9865 63.2471 91.1924 62.725C92.3984 62.2029 93.6958 61.9229 95.0104 61.9009H295.667C296.981 61.9229 298.278 62.203 299.484 62.7252C300.689 63.2473 301.78 64.0013 302.692 64.9439C303.605 65.8866 304.322 66.9993 304.803 68.2186C305.284 69.4378 305.519 70.7395 305.494 72.0492V377.717C305.516 379.026 305.28 380.326 304.798 381.543C304.316 382.76 303.599 383.871 302.686 384.812C301.774 385.752 300.684 386.505 299.48 387.026C298.276 387.547 296.98 387.827 295.667 387.849Z" fill="#263238"/>
<path d="M199.183 373.024C199.215 374.87 198.695 376.684 197.689 378.235C196.683 379.786 195.236 381.003 193.534 381.732C191.831 382.461 189.949 382.668 188.128 382.328C186.307 381.987 184.629 381.114 183.307 379.82C181.985 378.525 181.08 376.868 180.707 375.059C180.333 373.251 180.509 371.372 181.21 369.663C181.912 367.953 183.108 366.491 184.646 365.462C186.184 364.432 187.995 363.882 189.848 363.882C192.302 363.862 194.664 364.813 196.414 366.527C198.165 368.242 199.16 370.578 199.183 373.024Z" fill="#455A64"/>
<path d="M217.911 79.1361H172.936C172.517 79.1295 172.103 79.0406 171.719 78.8747C171.334 78.7088 170.986 78.469 170.695 78.169C170.403 77.869 170.174 77.5147 170.02 77.1263C169.865 76.7379 169.79 76.3231 169.796 75.9055C169.783 75.0613 170.106 74.2462 170.694 73.639C171.283 73.0318 172.089 72.6821 172.936 72.6665H217.911C218.758 72.6821 219.564 73.0318 220.153 73.639C220.742 74.2462 221.065 75.0613 221.051 75.9055C221.058 76.3231 220.982 76.7379 220.828 77.1263C220.673 77.5147 220.444 77.869 220.152 78.169C219.861 78.469 219.513 78.7088 219.128 78.8747C218.744 79.0406 218.33 79.1295 217.911 79.1361Z" fill="#455A64"/>
<path d="M298.366 85.1658H91.9387V357.361H298.366V85.1658Z" fill="white"/>
<path d="M298.366 85.1658H289.557V357.361H298.366V85.1658Z" fill="#F5F5F5"/>
<path d="M293.953 182.962C293.225 182.96 292.528 182.67 292.014 182.157C291.501 181.643 291.212 180.947 291.212 180.222V120.017C291.212 119.292 291.501 118.596 292.014 118.083C292.528 117.569 293.225 117.279 293.953 117.277C294.682 117.277 295.381 117.566 295.897 118.08C296.413 118.594 296.702 119.29 296.702 120.017V180.222C296.702 180.949 296.413 181.646 295.897 182.16C295.381 182.674 294.682 182.962 293.953 182.962Z" fill="#E0E0E0"/>
<path d="M271.44 147.113H119.238C118.076 147.113 116.963 146.654 116.141 145.835C115.32 145.017 114.859 143.907 114.859 142.75C114.859 141.592 115.32 140.482 116.141 139.664C116.963 138.845 118.076 138.386 119.238 138.386H271.44C272.601 138.386 273.715 138.845 274.536 139.664C275.357 140.482 275.819 141.592 275.819 142.75C275.819 143.907 275.357 145.017 274.536 145.835C273.715 146.654 272.601 147.113 271.44 147.113Z" fill="#E0E0E0"/>
<path d="M248.027 115.247H152.281C151.12 115.247 150.006 114.788 149.185 113.969C148.364 113.151 147.903 112.041 147.903 110.884C147.903 109.726 148.364 108.616 149.185 107.798C150.006 106.98 151.12 106.52 152.281 106.52H248.027C249.189 106.52 250.302 106.98 251.124 107.798C251.945 108.616 252.406 109.726 252.406 110.884C252.406 112.041 251.945 113.151 251.124 113.969C250.302 114.788 249.189 115.247 248.027 115.247Z" fill="#89B1FF"/>
<path d="M249.827 164.678H140.851C139.69 164.678 138.576 164.219 137.755 163.4C136.934 162.582 136.472 161.472 136.472 160.314C136.472 159.157 136.934 158.047 137.755 157.229C138.576 156.41 139.69 155.951 140.851 155.951H249.827C250.402 155.951 250.971 156.064 251.502 156.283C252.033 156.502 252.516 156.824 252.923 157.229C253.329 157.634 253.652 158.115 253.872 158.645C254.092 159.174 254.205 159.741 254.205 160.314C254.205 160.888 254.092 161.455 253.872 161.984C253.652 162.514 253.329 162.995 252.923 163.4C252.516 163.805 252.033 164.127 251.502 164.346C250.971 164.565 250.402 164.678 249.827 164.678Z" fill="#E0E0E0"/>
<path d="M200.625 241.256H116.777C115.615 241.256 114.502 240.796 113.68 239.978C112.859 239.159 112.398 238.049 112.398 236.892C112.398 236.319 112.511 235.752 112.731 235.222C112.951 234.693 113.274 234.212 113.68 233.806C114.087 233.401 114.57 233.08 115.101 232.861C115.632 232.641 116.202 232.528 116.777 232.528H200.625C201.2 232.528 201.77 232.641 202.301 232.861C202.832 233.08 203.315 233.401 203.722 233.806C204.128 234.212 204.451 234.693 204.671 235.222C204.891 235.752 205.004 236.319 205.004 236.892C205.004 238.049 204.543 239.159 203.722 239.978C202.9 240.796 201.787 241.256 200.625 241.256Z" fill="#E0E0E0"/>
<path d="M268.979 222.964H116.777C115.615 222.964 114.502 222.504 113.68 221.685C112.859 220.867 112.398 219.757 112.398 218.6C112.398 218.027 112.511 217.46 112.731 216.931C112.952 216.402 113.274 215.922 113.681 215.517C114.088 215.112 114.57 214.792 115.102 214.574C115.633 214.355 116.202 214.243 116.777 214.244H268.979C269.554 214.243 270.123 214.355 270.654 214.574C271.185 214.792 271.668 215.112 272.075 215.517C272.481 215.922 272.804 216.402 273.024 216.931C273.244 217.46 273.358 218.027 273.358 218.6C273.358 219.173 273.245 219.74 273.024 220.27C272.804 220.799 272.482 221.28 272.075 221.685C271.669 222.091 271.186 222.412 270.655 222.631C270.123 222.851 269.554 222.964 268.979 222.964Z" fill="#E0E0E0"/>
<path d="M268.979 273.097H135.76C133.341 273.097 131.381 275.05 131.381 277.46C131.381 279.871 133.341 281.824 135.76 281.824H268.979C271.397 281.824 273.358 279.871 273.358 277.46C273.358 275.05 271.397 273.097 268.979 273.097Z" fill="#E0E0E0"/>
<path d="M268.979 300.455H116.777C115.615 300.455 114.502 299.995 113.68 299.177C112.859 298.358 112.398 297.248 112.398 296.091C112.402 294.937 112.866 293.831 113.686 293.016C114.507 292.202 115.618 291.744 116.777 291.744H268.979C269.554 291.744 270.123 291.857 270.655 292.076C271.186 292.296 271.669 292.617 272.075 293.022C272.482 293.427 272.804 293.909 273.024 294.438C273.245 294.967 273.358 295.535 273.358 296.108C273.353 297.262 272.89 298.368 272.069 299.183C271.249 299.997 270.137 300.455 268.979 300.455Z" fill="#E0E0E0"/>
<path d="M268.979 319.415H116.777C115.615 319.415 114.502 318.955 113.68 318.137C112.859 317.319 112.398 316.209 112.398 315.051C112.398 313.894 112.859 312.784 113.68 311.966C114.502 311.147 115.615 310.688 116.777 310.688H268.979C269.554 310.688 270.123 310.8 270.655 311.02C271.186 311.239 271.669 311.56 272.075 311.966C272.482 312.371 272.804 312.852 273.024 313.381C273.245 313.911 273.358 314.478 273.358 315.051C273.358 316.209 272.896 317.319 272.075 318.137C271.254 318.955 270.14 319.415 268.979 319.415Z" fill="#E0E0E0"/>
<path d="M123.625 277.46C123.625 278.357 123.358 279.234 122.858 279.979C122.357 280.725 121.647 281.306 120.815 281.649C119.983 281.992 119.068 282.081 118.186 281.905C117.303 281.73 116.493 281.297 115.857 280.662C115.221 280.028 114.789 279.219 114.614 278.339C114.44 277.459 114.531 276.548 114.877 275.72C115.222 274.892 115.806 274.184 116.556 273.687C117.305 273.19 118.185 272.926 119.085 272.927C120.29 272.929 121.444 273.408 122.296 274.258C123.147 275.108 123.625 276.259 123.625 277.46Z" fill="#89B1FF"/>
<path d="M268.979 205.923H135.751C134.59 205.923 133.476 205.463 132.655 204.645C131.834 203.827 131.372 202.717 131.372 201.559C131.372 200.402 131.834 199.292 132.655 198.474C133.476 197.655 134.59 197.196 135.751 197.196H268.979C269.554 197.196 270.123 197.308 270.655 197.528C271.186 197.747 271.669 198.068 272.075 198.474C272.482 198.879 272.804 199.36 273.024 199.889C273.244 200.419 273.358 200.986 273.358 201.559C273.358 202.132 273.244 202.7 273.024 203.229C272.804 203.759 272.482 204.24 272.075 204.645C271.669 205.05 271.186 205.372 270.655 205.591C270.123 205.81 269.554 205.923 268.979 205.923Z" fill="#E0E0E0"/>
<path d="M119.085 206.092C121.597 206.092 123.633 204.063 123.633 201.559C123.633 199.056 121.597 197.026 119.085 197.026C116.573 197.026 114.536 199.056 114.536 201.559C114.536 204.063 116.573 206.092 119.085 206.092Z" fill="#89B1FF"/>
<path d="M264.728 347.163H230.572C228.722 347.163 226.948 346.43 225.64 345.126C224.332 343.823 223.597 342.055 223.597 340.211C223.597 338.367 224.332 336.599 225.64 335.295C226.948 333.992 228.722 333.259 230.572 333.259H264.728C266.578 333.259 268.352 333.992 269.66 335.295C270.968 336.599 271.703 338.367 271.703 340.211C271.703 342.055 270.968 343.823 269.66 345.126C268.352 346.43 266.578 347.163 264.728 347.163Z" fill="#89B1FF"/>
<path d="M88.7733 19.1339L53.3703 36.8343C52.0748 37.3832 50.9698 38.2996 50.1928 39.4694C49.4158 40.6392 49.001 42.0109 49.0001 43.4138V59.9218C48.9582 74.9456 53.3493 89.6502 61.6271 102.207C68.0084 111.864 76.4603 124.245 90.5384 131.315H96.8858C112.551 126.554 124.244 113.86 131.398 103.01C139.676 90.4536 144.067 75.7491 144.025 60.7252V43.4138C144.027 42.0147 143.617 40.6458 142.846 39.4763C142.075 38.3069 140.978 37.3883 139.688 36.8343L99.3297 19.6836C97.5307 18.9479 90.5723 18.3728 88.7733 19.1339Z" fill="#89B1FF"/>
<path opacity="0.3" d="M88.7733 19.1339L53.3703 36.8343C52.0748 37.3832 50.9698 38.2996 50.1928 39.4694C49.4158 40.6392 49.001 42.0109 49.0001 43.4138V59.9218C48.9582 74.9456 53.3493 89.6502 61.6271 102.207C68.0084 111.864 76.4603 124.245 90.5384 131.315H96.8858C112.551 126.554 124.244 113.86 131.398 103.01C139.676 90.4536 144.067 75.7491 144.025 60.7252V43.4138C144.027 42.0147 143.617 40.6458 142.846 39.4763C142.075 38.3069 140.978 37.3883 139.688 36.8343L99.3297 19.6836C97.5307 18.9479 90.5723 18.3728 88.7733 19.1339Z" fill="black"/>
<path d="M87.3476 19.6835L47.0143 36.8342C45.7197 37.3834 44.6159 38.3001 43.8403 39.47C43.0648 40.64 42.6517 42.0115 42.6526 43.4137V59.9216C42.6546 75.2074 47.2053 90.1492 55.7289 102.857C64.2526 115.565 76.3664 125.469 90.5383 131.315C106.203 126.554 117.897 113.86 125.042 103.01C133.323 90.4552 137.715 75.7494 137.669 60.725V43.4137C137.67 42.0115 137.257 40.64 136.481 39.47C135.705 38.3001 134.602 37.3834 133.307 36.8342L93.0162 19.6835C92.1205 19.301 91.1563 19.1038 90.1819 19.1038C89.2075 19.1038 88.2432 19.301 87.3476 19.6835Z" fill="#89B1FF"/>
<path d="M137.542 56.2769C137.552 56.3413 137.552 56.407 137.542 56.4714C137.542 56.6236 137.542 56.8096 137.542 57.038C137.542 57.5792 137.584 58.3065 137.618 59.2283C137.652 60.1501 137.703 61.3341 137.618 62.6872C137.618 63.3638 137.618 64.0826 137.55 64.8438C137.55 65.2328 137.55 65.6218 137.55 66.0277C137.55 66.4337 137.474 66.8734 137.431 67.2709C137.262 68.9623 137.151 70.8228 136.795 72.7933C136.634 73.7743 136.506 74.806 136.303 75.8462C136.099 76.8865 135.844 77.9605 135.607 79.0599C134.486 83.8135 132.926 88.4535 130.948 92.9208C128.926 97.3678 126.513 101.627 123.735 105.649C122.394 107.458 121.189 109.209 119.832 110.723C119.178 111.484 118.584 112.253 117.948 112.93L116.115 114.875C114.978 116.144 113.807 117.15 112.831 118.089C112.33 118.545 111.88 118.985 111.448 119.366L110.26 120.321L108.562 121.708L108.113 122.063C108.011 122.14 107.951 122.173 107.951 122.165C107.951 122.157 107.951 122.114 108.079 122.021L108.503 121.641L110.141 120.195L111.337 119.154C111.77 118.774 112.186 118.309 112.695 117.852C113.654 116.905 114.799 115.89 115.92 114.613L117.727 112.651C118.355 111.974 118.941 111.205 119.577 110.444C120.892 108.938 122.123 107.188 123.43 105.369C126.18 101.357 128.574 97.1119 130.583 92.684C132.544 88.2392 134.103 83.6288 135.242 78.9077C135.488 77.8167 135.717 76.7511 135.955 75.7194C136.192 74.6876 136.294 73.6559 136.464 72.6749C136.837 70.7129 136.965 68.8608 137.151 67.1779C137.202 66.7635 137.245 66.3322 137.287 65.9516C137.329 65.571 137.287 65.1567 137.338 64.7761C137.372 64.015 137.406 63.2961 137.44 62.6196C137.533 61.2749 137.508 60.0825 137.508 59.1691V57.0464V56.4714C137.506 56.4049 137.518 56.3389 137.542 56.2769Z" fill="#263238"/>
<path d="M106.135 78.4595H101.833V55.1267C101.757 52.5359 100.671 50.0765 98.8057 48.2707C96.9401 46.4648 94.4417 45.4547 91.8409 45.4547C89.2401 45.4547 86.7418 46.4648 84.8762 48.2707C83.0105 50.0765 81.9246 52.5359 81.8488 55.1267V78.4595H77.5465V55.1267C77.6374 51.4086 79.1833 47.8733 81.8541 45.2756C84.525 42.678 88.109 41.2239 91.8409 41.2239C95.5728 41.2239 99.1569 42.678 101.828 45.2756C104.499 47.8733 106.044 51.4086 106.135 55.1267V78.4595Z" fill="#F5F5F5"/>
<path d="M106.178 62.6282H77.5127C74.7897 62.6282 72.5824 64.828 72.5824 67.5417V87.8045C72.5824 90.5182 74.7897 92.718 77.5127 92.718H106.178C108.901 92.718 111.108 90.5182 111.108 87.8045V67.5417C111.108 64.828 108.901 62.6282 106.178 62.6282Z" fill="white"/>
<path d="M106.178 92.7177C106.609 92.6722 107.037 92.5988 107.459 92.4978C108.487 92.2022 109.39 91.5791 110.029 90.7238C110.668 89.8686 111.008 88.8282 110.998 87.762C110.998 86.7725 110.998 85.6985 110.998 84.5399C110.998 82.2311 110.998 79.601 110.998 76.6918C110.998 73.7826 110.998 70.6112 110.998 67.1946C110.934 66.3431 110.64 65.5247 110.147 64.8263C109.654 64.128 108.98 63.5758 108.197 63.2283C107.363 62.8858 106.458 62.7467 105.558 62.8224H102.707L77.5125 62.8139C76.4535 62.8136 75.4252 63.1689 74.5938 63.8226C73.7623 64.4762 73.1762 65.3901 72.9301 66.4166C72.82 66.9276 72.7744 67.4504 72.7943 67.9727V72.7339C72.7943 76.9624 72.7943 80.9541 72.7943 84.802C72.8707 86.7133 72.4719 88.6838 73.4562 90.1891C73.892 90.9285 74.5204 91.5367 75.2749 91.9491C76.0293 92.3615 76.8817 92.5628 77.7416 92.5317H87.2882L101.112 92.6078H104.862H105.838C105.951 92.5971 106.065 92.5971 106.178 92.6078C106.065 92.6204 105.951 92.6204 105.838 92.6078H104.862H101.112L87.2882 92.6754H77.7416C77.0404 92.7068 76.3403 92.5945 75.6843 92.3456C75.0284 92.0966 74.4307 91.7163 73.9281 91.2281C73.4255 90.7399 73.0287 90.1541 72.7621 89.5071C72.4956 88.86 72.365 88.1653 72.3785 87.466V84.802C72.3785 80.9541 72.3785 76.9201 72.3785 72.7339V68.0065C72.353 67.4389 72.4015 66.8703 72.5228 66.3151C72.7985 65.2068 73.4413 64.2235 74.3472 63.5243C75.2606 62.8043 76.3903 62.4112 77.5549 62.408H102.656H105.507C106.464 62.3352 107.424 62.4918 108.308 62.8647C109.152 63.2403 109.877 63.8378 110.407 64.5931C110.936 65.3485 111.249 66.2332 111.312 67.1524C111.312 70.6028 111.312 73.7657 111.312 76.6749C111.312 79.5841 111.312 82.2142 111.312 84.5229C111.312 85.6815 111.312 86.7556 111.312 87.745C111.313 88.6712 111.054 89.5792 110.565 90.3667C109.9 91.4603 108.83 92.2499 107.586 92.5655C107.13 92.7034 106.653 92.755 106.178 92.7177Z" fill="#263238"/>
<path d="M94.7982 78.451C95.1866 78.065 95.4945 77.6063 95.7042 77.1012C95.914 76.5961 96.0213 76.0546 96.0202 75.508C96.0251 74.7201 95.8091 73.9465 95.3965 73.2745C94.9839 72.6024 94.391 72.0586 93.6848 71.7044C92.9787 71.3501 92.1872 71.1996 91.3997 71.2697C90.6123 71.3398 89.8602 71.6278 89.2282 72.1012C88.5962 72.5746 88.1094 73.2145 87.8229 73.9488C87.5363 74.6831 87.4614 75.4826 87.6064 76.2572C87.7515 77.0317 88.1108 77.7504 88.6438 78.3323C89.1768 78.9142 89.8624 79.3361 90.6232 79.5504L89.7152 83.559H93.746L92.8974 79.5504C93.6017 79.35 94.2419 78.9712 94.7558 78.451" fill="#89B1FF"/>
<path d="M357.622 108.625V142.893C357.699 148.813 358.573 158.115 349.136 157.811C340.999 156.965 338.835 149.244 338.775 143.713C338.775 141.091 338.716 138.901 338.69 138.639C338.69 138.639 329.78 137.912 329.025 129.133C328.66 124.905 328.626 116.101 328.686 108.143C328.722 104.022 330.313 100.065 333.143 97.0592C335.973 94.0538 339.835 92.2201 343.96 91.9228L344.809 91.8636C354.033 91.7283 357.775 99.4495 357.622 108.625Z" fill="#FFBF9D"/>
<path d="M338.716 138.639C342.787 138.327 346.683 136.86 349.943 134.411C349.943 134.411 347.618 141.032 338.767 140.88L338.716 138.639Z" fill="#89B1FF"/>
<path d="M343.765 111.746C343.943 111.924 344.961 111.103 346.429 111.069C347.898 111.036 348.975 111.746 349.162 111.56C349.349 111.374 349.06 111.146 348.576 110.816C347.931 110.383 347.165 110.165 346.387 110.19C345.616 110.214 344.872 110.484 344.266 110.96C343.824 111.332 343.68 111.661 343.765 111.746Z" fill="#263238"/>
<path d="M343.739 115.898C343.757 116.209 343.897 116.501 344.129 116.71C344.361 116.919 344.666 117.028 344.978 117.014C345.131 117.015 345.282 116.986 345.422 116.928C345.563 116.87 345.69 116.784 345.797 116.676C345.904 116.568 345.988 116.44 346.044 116.299C346.1 116.158 346.127 116.007 346.124 115.856C346.104 115.547 345.965 115.258 345.735 115.049C345.506 114.841 345.204 114.73 344.894 114.739C344.741 114.739 344.591 114.769 344.45 114.828C344.309 114.886 344.182 114.971 344.074 115.079C343.967 115.187 343.882 115.315 343.825 115.455C343.767 115.596 343.738 115.746 343.739 115.898Z" fill="#263238"/>
<path d="M340.074 122.013C339.342 121.843 338.593 121.763 337.842 121.776C337.494 121.776 337.163 121.717 337.087 121.488C337.03 121.134 337.083 120.771 337.239 120.448C337.511 119.602 337.782 118.698 338.088 117.75C339.234 113.911 340.04 110.765 339.887 110.723C339.734 110.68 338.673 113.75 337.528 117.59C337.256 118.537 336.993 119.442 336.739 120.304C336.554 120.735 336.527 121.217 336.662 121.666C336.719 121.785 336.804 121.889 336.908 121.97C337.013 122.05 337.135 122.106 337.265 122.131C337.462 122.154 337.661 122.154 337.859 122.131C338.599 122.179 339.343 122.14 340.074 122.013Z" fill="#263238"/>
<path d="M344.393 105.488C344.537 105.818 345.717 105.572 347.134 105.64C348.551 105.708 349.68 106.021 349.875 105.708C349.943 105.564 349.722 105.259 349.247 104.972C348.614 104.618 347.905 104.418 347.18 104.389C346.454 104.359 345.732 104.501 345.072 104.803C344.571 105.048 344.334 105.336 344.393 105.488Z" fill="#263238"/>
<path d="M330.383 107.687C330.544 107.957 331.689 107.687 333.09 107.619C334.49 107.551 335.635 107.754 335.788 107.475C335.848 107.34 335.618 107.103 335.135 106.892C334.48 106.631 333.776 106.516 333.073 106.553C332.359 106.573 331.659 106.746 331.019 107.061C330.544 107.306 330.315 107.56 330.383 107.687Z" fill="#263238"/>
<path d="M317.043 100.27C317.092 100.091 317.177 99.9245 317.292 99.7792C317.408 99.634 317.551 99.5132 317.713 99.4239C318.417 99.1047 319.193 98.9792 319.962 99.0603C322.312 99.017 324.604 98.3231 326.581 97.056C327.504 95.734 328.535 94.4895 329.661 93.3349C332.335 90.5949 334.524 88.7259 336.798 87.8125C339.734 86.637 344.648 86.1211 347.711 86.9668C350.774 87.8125 353.524 90.2481 353.956 93.3687C355.654 91.9226 358.25 91.9395 360.346 92.7768H360.397C362.722 93.6225 364.046 96.0581 364.734 98.426C365.421 100.794 365.718 103.331 366.974 105.454C367.237 105.893 367.551 106.426 367.322 106.891C367.216 107.06 367.06 107.192 366.877 107.271C366.694 107.349 366.491 107.37 366.295 107.331C365.902 107.247 365.531 107.08 365.209 106.841C365.472 107.466 365.726 108.084 365.989 108.701C365.14 108.849 364.268 108.793 363.444 108.541C363.016 110.652 362.463 112.736 361.789 114.782C360.92 114.68 360.044 114.893 359.32 115.382C358.471 116.118 358.14 117.496 356.774 116.972C356.086 116.701 355.458 115.281 355.221 114.562C353.686 109.878 353.18 104.92 353.736 100.024C352.77 99 351.619 98.1678 350.342 97.5719L350.443 97.6649C347.982 96.8192 345.199 95.9735 342.865 97.1236C341.058 98.0201 339.997 99.8891 338.623 101.352C337.378 102.743 335.863 103.867 334.17 104.656C332.476 105.446 330.639 105.884 328.77 105.944C328.643 108.414 328.847 111.906 328.72 114.401L326.632 110.443C326.468 110.169 326.318 109.887 326.182 109.598V109.513C325.973 109.03 325.738 108.559 325.478 108.101C325.189 108.332 324.826 108.453 324.456 108.441C324.085 108.429 323.731 108.286 323.458 108.037C323.184 107.788 323.009 107.449 322.964 107.082C322.919 106.716 323.007 106.345 323.212 106.037C323.421 105.75 323.673 105.496 323.959 105.285C323.656 105.579 323.282 105.789 322.872 105.894C322.463 105.999 322.033 105.996 321.625 105.885C321.221 105.762 320.869 105.51 320.624 105.168C320.378 104.825 320.253 104.411 320.268 103.991C320.303 103.708 320.411 103.439 320.582 103.211C320.753 102.982 320.981 102.802 321.244 102.688C320.151 102.776 319.057 102.534 318.104 101.995C317.425 101.631 316.814 101.048 317.043 100.27Z" fill="#263238"/>
<path d="M351.165 94.3923C351.472 94.6491 351.756 94.9321 352.013 95.238C352.71 96.0736 353.176 97.0766 353.362 98.1472C353.517 98.8815 353.593 99.6297 353.592 100.38C353.592 101.226 353.532 102.071 353.464 102.968C353.384 103.924 353.364 104.884 353.405 105.843C353.429 106.355 353.494 106.864 353.6 107.365C353.679 107.9 353.892 108.406 354.22 108.837C354.374 109.008 354.57 109.135 354.788 109.208C355.007 109.281 355.241 109.296 355.467 109.251C355.897 109.173 356.289 108.952 356.579 108.625C357.058 107.971 357.352 107.2 357.427 106.393H357.249C357.512 107.057 357.872 107.678 358.318 108.236C358.745 108.75 359.352 109.082 360.015 109.167C360.327 109.198 360.641 109.142 360.923 109.006C361.186 108.869 361.402 108.657 361.543 108.397C361.67 108.158 361.734 107.89 361.73 107.619C361.716 107.367 361.614 107.127 361.441 106.942L361.348 107.027C361.873 107.624 362.517 108.105 363.24 108.439C363.495 108.552 363.69 108.628 363.826 108.668L364.038 108.718L363.842 108.634C363.707 108.575 363.512 108.499 363.274 108.38C362.574 108.026 361.951 107.538 361.441 106.942L361.348 107.027C361.492 107.211 361.575 107.435 361.586 107.669C361.597 107.902 361.534 108.133 361.407 108.329C361.282 108.559 361.089 108.745 360.855 108.862C360.592 108.989 360.297 109.036 360.007 108.997C359.387 108.927 358.817 108.624 358.412 108.152C357.985 107.603 357.639 106.997 357.385 106.35L357.257 106.071L357.198 106.376C357.107 107.148 356.815 107.883 356.349 108.507C356.084 108.794 355.733 108.99 355.348 109.065C355.156 109.104 354.958 109.092 354.772 109.032C354.586 108.971 354.419 108.863 354.287 108.718C353.982 108.315 353.786 107.841 353.719 107.34C353.614 106.849 353.546 106.352 353.515 105.852C353.475 104.898 353.495 103.944 353.575 102.993C353.626 102.08 353.685 101.217 353.676 100.397C353.671 99.6373 353.586 98.8805 353.422 98.1388C353.215 97.048 352.72 96.032 351.988 95.1957C351.761 94.8832 351.483 94.6114 351.165 94.3923Z" fill="#455A64"/>
<path d="M323.916 102.925L323.993 102.984C324.062 103.043 324.136 103.097 324.213 103.145C324.329 103.239 324.454 103.321 324.587 103.39C324.76 103.492 324.939 103.585 325.121 103.669C326.302 104.203 327.596 104.435 328.889 104.346C330.813 104.216 332.658 103.535 334.201 102.384C336.069 100.968 337.623 99.1826 338.767 97.1405C339.412 96.0833 339.929 94.9924 340.464 93.986C341.012 93.0034 341.698 92.1035 342.5 91.3136C343.206 90.5964 344.082 90.0672 345.046 89.7745C345.482 89.654 345.935 89.6026 346.387 89.6222C346.798 89.6533 347.203 89.7386 347.592 89.8759C348.277 90.1078 348.905 90.4826 349.433 90.9753C349.832 91.3471 350.168 91.7813 350.426 92.2608C350.632 92.6798 350.783 93.1231 350.876 93.5801C350.876 93.5801 350.876 93.5801 350.876 93.4871C350.876 93.394 350.876 93.3264 350.833 93.2164C350.763 92.8736 350.649 92.5411 350.494 92.227C349.9 91.0635 348.879 90.173 347.643 89.7406C347.235 89.599 346.809 89.5109 346.378 89.4785C345.909 89.4588 345.44 89.5101 344.987 89.6307C343.994 89.9227 343.092 90.461 342.365 91.1952C341.564 91.9938 340.887 92.9057 340.353 93.9014C339.768 94.9163 339.242 95.9988 338.614 97.0559C337.478 99.0713 335.945 100.837 334.108 102.248C332.597 103.39 330.788 104.074 328.898 104.219C327.625 104.319 326.346 104.11 325.172 103.61C324.74 103.408 324.32 103.179 323.916 102.925Z" fill="#455A64"/>
<path d="M323.119 99.069C323.119 99.069 323.221 99.162 323.433 99.2888C323.732 99.4695 324.044 99.6278 324.366 99.7624C324.846 99.9658 325.343 100.127 325.851 100.244C326.472 100.39 327.106 100.475 327.744 100.498C328.383 100.514 329.022 100.471 329.653 100.371C330.164 100.285 330.667 100.155 331.155 99.9823C331.488 99.869 331.811 99.7305 332.122 99.5679C332.239 99.5154 332.35 99.4502 332.453 99.3734C332.453 99.3734 331.953 99.5848 331.113 99.847C330.623 99.9923 330.124 100.105 329.619 100.185C329.001 100.271 328.376 100.308 327.752 100.295C327.128 100.268 326.506 100.191 325.894 100.067C325.394 99.9573 324.903 99.8103 324.426 99.6271C323.611 99.3142 323.136 99.0351 323.119 99.069Z" fill="#455A64"/>
<path d="M330.323 111.746C330.493 111.924 331.511 111.103 332.988 111.069C334.464 111.036 335.534 111.746 335.72 111.56C335.907 111.374 335.61 111.146 335.135 110.816C334.486 110.384 333.717 110.165 332.937 110.19C332.168 110.214 331.427 110.483 330.824 110.959C330.374 111.332 330.23 111.661 330.323 111.746Z" fill="#263238"/>
<path d="M331.825 115.898C331.845 116.207 331.984 116.496 332.214 116.704C332.444 116.912 332.745 117.024 333.056 117.014C333.208 117.015 333.36 116.986 333.501 116.928C333.642 116.87 333.77 116.785 333.877 116.677C333.985 116.569 334.07 116.441 334.127 116.3C334.184 116.159 334.212 116.008 334.21 115.856C334.188 115.546 334.047 115.257 333.816 115.049C333.585 114.841 333.282 114.73 332.971 114.739C332.819 114.739 332.669 114.769 332.529 114.828C332.389 114.886 332.261 114.972 332.155 115.08C332.048 115.187 331.964 115.315 331.908 115.456C331.851 115.596 331.823 115.747 331.825 115.898Z" fill="#263238"/>
<path d="M357.393 115.179C357.537 115.103 363.333 112.955 363.562 118.968C363.792 124.981 357.699 123.983 357.682 123.814C357.665 123.645 357.393 115.179 357.393 115.179Z" fill="#FFBF9D"/>
<path d="M359.472 121.463C359.472 121.463 359.582 121.531 359.761 121.607C360.015 121.705 360.296 121.705 360.55 121.607C360.929 121.344 361.231 120.986 361.425 120.568C361.619 120.15 361.698 119.689 361.653 119.231C361.652 118.714 361.533 118.205 361.305 117.742C361.239 117.554 361.127 117.385 360.979 117.25C360.83 117.116 360.651 117.02 360.457 116.973C360.335 116.949 360.21 116.967 360.1 117.024C359.991 117.08 359.904 117.173 359.854 117.285C359.778 117.455 359.854 117.573 359.786 117.59C359.718 117.607 359.659 117.497 359.693 117.243C359.724 117.094 359.801 116.958 359.913 116.854C360.077 116.726 360.283 116.663 360.49 116.677C360.74 116.717 360.975 116.819 361.174 116.974C361.373 117.13 361.529 117.333 361.628 117.565C361.912 118.083 362.061 118.665 362.06 119.256C362.06 120.465 361.5 121.624 360.635 121.911C360.475 121.965 360.305 121.982 360.138 121.962C359.97 121.941 359.809 121.884 359.667 121.793C359.472 121.607 359.413 121.472 359.472 121.463Z" fill="#89B1FF"/>
<path d="M344.367 123.214C344.418 123.214 344.418 123.569 344.215 124.059C343.919 124.719 343.435 125.278 342.823 125.666C342.228 126.066 341.521 126.267 340.803 126.241C340.252 126.19 339.955 126.004 339.955 125.962C339.955 125.92 340.294 125.962 340.803 125.962C341.45 125.914 342.075 125.705 342.619 125.353C343.168 125.002 343.63 124.53 343.969 123.975C344.198 123.51 344.3 123.197 344.367 123.214Z" fill="#263238"/>
<path d="M374.747 360.998L376.546 381.294L382.927 396.991C383.032 397.264 383.077 397.556 383.06 397.849C383.042 398.141 382.963 398.426 382.826 398.685C382.69 398.944 382.499 399.171 382.268 399.352C382.037 399.532 381.77 399.661 381.485 399.731C381.147 399.831 380.791 399.852 380.444 399.794C380.096 399.735 379.767 399.598 379.482 399.392C375.841 396.754 362.714 387.045 362.57 385.785C362.383 384.144 359.031 364.161 359.031 364.161L374.747 360.998Z" fill="#455A64"/>
<path d="M381.535 399.756L362.256 383.493L362.451 384.999C362.578 385.844 362.595 386.267 363.172 386.783C368.296 391.408 373.679 395.739 379.295 399.756C379.641 399.917 380.017 400 380.398 400C380.78 400 381.156 399.917 381.502 399.756H381.535Z" fill="#263238"/>
<path d="M366.006 377.15C366.289 377.296 366.504 377.543 366.608 377.842C366.713 378.141 366.698 378.469 366.566 378.757C366.397 379.036 366.131 379.244 365.819 379.342C365.506 379.44 365.169 379.421 364.869 379.29C364.575 379.134 364.351 378.873 364.244 378.558C364.137 378.244 364.154 377.901 364.292 377.599C364.498 377.324 364.798 377.135 365.135 377.068C365.471 377.001 365.821 377.06 366.117 377.235" fill="white"/>
<path d="M375.544 391.384C375.672 391.434 376.037 390.318 377.242 389.625C378.007 389.252 378.831 389.015 379.677 388.923C379.677 388.872 379.397 388.745 378.888 388.728C378.216 388.722 377.556 388.901 376.979 389.244C376.416 389.569 375.962 390.051 375.672 390.631C375.485 391.071 375.485 391.375 375.544 391.384Z" fill="#263238"/>
<path d="M377.394 393.946C377.505 394.031 378.124 393.295 379.21 392.889C379.896 392.691 380.593 392.536 381.298 392.424C380.941 392.261 380.552 392.181 380.159 392.19C379.767 392.199 379.381 392.296 379.032 392.475C377.793 392.948 377.293 393.904 377.394 393.946Z" fill="#263238"/>
<path d="M372.278 388.195C373.127 387.523 374.027 386.915 374.968 386.377C375.986 385.962 377.032 385.62 378.099 385.354C376.943 385.18 375.762 385.401 374.747 385.979C372.999 386.817 372.201 388.144 372.278 388.195Z" fill="#263238"/>
<path d="M371.183 382.056C371.251 382.174 372.396 381.582 373.941 381.379C375.485 381.176 376.766 381.379 376.8 381.269C375.89 380.834 374.859 380.715 373.873 380.931C372.874 380.99 371.925 381.387 371.183 382.056Z" fill="#263238"/>
<path d="M370.504 376.102C371.397 375.655 372.37 375.391 373.367 375.324C374.363 375.257 375.363 375.389 376.308 375.713C376.308 375.662 376.079 375.434 375.544 375.214C374.841 374.939 374.084 374.823 373.33 374.876C372.577 374.918 371.845 375.135 371.191 375.51C370.682 375.797 370.453 376.06 370.504 376.102Z" fill="#263238"/>
<path d="M373.177 374.191C373.177 374.191 373.228 373.912 373.126 373.421C372.977 372.723 372.688 372.061 372.277 371.476C371.998 371.014 371.575 370.654 371.072 370.453C370.898 370.401 370.712 370.4 370.538 370.451C370.363 370.502 370.207 370.603 370.088 370.74C369.987 370.876 369.914 371.03 369.873 371.194C369.832 371.358 369.825 371.529 369.85 371.696C369.998 372.392 370.382 373.017 370.939 373.462C371.496 373.908 372.191 374.147 372.905 374.14C373.619 374.151 374.32 373.955 374.923 373.575C375.526 373.195 376.004 372.647 376.3 372C376.367 371.842 376.397 371.671 376.388 371.5C376.38 371.328 376.332 371.161 376.249 371.011C376.14 370.864 375.99 370.753 375.818 370.691C375.646 370.63 375.459 370.62 375.281 370.664C374.768 370.829 374.304 371.12 373.932 371.51C373.404 371.994 372.965 372.566 372.634 373.201C372.497 373.425 372.41 373.676 372.379 373.937C372.864 373.112 373.467 372.363 374.17 371.713C374.503 371.385 374.911 371.141 375.358 371.002C375.454 370.975 375.556 370.979 375.65 371.012C375.745 371.045 375.826 371.107 375.884 371.188C375.931 371.291 375.955 371.402 375.955 371.514C375.955 371.626 375.931 371.737 375.884 371.84C375.614 372.388 375.195 372.85 374.674 373.173C374.154 373.496 373.552 373.667 372.939 373.666C372.334 373.669 371.746 373.468 371.268 373.097C370.791 372.726 370.453 372.205 370.309 371.62C370.267 371.388 370.316 371.149 370.444 370.952C370.508 370.873 370.594 370.816 370.691 370.787C370.788 370.759 370.891 370.76 370.988 370.791C371.413 370.962 371.777 371.256 372.031 371.637C372.568 372.41 372.957 373.276 373.177 374.191Z" fill="#263238"/>
<path d="M323.373 362.046L324.171 379.256C324.171 379.256 305.765 385.802 305.587 388.999L341.27 388.736L341.194 361.869L323.373 362.046Z" fill="#455A64"/>
<path d="M335.194 377.725C335.53 377.808 335.822 378.015 336.011 378.304C336.2 378.592 336.272 378.942 336.212 379.282C336.11 379.615 335.886 379.898 335.584 380.075C335.283 380.252 334.926 380.31 334.583 380.237C334.229 380.15 333.921 379.933 333.723 379.628C333.524 379.323 333.45 378.954 333.514 378.597C333.654 378.254 333.919 377.976 334.256 377.82C334.593 377.663 334.976 377.638 335.33 377.751" fill="#E0E0E0"/>
<path d="M341.27 388.737L341.151 386.03L306.979 387.29C306.979 387.29 305.4 387.95 305.587 388.982L341.27 388.737Z" fill="#263238"/>
<path d="M323.594 379.104C323.594 379.264 324.443 379.332 325.291 379.848C326.14 380.364 326.615 381.049 326.776 380.981C326.937 380.914 326.666 379.975 325.614 379.366C324.561 378.757 323.552 378.943 323.594 379.104Z" fill="#263238"/>
<path d="M319.86 380.567C319.86 380.728 320.582 380.998 321.176 381.683C321.77 382.368 321.956 383.104 322.126 383.096C322.296 383.087 322.406 382.157 321.642 381.32C320.879 380.482 319.869 380.415 319.86 380.567Z" fill="#263238"/>
<path d="M317.773 384.779C317.934 384.779 318.163 384.001 317.713 383.087C317.264 382.174 316.44 381.853 316.364 381.988C316.288 382.123 316.805 382.597 317.162 383.333C317.518 384.068 317.603 384.77 317.773 384.779Z" fill="#263238"/>
<path d="M323.874 375.146C323.95 375.298 324.723 375.07 325.732 375.146C326.742 375.222 327.489 375.484 327.574 375.349C327.659 375.214 326.929 374.63 325.766 374.58C324.604 374.529 323.832 375.019 323.874 375.146Z" fill="#263238"/>
<path d="M317.162 238.448C317.162 239.437 321.303 377.015 321.303 377.015H343.366L347.838 259.328C347.838 259.328 353.057 320.861 353.057 322.189C353.057 323.517 357.656 377.675 357.656 377.675L378.107 376.11L376.758 252.25L374.263 234.084L317.162 238.448Z" fill="#263238"/>
<path d="M350.138 254.973C349.858 255.131 349.558 255.25 349.247 255.328C348.661 255.531 347.804 255.81 346.752 256.174L346.557 256.233V256.038C346.438 254.389 346.294 252.174 346.166 249.746C346.022 247.116 345.92 244.74 345.869 242.981C345.869 242.135 345.827 241.416 345.827 240.934C345.802 240.682 345.819 240.428 345.878 240.182C345.949 240.424 345.989 240.674 345.997 240.926C346.056 241.408 346.115 242.11 346.175 242.964C346.311 244.655 346.463 247.066 346.599 249.73C346.735 252.157 346.828 254.372 346.879 256.03L346.667 255.895C347.736 255.599 348.602 255.362 349.213 255.21C349.513 255.101 349.822 255.022 350.138 254.973Z" fill="#455A64"/>
<path d="M348.441 240.672C348.441 240.672 348.508 240.562 348.738 240.486C349.06 240.401 349.402 240.431 349.705 240.571C349.933 240.654 350.128 240.808 350.261 241.011C350.394 241.214 350.458 241.454 350.443 241.695C350.415 242.001 350.286 242.289 350.078 242.515C349.869 242.741 349.592 242.893 349.289 242.947C348.981 242.993 348.665 242.954 348.378 242.833C348.09 242.712 347.842 242.514 347.66 242.262C347.532 242.067 347.465 241.839 347.465 241.607C347.465 241.374 347.532 241.146 347.66 240.951C347.835 240.689 348.091 240.49 348.39 240.385C348.61 240.308 348.738 240.325 348.746 240.342C348.755 240.359 348.245 240.503 347.94 241.078C347.85 241.231 347.807 241.407 347.816 241.585C347.825 241.762 347.886 241.933 347.991 242.076C348.128 242.257 348.311 242.398 348.522 242.484C348.732 242.57 348.962 242.599 349.187 242.566C349.397 242.526 349.591 242.424 349.742 242.273C349.893 242.123 349.996 241.93 350.036 241.721C350.052 241.547 350.015 241.373 349.928 241.222C349.842 241.07 349.71 240.949 349.552 240.875C349.213 240.692 348.823 240.621 348.441 240.672Z" fill="#455A64"/>
<path d="M358.573 242.102C358.454 242.102 358.284 241.51 358.199 240.765C358.115 240.021 358.14 239.404 358.259 239.395C358.378 239.387 358.547 239.979 358.632 240.723C358.717 241.467 358.692 242.102 358.573 242.102Z" fill="#455A64"/>
<path d="M360.1 241.941C359.982 241.941 359.88 241.307 359.88 240.52C359.88 239.734 359.965 239.099 360.092 239.099C360.219 239.099 360.312 239.734 360.312 240.52C360.312 241.307 360.228 241.941 360.1 241.941Z" fill="#455A64"/>
<path d="M333.514 242.888C333.395 242.888 333.209 242.186 333.098 241.298C332.988 240.41 332.996 239.666 333.098 239.657C333.2 239.649 333.404 240.359 333.514 241.256C333.624 242.152 333.633 242.879 333.514 242.888Z" fill="#455A64"/>
<path d="M335.372 243.023C334.98 242.55 334.786 241.944 334.829 241.332C334.737 240.74 334.874 240.136 335.211 239.64C335.338 239.64 335.211 240.418 335.271 241.332C335.33 242.245 335.491 242.989 335.372 243.023Z" fill="#455A64"/>
<path d="M328.397 241.188C328.406 241.391 328.38 241.594 328.321 241.788C328.214 242.337 328.067 242.877 327.879 243.404C327.25 245.179 326.326 246.837 325.147 248.309C323.922 249.826 322.467 251.144 320.836 252.216C320.334 252.546 319.813 252.845 319.275 253.112C319.079 253.222 318.871 253.31 318.655 253.374C318.655 253.324 319.453 252.884 320.666 252.013C322.227 250.909 323.627 249.594 324.824 248.106C325.981 246.655 326.921 245.046 327.616 243.328C328.134 242.017 328.329 241.171 328.397 241.188Z" fill="#455A64"/>
<path d="M376.088 250.457C375.87 250.521 375.644 250.555 375.417 250.558C374.802 250.607 374.183 250.607 373.567 250.558C371.553 250.365 369.615 249.692 367.916 248.596C366.307 247.546 365.009 246.086 364.157 244.368C363.909 243.868 363.716 243.344 363.58 242.803C363.511 242.614 363.479 242.413 363.486 242.211C363.554 242.211 363.741 243.057 364.411 244.266C365.307 245.902 366.592 247.293 368.153 248.317C369.799 249.376 371.66 250.057 373.601 250.313C375.12 250.482 376.079 250.389 376.088 250.457Z" fill="#455A64"/>
<path d="M340.15 320.125C340.15 320.218 336.467 319.423 331.987 318.366C327.506 317.309 323.891 316.362 323.925 316.269C323.959 316.176 327.608 316.962 332.088 318.028C336.569 319.094 340.175 320.032 340.15 320.125Z" fill="#455A64"/>
<path d="M375.689 315.119C375.74 315.203 372.557 316.853 368.586 318.815C364.615 320.777 361.339 322.29 361.288 322.197C361.237 322.104 364.42 320.455 368.391 318.502C372.362 316.548 375.638 315.034 375.689 315.119Z" fill="#455A64"/>
<path d="M306.452 191.859L309.465 195.622V189.152H318.969C318.969 189.152 320.021 203.96 319.818 207.115C319.592 208.759 319.203 210.377 318.655 211.944C318.371 212.856 317.856 213.68 317.16 214.335C316.464 214.991 315.61 215.457 314.68 215.689C313.75 215.92 312.777 215.908 311.853 215.655C310.929 215.402 310.086 214.916 309.406 214.244C308.342 213.213 307.35 212.111 306.436 210.946C302.193 205.533 295.2 192.341 295.2 192.341L302.532 187.977L306.452 191.859Z" fill="#FFBF9D"/>
<path d="M305.85 191.165C306.209 191.766 306.624 192.332 307.089 192.856C307.937 193.846 309.007 195.207 310.271 196.679C311.535 198.15 312.74 199.453 313.665 200.341C314.134 200.853 314.678 201.292 315.278 201.643C314.847 201.106 314.382 200.598 313.886 200.121C313.037 199.191 311.866 197.863 310.602 196.391C308.099 193.398 305.96 191.064 305.85 191.165Z" fill="#89B1FF"/>
<path d="M328.126 146.369L338.147 142.445L356.604 141.405L365.277 144.694L353.388 151.274L343.137 150.902L328.126 146.369Z" fill="#FFBF9D"/>
<path d="M316.305 240.325C317.213 240.478 377.683 243.04 377.683 243.04L375.595 188.823L375.417 178.184L372.023 145.954C372.023 145.954 362.977 142.851 358.369 141.371C358.369 141.371 353.515 146.445 344.283 146.276C335.262 146.149 333.378 144.119 333.378 144.119L320.768 148.94C320.768 148.94 311.799 152.145 310.254 156.103C308.71 160.06 306.011 181.939 306.011 181.939H319.088L318.74 220.815L316.305 240.325Z" fill="#455A64"/>
<g opacity="0.2">
<path d="M354.33 168.002L356.205 181.668L365.277 185.702L371.981 180.011V167.325L354.33 168.002Z" fill="black"/>
</g>
<path d="M371.743 171.909C371.743 172.019 367.975 172.112 363.325 172.112C358.675 172.112 354.898 172.019 354.898 171.909C357.702 171.697 360.514 171.626 363.325 171.697C366.133 171.626 368.942 171.697 371.743 171.909Z" fill="#263238"/>
<path d="M312.231 161.76C312.275 161.879 312.309 162.001 312.333 162.124C312.393 162.395 312.469 162.733 312.571 163.164C312.897 164.469 313.299 165.754 313.776 167.012C314.378 168.628 315.227 170.53 316.271 172.662C317.314 174.793 318.146 177.338 319.071 180.044C319.071 183.292 319.071 186.81 319.003 190.556C318.918 198.844 318.833 206.346 318.782 211.817C318.732 214.507 318.698 216.697 318.664 218.261C318.664 218.989 318.647 219.572 318.613 220.012C318.617 220.216 318.602 220.42 318.57 220.621C318.556 220.415 318.556 220.209 318.57 220.004C318.57 219.575 318.57 218.992 318.57 218.253C318.57 216.697 318.57 214.498 318.57 211.809C318.57 206.337 318.638 198.836 318.681 190.556C318.681 186.844 318.749 183.292 318.774 180.044V180.104C317.866 177.397 316.992 174.886 316.042 172.729C315.134 170.872 314.324 168.97 313.615 167.029C313.156 165.759 312.785 164.459 312.503 163.139C312.418 162.674 312.35 162.293 312.316 162.073C312.278 161.972 312.25 161.867 312.231 161.76Z" fill="#263238"/>
<path d="M376.342 155.435C376.372 155.82 376.372 156.208 376.342 156.593C376.342 157.439 376.274 158.471 376.223 159.739C376.113 162.462 375.969 166.099 375.808 170.116C375.646 174.133 375.46 177.778 375.341 180.501C375.265 181.77 375.205 182.827 375.154 183.647C375.152 184.033 375.113 184.419 375.035 184.797C375.005 184.412 375.005 184.024 375.035 183.638C375.035 182.793 375.035 181.761 375.095 180.493C375.163 177.829 375.281 174.158 375.451 170.107C375.621 166.056 375.808 162.378 375.977 159.731C376.062 158.403 376.147 157.329 376.223 156.585C376.229 156.199 376.269 155.814 376.342 155.435Z" fill="#263238"/>
<g opacity="0.3">
<path d="M312.265 163.748C312.035 169.699 314.17 175.5 318.205 179.892C316.975 174.302 313.903 169.101 312.265 163.748Z" fill="black"/>
</g>
<g opacity="0.3">
<path d="M338.826 217.39C341.669 217.013 344.262 215.574 346.082 213.365C347.996 211.234 349.635 208.873 350.961 206.337C352.672 202.887 353.643 199.12 353.812 195.275C350.291 204.688 345.131 212.13 338.826 217.39Z" fill="black"/>
</g>
<path d="M354.932 191.174C354.927 191.291 354.91 191.407 354.881 191.52C354.822 191.791 354.746 192.112 354.661 192.501C354.576 192.89 354.44 193.44 354.253 194.032C354.067 194.624 353.889 195.301 353.617 196.036C353.023 197.767 352.326 199.462 351.53 201.111C349.583 205.147 347.084 208.895 344.104 212.248C342.888 213.617 341.584 214.905 340.201 216.105C339.632 216.638 339.064 217.06 338.58 217.449C338.096 217.838 337.672 218.151 337.307 218.397L336.459 218.963C336.263 219.082 336.162 219.149 336.153 219.132C336.228 219.043 336.313 218.964 336.408 218.896L337.197 218.27C337.545 218.016 337.961 217.686 338.427 217.28C338.894 216.874 339.446 216.435 340.006 215.902C341.346 214.675 342.618 213.377 343.816 212.012C345.267 210.327 346.619 208.559 347.864 206.718C349.081 204.862 350.191 202.939 351.19 200.958C351.993 199.331 352.709 197.663 353.337 195.96C353.626 195.241 353.829 194.565 354.024 193.981C354.22 193.398 354.381 192.89 354.5 192.476C354.618 192.062 354.703 191.783 354.788 191.52C354.873 191.258 354.915 191.165 354.932 191.174Z" fill="#263238"/>
<path d="M353.184 174.209C353.171 174.397 353.145 174.583 353.108 174.767C353.04 175.165 352.947 175.689 352.836 176.34C352.726 176.991 352.556 177.854 352.31 178.81C352.064 179.765 351.843 180.873 351.462 182.057C351.292 182.649 351.105 183.275 350.91 183.926C350.715 184.577 350.46 185.237 350.223 185.922C349.773 187.317 349.162 188.755 348.525 190.277C345.738 196.848 341.992 202.972 337.409 208.451C336.331 209.686 335.321 210.887 334.286 211.919C333.777 212.443 333.302 212.967 332.81 213.432C332.317 213.897 331.851 214.354 331.392 214.777C330.544 215.623 329.627 216.358 328.847 217.001C328.066 217.644 327.438 218.177 326.878 218.591L325.597 219.555C325.457 219.677 325.303 219.782 325.138 219.868C325.262 219.732 325.398 219.607 325.546 219.496L326.776 218.473C327.319 218.041 327.981 217.509 328.702 216.84C329.424 216.172 330.298 215.462 331.172 214.574L332.563 213.221C333.047 212.747 333.514 212.223 334.015 211.699C335.041 210.658 336.034 209.458 337.103 208.214C341.647 202.744 345.384 196.656 348.203 190.133C348.831 188.62 349.442 187.199 349.9 185.82C350.146 185.127 350.401 184.476 350.604 183.833C350.808 183.19 350.995 182.573 351.181 181.981C351.572 180.805 351.818 179.714 352.081 178.759C352.344 177.803 352.531 176.983 352.667 176.306C352.802 175.63 352.93 175.148 353.014 174.75C353.051 174.564 353.108 174.383 353.184 174.209Z" fill="#263238"/>
<path d="M305.4 157.354L328.686 192.637C328.797 192.803 328.858 192.999 328.86 193.199C328.863 193.399 328.808 193.595 328.701 193.765C328.595 193.935 328.441 194.07 328.259 194.155C328.077 194.24 327.875 194.271 327.676 194.244L300.86 190.861C300.719 190.841 300.584 190.794 300.461 190.721C300.339 190.648 300.232 190.552 300.148 190.438L274.537 155.578C274.41 155.417 274.334 155.222 274.317 155.018C274.3 154.814 274.343 154.609 274.441 154.429C274.54 154.249 274.689 154.102 274.87 154.006C275.052 153.909 275.258 153.868 275.462 153.887L303.05 155.917C303.526 155.96 303.986 156.112 304.394 156.361C304.802 156.611 305.146 156.951 305.4 157.354Z" fill="#E0E0E0"/>
<path d="M305.4 157.354C305.343 157.239 305.271 157.131 305.188 157.033C304.952 156.741 304.664 156.495 304.34 156.306C303.787 156.018 303.172 155.87 302.549 155.874L300.071 155.671L284.169 154.428L278.899 154.022L276.099 153.811C275.853 153.811 275.64 153.811 275.36 153.811C275.074 153.82 274.8 153.931 274.588 154.124C274.373 154.319 274.234 154.585 274.197 154.873C274.16 155.161 274.226 155.453 274.385 155.697L281.835 165.887C287.096 173.05 292.867 180.924 298.934 189.195C299.324 189.711 299.672 190.21 300.097 190.751C300.227 190.894 300.39 191.004 300.572 191.072C300.739 191.13 300.913 191.165 301.09 191.174L302.04 191.292L305.791 191.766L313.122 192.679L326.988 194.37C327.277 194.37 327.515 194.446 327.837 194.463C328.002 194.465 328.166 194.433 328.319 194.371C328.472 194.308 328.611 194.216 328.728 194.1C328.95 193.872 329.08 193.571 329.093 193.254C329.08 192.945 328.967 192.648 328.77 192.408L326.971 189.668L323.577 184.594L317.501 175.435C313.784 169.862 310.78 165.338 308.684 162.2L306.266 158.606C305.994 158.217 305.782 157.904 305.621 157.684C305.553 157.574 305.476 157.469 305.392 157.371C305.45 157.488 305.515 157.601 305.587 157.709L306.19 158.657C306.733 159.502 307.522 160.729 308.532 162.293L317.238 175.613L323.272 184.797L326.666 189.914L328.431 192.594C328.583 192.772 328.673 192.995 328.686 193.229C328.677 193.451 328.587 193.662 328.431 193.821C328.273 193.977 328.06 194.065 327.837 194.066C327.608 194.066 327.294 193.998 327.031 193.973L313.139 192.205L305.808 191.284L302.057 190.81L301.115 190.692C300.974 190.68 300.835 190.654 300.699 190.615C300.58 190.569 300.473 190.497 300.385 190.404C300.012 189.897 299.638 189.398 299.265 188.882C293.189 180.628 287.385 172.763 282.141 165.6C279.501 162.031 277.007 158.631 274.665 155.451C274.577 155.326 274.525 155.179 274.515 155.026C274.505 154.874 274.536 154.721 274.606 154.585C274.675 154.449 274.781 154.334 274.911 154.253C275.04 154.172 275.19 154.127 275.343 154.124C275.539 154.124 275.81 154.124 276.039 154.166L278.84 154.369L284.118 154.741L300.071 155.84L302.566 156.01C303.174 155.989 303.778 156.12 304.323 156.39C304.747 156.631 305.115 156.959 305.4 157.354Z" fill="#263238"/>
<path d="M274.537 155.604C274.721 155.651 274.908 155.679 275.097 155.688L276.727 155.857L282.786 156.39L303.389 158.081L303.228 157.988C304.518 159.9 305.85 161.879 307.182 163.908C312.622 172.238 317.365 179.9 320.955 185.347C322.737 188.078 324.222 190.26 325.257 191.766L326.462 193.457C326.592 193.663 326.743 193.856 326.912 194.032C326.8 193.816 326.676 193.607 326.539 193.406L325.402 191.639L321.218 185.152C317.705 179.664 312.995 171.985 307.556 163.646C306.224 161.591 304.883 159.612 303.584 157.726L303.525 157.642H303.466L282.853 156.119L276.786 155.714L275.148 155.621C274.945 155.6 274.741 155.594 274.537 155.604Z" fill="#263238"/>
<path d="M290.499 160.991C290.515 160.921 290.545 160.854 290.587 160.796C290.629 160.738 290.683 160.688 290.745 160.651C290.807 160.614 290.876 160.59 290.947 160.58C291.019 160.57 291.091 160.574 291.161 160.593C291.434 160.655 291.684 160.793 291.882 160.991C292.008 161.105 292.09 161.26 292.113 161.429C292.137 161.597 292.1 161.768 292.01 161.913C291.747 162.242 291.161 162.116 290.873 161.845C290.742 161.746 290.64 161.616 290.574 161.466C290.509 161.317 290.483 161.153 290.499 160.991Z" fill="white"/>
<path d="M303.024 180.763C303.024 180.763 304.077 178.226 301.395 177.922C298.153 177.754 294.904 177.754 291.662 177.922C291.662 177.922 287.801 178.328 288.615 181.084C288.615 181.084 286.341 183.114 287.563 185.313C288.785 187.512 289.26 186.852 289.26 186.852C289.26 186.852 288.938 189.533 290.957 189.93C290.957 189.93 293.164 192.527 295.2 192.366C297.237 192.205 305.85 188.07 306.419 187.292C306.987 186.514 307.802 186.023 307.318 185.118C307.318 185.118 308.37 182.742 306.096 182.378C306.113 182.336 305.952 180.366 303.024 180.763Z" fill="#FFBF9D"/>
<path d="M290.788 181.668C291.385 181.792 291.995 181.838 292.604 181.803C293.724 181.803 295.268 181.803 296.974 181.803C298.444 181.846 299.915 181.761 301.37 181.55C302.524 181.279 302.982 180.603 302.931 180.586C302.433 180.9 301.88 181.121 301.302 181.237C300.241 181.414 298.671 181.305 296.965 181.364C295.26 181.423 293.715 181.44 292.595 181.491C291.988 181.477 291.381 181.537 290.788 181.668Z" fill="#89B1FF"/>
<path d="M292.706 185.727C292.885 185.832 293.084 185.898 293.291 185.922C293.849 186.035 294.42 186.072 294.988 186.032C295.816 185.969 296.636 185.819 297.432 185.584C298.332 185.338 299.291 184.992 300.3 184.687C301.239 184.378 302.21 184.176 303.194 184.087C304.045 184.166 304.9 183.995 305.655 183.596C305.95 183.398 306.159 183.096 306.24 182.751C306.295 182.493 306.259 182.224 306.139 181.989C305.926 181.609 305.638 181.584 305.646 181.6C305.655 181.617 305.85 181.719 305.977 182.066C306.059 182.301 306.053 182.557 305.961 182.788C305.869 183.019 305.698 183.21 305.477 183.326C304.752 183.644 303.955 183.763 303.169 183.672C302.149 183.736 301.143 183.929 300.173 184.247L297.322 185.186C296.551 185.425 295.762 185.6 294.963 185.711C294.211 185.762 293.458 185.767 292.706 185.727Z" fill="#89B1FF"/>
<path d="M295.591 189.153C296.209 189.117 296.819 189.001 297.407 188.806C298.51 188.527 300.02 188.095 301.649 187.563C303.279 187.03 304.772 186.48 305.825 186.049C306.422 185.862 306.993 185.597 307.522 185.262C307.471 185.144 304.823 186.108 301.582 187.131C298.34 188.155 295.557 189.034 295.591 189.153Z" fill="#89B1FF"/>
<path d="M294.903 192.332C295.41 192.376 295.921 192.319 296.405 192.163C297.589 191.877 298.74 191.471 299.842 190.954C301.132 190.37 302.261 189.77 303.075 189.338C303.541 189.142 303.975 188.88 304.365 188.56C302.74 189.084 301.164 189.749 299.655 190.548C297.118 191.765 294.886 192.205 294.903 192.332Z" fill="#89B1FF"/>
<path d="M380.627 168.154C380.627 168.154 375.146 190.041 368.298 198.125C361.662 205.957 351.266 202.354 347.668 192.206C344.07 182.057 337.655 158.961 337.655 158.961L345.53 152.957L359.107 179.249L365.243 161.329L380.627 168.154Z" fill="#FFBF9D"/>
<path d="M338.02 159.587L332.241 151.24C331.4 151.059 330.576 150.804 329.78 150.479C329.127 150.098 328.482 146.783 328.499 146.14C328.516 145.498 327.379 143.984 327.837 143.553C328.295 143.121 329.84 143.096 329.755 142.479C329.755 142.343 328.609 140.956 329.509 139.941C330.005 139.615 330.557 139.383 331.138 139.256L331.045 136.068C331.045 136.068 332.742 132.313 334.532 133.675C334.532 133.675 341.177 138.749 341.847 139.595C342.518 140.44 345.08 151.003 345.53 152.991" fill="#FFBF9D"/>
<path d="M345.53 152.974C345.521 152.785 345.492 152.598 345.445 152.415C345.352 152.01 345.241 151.485 345.097 150.826C344.792 149.439 344.325 147.443 343.697 144.982C343.374 143.747 343.027 142.445 342.577 140.965C342.467 140.61 342.348 140.246 342.195 139.874C342.02 139.495 341.751 139.166 341.414 138.918C340.803 138.385 340.167 137.861 339.513 137.328C338.198 136.271 336.798 135.172 335.347 134.047C334.981 133.722 334.569 133.451 334.125 133.244C333.865 133.182 333.595 133.182 333.336 133.243C333.076 133.305 332.835 133.427 332.631 133.599C331.873 134.256 331.268 135.07 330.858 135.984V136.034C330.858 136.347 330.858 136.677 330.858 137.007C330.858 137.751 330.858 138.495 330.926 139.223L331.078 139.02C330.678 139.116 330.286 139.246 329.907 139.409C329.696 139.496 329.503 139.622 329.339 139.781C329.192 139.951 329.083 140.15 329.016 140.364C328.908 140.787 328.944 141.233 329.118 141.633C329.189 141.824 329.277 142.008 329.381 142.183L329.526 142.428V142.487C329.53 142.507 329.53 142.527 329.526 142.546C329.526 142.614 329.356 142.715 329.195 142.775C329.033 142.834 328.855 142.893 328.677 142.952C328.493 143.001 328.311 143.06 328.134 143.13C327.911 143.194 327.717 143.331 327.582 143.519C327.494 143.736 327.494 143.978 327.582 144.195C327.633 144.378 327.699 144.556 327.777 144.728C327.922 145.066 328.083 145.388 328.202 145.701C328.262 145.843 328.296 145.995 328.304 146.149C328.307 146.33 328.324 146.511 328.355 146.69C328.405 147.037 328.465 147.375 328.541 147.713C328.673 148.365 328.852 149.007 329.076 149.633C329.183 149.961 329.357 150.263 329.585 150.521C329.862 150.7 330.166 150.834 330.484 150.919C331.07 151.096 331.647 151.24 332.182 151.367L332.088 151.308L336.331 157.363L337.519 159.003C337.651 159.201 337.798 159.388 337.961 159.562C337.852 159.351 337.73 159.148 337.596 158.953L336.475 157.261C335.466 155.764 334.049 153.676 332.309 151.122V151.071H332.317C331.774 150.936 331.206 150.783 330.62 150.606C330.349 150.528 330.089 150.415 329.848 150.267C329.665 150.045 329.527 149.789 329.441 149.515C329.224 148.902 329.054 148.275 328.932 147.637C328.864 147.307 328.804 146.978 328.753 146.639C328.753 146.479 328.753 146.301 328.753 146.149C328.746 145.952 328.706 145.758 328.635 145.574C328.507 145.227 328.346 144.906 328.21 144.576C328.136 144.421 328.076 144.26 328.032 144.094C327.986 143.968 327.986 143.83 328.032 143.705C328.13 143.604 328.253 143.531 328.388 143.493C328.558 143.427 328.73 143.37 328.906 143.324C329.084 143.265 329.271 143.214 329.458 143.138C329.691 143.066 329.886 142.905 330.001 142.69C330.032 142.621 330.046 142.546 330.043 142.47C330.041 142.417 330.026 142.365 330.001 142.318V142.25L329.857 142.005C329.765 141.845 329.686 141.678 329.619 141.506C329.482 141.189 329.452 140.835 329.534 140.5C329.579 140.337 329.66 140.187 329.772 140.06C329.899 139.948 330.046 139.859 330.204 139.798C330.562 139.645 330.931 139.52 331.308 139.426L331.46 139.383V139.223C331.46 138.495 331.418 137.76 331.392 137.015C331.392 136.686 331.392 136.347 331.392 136.043V136.136C331.77 135.282 332.329 134.521 333.03 133.903C333.181 133.765 333.363 133.665 333.562 133.613C333.76 133.562 333.968 133.56 334.167 133.607C334.563 133.801 334.931 134.045 335.262 134.335C336.722 135.459 338.122 136.55 339.437 137.599C340.099 138.123 340.735 138.639 341.338 139.155C341.643 139.371 341.886 139.662 342.042 140.001C342.186 140.347 342.305 140.711 342.424 141.058C342.874 142.479 343.273 143.823 343.578 145.041C344.215 147.468 344.741 149.439 345.106 150.851C345.284 151.502 345.42 152.026 345.521 152.424C345.505 152.607 345.508 152.791 345.53 152.974Z" fill="#89B1FF"/>
<path d="M331.138 139.256C331.138 139.324 331.808 139.256 332.835 139.375C333.45 139.469 334.057 139.608 334.651 139.789C335.431 139.899 336.222 139.899 337.002 139.789C337.671 139.695 338.352 139.755 338.995 139.963C339.638 140.171 340.224 140.522 340.71 140.99C341.086 141.406 341.388 141.884 341.601 142.402C341.605 142.101 341.547 141.802 341.43 141.524C341.313 141.247 341.14 140.996 340.922 140.787C340.481 140.303 339.935 139.924 339.327 139.679C338.579 139.39 337.772 139.289 336.976 139.383C336.23 139.476 335.474 139.476 334.728 139.383C334.115 139.213 333.487 139.103 332.852 139.053C332.273 139.007 331.69 139.076 331.138 139.256Z" fill="#89B1FF"/>
<path d="M333.489 139.079C333.582 139.13 333.854 138.741 333.82 138.191C333.786 137.641 333.472 137.295 333.387 137.345C333.302 137.396 333.387 137.768 333.387 138.191C333.387 138.614 333.378 139.037 333.489 139.079Z" fill="#89B1FF"/>
<path d="M329.551 142.597C331.23 142.757 332.924 142.625 334.558 142.208C335.151 142.014 335.776 141.934 336.399 141.971C336.882 142.077 337.308 142.357 337.596 142.758C337.846 143.156 338.067 143.571 338.258 144.001C338.287 143.488 338.14 142.981 337.842 142.563C337.536 142.071 337.049 141.718 336.484 141.582C335.81 141.503 335.127 141.57 334.481 141.777C331.791 142.386 329.551 142.479 329.551 142.597Z" fill="#89B1FF"/>
<path d="M328.669 145.608C329.073 145.702 329.494 145.702 329.899 145.608C330.654 145.523 331.673 145.261 332.776 145.041C333.285 144.928 333.807 144.877 334.329 144.889C334.734 144.896 335.126 145.039 335.44 145.295C335.722 145.554 335.914 145.894 335.992 146.267C335.992 146.267 336.068 146.157 336.06 145.929C336.025 145.607 335.878 145.308 335.644 145.083C335.3 144.746 334.845 144.544 334.363 144.517C333.794 144.478 333.222 144.52 332.665 144.644C331.528 144.863 330.544 145.168 329.814 145.32C329.424 145.377 329.04 145.473 328.669 145.608Z" fill="#89B1FF"/>
<path d="M330.62 147.992C330.552 148.043 331.121 148.635 332.156 148.635L331.953 148.458C331.953 148.635 331.953 148.813 332.012 148.99C332.04 149.715 332.201 150.429 332.487 151.096C332.6 150.382 332.577 149.654 332.419 148.948L332.343 148.415V148.229H332.165C331.643 148.208 331.125 148.128 330.62 147.992Z" fill="#89B1FF"/>
<path d="M371.955 145.988C371.955 145.988 383.182 148.694 383.156 163.536C383.131 178.378 379.762 185.702 379.762 185.702L359.065 174.446L363.715 162.919L371.955 145.988Z" fill="#455A64"/>
<path d="M379.762 185.702C379.613 185.659 379.47 185.596 379.338 185.516L378.133 184.907L373.72 182.59L358.963 174.666L358.793 174.581L358.861 174.403L359.973 171.511C361.297 168.086 362.519 164.822 363.707 161.853C364.284 160.373 364.827 158.961 365.345 157.625C365.796 156.384 366.344 155.179 366.982 154.022C367.835 152.291 369.121 150.809 370.716 149.718C371.164 149.438 371.658 149.241 372.176 149.134C372.307 149.106 372.44 149.089 372.574 149.083H372.719C372.04 149.224 371.393 149.488 370.809 149.861C369.278 150.977 368.055 152.461 367.254 154.174C366.644 155.327 366.119 156.523 365.684 157.752C365.183 159.079 364.649 160.492 364.08 161.98L360.38 171.655L359.269 174.547L359.167 174.277L373.898 182.336L378.243 184.772L379.406 185.448C379.533 185.519 379.653 185.605 379.762 185.702Z" fill="#263238"/>
</svg>
