<svg width="78" height="45" viewBox="0 0 78 45" fill="none" xmlns="http://www.w3.org/2000/svg">
<path d="M34.2261 19.7163L77.7596 10.571L77.8491 11.6892C77.8491 11.6892 76.9174 13.1868 66.7473 16.0422C56.5772 18.8976 31.4256 23.9444 31.4256 23.9444L30.3728 22.6216L34.2261 19.7163Z" fill="#263238"/>
<path d="M65.4629 1.41086C65.4629 1.41086 62.8835 5.26962 59.8409 7.53596C56.7983 9.8023 40.5061 23.1957 40.5061 23.1957L35.2421 25.9562L33.6628 25.0926L36.0317 19.866C36.0317 19.866 54.4295 7.49104 58.4091 4.89024C62.3887 2.28944 65.9735 0.692019 65.4629 1.41086Z" fill="#37474F"/>
<path d="M33.6735 23.8748L35.2527 24.7384L34.8421 25.7318L33.6735 25.0928V23.8748Z" fill="#263238"/>
<path d="M65.505 0.0681152V1.30611L64.1943 3.12816V1.21126L65.505 0.0681152Z" fill="#37474F"/>
<path d="M40.0165 39.5342C42.0431 36.539 39.6796 33.7186 39.9112 31.1527C40.1428 28.5868 40.5008 23.1956 40.5008 23.1956L35.2367 25.9561C35.2367 25.9561 33.4891 30.1893 32.7626 31.9714C32.0362 33.7535 28.8988 35.6355 26.9722 37.173C25.0456 38.7105 23.4295 42.3846 28.8093 43.8172C34.1892 45.2499 37.9951 42.5144 40.0165 39.5342ZM30.5412 41.8205C28.4672 41.2514 27.846 39.639 29.1515 38.2163C30.457 36.7936 33.1943 36.0997 35.2683 36.6688C37.3423 37.2379 37.9582 38.8553 36.6527 40.278C35.3473 41.7007 32.6468 42.3895 30.5412 41.8205Z" fill="#89B1FF"/>
<path opacity="0.2" d="M40.0165 39.5342C42.0431 36.539 39.6796 33.7186 39.9112 31.1527C40.1428 28.5868 40.5008 23.1956 40.5008 23.1956L35.2367 25.9561C35.2367 25.9561 33.4891 30.1893 32.7626 31.9714C32.0362 33.7535 28.8988 35.6355 26.9722 37.173C25.0456 38.7105 23.4295 42.3846 28.8093 43.8172C34.1892 45.2499 37.9951 42.5144 40.0165 39.5342ZM30.5412 41.8205C28.4672 41.2514 27.846 39.639 29.1515 38.2163C30.457 36.7936 33.1943 36.0997 35.2683 36.6688C37.3423 37.2379 37.9582 38.8553 36.6527 40.278C35.3473 41.7007 32.6468 42.3895 30.5412 41.8205Z" fill="black"/>
<path d="M40.2324 21.3293C39.9358 21.5623 39.5818 21.7201 39.2035 21.7882C38.8251 21.8563 38.4348 21.8324 38.0688 21.7187C37.274 21.5041 36.9529 20.9699 37.3529 20.5356C37.6495 20.3027 38.0035 20.1448 38.3818 20.0767C38.7602 20.0086 39.1505 20.0326 39.5164 20.1463C40.3113 20.3609 40.6324 20.895 40.2324 21.3293Z" fill="#263238"/>
<path d="M34.1839 19.1226C34.1839 19.1226 27.9618 20.2108 25.9141 20.3905C23.8663 20.5702 20.9027 20.1559 15.7808 20.6002C10.6589 21.0444 1.43631 25.2127 0.962545 29.2562C0.488782 33.2997 4.91057 33.5992 8.08478 32.8754C11.259 32.1515 13.0172 31.0383 18.4549 28.4575C25.714 25.018 30.5306 22.8366 30.5306 22.8366L34.5997 19.6417L34.1839 19.1226ZM22.1187 24.5738C19.1591 25.485 16.2708 26.5926 13.4751 27.8884C10.0061 29.5158 9.17444 30.619 7.00566 31.1032C5.24221 31.4976 3.49981 30.5591 4.37364 28.7221C5.31591 26.7652 7.92161 24.7285 12.7171 23.2309C17.5127 21.7333 21.4502 22.0129 23.2031 22.8915C23.9032 23.2509 24.2243 23.9198 22.1187 24.5738Z" fill="#89B1FF"/>
<path opacity="0.2" d="M34.1839 19.1226C34.1839 19.1226 27.9618 20.2108 25.9141 20.3905C23.8663 20.5702 20.9027 20.1559 15.7808 20.6002C10.6589 21.0444 1.43631 25.2127 0.962545 29.2562C0.488782 33.2997 4.91057 33.5992 8.08478 32.8754C11.259 32.1515 13.0172 31.0383 18.4549 28.4575C25.714 25.018 30.5306 22.8366 30.5306 22.8366L34.5997 19.6417L34.1839 19.1226ZM22.1187 24.5738C19.1591 25.485 16.2708 26.5926 13.4751 27.8884C10.0061 29.5158 9.17444 30.619 7.00566 31.1032C5.24221 31.4976 3.49981 30.5591 4.37364 28.7221C5.31591 26.7652 7.92161 24.7285 12.7171 23.2309C17.5127 21.7333 21.4502 22.0129 23.2031 22.8915C23.9032 23.2509 24.2243 23.9198 22.1187 24.5738Z" fill="black"/>
<path d="M31.4045 23.9449V22.7269L30.5306 21.6187V22.8367L31.4045 23.9449Z" fill="#263238"/>
<path d="M34.2261 18.4985L77.8491 10.4714C77.8491 10.4714 76.9174 11.969 66.7473 14.8294C56.5772 17.6898 31.4256 22.7266 31.4256 22.7266L30.3728 21.4038L34.2261 18.4985Z" fill="#37474F"/>
<path d="M65.4629 0.19284C65.4629 0.19284 62.8835 4.0566 59.8409 6.32294C56.7983 8.58928 40.5061 21.9826 40.5061 21.9826L35.2421 24.7382L33.6628 23.8746L36.0317 18.648C36.0317 18.648 54.4295 6.27302 58.4091 3.67222C62.3887 1.07142 65.9735 -0.525999 65.4629 0.19284Z" fill="#455A64"/>
<path d="M40.0165 38.3163C42.0431 35.3211 39.6796 32.5007 39.9112 29.9348C40.1428 27.369 40.5008 21.9827 40.5008 21.9827L35.2367 24.7382C35.2367 24.7382 33.4891 28.9714 32.7626 30.7585C32.0362 32.5456 28.8988 34.4176 26.9722 35.9551C25.0456 37.4926 23.4295 41.1667 28.8093 42.6044C34.1892 44.042 37.9951 41.2965 40.0165 38.3163ZM30.5412 40.6076C28.4672 40.0385 27.846 38.4211 29.1515 36.9984C30.457 35.5757 33.1943 34.8868 35.2683 35.4559C37.3423 36.025 37.9582 37.6374 36.6527 39.0601C35.3473 40.4828 32.6468 41.1767 30.5412 40.6076Z" fill="#89B1FF"/>
<path d="M40.2324 20.1113C39.9363 20.3451 39.5825 20.5039 39.2042 20.5728C38.8258 20.6418 38.4352 20.6187 38.0688 20.5057C37.274 20.286 36.9529 19.7569 37.3529 19.3176C37.6495 19.0847 38.0035 18.9268 38.3818 18.8587C38.7602 18.7906 39.1505 18.8145 39.5164 18.9282C40.3113 19.1479 40.6324 19.677 40.2324 20.1113Z" fill="#263238"/>
<path d="M34.1839 17.9045C34.1839 17.9045 27.9618 18.9978 25.9141 19.1775C23.8664 19.3572 20.9027 18.9429 15.7808 19.3822C10.6589 19.8215 1.43631 23.9947 0.962545 28.0382C0.488782 32.0816 4.91057 32.3862 8.08478 31.6573C11.259 30.9285 13.0172 29.8203 18.4549 27.2445C25.714 23.79 30.5412 21.6185 30.5412 21.6185L34.6103 18.4287L34.1839 17.9045ZM22.1187 23.3557C19.1583 24.2668 16.2698 25.3762 13.4751 26.6754C10.0062 28.2978 9.17444 29.401 7.00566 29.8852C5.24221 30.2845 3.49982 29.3411 4.37365 27.504C5.31591 25.5522 7.92161 23.5105 12.7171 22.0379C17.5127 20.5652 21.4502 20.8148 23.2031 21.6934C23.9032 22.0329 24.2243 22.7018 22.1187 23.3557Z" fill="#89B1FF"/>
</svg>
