<svg width="222" height="102" viewBox="0 0 222 102" fill="none" xmlns="http://www.w3.org/2000/svg">
<path d="M191.85 46.9283C207.063 46.9283 219.396 40.1743 219.396 31.8427C219.396 23.5111 207.063 16.7571 191.85 16.7571C176.636 16.7571 164.303 23.5111 164.303 31.8427C164.303 40.1743 176.636 46.9283 191.85 46.9283Z" fill="#E0E0E0"/>
<path d="M172.725 99.3481C171.644 99.3421 170.569 99.196 169.53 98.9138C166.372 98.0802 165.419 96.5227 165.151 95.3645C164.724 93.4876 165.914 91.5457 167.256 90.4525C167.746 90.0631 168.309 89.6538 168.888 89.2295C170.404 88.1213 172.289 86.7335 172.725 85.6802L174.831 80.4986L173.226 79.62L173.573 78.8562L171.899 79.1957L171.146 78.2422C169.483 79.001 165.393 80.8829 159.908 83.4837C158.644 84.0828 157.581 84.6019 156.649 85.0562C153.57 86.5538 151.869 87.3924 149.279 87.9765C148.329 88.1993 147.353 88.315 146.374 88.3209C144.358 88.3209 142.778 87.7768 141.81 86.7485C141.38 86.2665 141.067 85.7014 140.891 85.0927C140.716 84.484 140.683 83.8463 140.794 83.2242C141.368 78.3421 151.406 74.0839 156.618 73.6396C158.328 73.4899 159.944 73.42 161.692 73.42C162.54 73.42 163.303 73.42 163.987 73.4549C164.514 73.4549 165.04 73.4549 165.487 73.4549C165.935 73.4549 166.367 73.4549 166.746 73.41C168.72 73.2403 174.857 72.162 174.921 72.152L175.589 72.0372L176 72.5364L177.532 72.2569C179.558 70.8941 195.066 60.4709 198.725 58.0848C201.009 56.5872 205.099 54.241 206.342 54.241H207.01L207.421 54.83L207.737 55.3891L207.315 56.0481C207.226 56.1878 204.615 60.0416 201.462 62.4128C200.156 63.4112 196.387 66.4313 192.639 69.4764L221.023 64.3097L219.781 66.3065C219.438 66.8706 217.596 68.463 208.042 71.1437C202.288 72.7511 191.781 75.0623 183.869 76.7346L182.596 77.7879C182.506 79.1258 182.222 83.1942 182.032 85.3258C182.027 86.1896 182.165 87.0488 182.443 87.8717C182.927 89.6638 183.522 91.9001 181.969 94.1865C180.643 96.1183 177.695 99.3481 172.725 99.3481ZM174.726 91.6056C174.04 91.5896 173.359 91.7036 172.72 91.9411C172.082 92.1786 171.5 92.5346 171.009 92.9884C170.865 93.1204 170.755 93.2826 170.688 93.462C170.622 93.6413 170.6 93.833 170.625 94.0217C170.745 94.2501 170.92 94.4485 171.136 94.6011C171.352 94.7537 171.602 94.8561 171.867 94.9003C172.275 95.0074 172.697 95.0594 173.12 95.055C173.806 95.0707 174.489 94.9564 175.128 94.719C175.767 94.4816 176.35 94.1257 176.842 93.6723C176.987 93.541 177.097 93.3787 177.163 93.199C177.229 93.0193 177.249 92.8274 177.221 92.639C177.102 92.4103 176.927 92.2119 176.711 92.06C176.495 91.9081 176.244 91.8071 175.979 91.7654C175.571 91.6562 175.149 91.6024 174.726 91.6056ZM160.208 77.3287C158.128 77.3582 156.066 77.695 154.096 78.3271C148.653 80.0243 146.942 82.1359 146.411 83.2441C146.342 83.3839 146.195 83.7433 146.321 83.918C146.438 84.0301 146.58 84.1157 146.737 84.1684C146.894 84.2212 147.061 84.2397 147.226 84.2226C147.404 84.2221 147.581 84.2003 147.753 84.1577C148.767 83.8951 149.723 83.4604 150.574 82.8747C151.677 82.1978 152.819 81.5811 153.996 81.0277C156.834 79.7036 159.771 78.5774 162.782 77.6581L162.876 77.6232C162.005 77.4126 161.107 77.3135 160.208 77.3287Z" fill="#E0E0E0"/>
<path d="M75.604 96.8874C72.8825 98.2053 79.7626 102.798 83.1631 101.026L143.22 67.6896L150.374 60.5312C150.445 60.4582 150.488 60.3655 150.498 60.267C150.508 60.1686 150.483 60.0698 150.429 59.9856C150.374 59.9015 150.292 59.8366 150.194 59.8008C150.097 59.765 149.99 59.7603 149.89 59.7874L136.088 63.7809L75.604 96.8874Z" fill="#E0E0E0"/>
<path d="M24.4059 86.4693L1.38098 73.8597C0.0807687 73.1508 0.0807687 71.9977 1.38098 71.2889L130.223 0.827663C130.952 0.478052 131.757 0.295898 132.574 0.295898C133.39 0.295898 134.196 0.478052 134.924 0.827663L157.954 13.4373C159.249 14.1462 159.249 15.2993 157.954 16.0081L29.1066 86.4693C28.378 86.8189 27.5729 87.0011 26.7563 87.0011C25.9397 87.0011 25.1345 86.8189 24.4059 86.4693Z" fill="#E0E0E0"/>
</svg>
