<svg width="54" height="53" viewBox="0 0 54 53" fill="none" xmlns="http://www.w3.org/2000/svg">
<path d="M7.62018 30.9735C7.63147 30.85 7.67747 30.7316 7.75339 30.6306C7.8293 30.5296 7.93236 30.4498 8.05183 30.3994C8.37395 30.2442 8.73017 30.1633 9.09148 30.1633C9.4528 30.1633 9.80901 30.2442 10.1311 30.3994C10.25 30.4507 10.3524 30.5307 10.4282 30.6315C10.504 30.7323 10.5504 30.8503 10.5628 30.9735L7.87813 44.0274C7.86721 44.1125 7.83338 44.1934 7.77991 44.2625C7.72644 44.3316 7.65511 44.3864 7.5728 44.4218C7.34565 44.5326 7.09391 44.5904 6.83848 44.5904C6.58304 44.5904 6.3313 44.5326 6.10415 44.4218C6.02185 44.3864 5.95052 44.3316 5.89705 44.2625C5.84357 44.1934 5.80975 44.1125 5.79883 44.0274L7.62018 30.9735Z" fill="#455A64"/>
<path d="M45.716 30.974C45.7047 30.8512 45.6593 30.7333 45.5844 30.6325C45.5095 30.5317 45.4078 30.4514 45.2896 30.3999C44.9639 30.2414 44.603 30.1587 44.2368 30.1587C43.8707 30.1587 43.5098 30.2414 43.184 30.3999C43.0659 30.4514 42.9642 30.5317 42.8893 30.6325C42.8144 30.7333 42.769 30.8512 42.7576 30.974L45.437 44.0279C45.4474 44.1125 45.4805 44.1931 45.533 44.2621C45.5855 44.3311 45.6558 44.3863 45.7371 44.4223C45.9652 44.5331 46.2178 44.5909 46.474 44.5909C46.7303 44.5909 46.9829 44.5331 47.211 44.4223C47.2923 44.3863 47.3626 44.3311 47.4151 44.2621C47.4676 44.1931 47.5006 44.1125 47.5111 44.0279L45.716 30.974Z" fill="#455A64"/>
<path d="M28.3183 32.9055C28.3067 32.7827 28.2605 32.6651 28.1845 32.565C28.1086 32.4649 28.0057 32.386 27.8867 32.3365C27.5646 32.1812 27.2084 32.1003 26.847 32.1003C26.4857 32.1003 26.1295 32.1812 25.8074 32.3365C25.689 32.3869 25.5867 32.466 25.5109 32.566C25.4351 32.6659 25.3885 32.783 25.3757 32.9055L25.8074 51.5255C25.8183 51.6105 25.8521 51.6915 25.9056 51.7605C25.9591 51.8296 26.0304 51.8845 26.1127 51.9198C26.3406 52.0283 26.5921 52.0848 26.847 52.0848C27.102 52.0848 27.3535 52.0283 27.5814 51.9198C27.6637 51.8845 27.735 51.8296 27.7885 51.7605C27.8419 51.6915 27.8757 51.6105 27.8867 51.5255L28.3183 32.9055Z" fill="#455A64"/>
<path d="M53.2117 21.0247H53.1854C53.1854 17.3306 50.6376 13.6366 45.4894 10.8212C35.1929 5.18526 18.5007 5.18526 8.20952 10.8212C3.0613 13.6366 0.50824 17.3107 0.50824 21.0247V23.0215C0.566144 26.6656 3.14025 30.2997 8.23057 33.0802C18.5218 38.7161 35.214 38.7161 45.5105 33.0802C50.5903 30.2997 53.1696 26.6656 53.2328 23.0215L53.2117 21.0247Z" fill="#89B1FF"/>
<path d="M8.2046 10.8214C-2.08659 16.4573 -2.08659 25.5975 8.2046 31.2334C18.4958 36.8693 35.188 36.8693 45.4845 31.2334C55.7809 25.5975 55.7809 16.4573 45.4845 10.8214C35.188 5.18551 18.501 5.18551 8.2046 10.8214Z" fill="#89B1FF"/>
<path opacity="0.45" d="M8.2046 10.8214C-2.08659 16.4573 -2.08659 25.5975 8.2046 31.2334C18.4958 36.8693 35.188 36.8693 45.4845 31.2334C55.7809 25.5975 55.7809 16.4573 45.4845 10.8214C35.188 5.18551 18.501 5.18551 8.2046 10.8214Z" fill="white"/>
<g opacity="0.05">
<path d="M32.6243 18.6137C35.909 20.4108 35.909 23.3261 32.6243 25.1032C29.3395 26.8804 24.0123 26.9003 20.7328 25.1032C17.4533 23.3061 17.4481 20.3908 20.7328 18.6137C24.0176 16.8366 29.3395 16.8116 32.6243 18.6137Z" fill="black"/>
</g>
<path d="M21.4488 22.2673C18.5852 19.5018 16.9059 12.5929 19.6959 10.3965H33.9088C36.6987 12.5929 35.0195 19.4968 32.1611 22.2673L32.0874 22.3422L31.9874 22.4321C31.9032 22.5069 31.8189 22.5818 31.7295 22.6517L31.661 22.7016L31.4452 22.8564C31.3263 22.9394 31.2014 23.0145 31.0715 23.081C28.7237 24.3689 24.9073 24.3689 22.5542 23.081C22.4279 23.0161 22.3068 22.9362 22.1805 22.8564L21.9805 22.7116L21.8962 22.6467C21.8078 22.5834 21.725 22.5133 21.6488 22.437L21.533 22.3322C21.5019 22.3144 21.4735 22.2926 21.4488 22.2673Z" fill="#EBEBEB"/>
<path d="M32.656 9.51319C35.8933 11.2853 35.8933 14.1607 32.656 15.9328C29.4186 17.7049 24.1703 17.7049 20.9277 15.9328C17.685 14.1607 17.6903 11.2853 20.9277 9.51319C24.1651 7.74105 29.4186 7.74105 32.656 9.51319Z" fill="#FAFAFA"/>
<path d="M30.3608 10.7712C32.3296 11.8494 32.3296 13.5966 30.3608 14.6749C29.2553 15.2056 28.0336 15.4821 26.7944 15.4821C25.5553 15.4821 24.3336 15.2056 23.2281 14.6749C21.2541 13.5966 21.2541 11.8494 23.2281 10.7712C24.3336 10.2404 25.5553 9.96387 26.7944 9.96387C28.0336 9.96387 29.2553 10.2404 30.3608 10.7712Z" fill="#EBEBEB"/>
<path d="M23.2281 12.623C24.3336 12.0922 25.5554 11.8157 26.7945 11.8157C28.0336 11.8157 29.2553 12.0922 30.3609 12.623C30.838 12.8674 31.2433 13.2208 31.54 13.6513C31.2395 14.071 30.8345 14.4139 30.3609 14.6497C29.2553 15.1804 28.0336 15.457 26.7945 15.457C25.5554 15.457 24.3336 15.1804 23.2281 14.6497C22.754 14.4126 22.3476 14.07 22.0437 13.6513C22.344 13.222 22.7507 12.8689 23.2281 12.623Z" fill="#E0E0E0"/>
<path d="M29.924 13.6514C30.933 12.6792 31.8021 11.5848 32.5086 10.3966C33.6983 8.39986 33.9193 5.71919 33.3035 5.4047C32.6876 5.09021 30.1766 7.74591 30.1766 7.74591C30.4093 6.62197 30.4994 5.47567 30.4451 4.33143C30.3398 2.5543 29.8818 0.936916 29.3449 0.61244C28.808 0.287965 27.6025 2.52935 27.0866 4.15672C26.5708 5.78409 26.2602 7.12192 26.2602 7.12192C26.056 5.85317 25.748 4.60141 25.339 3.37797C24.7125 1.6857 24.144 1.30632 23.7071 1.47105C23.2702 1.63579 22.9754 2.4295 22.8438 4.67588C22.7979 5.75193 22.8348 6.82972 22.9544 7.90067C22.9544 7.90067 22.07 6.97716 21.0856 6.08361C20.0065 5.08522 19.5485 4.96541 19.238 5.15011C18.9274 5.33481 18.8431 6.86734 20.5171 9.73271C21.3475 11.1919 22.4132 12.5191 23.6755 13.6664C23.6755 13.6664 25.9759 15.0641 29.924 13.6514Z" fill="#89B1FF"/>
<path opacity="0.3" d="M29.924 13.6514C30.933 12.6792 31.8021 11.5848 32.5086 10.3966C33.6983 8.39986 33.9193 5.71919 33.3035 5.4047C32.6876 5.09021 30.1766 7.74591 30.1766 7.74591C30.4093 6.62197 30.4994 5.47567 30.4451 4.33143C30.3398 2.5543 29.8818 0.936916 29.3449 0.61244C28.808 0.287965 27.6025 2.52935 27.0866 4.15672C26.5708 5.78409 26.2602 7.12192 26.2602 7.12192C26.056 5.85317 25.748 4.60141 25.339 3.37797C24.7125 1.6857 24.144 1.30632 23.7071 1.47105C23.2702 1.63579 22.9754 2.4295 22.8438 4.67588C22.7979 5.75193 22.8348 6.82972 22.9544 7.90067C22.9544 7.90067 22.07 6.97716 21.0856 6.08361C20.0065 5.08522 19.5485 4.96541 19.238 5.15011C18.9274 5.33481 18.8431 6.86734 20.5171 9.73271C21.3475 11.1919 22.4132 12.5191 23.6755 13.6664C23.6755 13.6664 25.9759 15.0641 29.924 13.6514Z" fill="black"/>
</svg>
