<svg width="132" height="177" viewBox="0 0 132 177" fill="none" xmlns="http://www.w3.org/2000/svg">
<path d="M4.36038 176.35C4.06738 176.514 3.73685 176.608 3.39707 176.624C2.91258 176.685 2.42031 176.603 1.9863 176.39C1.64193 176.167 1.35831 175.87 1.1588 175.523C0.959283 175.175 0.849587 174.788 0.838745 174.393V85.2371L3.14966 86.5V175.676C3.14966 176.205 3.42865 176.51 3.82872 176.51C4.01638 176.495 4.19814 176.44 4.36038 176.35Z" fill="#F0F0F0"/>
<path d="M131.45 105.425C131.425 105.825 131.3 106.215 131.087 106.561C130.874 106.908 130.578 107.203 130.224 107.421L4.36048 176.35C3.68668 176.719 3.13922 176.42 3.13922 175.676V78.9673L6.51347 77.1203C7.18726 76.7509 8.28745 71.13 8.96651 70.7356L38.2345 54.7115C38.9136 54.3421 40.5086 58.5104 41.1824 58.136L131.45 8.71582V105.425Z" fill="#FAFAFA"/>
<path d="M130.882 9.62943V105.425C130.858 105.733 130.761 106.033 130.598 106.301C130.435 106.569 130.21 106.799 129.939 106.972L4.07622 175.886C3.99834 175.933 3.91004 175.962 3.81828 175.971C3.70247 175.971 3.70247 175.691 3.70247 175.676V79.2719L6.79772 77.5747C7.28728 77.3051 7.59259 76.4016 8.28218 74.0803C8.5283 73.0856 8.86651 72.1134 9.29287 71.175L38.2977 55.2957C38.6417 55.737 38.9496 56.2026 39.2189 56.6884C40.0085 58.0063 40.4507 58.6852 41.0929 58.6852C41.2248 58.6852 41.3541 58.6506 41.4667 58.5853L130.882 9.62943ZM131.45 8.70093L41.1824 58.1211C41.1554 58.1368 41.1245 58.1454 41.0929 58.146C40.4086 58.146 38.9873 54.6517 38.324 54.6517C38.2947 54.6443 38.2639 54.6443 38.2345 54.6517L8.96651 70.6758C8.28745 71.0502 7.18726 76.6661 6.51347 77.0605L3.13922 78.9674V175.676C3.13922 176.205 3.41295 176.51 3.81828 176.51C4.00562 176.502 4.18735 176.447 4.34469 176.35L130.224 107.421C130.578 107.203 130.874 106.908 131.087 106.561C131.3 106.215 131.425 105.825 131.45 105.425V8.70093Z" fill="#E0E0E0"/>
<path d="M1.98602 82.5366C1.64067 82.3143 1.35602 82.0173 1.15557 81.6701C0.955127 81.3229 0.844624 80.9355 0.833191 80.5398V71.4795C0.857354 71.0803 0.979374 70.6919 1.18955 70.3453C1.39973 69.9987 1.69227 69.7033 2.04392 69.4827L127.907 0.593987C128.261 0.381133 128.67 0.264347 129.089 0.256305C129.508 0.248263 129.922 0.349273 130.285 0.548371C130.648 0.747468 130.946 1.03705 131.148 1.38566C131.35 1.73428 131.447 2.12862 131.429 2.52587V11.5762C131.404 11.977 131.28 12.3667 131.067 12.7136C130.854 13.0605 130.558 13.3549 130.202 13.573L4.3601 82.4967C3.99535 82.6793 3.59046 82.778 3.17807 82.785C2.76569 82.7919 2.35736 82.7068 1.98602 82.5366Z" fill="#89B1FF"/>
<path opacity="0.4" d="M131.434 2.29615C131.35 1.69212 130.834 1.47248 130.223 1.79695L4.36042 70.7256C4.0012 70.9465 3.70329 71.2462 3.49185 71.5992L1.19147 70.3362C1.39761 69.9897 1.69047 69.6965 2.04424 69.4826L127.907 0.593897C128.246 0.388945 128.636 0.272436 129.038 0.256133C129.439 0.23983 129.839 0.324312 130.195 0.501047C130.551 0.677782 130.852 0.940512 131.066 1.26271C131.281 1.5849 131.403 1.95516 131.418 2.33608L131.434 2.29615Z" fill="white"/>
<path opacity="0.1" d="M3.4918 71.599C3.27294 71.9451 3.1515 72.3388 3.13911 72.7422V86.5249L0.828203 85.2619V71.4792C0.825576 71.4326 0.825576 71.386 0.828203 71.3394C0.837633 71.2421 0.853454 71.1454 0.875578 71.0499C0.941466 70.7979 1.04424 70.556 1.18089 70.3311L3.4918 71.599Z" fill="black"/>
<path d="M131.445 2.4809V8.70086L41.1771 58.121C40.5033 58.4954 39.9559 58.1909 39.9559 57.4521V55.0959C39.9559 54.3571 39.4295 54.0526 38.7241 54.427L8.96124 70.7207C8.60666 70.9396 8.31105 71.2343 8.09807 71.581C7.88509 71.9277 7.76065 72.3169 7.73472 72.7174V75.0686C7.70798 75.469 7.5832 75.8579 7.37029 76.2045C7.15739 76.5511 6.86222 76.8459 6.5082 77.0654L3.13922 78.9673V72.7424C3.16538 72.3425 3.28935 71.9539 3.50132 71.6073C3.71329 71.2607 4.00744 70.9657 4.36048 70.7456L130.224 1.85691C130.897 1.43759 131.445 1.7421 131.445 2.4809Z" fill="#89B1FF"/>
<path d="M125.696 6.37926C126.549 5.91501 127.239 6.2944 127.239 7.22789C127.21 7.73572 127.055 8.22991 126.787 8.67047C126.519 9.11103 126.145 9.48557 125.696 9.76379C124.844 10.228 124.149 9.84866 124.149 8.91516C124.179 8.40698 124.335 7.91266 124.603 7.47213C124.872 7.0316 125.247 6.65723 125.696 6.37926Z" fill="white"/>
<path d="M120.137 9.41959C120.99 8.95534 121.68 9.32973 121.68 10.2632C121.651 10.7712 121.497 11.2657 121.229 11.7064C120.961 12.1471 120.587 12.5215 120.137 12.7991C119.285 13.2684 118.595 12.889 118.595 11.9555C118.624 11.4477 118.779 10.9535 119.047 10.5129C119.315 10.0724 119.689 9.69781 120.137 9.41959Z" fill="white"/>
<path d="M114.579 12.4601C115.432 11.9909 116.121 12.3703 116.121 13.3037C116.092 13.8116 115.937 14.3058 115.669 14.7463C115.401 15.1869 115.028 15.5614 114.579 15.8396C113.726 16.3039 113.036 15.9295 113.036 14.996C113.065 14.488 113.219 13.9935 113.487 13.5528C113.755 13.1121 114.129 12.7377 114.579 12.4601Z" fill="white"/>
<path d="M131.45 8.70093V16.2637L3.13922 86.5252V78.9674L5.66069 77.5846C6.33449 77.2152 6.56084 76.6511 6.88195 75.5879L7.73999 72.7724C8.00845 71.774 8.26639 71.1301 8.96651 70.7756L38.2345 54.7515C38.9136 54.3821 39.4453 54.3422 39.9611 55.1509L41.0139 56.958C41.3982 57.587 41.593 57.9564 42.2668 57.5869L131.45 8.70093Z" fill="#E6E6E6"/>
<path d="M3.13928 78.9573V86.5251L0.828369 85.2621V77.7043L3.13928 78.9573Z" fill="#E0E0E0"/>
<path d="M8.76643 79.5065L6.8398 80.5598L7.5715 79.222C7.601 79.1716 7.61647 79.1149 7.61647 79.0573C7.61647 78.9996 7.601 78.9429 7.5715 78.8925C7.51359 78.8276 7.41884 78.8925 7.35041 78.9924L6.2976 80.8943C6.2976 80.8943 6.2976 80.9392 6.27128 80.9642C6.2687 80.9957 6.2687 81.0275 6.27128 81.059C6.26775 81.0872 6.26775 81.1157 6.27128 81.1439C6.27885 81.1579 6.28766 81.1712 6.2976 81.1838L7.35041 81.9426C7.36535 81.9539 7.38391 81.9601 7.40305 81.9601C7.42218 81.9601 7.44075 81.9539 7.45569 81.9426C7.50957 81.9095 7.55031 81.8603 7.5715 81.8028C7.6294 81.678 7.61887 81.5382 7.5715 81.4933L6.8398 80.9542L8.76643 79.9009C8.81532 79.864 8.85454 79.8168 8.88102 79.7631C8.9075 79.7094 8.92053 79.6506 8.91909 79.5914C8.91909 79.5215 8.85066 79.4666 8.76643 79.5065Z" fill="#455A64"/>
<path d="M10.3719 78.623L12.2985 77.5697L11.5616 77.0355C11.5302 76.9885 11.5136 76.9339 11.5136 76.8783C11.5136 76.8226 11.5302 76.7681 11.5616 76.721C11.6142 76.5962 11.7142 76.5363 11.7774 76.5813L12.8302 77.345C12.8445 77.3552 12.8554 77.3691 12.8618 77.385C12.8672 77.413 12.8672 77.4418 12.8618 77.4698C12.8669 77.5029 12.8669 77.5366 12.8618 77.5697L12.8302 77.6446L11.7774 79.5515C11.7571 79.5972 11.7221 79.6356 11.6774 79.6613C11.6617 79.6753 11.641 79.6832 11.6195 79.6832C11.5979 79.6832 11.5772 79.6753 11.5616 79.6613C11.5315 79.612 11.5157 79.556 11.5157 79.4991C11.5157 79.4421 11.5315 79.3861 11.5616 79.3368L12.2985 77.999L10.3719 79.0523C10.2877 79.0972 10.2192 79.0523 10.2192 78.9125C10.2216 78.8567 10.2365 78.8021 10.2628 78.7522C10.2891 78.7023 10.3263 78.6582 10.3719 78.623Z" fill="#455A64"/>
<path d="M16.6888 73.3665C16.6888 73.2567 16.5783 73.2667 16.5257 73.3665L16.2625 73.9805C15.8097 73.9356 15.2675 74.3499 14.8991 75.0887C14.42 76.0472 14.42 77.1803 14.8991 77.6146C15.0144 77.7168 15.1637 77.7777 15.3213 77.7868C15.4788 77.7959 15.6348 77.7527 15.7624 77.6646C16.1477 77.4185 16.4494 77.0717 16.6309 76.6662C16.66 76.6175 16.6753 76.5624 16.6753 76.5064C16.6753 76.4505 16.66 76.3954 16.6309 76.3467C16.5678 76.2918 16.473 76.3467 16.4098 76.4665C16.0519 77.1804 15.4728 77.4998 15.1202 77.1754C14.7675 76.8509 14.7622 76.0023 15.1202 75.2884C15.3728 74.7892 15.736 74.4797 16.0519 74.4597L15.8571 74.924C15.8045 75.0438 15.8571 75.1536 15.9308 75.1037L16.7152 74.6045C16.7474 74.5818 16.7727 74.5513 16.7885 74.5162C16.8042 74.4811 16.8098 74.4427 16.8046 74.4048L16.6888 73.3665Z" fill="#455A64"/>
<path d="M37.3871 58.1559L38.0925 56.7482C38.1321 56.6811 38.153 56.6054 38.153 56.5285C38.153 56.4516 38.1321 56.376 38.0925 56.3089C38.0083 56.234 37.8714 56.3089 37.7924 56.4736L37.0871 57.8813L36.3869 57.2424C36.3027 57.1675 36.1711 57.2424 36.0869 57.4071C36.0446 57.4734 36.0223 57.5493 36.0223 57.6267C36.0223 57.7042 36.0446 57.7801 36.0869 57.8464L36.787 58.5003L36.0869 59.9081C36.0446 59.9743 36.0223 60.0503 36.0223 60.1277C36.0223 60.2051 36.0446 60.2811 36.0869 60.3474C36.1072 60.3645 36.1334 60.3741 36.1606 60.3741C36.1878 60.3741 36.214 60.3645 36.2343 60.3474C36.303 60.3055 36.3563 60.2445 36.3869 60.1726L37.0871 58.7649L37.7924 59.4039C37.8127 59.4211 37.8389 59.4306 37.8661 59.4306C37.8933 59.4306 37.9196 59.4211 37.9398 59.4039C38.0085 59.362 38.0619 59.301 38.0925 59.2292C38.1321 59.1621 38.153 59.0864 38.153 59.0095C38.153 58.9326 38.1321 58.857 38.0925 58.7899L37.3871 58.1559Z" fill="#455A64"/>
<path d="M19.2471 75.0984V72.7422C19.2727 72.3416 19.3969 71.9523 19.6099 71.6055C19.8229 71.2587 20.1188 70.9641 20.4736 70.7455L123.317 14.4414C123.996 14.067 124.544 14.3715 124.544 15.1103V17.4665C124.518 17.8671 124.394 18.2565 124.181 18.6033C123.968 18.9501 123.672 19.2446 123.317 19.4633L20.4684 75.7673C19.7946 76.1417 19.2471 75.8372 19.2471 75.0984Z" fill="#FAFAFA"/>
<path d="M121.648 19.6631C121.612 19.6688 121.574 19.6688 121.538 19.6631C121.469 19.6329 121.413 19.5813 121.38 19.5168C121.346 19.4523 121.337 19.3788 121.354 19.3087L121.475 18.3552L121.001 18.0308C120.96 18 120.927 17.9605 120.905 17.9154C120.883 17.8702 120.873 17.8208 120.875 17.7712C120.873 17.6937 120.89 17.6168 120.924 17.5466C120.959 17.4764 121.01 17.4149 121.075 17.3668L121.796 16.8377C121.81 16.8215 121.821 16.8029 121.827 16.7828L122.148 15.7844C122.168 15.7022 122.213 15.6275 122.278 15.5697C122.343 15.5119 122.424 15.4737 122.512 15.4599C122.571 15.4535 122.631 15.4657 122.682 15.4945C122.733 15.5234 122.773 15.5673 122.796 15.6196L123.064 16.1638L123.675 15.9441C123.729 15.9211 123.79 15.9155 123.848 15.9281C123.906 15.9407 123.958 15.9709 123.996 16.014C124.046 16.0831 124.073 16.1649 124.073 16.2486C124.073 16.3324 124.046 16.4142 123.996 16.4833L123.47 17.4118C123.467 17.43 123.467 17.4484 123.47 17.4667L123.596 18.3053C123.606 18.382 123.597 18.4598 123.569 18.5326C123.542 18.6054 123.497 18.6711 123.438 18.7246C123.404 18.7631 123.36 18.7928 123.31 18.8111C123.26 18.8294 123.207 18.8357 123.154 18.8295L122.591 18.7446L121.954 19.5134C121.92 19.5603 121.874 19.5985 121.821 19.6247C121.768 19.6508 121.708 19.664 121.648 19.6631ZM121.301 17.7163L121.775 18.0407C121.824 18.0787 121.861 18.1282 121.883 18.1843C121.906 18.2404 121.912 18.3011 121.901 18.3602L121.817 18.9992L122.243 18.5C122.28 18.4508 122.329 18.4113 122.386 18.3851C122.443 18.3589 122.506 18.3469 122.57 18.3502L123.159 18.4201C123.163 18.3987 123.163 18.3767 123.159 18.3552L123.033 17.5166C123.023 17.4131 123.045 17.309 123.096 17.2171L123.554 16.4034L123.117 16.5681C123.048 16.5952 122.97 16.5958 122.9 16.5697C122.831 16.5436 122.774 16.493 122.743 16.4283L122.533 15.999L122.243 16.8926C122.213 16.9931 122.151 17.0822 122.064 17.1472L121.343 17.6464C121.322 17.6654 121.308 17.6897 121.301 17.7163Z" fill="#E0E0E0"/>
<path d="M125.991 14.1521C125.897 14.1547 125.804 14.1272 125.728 14.0739C125.652 14.0206 125.598 13.9446 125.573 13.8582C125.548 13.7718 125.554 13.68 125.591 13.5975C125.628 13.515 125.693 13.4466 125.775 13.4033L129.229 11.5114C129.277 11.4812 129.332 11.4607 129.389 11.4512C129.446 11.4416 129.504 11.4433 129.561 11.456C129.617 11.4687 129.671 11.4921 129.717 11.525C129.764 11.5578 129.803 11.5993 129.832 11.6469C129.861 11.6945 129.879 11.7473 129.886 11.8019C129.893 11.8565 129.888 11.9119 129.871 11.9647C129.855 12.0174 129.827 12.0664 129.79 12.1086C129.753 12.1508 129.707 12.1854 129.655 12.2102L126.202 14.0972C126.139 14.1344 126.066 14.1535 125.991 14.1521Z" fill="#455A64"/>
<path d="M125.991 16.0688C125.917 16.0694 125.843 16.0513 125.778 16.0162C125.714 15.9811 125.66 15.9304 125.623 15.8691C125.567 15.7762 125.551 15.6661 125.58 15.5625C125.608 15.459 125.679 15.3701 125.775 15.315L129.229 13.4281C129.277 13.4011 129.33 13.3835 129.386 13.3762C129.442 13.3688 129.498 13.372 129.552 13.3854C129.607 13.3989 129.658 13.4224 129.702 13.4545C129.747 13.4867 129.785 13.5269 129.813 13.5728C129.841 13.6186 129.859 13.6692 129.866 13.7218C129.874 13.7743 129.87 13.8276 129.855 13.8787C129.84 13.9299 129.815 13.9777 129.781 14.0194C129.746 14.0612 129.704 14.096 129.655 14.1219L126.202 16.0139C126.139 16.0511 126.065 16.0702 125.991 16.0688Z" fill="#455A64"/>
<path d="M125.991 17.936C125.897 17.9362 125.806 17.9071 125.731 17.8532C125.657 17.7992 125.603 17.7235 125.578 17.6376C125.554 17.5517 125.56 17.4605 125.595 17.3782C125.631 17.2959 125.694 17.227 125.775 17.1822L129.229 15.2902C129.327 15.2375 129.444 15.2237 129.553 15.2517C129.662 15.2797 129.756 15.3474 129.813 15.44C129.841 15.4858 129.859 15.5364 129.866 15.5889C129.874 15.6414 129.87 15.6948 129.855 15.7459C129.84 15.797 129.815 15.8448 129.781 15.8866C129.746 15.9283 129.704 15.9632 129.655 15.9891L126.202 17.8811C126.138 17.916 126.065 17.9349 125.991 17.936Z" fill="#455A64"/>
<path d="M6.92406 88.6413C6.82965 88.6439 6.73706 88.6163 6.66116 88.563C6.58527 88.5097 6.53046 88.4338 6.50556 88.3474C6.48066 88.261 6.48711 88.1692 6.52386 88.0867C6.56062 88.0042 6.62555 87.9358 6.70823 87.8925L10.1614 86.0006C10.2586 85.9539 10.371 85.9444 10.4754 85.9738C10.5798 86.0032 10.6684 86.0695 10.7229 86.1589C10.7775 86.2483 10.7939 86.3541 10.7688 86.4546C10.7436 86.5552 10.6789 86.6427 10.5878 86.6994L7.13462 88.5864C7.07116 88.6228 6.99826 88.6419 6.92406 88.6413Z" fill="#455A64"/>
<path d="M6.92392 90.5338C6.84935 90.5344 6.77595 90.5163 6.71121 90.4812C6.64647 90.4461 6.59271 90.3954 6.55544 90.3341C6.52701 90.2883 6.5084 90.2375 6.50069 90.1848C6.49298 90.1321 6.49631 90.0785 6.51049 90.027C6.52467 89.9756 6.54943 89.9272 6.58334 89.8848C6.61724 89.8425 6.65964 89.8068 6.70809 89.78L10.1613 87.8931C10.2093 87.8662 10.2624 87.8487 10.3175 87.8414C10.3727 87.8342 10.4288 87.8374 10.4827 87.8508C10.5365 87.8643 10.587 87.8878 10.6313 87.9199C10.6755 87.952 10.7126 87.9921 10.7403 88.0378C10.7688 88.0837 10.7874 88.1344 10.7951 88.1871C10.8028 88.2398 10.7995 88.2935 10.7853 88.3449C10.7711 88.3964 10.7464 88.4447 10.7124 88.4871C10.6785 88.5295 10.6361 88.5651 10.5877 88.5919L7.13448 90.4789C7.07102 90.5154 6.99811 90.5344 6.92392 90.5338Z" fill="#455A64"/>
<path d="M6.92395 92.4451C6.83011 92.4454 6.7388 92.4163 6.66417 92.3624C6.58954 92.3084 6.53577 92.2326 6.51118 92.1468C6.48659 92.0609 6.49256 91.9697 6.52817 91.8874C6.56378 91.805 6.62703 91.7361 6.70813 91.6914L10.1613 89.8044C10.2091 89.7769 10.2622 89.7588 10.3176 89.7512C10.3729 89.7435 10.4293 89.7466 10.4833 89.7601C10.5374 89.7736 10.588 89.7973 10.6321 89.8298C10.6763 89.8623 10.7131 89.9029 10.7404 89.9492C10.7687 89.9947 10.7872 90.045 10.7948 90.0973C10.8025 90.1496 10.7991 90.2029 10.7849 90.254C10.7707 90.305 10.746 90.3529 10.7121 90.3949C10.6783 90.4368 10.636 90.472 10.5877 90.4983L7.13452 92.3902C7.07011 92.4246 6.99782 92.4434 6.92395 92.4451Z" fill="#455A64"/>
<path d="M37.5502 71.9783V74.8787C37.5502 75.4727 37.9924 75.7123 38.5346 75.4178L79.5572 52.9241V47.8623L38.5399 70.356C38.2518 70.5333 38.0119 70.7727 37.84 71.0547C37.668 71.3366 37.5687 71.6531 37.5502 71.9783Z" fill="#E6E6E6"/>
<path d="M84.7266 45.0218C85.253 44.7223 85.711 44.9669 85.711 45.561V48.4613C85.6919 48.7851 85.5928 49.1002 85.4219 49.3811C85.2509 49.6621 85.0127 49.901 84.7266 50.0787L79.5573 52.9091V47.8623L84.7266 45.0218Z" fill="#89B1FF"/>
<path d="M84.3422 49.0151L83.7685 48.8404C83.827 48.6098 83.8571 48.3736 83.8579 48.1365C83.8847 47.9152 83.8502 47.6911 83.7579 47.4863C83.6656 47.2815 83.5187 47.103 83.3315 46.9684C83.2013 46.9026 83.0546 46.8716 82.9072 46.8787C82.7598 46.8857 82.6172 46.9305 82.4946 47.0083C82.1275 47.2753 81.8319 47.6206 81.6317 48.016C81.4314 48.4115 81.3321 48.846 81.3417 49.2846C81.315 49.5059 81.3495 49.73 81.4418 49.9348C81.5341 50.1396 81.681 50.3181 81.8681 50.4528C81.9789 50.5121 82.1041 50.5431 82.2314 50.5426C82.3988 50.541 82.5626 50.4961 82.7051 50.4128C83.1451 50.127 83.4728 49.711 83.6369 49.2297L84.2159 49.3995C84.2366 49.4043 84.2583 49.4043 84.2791 49.3995C84.3329 49.4047 84.3867 49.3901 84.4295 49.3587C84.4722 49.3273 84.5006 49.2815 84.5087 49.2308C84.5169 49.1801 84.5041 49.1284 84.4731 49.0864C84.4421 49.0443 84.3952 49.0152 84.3422 49.0051V49.0151ZM82.4946 50.0634C82.4351 50.1044 82.365 50.1294 82.2917 50.1355C82.2185 50.1417 82.1448 50.1288 82.0787 50.0983C81.9626 49.9958 81.8739 49.8685 81.8199 49.727C81.7659 49.5855 81.7481 49.4339 81.7681 49.2846C81.7625 48.9175 81.8437 48.5538 82.0059 48.2203C82.168 47.8868 82.407 47.5921 82.7051 47.3577C82.7848 47.3122 82.8753 47.2864 82.9683 47.2829C83.0223 47.2813 83.0755 47.2952 83.121 47.3228C83.2371 47.4254 83.3258 47.5526 83.3798 47.6941C83.4338 47.8356 83.4516 47.9872 83.4316 48.1365C83.4364 48.5028 83.3548 48.8656 83.1927 49.1981C83.0305 49.5307 82.792 49.8246 82.4946 50.0584V50.0634Z" fill="#FAFAFA"/>
<path d="M20.5 80.2302L14.5779 83.46C14.2917 83.6352 14.0533 83.8722 13.8822 84.1516C13.7111 84.431 13.6122 84.7448 13.5936 85.0674V87.9577C13.5936 88.5518 14.0357 88.7914 14.5779 88.4969L20.5 85.2471C20.7856 85.0705 21.0232 84.8324 21.1934 84.5522C21.3635 84.272 21.4614 83.9576 21.4791 83.6347V80.7644C21.4791 80.1753 21.0422 79.9307 20.5 80.2302Z" fill="#89B1FF"/>
<path d="M123.491 23.8362C122.82 24.2519 122.262 24.8115 121.861 25.4697C121.461 26.1279 121.229 26.8663 121.185 27.6251C121.185 29.0228 122.238 29.5869 123.491 28.8931C124.163 28.4772 124.723 27.917 125.124 27.2579C125.526 26.5987 125.758 25.8592 125.802 25.0992C125.802 23.7014 124.765 23.1374 123.491 23.8362Z" fill="#89B1FF"/>
<path d="M123.222 26.0526C123.15 26.0537 123.08 26.0365 123.017 26.0027C122.944 25.9534 122.885 25.8872 122.846 25.8103C122.808 25.7334 122.79 25.6484 122.796 25.5634C122.806 25.3633 122.866 25.1683 122.971 24.9946C123.076 24.821 123.224 24.6737 123.401 24.565C123.473 24.511 123.561 24.4788 123.652 24.4726C123.744 24.4663 123.835 24.4862 123.915 24.5298C123.994 24.5734 124.058 24.6386 124.098 24.717C124.138 24.7953 124.152 24.8832 124.138 24.9693C124.127 25.1697 124.066 25.3647 123.96 25.5382C123.854 25.7118 123.706 25.859 123.528 25.9677C123.435 26.0196 123.33 26.0488 123.222 26.0526Z" fill="white"/>
<path d="M124.401 26.2075C124.273 26.1469 124.13 26.1204 123.987 26.1309C123.845 26.1415 123.707 26.1887 123.591 26.2674L123.254 26.4521C122.948 26.6359 122.693 26.8863 122.51 27.1824C122.327 27.4784 122.221 27.8117 122.201 28.1544V28.384C122.407 28.4685 122.633 28.501 122.856 28.4783C123.079 28.4555 123.292 28.3783 123.475 28.2542C124.006 27.941 124.445 27.5046 124.749 26.9863V26.9314C124.763 26.7924 124.739 26.6523 124.678 26.5252C124.617 26.3981 124.521 26.2885 124.401 26.2075Z" fill="white"/>
<path d="M115.326 30.6052V29.8314C115.326 28.9528 114.763 28.5485 114.068 28.9279C113.684 29.1887 113.369 29.5314 113.15 29.9285C112.93 30.3256 112.812 30.7659 112.805 31.2142V31.9081C112.788 32.3848 112.641 32.8492 112.378 33.2559C112.313 33.3622 112.277 33.4823 112.273 33.6053C112.273 33.83 112.415 33.9298 112.589 33.8349L115.542 32.2226C115.638 32.1556 115.717 32.0686 115.772 31.9681C115.826 31.8677 115.856 31.7566 115.858 31.6435C115.861 31.6002 115.855 31.5567 115.838 31.5161C115.822 31.4756 115.796 31.4389 115.763 31.4089C115.615 31.3309 115.494 31.2129 115.416 31.0699C115.338 30.9268 115.307 30.7651 115.326 30.6052Z" fill="#89B1FF"/>
<path d="M114.695 32.9419C114.691 33.157 114.634 33.3683 114.529 33.5589C114.424 33.7496 114.273 33.9143 114.089 34.0401C113.752 34.2198 113.479 34.0401 113.479 33.6058L114.695 32.9419Z" fill="#89B1FF"/>
<path d="M104.44 34.2792C104.601 34.1887 104.781 34.1309 104.967 34.1095C105.112 34.0933 105.26 34.1212 105.388 34.1893C105.512 34.2612 105.609 34.3675 105.667 34.4939C105.735 34.6676 105.762 34.8533 105.746 35.038C105.747 35.206 105.728 35.3736 105.688 35.5372C105.65 35.6835 105.601 35.827 105.54 35.9665C105.483 36.0979 105.418 36.2262 105.346 36.3508L105.135 36.7103C105.072 36.8251 105.009 36.9449 104.956 37.0597C104.906 37.1702 104.869 37.2857 104.846 37.4041C104.84 37.4607 104.826 37.5163 104.803 37.5689C104.786 37.6089 104.756 37.6435 104.719 37.6687L104.124 37.9932C104.088 37.9932 104.056 37.9932 104.035 37.9932C104.02 37.9779 104.008 37.9598 104.001 37.94C103.994 37.9202 103.991 37.8992 103.993 37.8784C103.992 37.7246 104.015 37.5715 104.061 37.4241C104.104 37.2794 104.156 37.1377 104.219 36.9998C104.288 36.865 104.356 36.7302 104.435 36.6054C104.514 36.4806 104.577 36.3558 104.645 36.246C104.714 36.1362 104.761 36.0214 104.809 35.9166C104.848 35.8228 104.87 35.723 104.872 35.622C104.872 35.4823 104.835 35.3924 104.767 35.3575C104.698 35.3225 104.582 35.3575 104.435 35.4174C104.309 35.4803 104.202 35.5731 104.124 35.6869C104.066 35.7766 104.019 35.872 103.982 35.9715L103.909 36.2211C103.892 36.2887 103.849 36.3477 103.787 36.3858L103.193 36.7103C103.182 36.7176 103.169 36.7215 103.156 36.7215C103.143 36.7215 103.13 36.7176 103.119 36.7103C103.107 36.6964 103.098 36.6805 103.093 36.6634C103.087 36.6462 103.085 36.6282 103.087 36.6104C103.095 36.4162 103.127 36.2235 103.182 36.0364C103.249 35.8146 103.337 35.599 103.445 35.3924C103.56 35.1745 103.701 34.9701 103.866 34.7834C104.024 34.5839 104.218 34.4131 104.44 34.2792ZM104.861 38.8917C104.861 38.9453 104.849 38.9981 104.824 39.0465C104.804 39.0895 104.771 39.126 104.73 39.1513L104.119 39.4858C104.113 39.4914 104.106 39.4958 104.099 39.4988C104.091 39.5018 104.083 39.5034 104.074 39.5034C104.066 39.5034 104.058 39.5018 104.05 39.4988C104.042 39.4958 104.035 39.4914 104.03 39.4858C104.014 39.4705 104.003 39.4524 103.996 39.4326C103.988 39.4128 103.986 39.3918 103.987 39.371V38.6571C103.989 38.6032 104.003 38.5502 104.03 38.5024C104.046 38.4576 104.078 38.419 104.119 38.3926L104.73 38.0581C104.743 38.0475 104.76 38.0417 104.777 38.0417C104.794 38.0417 104.811 38.0475 104.824 38.0581C104.838 38.0729 104.849 38.0903 104.855 38.1092C104.862 38.1282 104.864 38.1482 104.861 38.1679V38.8917Z" fill="#89B1FF"/>
<path d="M94.3123 53.069V62.9929C94.3123 63.7367 94.8387 64.0362 95.5388 63.6668L109.194 56.1789C109.548 55.96 109.844 55.6653 110.057 55.3186C110.27 54.9719 110.394 54.5827 110.42 54.1822V44.2732C110.42 43.5344 109.894 43.2299 109.194 43.6043L95.5072 51.0922C95.1612 51.3124 94.8734 51.6053 94.6662 51.9482C94.4589 52.291 94.3378 52.6745 94.3123 53.069Z" fill="#89B1FF"/>
<path opacity="0.5" d="M94.3123 53.069V62.9929C94.3123 63.7367 94.8387 64.0362 95.5388 63.6668L109.194 56.1789C109.548 55.96 109.844 55.6653 110.057 55.3186C110.27 54.9719 110.394 54.5827 110.42 54.1822V44.2732C110.42 43.5344 109.894 43.2299 109.194 43.6043L95.5072 51.0922C95.1612 51.3124 94.8734 51.6053 94.6662 51.9482C94.4589 52.291 94.3378 52.6745 94.3123 53.069Z" fill="white"/>
<path d="M100.15 57.2322V52.8942C100.154 52.678 100.244 52.4712 100.402 52.3155C100.56 52.1598 100.775 52.0669 101.003 52.0556L105.177 51.8809C105.646 51.8809 105.767 52.1155 105.456 52.4449L100.719 57.4369C100.408 57.7663 100.15 57.6765 100.15 57.2322Z" fill="#FAFAFA"/>
<path d="M114.347 41.4776L125.402 35.4124C125.707 35.2477 125.954 35.3675 125.954 35.677C125.941 35.852 125.883 36.0216 125.787 36.1716C125.691 36.3217 125.559 36.4482 125.402 36.5406L114.347 42.6058C114.042 42.7705 113.821 42.6507 113.821 42.3412C113.831 42.1683 113.884 42 113.976 41.8501C114.067 41.7001 114.194 41.5725 114.347 41.4776Z" fill="#455A64"/>
<path d="M114.347 43.7292L125.402 37.669C125.707 37.5043 125.954 37.6191 125.954 37.9336C125.941 38.1086 125.883 38.2781 125.787 38.4282C125.691 38.5783 125.559 38.7047 125.402 38.7972L114.347 44.8574C114.042 45.0271 113.821 44.9073 113.821 44.5978C113.831 44.4242 113.884 44.2552 113.976 44.1045C114.067 43.9537 114.194 43.8252 114.347 43.7292Z" fill="#455A64"/>
<path d="M114.347 45.9205L125.402 39.8553C125.707 39.6905 125.954 39.8103 125.954 40.1198C125.941 40.2949 125.883 40.4644 125.787 40.6145C125.691 40.7646 125.559 40.891 125.402 40.9834L114.347 47.0437C114.042 47.2134 113.821 47.0936 113.821 46.7841C113.831 46.611 113.884 46.4427 113.975 46.2926C114.067 46.1426 114.194 46.0151 114.347 45.9205Z" fill="#455A64"/>
<path d="M114.168 49.0507L121.769 44.8874C121.975 44.7726 122.143 44.8574 122.143 45.0671C122.134 45.1868 122.095 45.3028 122.03 45.4059C121.965 45.509 121.876 45.5964 121.769 45.6611L114.168 49.8244C113.963 49.9342 113.794 49.8544 113.794 49.6397C113.804 49.5207 113.843 49.4054 113.907 49.3031C113.972 49.2008 114.062 49.1143 114.168 49.0507Z" fill="#E0E0E0"/>
<path d="M114.168 50.5983L121.769 46.435C121.975 46.3202 122.143 46.405 122.143 46.6147C122.134 46.7344 122.095 46.8504 122.03 46.9535C121.965 47.0566 121.876 47.144 121.769 47.2088L114.168 51.372C113.963 51.4818 113.794 51.402 113.794 51.1873C113.804 51.0683 113.843 50.953 113.907 50.8507C113.972 50.7484 114.062 50.6619 114.168 50.5983Z" fill="#E0E0E0"/>
<path d="M114.168 52.0957L121.769 47.9374C121.975 47.8226 122.143 47.9025 122.143 48.1172C122.134 48.2369 122.095 48.3529 122.03 48.456C121.965 48.5591 121.876 48.6465 121.769 48.7112L114.168 52.8695C113.963 52.9843 113.794 52.9044 113.794 52.6898C113.804 52.57 113.843 52.454 113.907 52.3509C113.972 52.2478 114.062 52.1605 114.168 52.0957Z" fill="#E0E0E0"/>
<path d="M94.3123 70.7154V80.6294C94.3123 81.3732 94.8387 81.6727 95.5388 81.3033L109.194 73.8154C109.548 73.5964 109.844 73.3018 110.057 72.9551C110.27 72.6083 110.394 72.2191 110.42 71.8186V61.9096C110.42 61.1658 109.894 60.8663 109.194 61.2357L95.5072 68.7236C95.1589 68.9451 94.8696 69.2403 94.6622 69.586C94.4548 69.9317 94.335 70.3183 94.3123 70.7154Z" fill="#89B1FF"/>
<path opacity="0.5" d="M94.3123 70.7154V80.6294C94.3123 81.3732 94.8387 81.6727 95.5388 81.3033L109.194 73.8154C109.548 73.5964 109.844 73.3018 110.057 72.9551C110.27 72.6083 110.394 72.2191 110.42 71.8186V61.9096C110.42 61.1658 109.894 60.8663 109.194 61.2357L95.5072 68.7236C95.1589 68.9451 94.8696 69.2403 94.6622 69.586C94.4548 69.9317 94.335 70.3183 94.3123 70.7154Z" fill="white"/>
<path d="M100.15 74.8742V70.5412C100.152 70.3246 100.242 70.1171 100.401 69.9612C100.559 69.8053 100.775 69.7127 101.003 69.7026L105.177 69.5278C105.646 69.5278 105.767 69.7625 105.456 70.0919L100.719 75.0839C100.408 75.4133 100.15 75.3235 100.15 74.8742Z" fill="#FAFAFA"/>
<path d="M114.347 59.1193L125.402 53.0591C125.707 52.8944 125.954 53.0092 125.954 53.3237C125.941 53.4988 125.883 53.6683 125.787 53.8184C125.691 53.9685 125.559 54.0949 125.402 54.1873L114.347 60.2475C114.042 60.4172 113.821 60.2974 113.821 59.9879C113.831 59.8143 113.884 59.6454 113.976 59.4946C114.067 59.3438 114.194 59.2153 114.347 59.1193Z" fill="#455A64"/>
<path d="M114.347 61.3757L125.402 55.3155C125.707 55.1507 125.954 55.2655 125.954 55.58C125.94 55.7549 125.882 55.9241 125.786 56.0741C125.69 56.2241 125.559 56.3506 125.402 56.4437L114.347 62.5039C114.042 62.6686 113.821 62.5538 113.821 62.2393C113.831 62.0663 113.884 61.8981 113.976 61.7481C114.067 61.5982 114.194 61.4706 114.347 61.3757Z" fill="#455A64"/>
<path d="M114.347 63.5622L125.402 57.502C125.707 57.3373 125.954 57.4521 125.954 57.7666C125.941 57.9416 125.883 58.1112 125.787 58.2612C125.691 58.4113 125.559 58.5378 125.402 58.6302L114.347 64.6904C114.042 64.8551 113.821 64.7403 113.821 64.4258C113.832 64.253 113.886 64.0851 113.977 63.9353C114.068 63.7854 114.195 63.6577 114.347 63.5622Z" fill="#455A64"/>
<path d="M114.168 66.6919L121.769 62.5336C121.975 62.4188 122.143 62.4987 122.143 62.7133C122.134 62.8331 122.095 62.9491 122.03 63.0522C121.965 63.1553 121.876 63.2427 121.769 63.3074L114.168 67.4856C113.963 67.6004 113.794 67.5206 113.794 67.3059C113.801 67.1827 113.838 67.0627 113.903 66.9559C113.968 66.8491 114.059 66.7586 114.168 66.6919Z" fill="#E0E0E0"/>
<path d="M114.168 68.2395L121.769 64.0812C121.975 63.9664 122.143 64.0463 122.143 64.261C122.134 64.3807 122.095 64.4967 122.03 64.5998C121.965 64.7029 121.876 64.7903 121.769 64.855L114.168 69.0133C113.963 69.1281 113.794 69.0482 113.794 68.8336C113.804 68.7138 113.843 68.5978 113.907 68.4947C113.972 68.3916 114.062 68.3043 114.168 68.2395Z" fill="#E0E0E0"/>
<path d="M114.168 69.7422L121.769 65.5839C121.975 65.4691 122.143 65.549 122.143 65.7636C122.134 65.8834 122.095 65.9994 122.03 66.1025C121.965 66.2056 121.876 66.2929 121.769 66.3577L114.168 70.516C113.963 70.6308 113.794 70.5509 113.794 70.3363C113.804 70.2165 113.843 70.1005 113.907 69.9974C113.972 69.8943 114.062 69.8069 114.168 69.7422Z" fill="#E0E0E0"/>
<path d="M94.3123 88.347V98.261C94.3123 99.0048 94.8387 99.3043 95.5388 98.9349L109.194 91.447C109.548 91.228 109.844 90.9334 110.057 90.5867C110.27 90.2399 110.394 89.8507 110.42 89.4502V79.5412C110.42 78.8024 109.894 78.4979 109.194 78.8723L95.5072 86.3602C95.1598 86.5815 94.8712 86.876 94.6639 87.2207C94.4566 87.5653 94.3362 87.9509 94.3123 88.347Z" fill="#89B1FF"/>
<path opacity="0.5" d="M94.3123 88.347V98.261C94.3123 99.0048 94.8387 99.3043 95.5388 98.9349L109.194 91.447C109.548 91.228 109.844 90.9334 110.057 90.5867C110.27 90.2399 110.394 89.8507 110.42 89.4502V79.5412C110.42 78.8024 109.894 78.4979 109.194 78.8723L95.5072 86.3602C95.1598 86.5815 94.8712 86.876 94.6639 87.2207C94.4566 87.5653 94.3362 87.9509 94.3123 88.347Z" fill="white"/>
<path d="M100.15 92.5105V88.1725C100.154 87.9563 100.244 87.7495 100.402 87.5938C100.56 87.4381 100.775 87.3452 101.003 87.3339L105.177 87.1592C105.646 87.1592 105.767 87.3938 105.456 87.7233L100.719 92.7152C100.408 93.0447 100.15 92.9448 100.15 92.5105Z" fill="#FAFAFA"/>
<path d="M114.347 76.7559L125.402 70.6907C125.707 70.526 125.954 70.6458 125.954 70.9553C125.941 71.1304 125.883 71.2999 125.787 71.45C125.691 71.6001 125.559 71.7265 125.402 71.8189L114.347 77.8841C114.042 78.0488 113.821 77.929 113.821 77.6195C113.831 77.4465 113.884 77.2781 113.975 77.1281C114.067 76.978 114.194 76.8505 114.347 76.7559Z" fill="#455A64"/>
<path d="M114.347 79.007L125.402 72.9468C125.707 72.7821 125.954 72.8969 125.954 73.2114C125.941 73.3865 125.883 73.556 125.787 73.7061C125.691 73.8562 125.559 73.9826 125.402 74.075L114.347 80.1352C114.042 80.3049 113.821 80.1851 113.821 79.8756C113.831 79.702 113.884 79.5331 113.976 79.3823C114.067 79.2315 114.194 79.103 114.347 79.007Z" fill="#455A64"/>
<path d="M114.347 81.1988L125.402 75.1336C125.707 74.9689 125.954 75.0887 125.954 75.3982C125.941 75.5732 125.883 75.7428 125.787 75.8928C125.691 76.0429 125.559 76.1693 125.402 76.2618L114.347 82.322C114.042 82.4917 113.821 82.3719 113.821 82.0624C113.831 81.8893 113.884 81.721 113.975 81.5709C114.067 81.4209 114.194 81.2934 114.347 81.1988Z" fill="#455A64"/>
<path d="M114.168 84.3285L121.769 80.1652C121.975 80.0504 122.143 80.1353 122.143 80.3449C122.134 80.4647 122.095 80.5807 122.03 80.6838C121.965 80.7869 121.876 80.8742 121.769 80.939L114.168 85.1022C113.963 85.2121 113.794 85.1322 113.794 84.9175C113.804 84.7985 113.843 84.6832 113.907 84.5809C113.972 84.4786 114.062 84.3922 114.168 84.3285Z" fill="#E0E0E0"/>
<path d="M114.168 85.8761L121.769 81.7128C121.975 81.598 122.143 81.6829 122.143 81.8925C122.134 82.0123 122.095 82.1283 122.03 82.2314C121.965 82.3345 121.876 82.4219 121.769 82.4866L114.168 86.6499C113.963 86.7597 113.794 86.6798 113.794 86.4652C113.804 86.3461 113.843 86.2308 113.907 86.1285C113.972 86.0262 114.062 85.9398 114.168 85.8761Z" fill="#E0E0E0"/>
<path d="M114.168 87.3736L121.769 83.2153C121.975 83.1005 122.143 83.1803 122.143 83.395C122.134 83.5147 122.095 83.6307 122.03 83.7338C121.965 83.8369 121.876 83.9243 121.769 83.989L114.168 88.1473C113.963 88.2621 113.794 88.1823 113.794 87.9676C113.804 87.8479 113.843 87.7319 113.907 87.6288C113.972 87.5257 114.062 87.4383 114.168 87.3736Z" fill="#E0E0E0"/>
<path d="M94.3123 105.993V115.907C94.3123 116.646 94.8387 116.946 95.5388 116.576L109.194 109.088C109.549 108.87 109.844 108.575 110.057 108.228C110.27 107.882 110.395 107.492 110.42 107.092V97.1826C110.42 96.4438 109.894 96.1443 109.194 96.5137L95.5072 104.002C95.1589 104.223 94.8696 104.518 94.6622 104.864C94.4548 105.21 94.335 105.596 94.3123 105.993Z" fill="#89B1FF"/>
<path opacity="0.5" d="M94.3123 105.993V115.907C94.3123 116.646 94.8387 116.946 95.5388 116.576L109.194 109.088C109.549 108.87 109.844 108.575 110.057 108.228C110.27 107.882 110.395 107.492 110.42 107.092V97.1826C110.42 96.4438 109.894 96.1443 109.194 96.5137L95.5072 104.002C95.1589 104.223 94.8696 104.518 94.6622 104.864C94.4548 105.21 94.335 105.596 94.3123 105.993Z" fill="white"/>
<path d="M100.15 110.157V105.824C100.152 105.607 100.242 105.398 100.4 105.242C100.559 105.085 100.774 104.991 101.003 104.98L105.177 104.81C105.646 104.81 105.767 105.04 105.456 105.374L100.719 110.366C100.408 110.696 100.15 110.601 100.15 110.157Z" fill="#FAFAFA"/>
<path d="M114.347 94.4024L125.402 88.3422C125.707 88.1725 125.954 88.2923 125.954 88.6018C125.941 88.777 125.884 88.9467 125.788 89.0968C125.692 89.247 125.559 89.3733 125.402 89.4654L114.347 95.5306C114.042 95.6954 113.821 95.5805 113.821 95.2661C113.831 95.0931 113.884 94.9249 113.976 94.7749C114.067 94.6249 114.194 94.4974 114.347 94.4024Z" fill="#455A64"/>
<path d="M114.347 96.6588L125.402 90.5935C125.707 90.4288 125.954 90.5486 125.954 90.8581C125.941 91.0332 125.883 91.2027 125.787 91.3528C125.691 91.5029 125.559 91.6293 125.402 91.7217L114.347 97.7869C114.042 97.9517 113.821 97.8319 113.821 97.5224C113.831 97.3494 113.884 97.1812 113.976 97.0312C114.067 96.8812 114.194 96.7537 114.347 96.6588Z" fill="#455A64"/>
<path d="M114.347 98.8453L125.402 92.7801C125.707 92.6153 125.954 92.7351 125.954 93.0446C125.941 93.2198 125.884 93.3895 125.788 93.5396C125.692 93.6898 125.559 93.8161 125.402 93.9082L114.347 99.9735C114.042 100.138 113.821 100.018 113.821 99.7089C113.831 99.5359 113.884 99.3677 113.976 99.2177C114.067 99.0678 114.194 98.9402 114.347 98.8453Z" fill="#455A64"/>
<path d="M114.168 101.976L121.769 97.8123C121.975 97.7025 122.143 97.7823 122.143 97.997C122.134 98.116 122.095 98.2314 122.03 98.3337C121.965 98.436 121.876 98.5224 121.769 98.586L114.168 102.749C113.963 102.864 113.794 102.779 113.794 102.57C113.804 102.45 113.843 102.334 113.907 102.231C113.972 102.128 114.062 102.04 114.168 101.976Z" fill="#E0E0E0"/>
<path d="M114.168 103.522L121.769 99.3592C121.975 99.2493 122.143 99.3292 122.143 99.5439C122.134 99.6629 122.095 99.7782 122.03 99.8805C121.965 99.9828 121.876 100.069 121.769 100.133L114.168 104.296C113.963 104.411 113.794 104.326 113.794 104.116C113.804 103.997 113.843 103.881 113.907 103.778C113.972 103.675 114.062 103.587 114.168 103.522Z" fill="#E0E0E0"/>
<path d="M114.168 105.02L121.769 100.862C121.975 100.747 122.143 100.832 122.143 101.042C122.134 101.161 122.095 101.277 122.03 101.381C121.965 101.484 121.876 101.571 121.769 101.636L114.168 105.794C113.963 105.909 113.794 105.829 113.794 105.614C113.804 105.495 113.843 105.379 113.907 105.275C113.972 105.172 114.062 105.085 114.168 105.02Z" fill="#E0E0E0"/>
<path d="M9.30336 153.716L50.5839 131.113C51.2577 130.743 51.8104 131.008 51.8052 131.702C51.7749 132.092 51.6482 132.471 51.4351 132.807C51.222 133.142 50.9286 133.425 50.5787 133.634L9.30336 156.237C8.62957 156.607 8.07684 156.342 8.07684 155.648C8.10707 155.257 8.23385 154.879 8.44693 154.543C8.66 154.208 8.9534 153.924 9.30336 153.716Z" fill="#455A64"/>
<path d="M8.76648 158.28L31.9282 145.615C32.3125 145.405 32.6178 145.55 32.6178 145.944C32.6 146.164 32.5283 146.376 32.4086 146.564C32.2889 146.752 32.1243 146.911 31.9282 147.028L8.7928 159.692C8.41379 159.902 8.10321 159.752 8.10321 159.363C8.11809 159.146 8.18572 158.935 8.30079 158.747C8.41586 158.559 8.57525 158.399 8.76648 158.28Z" fill="#E0E0E0"/>
<path d="M17.7785 157.775L47.3465 141.591C48.0203 141.216 48.5731 141.481 48.5731 142.18C48.5428 142.57 48.416 142.949 48.203 143.285C47.9899 143.62 47.6965 143.904 47.3465 144.112L17.7785 160.296C17.0994 160.665 16.5519 160.405 16.5519 159.706C16.5822 159.316 16.709 158.937 16.922 158.602C17.1351 158.266 17.4285 157.983 17.7785 157.775Z" fill="#455A64"/>
<path d="M17.2363 162.333L28.6645 156.078C29.0488 155.868 29.3541 156.018 29.3541 156.407C29.3375 156.627 29.2663 156.839 29.1465 157.027C29.0266 157.216 28.8615 157.374 28.6645 157.491L17.2363 163.745C16.8573 163.95 16.5519 163.805 16.5519 163.416C16.568 163.197 16.6383 162.985 16.7572 162.797C16.8761 162.608 17.0403 162.449 17.2363 162.333Z" fill="#E0E0E0"/>
<path d="M11.2721 160.65C10.3343 161.23 9.55396 162.012 8.99422 162.931C8.43448 163.85 8.11116 164.882 8.05048 165.942C8.05048 167.889 9.49282 168.682 11.2721 167.704C12.2104 167.125 12.9912 166.344 13.551 165.424C14.1108 164.505 14.4338 163.473 14.4937 162.413C14.4937 160.466 13.0513 159.677 11.2721 160.65Z" fill="#89B1FF"/>
<path d="M10.8984 163.755C10.7968 163.759 10.6962 163.735 10.6088 163.685C10.5039 163.62 10.4195 163.529 10.3648 163.421C10.3102 163.314 10.2871 163.195 10.2983 163.076C10.3126 162.796 10.3975 162.524 10.5459 162.281C10.6943 162.039 10.9018 161.834 11.151 161.684C11.2535 161.615 11.3738 161.574 11.499 161.565C11.6243 161.556 11.7497 161.58 11.8617 161.634C11.9667 161.699 12.051 161.79 12.1057 161.897C12.1604 162.005 12.1834 162.124 12.1723 162.243C12.1581 162.522 12.0738 162.794 11.9264 163.036C11.7789 163.279 11.5727 163.484 11.3247 163.635C11.1959 163.71 11.049 163.751 10.8984 163.755Z" fill="white"/>
<path d="M12.5723 163.96C12.3924 163.875 12.1917 163.838 11.9914 163.853C11.7912 163.868 11.599 163.934 11.4353 164.045L10.972 164.299C10.5469 164.557 10.193 164.908 9.94027 165.322C9.68748 165.736 9.54308 166.202 9.51917 166.68V166.995C9.80664 167.114 10.1219 167.16 10.4339 167.129C10.7459 167.097 11.0439 166.989 11.2984 166.815C12.04 166.379 12.6523 165.771 13.0777 165.048V164.973C13.0955 164.777 13.0581 164.58 12.9693 164.402C12.8805 164.224 12.7435 164.071 12.5723 163.96Z" fill="white"/>
<path d="M66.8445 132.291L80.4994 124.803C81.1785 124.434 81.7312 124.733 81.7312 125.477V127.828C81.7047 128.229 81.5794 128.619 81.3655 128.965C81.1516 129.312 80.855 129.607 80.4994 129.825L66.8445 137.313C66.1654 137.682 65.618 137.383 65.618 136.639V134.288C65.6439 133.887 65.7683 133.498 65.9813 133.151C66.1943 132.805 66.4899 132.51 66.8445 132.291Z" fill="#89B1FF"/>
<path opacity="0.7" d="M66.8445 132.291L80.4994 124.803C81.1785 124.434 81.7312 124.733 81.7312 125.477V127.828C81.7047 128.229 81.5794 128.619 81.3655 128.965C81.1516 129.312 80.855 129.607 80.4994 129.825L66.8445 137.313C66.1654 137.682 65.618 137.383 65.618 136.639V134.288C65.6439 133.887 65.7683 133.498 65.9813 133.151C66.1943 132.805 66.4899 132.51 66.8445 132.291Z" fill="white"/>
<path d="M86.7216 123.785V123.011C86.7216 122.132 86.1583 121.723 85.4582 122.107C85.074 122.369 84.7596 122.711 84.5402 123.108C84.3208 123.505 84.2026 123.946 84.1948 124.394V125.088C84.1802 125.564 84.0351 126.028 83.7737 126.435C83.7107 126.544 83.6764 126.666 83.6737 126.79C83.6737 127.015 83.8158 127.114 83.9895 127.02L86.9374 125.402C87.035 125.337 87.115 125.252 87.1708 125.152C87.2267 125.052 87.2567 124.941 87.2585 124.828C87.2627 124.785 87.2563 124.741 87.2399 124.7C87.2235 124.66 87.1974 124.623 87.1638 124.593C87.0148 124.514 86.8936 124.396 86.815 124.252C86.7364 124.108 86.7039 123.946 86.7216 123.785Z" fill="#455A64"/>
<path d="M86.0636 126.116C86.0614 126.331 86.0054 126.543 85.9001 126.734C85.7949 126.925 85.6435 127.09 85.4582 127.214C85.1266 127.399 84.8528 127.214 84.8528 126.78L86.0636 126.116Z" fill="#455A64"/>
<path d="M61.9543 127.574C61.9272 127.754 61.8295 127.918 61.6806 128.033C61.7101 128.103 61.7244 128.178 61.7227 128.253C61.7108 128.361 61.6722 128.466 61.61 128.558C61.5478 128.65 61.4638 128.726 61.3647 128.782L59.7592 129.666V127.669C59.7592 127.634 60.2014 126.715 60.2382 126.576C60.2593 126.34 60.2593 126.103 60.2382 125.867C60.278 125.796 60.3416 125.74 60.4188 125.707C60.4961 125.675 60.5826 125.668 60.6646 125.687C60.7086 125.707 60.7426 125.743 60.7594 125.787C60.8061 125.887 60.8397 125.993 60.8594 126.101C60.88 126.292 60.8675 126.484 60.8226 126.67L61.7964 126.136C61.8233 126.117 61.8547 126.105 61.8878 126.101C61.9209 126.097 61.9546 126.1 61.9859 126.111C62.0189 126.134 62.0454 126.164 62.0629 126.199C62.0804 126.234 62.0883 126.272 62.0859 126.311C62.0788 126.457 62.0235 126.596 61.928 126.71C61.928 126.71 62.1228 126.655 62.1228 126.9C62.1174 126.987 62.0937 127.072 62.053 127.15C62.0123 127.228 61.9555 127.298 61.8859 127.354C61.8859 127.354 61.9543 127.389 61.9543 127.574Z" fill="#89B1FF"/>
<path d="M59.5275 129.535V129.96C59.5256 129.989 59.5166 130.018 59.5011 130.044C59.4856 130.07 59.464 130.093 59.438 130.109L58.9116 130.394C58.8823 130.401 58.8514 130.401 58.8221 130.394V128.108L59.2432 127.878L59.4959 127.738C59.5029 127.768 59.5029 127.799 59.4959 127.828L59.5275 129.535Z" fill="#89B1FF"/>
<path d="M73.3457 119.782C73.3465 119.751 73.3389 119.721 73.3238 119.695C73.3087 119.668 73.2865 119.646 73.2594 119.629C73.2323 119.613 73.2013 119.604 73.1693 119.603C73.1374 119.602 73.1056 119.608 73.0772 119.622C73.1034 119.536 73.1175 119.447 73.1193 119.357C73.1193 119.188 72.9719 119.103 72.7614 119.218L71.1558 120.096V122.093C71.3314 122.27 71.4933 122.458 71.6401 122.657C71.6612 122.895 71.6612 123.133 71.6401 123.371C71.6401 123.446 71.8981 123.336 72.0665 123.081C72.1044 123.018 72.1361 122.951 72.1613 122.882C72.2042 122.743 72.2359 122.601 72.256 122.457C72.2808 122.279 72.2701 122.098 72.2244 121.923L73.193 121.394C73.2737 121.351 73.3395 121.287 73.3825 121.209C73.4425 121.118 73.4769 121.013 73.4825 120.905C73.4825 120.72 73.3773 120.68 73.3246 120.675C73.3836 120.625 73.4313 120.563 73.4647 120.494C73.4982 120.426 73.5168 120.352 73.5194 120.276C73.5194 120.136 73.4299 120.031 73.2825 120.081C73.3273 119.987 73.3489 119.885 73.3457 119.782Z" fill="#89B1FF"/>
<path d="M70.9242 120.475V120.056C70.9242 120.001 70.882 119.976 70.8294 120.006L70.303 120.285C70.2686 120.309 70.2368 120.335 70.2083 120.365V122.651L70.6346 122.422L70.882 122.282C70.8967 122.245 70.9056 122.207 70.9084 122.167L70.9242 120.475Z" fill="#89B1FF"/>
<path d="M85.7423 113.361L83.9736 112.862V113.751C83.2737 114.033 82.6704 114.495 82.2312 115.084C81.2574 116.461 81.9628 117.25 82.2891 117.305C82.2891 117.305 81.7627 116.971 82.3418 115.982C82.7358 115.436 83.3097 115.029 83.9736 114.824V115.823L85.7423 113.361Z" fill="#89B1FF"/>
<path d="M64.5442 124.439L66.6919 123.266C67.371 122.891 67.9185 123.156 67.9185 123.855C67.8882 124.246 67.7614 124.624 67.5484 124.96C67.3353 125.295 67.0419 125.579 66.6919 125.787L64.5442 126.96C63.8651 127.334 63.3177 127.07 63.3177 126.371C63.3479 125.98 63.4747 125.602 63.6878 125.266C63.9009 124.93 64.1942 124.647 64.5442 124.439Z" fill="#E0E0E0"/>
<path d="M76.0513 118.139L78.1991 116.961C78.8781 116.591 79.4256 116.856 79.4256 117.55C79.3954 117.941 79.2686 118.319 79.0555 118.655C78.8424 118.99 78.549 119.274 78.1991 119.482L76.0513 120.66C75.3723 121.029 74.8248 120.77 74.8248 120.071C74.8551 119.68 74.9818 119.302 75.1949 118.966C75.408 118.63 75.7014 118.347 76.0513 118.139Z" fill="#E0E0E0"/>
</svg>
